<svg width="128" height="128" xmlns="http://www.w3.org/2000/svg" width="512px" height="512px"><linearGradient id="a" gradientUnits="userSpaceOnUse" x1="64.166" x2="64.166" y1="64.873" y2="116.23"><stop offset=".02" stop-color="#f7bc00"/><stop offset="1" stop-color="#fcd73e"/></linearGradient><path d="M29.63 69.84c-.03.21-.04.42-.04.63 0 2.51 2.23 4.35 5 4.1 2.76-.25 5-2.49 5-5 0-.69-.17-1.33-.47-1.89L78 58.83c.7 4.7 4.97 7.97 10.12 7.51 5.65-.51 10.23-5.31 10.23-10.74 0-.47-.04-.93-.1-1.38 0 0 12.61-2.87 12.71-2.9 1.9-.43 4.18-1.44 6.16-1.02 2.81.6 2.98 3.57 2.99 5.95.04 12.83-.31 25.68-.13 38.51.05 3.76-2.86 7.22-6.75 8.03L8.23 124V75.38c0-.15 21.38-5.54 21.4-5.54z" fill="url(#a)"/><path d="M98.24 54.22c-1.02-3.33-5.16-5.5-9.94-5.07-5.55.5-10.34 4.47-10.34 8.73 0 .34-.03.63.03.95L39.1 67.69l-.04.01c-.79-1.05-2.5-1.67-4.48-1.49-2.69.24-4.87 1.86-4.97 3.64L8.25 75.38l56.1-43.88c5.11-4.03 11.63-5.75 17.7-4.65 5.82 1.05 13.08 2.78 18.62 5.46 6.45 3.13 12.41 8.43 16.22 12.26.24.25 1.62 1.75 2.34 3.84.75 2.18.85 5 .87 8.34-.65-3.9.91-8.9-9.14-5.41l-12.72 2.88zM85.53 37.09c0-1.98-2.26-3.38-5.06-3.12-2.8.25-5.07 2.06-5.07 4.04s2.26 3.38 5.07 3.13c2.79-.26 5.06-2.07 5.06-4.05zM63.67 49.35c0-2.68-3.39-4.55-7.57-4.17-4.18.38-7.57 2.86-7.57 5.54 0 2.69 3.39 4.56 7.57 4.18 4.18-.38 7.57-2.86 7.57-5.55z" fill="#ffe959"/><path d="M78.44 29.6c1.05 0 2.1.09 3.11.28 7.4 1.34 13.57 3.14 17.85 5.21 6.05 2.93 11.71 7.97 15.38 11.66.31.31 1.19 1.41 1.64 2.72.52 1.51.64 3.67.68 5.57v.12c.03.42.03.86.03 1.19.01 5.4-.04 10.91-.09 16.24-.07 7.31-.14 14.86-.04 22.3.03 2.32-1.88 4.54-4.34 5.05l-101.4 20.48v-43.5l54.98-42.99c3.55-2.79 7.88-4.33 12.2-4.33m0-3c-4.95 0-9.96 1.75-14.05 4.98L8.27 75.46v48.62l104.99-21.2c3.89-.81 6.8-4.27 6.75-8.03-.17-12.83.17-25.68.13-38.51 0-.44-.01-.9-.04-1.37-.06-2.54-.23-4.73-.84-6.49-.72-2.08-2.09-3.59-2.34-3.84-3.81-3.83-9.76-9.13-16.22-12.26-5.54-2.68-12.8-4.41-18.62-5.46a20.11 20.11 0 0 0-3.64-.32z" fill="#424242" opacity=".2"/><radialGradient id="b" cx="101.233" cy="85.379" gradientUnits="userSpaceOnUse" r="7.644"><stop offset=".133" stop-color="#c77315"/><stop offset=".366" stop-color="#ca7714"/><stop offset=".602" stop-color="#d48313"/><stop offset=".838" stop-color="#e39710"/><stop offset=".985" stop-color="#f0a80e"/></radialGradient><path d="M104.48 79.66c4.3-.39 7.79 2.64 7.79 6.77s-3.49 7.78-7.79 8.17-7.78-2.64-7.78-6.77 3.48-7.78 7.78-8.17z" fill="url(#b)"/><path d="M98.09 54.25l.15-.03c.06.45.1.91.1 1.38 0 5.42-4.58 10.23-10.23 10.74-5.14.46-9.41-2.82-10.11-7.51l.36-.08 19.73-4.5z" fill="#c47930"/><path d="M98.24 54.22L78 58.83c-.05-.31-.03-.61-.03-.95 0-4.26 4.79-8.23 10.34-8.73 4.77-.43 8.92 1.73 9.93 5.07zM80.47 33.97c2.8-.25 5.06 1.15 5.06 3.12 0 1.98-2.26 3.79-5.06 4.04S75.4 39.98 75.4 38c0-1.97 2.26-3.78 5.07-4.03z" fill="#e5ab4c"/><radialGradient id="c" cx="63" cy="82" gradientUnits="userSpaceOnUse" r="17.442"><stop offset=".133" stop-color="#c77315"/><stop offset=".366" stop-color="#ca7714"/><stop offset=".602" stop-color="#d48313"/><stop offset=".838" stop-color="#e39710"/><stop offset=".985" stop-color="#f0a80e"/></radialGradient><path d="M66.39 72.48c7.33-.66 13.26 4.51 13.26 11.53 0 7.03-5.94 13.26-13.26 13.93-7.33.66-13.26-4.5-13.26-11.53 0-7.03 5.94-13.27 13.26-13.93z" fill="url(#c)"/><path d="M56.1 45.17c4.18-.38 7.57 1.49 7.57 4.17 0 2.69-3.39 5.17-7.57 5.55-4.18.38-7.57-1.49-7.57-4.18 0-2.68 3.39-5.16 7.57-5.54z" fill="#e5ab4c"/><radialGradient id="d" cx="37.681" cy="99.09" gradientUnits="userSpaceOnUse" r="6.598"><stop offset=".133" stop-color="#c77315"/><stop offset=".366" stop-color="#ca7714"/><stop offset=".602" stop-color="#d48313"/><stop offset=".838" stop-color="#e39710"/><stop offset=".985" stop-color="#f0a80e"/></radialGradient><path d="M41.06 94.45c3.71-.33 6.72 2.28 6.72 5.84s-3.01 6.72-6.72 7.05-6.72-2.28-6.72-5.84 3.01-6.71 6.72-7.05z" fill="url(#d)"/><path d="M39.07 67.69l.04-.01c.3.56.47 1.2.47 1.89 0 2.51-2.24 4.75-5 5s-5-1.59-5-4.1c0-.21.01-.42.04-.63l9.45-2.15z" fill="#c47930"/><path d="M39.07 67.69l-9.44 2.15h-.01c.1-1.78 2.28-3.4 4.97-3.64 1.98-.18 3.69.44 4.48 1.49z" fill="#e5ab4c"/><radialGradient id="e" cx="18.854" cy="86.996" gradientUnits="userSpaceOnUse" r="4.895"><stop offset=".133" stop-color="#c77315"/><stop offset=".366" stop-color="#ca7714"/><stop offset=".602" stop-color="#d48313"/><stop offset=".838" stop-color="#e39710"/><stop offset=".985" stop-color="#f0a80e"/></radialGradient><path d="M21.29 84.66c1.98-.18 3.6 1.22 3.6 3.13s-1.61 3.6-3.6 3.78c-1.99.18-3.6-1.22-3.6-3.13 0-1.9 1.61-3.6 3.6-3.78z" fill="url(#e)"/></svg>