<svg viewBox="0 0 128 128" xmlns="http://www.w3.org/2000/svg"><linearGradient id="a" x1="63" x2="63" y1="18.717" y2="106.7" gradientUnits="userSpaceOnUse"><stop stop-color="#FEE133" offset=".5"/><stop stop-color="#FEDE32" offset=".612"/><stop stop-color="#FCD32F" offset=".708"/><stop stop-color="#FAC12B" offset=".797"/><stop stop-color="#F7A924" offset=".883"/><stop stop-color="#F6A323" offset=".9"/></linearGradient><path d="M63 118.89C35.07 118.89 5 101.4 5 63S35.07 7.11 63 7.11c15.48 0 29.81 5.12 40.36 14.43C114.9 31.72 121 46.06 121 63c0 16.86-6.1 31.17-17.64 41.39-10.58 9.35-24.91 14.5-40.36 14.5z" fill="url(#a)"/><path d="M63 9.11c14.99 0 28.86 4.95 39.03 13.93C113.13 32.83 119 46.65 119 63c0 16.27-5.87 30.07-16.97 39.89-10.21 9.03-24.07 14-39.03 14-15.04 0-28.9-4.91-39.04-13.82C12.86 93.32 7 79.46 7 63c0-16.54 5.86-30.42 16.96-40.15C34.07 13.99 47.93 9.11 63 9.11m0-4c-31.15 0-60 20-60 57.89 0 37.68 28.85 57.89 60 57.89s60-20.73 60-57.89c0-37.37-28.85-57.89-60-57.89z" fill="#EB8F00"/><radialGradient id="b" cx="25.701" cy="72.699" r="19.444" gradientTransform="matrix(.9791 0 0 .9301 2.087 10.544)" gradientUnits="userSpaceOnUse"><stop stop-color="#ED7770" offset="0"/><stop stop-color="#ED7770" stop-opacity="0" offset=".9"/></radialGradient><circle cx="27.25" cy="78.16" r="17.5" fill="url(#b)" opacity=".8"/><radialGradient id="c" cx="100.77" cy="72.699" r="19.444" gradientTransform="matrix(.9791 0 0 .9301 2.087 10.544)" gradientUnits="userSpaceOnUse"><stop stop-color="#ED7770" offset="0"/><stop stop-color="#ED7770" stop-opacity="0" offset=".9"/></radialGradient><circle cx="100.75" cy="78.16" r="17.5" fill="url(#c)" opacity=".8"/><circle cx="39" cy="59.06" r="19.38" fill="#fff"/><path d="M39 41.68c9.58 0 17.38 7.8 17.38 17.38S48.58 76.44 39 76.44s-17.38-7.8-17.38-17.38S29.42 41.68 39 41.68m0-4c-11.81 0-21.38 9.57-21.38 21.38S27.19 80.44 39 80.44s21.38-9.57 21.38-21.38S50.81 37.68 39 37.68z" fill="#EB8F00"/><circle cx="38.88" cy="58.78" r="12.5" fill="#242424"/><circle cx="33.77" cy="53.67" r="3.98" fill="#fff"/><circle cx="46.27" cy="63.9" r="1.7" fill="#fff"/><circle cx="89" cy="59.06" r="19.38" fill="#fff"/><path d="M89 41.68c9.58 0 17.38 7.8 17.38 17.38S98.58 76.44 89 76.44s-17.38-7.8-17.38-17.38S79.42 41.68 89 41.68m0-4c-11.81 0-21.38 9.57-21.38 21.38S77.19 80.44 89 80.44s21.38-9.57 21.38-21.38S100.81 37.68 89 37.68z" fill="#EB8F00"/><circle cx="88.88" cy="58.78" r="12.5" fill="#242424"/><circle cx="83.77" cy="53.67" r="3.98" fill="#fff"/><circle cx="96.27" cy="63.9" r="1.7" fill="#fff"/><path d="M62.67 81.05c-12.72 0-24.54-1.07-34.4-2.89-2.45-.45-4.61 1.7-4.11 4.13 3.28 16.04 19.07 29.21 38.5 29.21 21.27 0 35.58-13.6 38.55-29.27.46-2.42-1.7-4.53-4.12-4.08-9.87 1.83-21.7 2.9-34.42 2.9z" fill="none"/><g fill="#EB8F00" stroke="#EB8F00" stroke-miterlimit="10" stroke-width="1.181"><path d="M48.19 28.56c.05-.02.1-.05.15-.07 2.3-1.21 4.71 1.72 2.48 3.54a23.127 23.127 0 0 1-6.04 3.4c-6.13 2.36-12.79 2.08-18.1-.18-2.63-1.17-1.09-4.66 1.44-4.08 6.44 1.4 13.7.6 20.07-2.61zM79.81 28.56c-.05-.02-.1-.05-.15-.07-2.3-1.21-4.71 1.72-2.48 3.54 1.77 1.39 3.81 2.55 6.04 3.4 6.13 2.36 12.79 2.08 18.1-.18 2.63-1.17 1.09-4.66-1.44-4.08-6.44 1.4-13.7.6-20.07-2.61z"/></g><path fill="none" stroke="#242424" stroke-linecap="round" stroke-linejoin="round" stroke-miterlimit="10" stroke-width="8" d="M56 91h15"/></svg>