<svg width="128" height="128" xmlns="http://www.w3.org/2000/svg"><linearGradient id="a" gradientUnits="userSpaceOnUse" x1="5.516" x2="118.825" y1="5.28" y2="119.046"><stop offset="0" stop-color="#81d4fa"/><stop offset="1" stop-color="#0094d6"/></linearGradient><path d="M116 124H12c-4.42 0-8-3.58-8-8V12c0-4.42 3.58-8 8-8h104c4.42 0 8 3.58 8 8v104c0 4.42-3.58 8-8 8z" fill="url(#a)"/><path d="M116 7c2.76 0 5 2.24 5 5v104c0 2.76-2.24 5-5 5H12c-2.76 0-5-2.24-5-5V12c0-2.76 2.24-5 5-5h104m0-3H12c-4.42 0-8 3.58-8 8v104c0 4.42 3.58 8 8 8h104c4.42 0 8-3.58 8-8V12c0-4.42-3.58-8-8-8z" fill="#424242" opacity=".2"/><linearGradient id="b" gradientUnits="userSpaceOnUse" x1="21.247" x2="106.247" y1="20.744" y2="106.744"><stop offset="0" stop-color="#c2ecff"/><stop offset=".157" stop-color="#bdeafe"/><stop offset=".348" stop-color="#aee3fa"/><stop offset=".558" stop-color="#95d7f5"/><stop offset=".779" stop-color="#73c7ed"/><stop offset="1" stop-color="#49b3e3"/></linearGradient><path d="M101 109H27c-4.42 0-8-3.58-8-8V27c0-4.42 3.58-8 8-8h74c4.42 0 8 3.58 8 8v74c0 4.42-3.58 8-8 8z" fill="url(#b)"/><g><path d="M73.57 25.93c.76 0 1.37.61 1.37 1.37v73.39c0 .76-.61 1.37-1.37 1.37H63.7c-.76 0-1.37-.61-1.37-1.37V43.03c0-.78-.64-1.37-1.37-1.37-.15 0-.3.02-.44.07l-14.98 5.11a1.372 1.372 0 0 1-1.81-1.3v-7.76c0-.57.36-1.09.9-1.29L73.1 26.02c.15-.06.31-.09.47-.09m0-3c-.52 0-1.02.09-1.51.27L43.59 33.68a4.389 4.389 0 0 0-2.86 4.1v7.76a4.374 4.374 0 0 0 5.78 4.14l12.82-4.37v55.39c0 2.41 1.96 4.37 4.37 4.37h9.87c2.41 0 4.37-1.96 4.37-4.37V27.31c0-2.41-1.96-4.38-4.37-4.38z" fill="#424242" opacity=".2"/><path d="M73.57 102.07H63.7c-.76 0-1.37-.61-1.37-1.37V43.03c0-.94-.92-1.6-1.81-1.3l-14.98 5.11c-.89.3-1.81-.36-1.81-1.3v-7.76c0-.57.36-1.09.9-1.29L73.1 26.02c.15-.06.31-.08.47-.08.76 0 1.37.61 1.37 1.37v73.39c0 .75-.61 1.37-1.37 1.37z" fill="#fafafa"/></g></svg>