<svg width="128" height="128" xmlns="http://www.w3.org/2000/svg" width="512px" height="512px"><radialGradient id="a" cx="64.667" cy="4.667" gradientUnits="userSpaceOnUse" r="128.101"><stop offset="0" stop-color="#757575"/><stop offset="1" stop-color="#424242"/></radialGradient><path d="M4 4v120h120V4H4zm16 110c0 1.1-.9 2-2 2h-4c-1.1 0-2-.9-2-2v-8c0-1.1.9-2 2-2h4c1.1 0 2 .9 2 2v8zm0-92c0 1.1-.9 2-2 2h-4c-1.1 0-2-.9-2-2v-8c0-1.1.9-2 2-2h4c1.1 0 2 .9 2 2v8zm16 92c0 1.1-.9 2-2 2h-4c-1.1 0-2-.9-2-2v-8c0-1.1.9-2 2-2h4c1.1 0 2 .9 2 2v8zm0-92c0 1.1-.9 2-2 2h-4c-1.1 0-2-.9-2-2v-8c0-1.1.9-2 2-2h4c1.1 0 2 .9 2 2v8zm16 92c0 1.1-.9 2-2 2h-4c-1.1 0-2-.9-2-2v-8c0-1.1.9-2 2-2h4c1.1 0 2 .9 2 2v8zm0-92c0 1.1-.9 2-2 2h-4c-1.1 0-2-.9-2-2v-8c0-1.1.9-2 2-2h4c1.1 0 2 .9 2 2v8zm16 92c0 1.1-.9 2-2 2h-4c-1.1 0-2-.9-2-2v-8c0-1.1.9-2 2-2h4c1.1 0 2 .9 2 2v8zm0-92c0 1.1-.9 2-2 2h-4c-1.1 0-2-.9-2-2v-8c0-1.1.9-2 2-2h4c1.1 0 2 .9 2 2v8zm16 92c0 1.1-.9 2-2 2h-4c-1.1 0-2-.9-2-2v-8c0-1.1.9-2 2-2h4c1.1 0 2 .9 2 2v8zm0-92c0 1.1-.9 2-2 2h-4c-1.1 0-2-.9-2-2v-8c0-1.1.9-2 2-2h4c1.1 0 2 .9 2 2v8zm16 92c0 1.1-.9 2-2 2h-4c-1.1 0-2-.9-2-2v-8c0-1.1.9-2 2-2h4c1.1 0 2 .9 2 2v8zm0-92c0 1.1-.9 2-2 2h-4c-1.1 0-2-.9-2-2v-8c0-1.1.9-2 2-2h4c1.1 0 2 .9 2 2v8zm16 92c0 1.1-.9 2-2 2h-4c-1.1 0-2-.9-2-2v-8c0-1.1.9-2 2-2h4c1.1 0 2 .9 2 2v8zm0-92c0 1.1-.9 2-2 2h-4c-1.1 0-2-.9-2-2v-8c0-1.1.9-2 2-2h4c1.1 0 2 .9 2 2v8z" fill="url(#a)"/><path d="M121 7v114H7V7h114m3-3H4v120h120V4z" fill="#eee" opacity=".2"/><radialGradient id="b" cx="64" cy="32.333" gradientUnits="userSpaceOnUse" r="73.941"><stop offset=".004" stop-color="#a1887f"/><stop offset=".26" stop-color="#9b8077"/><stop offset=".663" stop-color="#8a6b60"/><stop offset="1" stop-color="#795548"/></radialGradient><path fill="url(#b)" d="M12 32h104v64H12z"/><g opacity=".2"><path d="M18 12c1.1 0 2 .9 2 2v8c0 1.1-.9 2-2 2h-4c-1.1 0-2-.9-2-2v-8c0-1.1.9-2 2-2h4m0-2h-4c-2.21 0-4 1.79-4 4v8c0 2.21 1.79 4 4 4h4c2.21 0 4-1.79 4-4v-8c0-2.21-1.79-4-4-4zM34 12c1.1 0 2 .9 2 2v8c0 1.1-.9 2-2 2h-4c-1.1 0-2-.9-2-2v-8c0-1.1.9-2 2-2h4m0-2h-4c-2.21 0-4 1.79-4 4v8c0 2.21 1.79 4 4 4h4c2.21 0 4-1.79 4-4v-8c0-2.21-1.79-4-4-4zM50 12c1.1 0 2 .9 2 2v8c0 1.1-.9 2-2 2h-4c-1.1 0-2-.9-2-2v-8c0-1.1.9-2 2-2h4m0-2h-4c-2.21 0-4 1.79-4 4v8c0 2.21 1.79 4 4 4h4c2.21 0 4-1.79 4-4v-8c0-2.21-1.79-4-4-4zM66 12c1.1 0 2 .9 2 2v8c0 1.1-.9 2-2 2h-4c-1.1 0-2-.9-2-2v-8c0-1.1.9-2 2-2h4m0-2h-4c-2.21 0-4 1.79-4 4v8c0 2.21 1.79 4 4 4h4c2.21 0 4-1.79 4-4v-8c0-2.21-1.79-4-4-4zM82 12c1.1 0 2 .9 2 2v8c0 1.1-.9 2-2 2h-4c-1.1 0-2-.9-2-2v-8c0-1.1.9-2 2-2h4m0-2h-4c-2.21 0-4 1.79-4 4v8c0 2.21 1.79 4 4 4h4c2.21 0 4-1.79 4-4v-8c0-2.21-1.79-4-4-4zM98 12c1.1 0 2 .9 2 2v8c0 1.1-.9 2-2 2h-4c-1.1 0-2-.9-2-2v-8c0-1.1.9-2 2-2h4m0-2h-4c-2.21 0-4 1.79-4 4v8c0 2.21 1.79 4 4 4h4c2.21 0 4-1.79 4-4v-8c0-2.21-1.79-4-4-4zM114 12c1.1 0 2 .9 2 2v8c0 1.1-.9 2-2 2h-4c-1.1 0-2-.9-2-2v-8c0-1.1.9-2 2-2h4m0-2h-4c-2.21 0-4 1.79-4 4v8c0 2.21 1.79 4 4 4h4c2.21 0 4-1.79 4-4v-8c0-2.21-1.79-4-4-4zM18 104c1.1 0 2 .9 2 2v8c0 1.1-.9 2-2 2h-4c-1.1 0-2-.9-2-2v-8c0-1.1.9-2 2-2h4m0-2h-4c-2.21 0-4 1.79-4 4v8c0 2.21 1.79 4 4 4h4c2.21 0 4-1.79 4-4v-8c0-2.21-1.79-4-4-4zM34 104c1.1 0 2 .9 2 2v8c0 1.1-.9 2-2 2h-4c-1.1 0-2-.9-2-2v-8c0-1.1.9-2 2-2h4m0-2h-4c-2.21 0-4 1.79-4 4v8c0 2.21 1.79 4 4 4h4c2.21 0 4-1.79 4-4v-8c0-2.21-1.79-4-4-4zM50 104c1.1 0 2 .9 2 2v8c0 1.1-.9 2-2 2h-4c-1.1 0-2-.9-2-2v-8c0-1.1.9-2 2-2h4m0-2h-4c-2.21 0-4 1.79-4 4v8c0 2.21 1.79 4 4 4h4c2.21 0 4-1.79 4-4v-8c0-2.21-1.79-4-4-4zM66 104c1.1 0 2 .9 2 2v8c0 1.1-.9 2-2 2h-4c-1.1 0-2-.9-2-2v-8c0-1.1.9-2 2-2h4m0-2h-4c-2.21 0-4 1.79-4 4v8c0 2.21 1.79 4 4 4h4c2.21 0 4-1.79 4-4v-8c0-2.21-1.79-4-4-4zM82 104c1.1 0 2 .9 2 2v8c0 1.1-.9 2-2 2h-4c-1.1 0-2-.9-2-2v-8c0-1.1.9-2 2-2h4m0-2h-4c-2.21 0-4 1.79-4 4v8c0 2.21 1.79 4 4 4h4c2.21 0 4-1.79 4-4v-8c0-2.21-1.79-4-4-4zM98 104c1.1 0 2 .9 2 2v8c0 1.1-.9 2-2 2h-4c-1.1 0-2-.9-2-2v-8c0-1.1.9-2 2-2h4m0-2h-4c-2.21 0-4 1.79-4 4v8c0 2.21 1.79 4 4 4h4c2.21 0 4-1.79 4-4v-8c0-2.21-1.79-4-4-4zM114 104c1.1 0 2 .9 2 2v8c0 1.1-.9 2-2 2h-4c-1.1 0-2-.9-2-2v-8c0-1.1.9-2 2-2h4m0-2h-4c-2.21 0-4 1.79-4 4v8c0 2.21 1.79 4 4 4h4c2.21 0 4-1.79 4-4v-8c0-2.21-1.79-4-4-4z" fill="#424242"/><path fill="none" stroke="#424242" stroke-width="4" stroke-miterlimit="10" d="M12 32h104v64H12z"/></g></svg>