<svg width="128" height="128" xmlns="http://www.w3.org/2000/svg" width="512px" height="512px"><radialGradient id="a" cx="63.048" cy="52.7" gradientTransform="matrix(1 0 0 1.0008 0 -.054)" gradientUnits="userSpaceOnUse" r="76.757"><stop offset="0" stop-color="#00796b"/><stop offset=".283" stop-color="#007365"/><stop offset=".654" stop-color="#006355"/><stop offset="1" stop-color="#004d40"/></radialGradient><path d="M116.05 124h-104c-2.21 0-4-1.79-4-4V47.94h112V120c0 2.21-1.79 4-4 4z" fill="url(#a)"/><path d="M117.05 50.94V120c0 .55-.45 1-1 1h-104c-.55 0-1-.45-1-1V50.94h106m3-3h-112V120c0 2.21 1.79 4 4 4h104c2.21 0 4-1.79 4-4V47.94z" fill="#424242" opacity=".2"/><linearGradient id="b" gradientUnits="userSpaceOnUse" x1="61.136" x2="61.136" y1="29.651" y2="52.558"><stop offset=".004" stop-color="#fafafa"/><stop offset="1" stop-color="#eee"/></linearGradient><path fill="url(#b)" d="M45.42 35.67l15.72 16.27h15.71L61.14 35.67z"/><linearGradient id="c" gradientUnits="userSpaceOnUse" x1="17.918" x2="17.918" y1="36.007" y2="52.385"><stop offset="0" stop-color="#616161"/><stop offset="1" stop-color="#212121"/></linearGradient><path fill="url(#c)" d="M6.13 35.67v16.27H29.7L13.99 35.67z"/><linearGradient id="d" gradientUnits="userSpaceOnUse" x1="29.704" x2="29.704" y1="29.651" y2="52.558"><stop offset=".004" stop-color="#fafafa"/><stop offset="1" stop-color="#eee"/></linearGradient><path fill="url(#d)" d="M13.99 35.67L29.7 51.94h15.72L29.7 35.67z"/><linearGradient id="e" gradientUnits="userSpaceOnUse" x1="45.42" x2="45.42" y1="36.007" y2="52.385"><stop offset="0" stop-color="#616161"/><stop offset="1" stop-color="#212121"/></linearGradient><path fill="url(#e)" d="M29.7 35.67l15.72 16.27h15.72L45.42 35.67z"/><linearGradient id="f" gradientUnits="userSpaceOnUse" x1="108.284" x2="108.284" y1="36.007" y2="52.385"><stop offset="0" stop-color="#616161"/><stop offset="1" stop-color="#212121"/></linearGradient><path fill="url(#f)" d="M108.28 35.67H92.57l15.71 16.27H124z"/><linearGradient id="g" gradientUnits="userSpaceOnUse" x1="116.142" x2="116.142" y1="29.651" y2="52.558"><stop offset=".004" stop-color="#fafafa"/><stop offset="1" stop-color="#eee"/></linearGradient><path fill="url(#g)" d="M124 35.67h-15.72L124 51.94z"/><linearGradient id="h" gradientUnits="userSpaceOnUse" x1="92.568" x2="92.568" y1="29.651" y2="52.558"><stop offset=".004" stop-color="#fafafa"/><stop offset="1" stop-color="#eee"/></linearGradient><path fill="url(#h)" d="M76.85 35.67l15.72 16.27h15.71L92.57 35.67z"/><linearGradient id="i" gradientUnits="userSpaceOnUse" x1="76.852" x2="76.852" y1="36.007" y2="52.385"><stop offset="0" stop-color="#616161"/><stop offset="1" stop-color="#212121"/></linearGradient><path fill="url(#i)" d="M61.14 35.67l15.71 16.27h15.72L76.85 35.67z"/><g><linearGradient id="j" gradientTransform="rotate(-7.563 66.012 31.999)" gradientUnits="userSpaceOnUse" x1="61.187" x2="61.187" y1="5.458" y2="28.364"><stop offset=".004" stop-color="#fafafa"/><stop offset="1" stop-color="#eee"/></linearGradient><path fill="url(#j)" d="M42.95 14.36l17.72 14.06 15.58-2.07-17.72-14.06z"/><linearGradient id="k" gradientTransform="rotate(-7.563 66.012 31.999)" gradientUnits="userSpaceOnUse" x1="17.967" x2="17.967" y1="11.819" y2="28.197"><stop offset="0" stop-color="#616161"/><stop offset="1" stop-color="#212121"/></linearGradient><path fill="url(#k)" d="M4 19.54l2.14 16.13 23.37-3.11L11.79 18.5z"/><linearGradient id="l" gradientTransform="rotate(-7.563 66.012 31.999)" gradientUnits="userSpaceOnUse" x1="29.755" x2="29.755" y1="5.461" y2="28.368"><stop offset=".004" stop-color="#fafafa"/><stop offset="1" stop-color="#eee"/></linearGradient><path fill="url(#l)" d="M11.79 18.5l17.72 14.06 15.58-2.07-17.72-14.06z"/><linearGradient id="m" gradientTransform="rotate(-7.563 66.012 31.999)" gradientUnits="userSpaceOnUse" x1="45.471" x2="45.471" y1="11.815" y2="28.193"><stop offset="0" stop-color="#616161"/><stop offset="1" stop-color="#212121"/></linearGradient><path fill="url(#m)" d="M27.37 16.43l17.72 14.06 15.58-2.07-17.72-14.06z"/><linearGradient id="n" gradientTransform="rotate(-7.563 66.012 31.999)" gradientUnits="userSpaceOnUse" x1="108.336" x2="108.336" y1="11.808" y2="28.186"><stop offset="0" stop-color="#616161"/><stop offset="1" stop-color="#212121"/></linearGradient><path fill="url(#n)" d="M105.26 6.07L89.68 8.14 107.4 22.2l15.58-2.07z"/><linearGradient id="o" gradientTransform="rotate(-7.563 66.012 31.999)" gradientUnits="userSpaceOnUse" x1="116.195" x2="116.195" y1="5.451" y2="28.357"><stop offset=".004" stop-color="#fafafa"/><stop offset="1" stop-color="#eee"/></linearGradient><path fill="url(#o)" d="M120.84 4l-15.58 2.07 17.72 14.06z"/><linearGradient id="p" gradientTransform="rotate(-7.563 66.012 31.999)" gradientUnits="userSpaceOnUse" x1="92.62" x2="92.62" y1="5.454" y2="28.361"><stop offset=".004" stop-color="#fafafa"/><stop offset="1" stop-color="#eee"/></linearGradient><path fill="url(#p)" d="M74.11 10.22l17.72 14.05 15.57-2.07L89.68 8.14z"/><linearGradient id="q" gradientTransform="rotate(-7.563 66.012 31.999)" gradientUnits="userSpaceOnUse" x1="76.903" x2="76.903" y1="11.812" y2="28.189"><stop offset="0" stop-color="#616161"/><stop offset="1" stop-color="#212121"/></linearGradient><path fill="url(#q)" d="M58.53 12.29l17.72 14.06 15.58-2.08-17.72-14.05z"/></g><g opacity=".2" fill="#424242"><path d="M121 38.67v10.27H9.13V38.67H121m3-3H6.13v16.27H124V35.67zM118.26 7.37l1.35 10.18L107 19.23 91.43 21.3l-15.58 2.07-15.58 2.07-15.58 2.07-15.58 2.07L8.72 32.3 7.37 22.12l4.82-.64 15.58-2.07 15.58-2.07 15.58-2.07 15.58-2.07 15.58-2.07 15.58-2.07 12.59-1.69M120.84 4l-15.58 2.07-15.58 2.07-15.58 2.07-15.58 2.07-15.58 2.07-15.58 2.07-15.57 2.08L4 19.54l2.14 16.13 23.37-3.11 15.58-2.07 15.58-2.07 15.58-2.07 15.58-2.07 15.58-2.07 15.58-2.07L120.84 4z"/></g><linearGradient id="r" gradientUnits="userSpaceOnUse" x1="16.048" x2="112.048" y1="69.955" y2="69.955"><stop offset=".004" stop-color="#fafafa"/><stop offset="1" stop-color="#eee"/></linearGradient><path fill="url(#r)" d="M16.05 67.95h96v4h-96z"/><linearGradient id="s" gradientUnits="userSpaceOnUse" x1="16.048" x2="112.048" y1="85.968" y2="85.968"><stop offset=".004" stop-color="#fafafa"/><stop offset="1" stop-color="#eee"/></linearGradient><path fill="url(#s)" d="M16.05 83.97h96v4h-96z"/><linearGradient id="t" gradientUnits="userSpaceOnUse" x1="16.048" x2="112.048" y1="101.982" y2="101.982"><stop offset=".004" stop-color="#fafafa"/><stop offset="1" stop-color="#eee"/></linearGradient><path fill="url(#t)" d="M16.05 99.98h96v4h-96z"/><linearGradient id="u" gradientUnits="userSpaceOnUse" x1="84.048" x2="88.048" y1="108.987" y2="108.987"><stop offset=".004" stop-color="#fafafa"/><stop offset="1" stop-color="#eee"/></linearGradient><path fill="url(#u)" d="M84.05 115.99v-14.01h4v14.01z"/><linearGradient id="v" gradientUnits="userSpaceOnUse" x1="40.048" x2="44.048" y1="108.987" y2="108.987"><stop offset=".004" stop-color="#fafafa"/><stop offset="1" stop-color="#eee"/></linearGradient><path fill="url(#v)" d="M40.05 115.99v-14.01h4v14.01z"/><path fill="#b2dfdb" d="M16.05 59.95h16v4h-16zM16.05 75.96h24v4h-24zM16.05 91.97h16v4h-16z"/></svg>