<svg width="128" height="128" xmlns="http://www.w3.org/2000/svg" width="512px" height="512px"><symbol id="l" viewBox="-64.5 -64.5 129 129"><g fill="none" stroke="#4285f4" stroke-miterlimit="10"><path d="M-64-64H64V64H-64z"/><path d="M36.95 37.82C27.32 46.32 14.2 51 0 51c-14.27 0-27.39-4.62-36.96-13.01C-47.45 28.79-53 15.65-53 0c0-15.58 5.55-28.69 16.04-37.92C-27.36-46.35-14.24-51 0-51c14.17 0 27.29 4.71 36.95 13.25C47.45-28.45 53-15.4 53 0c0 15.47-5.55 28.55-16.05 37.82z"/><path d="M0 55c-29.59 0-57-19.01-57-55 0-35.8 27.41-55 57-55S57-35.31 57 0c0 35.51-27.41 55-57 55z"/><path d="M0-43c-12.29 0-23.54 3.94-31.68 11.09C-40.39-24.25-45-13.21-45 0c0 29.7 22.6 43 45 43 21.67 0 45-13.46 45-43S21.67-43 0-43zM-.01 51V-51M-16 48.95v-97.88M15.99 48.91v-97.84M53 .08H-53"/></g></symbol><path d="M63.85 123.84l60.1-87.8.05-.02v-.03L96.04 4H32.01L4 35.93v.03l.03.07 59.42 87.45.32.44.07-.09-.22-.83.23.84z" fill="#81d4fa"/><linearGradient id="a" gradientUnits="userSpaceOnUse" x1="4.111" x2="123.889" y1="64" y2="64"><stop offset=".001" stop-color="#81d4fa"/><stop offset="1" stop-color="#29b6f6"/></linearGradient><path fill="url(#a)" d="M63.79 123.93L4.11 36.03l27.9-31.96h64.03l27.85 31.96z"/><path fill="none" d="M64 4l-.05.07h.1z"/><linearGradient id="b" gradientUnits="userSpaceOnUse" x1="63.599" x2="63.599" y1="123.895" y2="36.003"><stop offset="0" stop-color="#81d4fa"/><stop offset=".221" stop-color="#7dd3fa"/><stop offset=".431" stop-color="#72cff9"/><stop offset=".638" stop-color="#5ec8f8"/><stop offset=".841" stop-color="#44bff7"/><stop offset="1" stop-color="#29b6f6"/></linearGradient><path fill="url(#b)" d="M63.78 123.89L87.55 36l-47.9.05z"/><path fill="#81d4fa" d="M87.55 36h.39l-.28-.38z"/><linearGradient id="c" gradientUnits="userSpaceOnUse" x1="93.897" x2="93.897" y1="123.912" y2="36"><stop offset="0" stop-color="#039be5"/><stop offset=".369" stop-color="#0398e2"/><stop offset=".638" stop-color="#0390d9"/><stop offset=".874" stop-color="#0282c9"/><stop offset="1" stop-color="#0277bd"/></linearGradient><path fill="url(#c)" d="M124 36.02L87.58 36l-23.79 87.91L124 36.03z"/><linearGradient id="d" gradientUnits="userSpaceOnUse" x1="33.944" x2="33.944" y1="123.912" y2="35.968"><stop offset="0" stop-color="#29b6f6"/><stop offset=".331" stop-color="#25b3f4"/><stop offset=".646" stop-color="#1aabef"/><stop offset=".954" stop-color="#079ee7"/><stop offset="1" stop-color="#039be5"/></linearGradient><path fill="url(#d)" d="M39.86 36.59L39 37.75l.86-1.16-.17-.61-35.52-.01-.06.06 59.67 87.88z"/><linearGradient id="e" gradientUnits="userSpaceOnUse" x1="29.51" x2="21.783" y1="5.457" y2="36.366"><stop offset=".005" stop-color="#b3e5fc"/><stop offset="1" stop-color="#4fc3f7"/></linearGradient><path fill="url(#e)" d="M40 36L32 4.1 3.74 36.05z"/><linearGradient id="f" gradientUnits="userSpaceOnUse" x1="105.868" x2="105.868" y1="7.06" y2="37.027"><stop offset=".009" stop-color="#81d4fa"/><stop offset="1" stop-color="#29b6f6"/></linearGradient><path fill="url(#f)" d="M87.74 36l8-31.9L124 36.05z"/><linearGradient id="g" gradientUnits="userSpaceOnUse" x1="63.644" x2="63.644" y1="6.738" y2="35.715"><stop offset="0" stop-color="#e1f5fe"/><stop offset=".275" stop-color="#d3f0fd"/><stop offset="1" stop-color="#b3e5fc"/></linearGradient><path fill="url(#g)" d="M39.74 36l24-31.96L87.55 36z"/><linearGradient id="h" gradientUnits="userSpaceOnUse" x1="47.868" x2="47.868" y1="4.484" y2="37.34"><stop offset=".009" stop-color="#81d4fa"/><stop offset="1" stop-color="#29b6f6"/></linearGradient><path fill="url(#h)" d="M64 4.04L40 36.05 31.74 4z"/><linearGradient id="i" gradientUnits="userSpaceOnUse" x1="63.736" x2="96" y1="20.023" y2="20.023"><stop offset=".011" stop-color="#4fc3f7"/><stop offset="1" stop-color="#29b6f6"/></linearGradient><path fill="url(#i)" d="M63.74 4.04l24 32.01L96 4z"/><g opacity=".2"><path d="M94.67 7l25.53 29.2-56.42 82.41L7.76 36.19 33.37 7h61.3m1.37-3H32.01L4 35.93v.03l.03.07 59.74 87.9 60.18-87.9.05-.02v-.03L96.04 4z" fill="#424242"/></g></svg>