<svg viewBox="0 0 128 128" xmlns="http://www.w3.org/2000/svg"><path d="M4.15 64c0 37.28 28.78 57.75 59.85 57.75s59.85-19.96 59.85-57.75c0-37.59-28.78-57.75-59.85-57.75S4.15 26.92 4.15 64z" fill="#FEE133"/><path d="M64 10.25c15 0 28.83 4.9 38.94 13.78C114 33.76 119.85 47.58 119.85 64c0 16.49-5.85 30.34-16.91 40.04-10.08 8.84-23.91 13.71-38.94 13.71-14.95 0-28.78-4.93-38.93-13.89C14 94.09 8.15 80.31 8.15 64c0-16.23 5.85-29.99 16.92-39.78C35.25 15.21 49.08 10.25 64 10.25m0-4C32.93 6.25 4.15 26.92 4.15 64c0 37.28 28.78 57.75 59.85 57.75s59.85-19.96 59.85-57.75c0-37.59-28.78-57.75-59.85-57.75z" fill="#47A9B0"/><linearGradient id="a" x1="64" x2="64" y1="79.5" y2="2" gradientUnits="userSpaceOnUse"><stop stop-color="#40C0E7" stop-opacity="0" offset=".385"/><stop stop-color="#40C0E7" offset="1"/></linearGradient><path d="M4.15 64c0 37.28 28.78 57.75 59.85 57.75s59.85-19.96 59.85-57.75c0-37.59-28.78-57.75-59.85-57.75S4.15 26.92 4.15 64z" fill="url(#a)"/><path d="M52.66 102.96c-3.38 0-6.51-1.77-8.17-4.61-1.65-2.84-1.49-6.17.44-8.88 4.28-6.03 10.87-9.21 19.06-9.21 8.2 0 14.79 3.19 19.06 9.21 1.93 2.72 2.09 6.04.44 8.89-1.65 2.84-4.78 4.61-8.17 4.61-1.05 0-2.1-.17-3.13-.5-2.66-.86-5.42-2.3-8.2-2.3s-5.54 1.44-8.2 2.3c-1.02.32-2.08.49-3.13.49zM82.74 49.94c4.19 0 8 3.54 8 9.42s-3.81 9.42-8 9.42-8-3.54-8-9.42 3.81-9.42 8-9.42zM45.2 49.94c-4.19 0-8 3.54-8 9.42s3.81 9.42 8 9.42 8-3.54 8-9.42-3.81-9.42-8-9.42z" fill="#242424"/><path d="M29.4 42.01s.01-.28.05-.77c.02-.13.01-.24.05-.42.03-.18.09-.37.14-.58s.11-.43.17-.67c.07-.22.16-.43.24-.66.16-.47.39-.95.66-1.44.26-.5.59-.99.95-1.49.39-.47.77-.99 1.24-1.42.45-.47.96-.87 1.47-1.29.55-.36 1.08-.74 1.65-1.04.55-.33 1.16-.55 1.72-.79.58-.2 1.15-.38 1.7-.49.55-.12 1.08-.2 1.57-.23.49-.06.94-.05 1.34-.02.4.01.74.05 1.03.1.57.1.88.18.88.18.95.24 1.54 1.2 1.3 2.15-.15.62-.62 1.09-1.19 1.27l-.3.09s-.24.07-.64.17c-.2.04-.44.12-.71.2-.27.07-.57.17-.89.29-.32.1-.66.26-1.02.4-.36.13-.71.35-1.09.52-.37.21-.75.41-1.12.65-.39.21-.73.5-1.1.75-.35.28-.72.53-1.03.84-.33.29-.64.59-.94.88-.26.32-.58.6-.81.9-.24.3-.48.58-.67.86-.21.29-.38.52-.51.72-.07.1-.14.2-.21.29-.07.1-.13.24-.19.34-.22.45-.36.7-.36.7-.52.86-1.64 1.14-2.5.62-.58-.36-.9-.98-.88-1.61zM95.22 43s-.15-.24-.38-.68c-.06-.1-.12-.25-.19-.34s-.14-.19-.21-.29c-.13-.2-.3-.43-.51-.72-.19-.28-.43-.56-.67-.86-.23-.31-.54-.58-.81-.9-.3-.29-.61-.6-.94-.88-.31-.31-.68-.56-1.03-.84-.37-.25-.72-.54-1.1-.75-.37-.24-.75-.45-1.12-.65-.38-.16-.74-.38-1.09-.52-.36-.14-.69-.3-1.02-.4-.32-.12-.62-.22-.89-.29-.27-.08-.51-.16-.71-.2-.4-.1-.64-.17-.64-.17l-.29-.09a1.767 1.767 0 0 1-1.16-2.23c.19-.61.69-1.05 1.27-1.19 0 0 .31-.08.88-.18.28-.06.63-.09 1.03-.1.4-.03.85-.04 1.34.02.5.02 1.02.1 1.57.23.56.1 1.12.29 1.7.49.56.24 1.17.45 1.72.79.57.3 1.11.68 1.65 1.04.5.42 1.02.82 1.47 1.29.48.43.85.95 1.24 1.42.36.5.7.99.95 1.49.27.49.5.97.66 1.44.09.23.18.44.24.66.06.23.12.46.17.67s.1.4.14.58c.03.17.03.29.05.42.04.49.05.77.05.77.03 1.01-.77 1.84-1.77 1.87-.67-.01-1.27-.36-1.6-.9z" fill="#6D4C41"/></svg>