<svg viewBox="0 0 128 128" xmlns="http://www.w3.org/2000/svg"><path d="M4.15 64c0 37.28 28.78 57.75 59.85 57.75s59.85-19.96 59.85-57.75c0-37.59-28.78-57.75-59.85-57.75S4.15 26.92 4.15 64z" fill="#FEE133"/><linearGradient id="a" x1="64" x2="64" y1="79.5" y2="2" gradientUnits="userSpaceOnUse"><stop stop-color="#40C0E7" stop-opacity="0" offset=".385"/><stop stop-color="#40C0E7" offset="1"/></linearGradient><path d="M4.15 64c0 37.28 28.78 57.75 59.85 57.75s59.85-19.96 59.85-57.75c0-37.59-28.78-57.75-59.85-57.75S4.15 26.92 4.15 64z" fill="url(#a)"/><path d="M64 10.25c15 0 28.83 4.9 38.94 13.78C114 33.76 119.85 47.58 119.85 64c0 16.49-5.85 30.34-16.91 40.04-10.08 8.84-23.91 13.71-38.94 13.71-14.95 0-28.78-4.93-38.93-13.89C14 94.09 8.15 80.31 8.15 64c0-16.23 5.85-29.99 16.92-39.78C35.25 15.21 49.08 10.25 64 10.25m0-4C32.93 6.25 4.15 26.92 4.15 64c0 37.28 28.78 57.75 59.85 57.75s59.85-19.96 59.85-57.75c0-37.59-28.78-57.75-59.85-57.75z" fill="#47A9B0"/><path d="M30.88 38.36c.35-1.12 1.35-1.86 2.53-1.89 3.27-.14 6.51-1.74 8.65-4.29.86-1.07 2.29-1.37 3.44-.75 1.1.59 1.59 1.8 1.2 3.01-.05.15-.11.31-.2.48-.71 1.3-1.62 2.44-2.73 3.42-2.94 2.64-6.97 3.89-10.77 3.33-.84-.14-1.51-.57-1.9-1.21-.36-.61-.45-1.38-.22-2.1zM97.11 38.36c-.35-1.12-1.35-1.86-2.53-1.89-3.27-.14-6.51-1.74-8.65-4.29-.86-1.07-2.29-1.37-3.44-.75-1.1.59-1.59 1.8-1.2 3.01.05.15.11.31.2.48.71 1.3 1.62 2.44 2.73 3.42 2.94 2.64 6.97 3.89 10.77 3.33.84-.14 1.51-.57 1.9-1.21.36-.61.45-1.38.22-2.1z" fill="#6D4C41" stroke="#6D4C41" stroke-miterlimit="10"/><path d="M64 99.9c3.85 0 7.66.66 11.3 1.93 7.7 2.69 14.37-5.99 9.9-12.8-4.66-7.08-11.91-11-21.19-11s-16.53 3.91-21.19 11c-4.48 6.81 2.2 15.48 9.9 12.8 3.62-1.27 7.43-1.93 11.28-1.93z" fill="#242424"/><path d="M25 87.99c-5.64 0-10.01-5.51-10.01-10.25 0-3.29 1.46-7.07 3.48-12.31.29-.76.6-1.55.91-2.37 1.59-4.19 3.9-8.7 5.5-11.67 1.41 2.92 3.52 7.34 5.5 11.77 3.59 8.06 4.63 11.33 4.63 14.58 0 4.74-4.37 10.25-10.01 10.25z" fill="#5F7AFF"/><path d="M24.8 55.86c1.16 2.44 2.48 5.28 3.75 8.12 3.46 7.76 4.46 10.85 4.46 13.76 0 3.74-3.57 8.25-8.01 8.25s-8.01-4.51-8.01-8.25c0-2.92 1.4-6.55 3.34-11.59.3-.77.6-1.56.91-2.38 1.02-2.67 2.34-5.48 3.56-7.91m.2-8.78s-4.74 8.04-7.49 15.26c-2.51 6.6-4.52 11.22-4.52 15.39 0 5.96 5.38 12.25 12.01 12.25s12.01-6.29 12.01-12.25c0-3.75-1.21-7.34-4.81-15.39-3.43-7.7-7.2-15.26-7.2-15.26z" fill="#4864ED"/><path d="M82.74 52.44c4.19 0 8 3.54 8 9.42s-3.81 9.42-8 9.42-8-3.54-8-9.42 3.81-9.42 8-9.42zM45.2 52.44c-4.19 0-8 3.54-8 9.42s3.81 9.42 8 9.42 8-3.54 8-9.42-3.81-9.42-8-9.42z" fill="#242424"/></svg>