<svg width="128" height="128" xmlns="http://www.w3.org/2000/svg" width="512px" height="512px"><path fill="#343434" d="M88.9 82.724l3.465 3.465-5.268 5.268-3.464-3.465z"/><path fill="#212121" d="M84.641 79.975l3.953 3.952-3.79 3.79-3.953-3.952z"/><linearGradient id="a" gradientTransform="rotate(90 66.847 63.903)" gradientUnits="userSpaceOnUse" x1="91.244" x2="122.666" y1="41.823" y2="6.63"><stop offset="0"/><stop offset="1" stop-color="#4d4d4d"/></linearGradient><path d="M123.41 119.2c3.48-4.93-5.01-12.35-16.93-23.45s-14.71-10-14.71-10l-4.25 4.12s-.55 1.27.41 3.19 15.75 18.9 28.18 25.83c0 .01 5.09 3.44 7.3.31zm-4.94-2.67c0-.94.76-1.7 1.7-1.7s1.7.76 1.7 1.7-.76 1.7-1.7 1.7-1.7-.76-1.7-1.7z" fill="url(#a)"/><path d="M84.64 81.61l2.72 2.72c.21.21.49.33.79.33.28 0 .55-.1.75-.29l2.22 2.22c.21.21.51.33.81.33h.1c.33 0 3.54.27 13.69 9.73l1.93 1.8c10.2 9.48 17.57 16.32 14.85 20.19-.41.58-.97.84-1.77.84-1.84 0-3.98-1.41-3.99-1.43-.03-.02-.05-.03-.08-.05-12.17-6.78-26.91-23.71-27.73-25.35-.25-.51-.4-1.01-.44-1.48-.03-.43-.32-.81-.73-.96-.13-.05-.26-.07-.39-.07h-.08l-2.08-2.08a1.117 1.117 0 0 0-.07-1.51l-2.72-2.72 2.22-2.22m0-1.57l-3.79 3.79 3.51 3.51-.72.72 3.47 3.47.27-.27c.04.51.19 1.15.55 1.89.96 1.93 15.75 18.9 28.18 25.83 0 0 2.4 1.62 4.62 1.62 1.01 0 1.99-.34 2.68-1.32 3.48-4.93-5.01-12.35-16.93-23.45-9.95-9.26-13.54-10.03-14.45-10.03h-.12l-3.01-3.01-.75.75-3.51-3.5z" fill="#eee" opacity=".2"/><g><circle cx="49.78" cy="51.74" r="45.44" fill="#252525"/><path d="M49.78 7.42c24.44 0 44.32 19.88 44.32 44.32S74.22 96.06 49.78 96.06 5.46 76.18 5.46 51.74 25.34 7.42 49.78 7.42m0-1.11c-25.09 0-45.44 20.34-45.44 45.44s20.34 45.44 45.44 45.44 45.44-20.34 45.44-45.44S74.87 6.31 49.78 6.31z" fill="#eee" opacity=".2"/></g><circle cx="49.78" cy="51.74" r="36.28" fill="#575757"/><g><radialGradient id="b" cx="54.857" cy="81.09" gradientTransform="rotate(90 66.847 63.903)" gradientUnits="userSpaceOnUse" r="28.39"><stop offset="0" stop-color="#fff"/><stop offset=".479" stop-color="#fdfdfd"/><stop offset=".69" stop-color="#f8f6f6"/><stop offset=".849" stop-color="#eeebe9"/><stop offset=".981" stop-color="#e1dad7"/><stop offset="1" stop-color="#ded7d4"/></radialGradient><path d="M51.95 23.68c-5.28-.95-10.54 1.41-15.38 3.72-4.57 2.17-9.44 4.62-11.82 9.08-2.51 4.73-1.58 10.47-2.46 15.75-.53 3.19-1.71 6.62-.27 9.51 1.14 2.28 3.67 3.6 4.91 5.83.96 1.71 1.05 3.77 1.66 5.63.86 2.63 2.82 4.88 5.3 6.1 2.48 1.22 5.46 1.39 8.07.46 2.47-.88 4.69-2.71 7.31-2.73 1.82-.01 3.52.86 5.31 1.15 2.8.46 5.68-.55 7.98-2.2 2.3-1.65 4.09-3.91 5.74-6.22 1.64-2.31 3.17-4.7 4.69-7.09 1.44-2.25 2.89-4.53 3.82-7.03 1.95-5.21 1.48-11.26-1.24-16.11-2.6-4.63-6.61-7.07-11.36-9.03-4.44-1.82-7.2-5.91-12.26-6.82z" fill="url(#b)"/><path d="M32.35 39.01c-.3-.14-.68-.06-.89.19s-.21.66.01.9.64.27.88.06c.25-.21.26-.65.03-.87M32.42 35.61c-.43.03-.87.3-.99.72s.17.94.61.96c.36.02.67-.29.75-.64.07-.35-.06-.72-.27-1.01M33.82 34.06c-.23-.12-.56.08-.56.34s.32.46.56.35.27-.5.06-.65M36.03 31.92c-.25-.26-.77-.1-.85.25-.07.36.32.71.67.62.35-.09.53-.57.33-.87M40.06 30.53c-.24-.1-.56.14-.52.4.04.26.43.38.61.18.17-.2-.03-.58-.29-.54M28.37 58.68c.37.26.49.83.25 1.21-.24.39-.8.53-1.2.3s-.56-.78-.36-1.18c.21-.41.75-.6 1.17-.41M28.94 61.16c-.18-.29-.69-.28-.85.03-.16.3.1.73.44.73.34 0 .59-.44.42-.74M30.53 65.34c-.25-.3-.77-.33-1.05-.05s-.25.8.06 1.05.83.15 1.03-.18c.2-.34.03-.84-.33-.99M27.56 47.71c-.34-.08-.72.11-.84.43s.06.73.38.84c.33.11.73-.12.77-.47.03-.25-.11-.5-.32-.65-.21-.14-.47-.2-.72-.21M25.76 50.23c-.2-.01-.39-.01-.59-.02-.15.14-.11.42.07.51s.43-.05.45-.25-.2-.38-.4-.33M25.17 51.24c-.18-.17-.51-.14-.64.07-.13.21.02.54.26.56.22.02.42-.21.37-.42-.05-.21-.33-.33-.52-.22M25.57 53.04c-.14-.15-.41-.15-.54.01s-.1.42.06.54c.27.04.49-.35.31-.56M43.73 31.55c-.34-.14-.78.07-.88.42s.17.76.53.8c.36.04.72-.31.68-.67s-.48-.62-.82-.47M44.94 30.04c-.2-.12-.5.04-.53.28-.03.23.2.46.44.44a.48.48 0 0 0 .42-.49.553.553 0 0 0-.43-.5M71.97 56.38c-.26-.21-.68-.11-.86.17s-.13.66.07.93c.18.23.47.38.76.36.29-.02.57-.23.64-.51.08-.28-.08-.61-.35-.71M72.51 58.57c-.34-.12-.76.17-.77.53-.01.36.4.67.75.56.35-.11.5-.6.28-.89M72.37 60.97c-.17-.23-.57-.24-.75-.02-.18.22-.09.61.17.73s.61-.07.66-.35M69.34 62.46c-.18-.16-.52-.07-.6.16-.08.23.15.51.39.48.24-.03.4-.34.28-.55-.05-.01-.09-.02-.14-.02M65.62 64.99c-.27-.21-.74-.03-.79.31-.05.34.33.66.65.54s.42-.61.16-.83M73.43 42.37c-.18-.24-.54-.33-.81-.21s-.43.47-.32.75c.1.28.46.45.73.33s.4-.51.23-.75" fill="#a3a3a3"/><path d="M49.81 35.55c9.69 0 15.93 5.86 15.93 15.55S61 64.83 51.52 66.84c-9.86 2.09-18.2-6.24-18.2-15.93s6.8-15.36 16.49-15.36z" opacity=".43" fill="#e6ddd6"/><radialGradient id="c" cx="41.607" cy="46.81" gradientUnits="userSpaceOnUse" r="18.767"><stop offset=".005" stop-color="#fdbf00"/><stop offset=".167" stop-color="#fcb70b"/><stop offset=".555" stop-color="#fba822"/><stop offset=".803" stop-color="#faa32a"/><stop offset="1" stop-color="#fc923b"/></radialGradient><circle cx="49.9" cy="51.01" r="14.31" fill="url(#c)"/></g></svg>