<svg width="128" height="128" xmlns="http://www.w3.org/2000/svg" width="512px" height="512px"><path fill="#ab664b" d="M12.02 18.77L10.53 33.8l6.1 39.57 69.39 50.01V92.05z"/><linearGradient id="a" gradientUnits="userSpaceOnUse" x1="29.623" x2="98.916" y1="16.002" y2="98.675"><stop offset="0" stop-color="#cf8a59"/><stop offset=".26" stop-color="#cc8756"/><stop offset=".487" stop-color="#c17d4e"/><stop offset=".701" stop-color="#af6d41"/><stop offset=".907" stop-color="#96562e"/><stop offset="1" stop-color="#884924"/></linearGradient><path fill="url(#a)" d="M12.02 18.77L17.2 48.3l68.63 56.23 30.55-12.03-41.95-70.15-28.3-14.19z"/><path fill="#230a04" d="M85.83 104.53l30.55-12.03v19.26l-30.36 11.62z"/><path fill="#6f3a26" d="M16.87 46.42v26.95l69.15 50.01-.19-18.85z"/><linearGradient id="b" gradientUnits="userSpaceOnUse" x1="33.084" x2="94.731" y1="19.267" y2="94.055"><stop offset="0" stop-color="#fff3e0"/><stop offset=".257" stop-color="#fcf0dd"/><stop offset=".481" stop-color="#f2e5d4"/><stop offset=".693" stop-color="#e2d3c6"/><stop offset=".896" stop-color="#cbbab1"/><stop offset="1" stop-color="#bcaaa4"/></linearGradient><path d="M46.61 15.69L69.44 27.1l37.29 60.97-21.32 8.33-61.78-52.39-3.17-20.09 26.15-8.23m.16-1.98L18.4 22.64l3.52 22.33 63.13 53.55 24.4-9.53-38.72-63.3-23.96-11.98z" fill="url(#b)"/><path d="M26.46 71.25c-2.01-1.6-1.55-5.24-1.55-5.24l9.27 7.77c.01 0-2.42 1.69-7.72-2.53zM68.52 105.41c-2.01-1.6-1.55-5.24-1.55-5.24l9.27 7.77c0 .01-2.43 1.7-7.72-2.53z" fill="#ab664b"/><path d="M45.86 11.55l26.45 13.26 41.08 68.68v16.37l-26.92 10.3L19.4 71.84l-5.85-37.96 1.25-12.67 31.06-9.66m.27-3.23L12.02 18.93l-1.48 15.03 6.1 39.58 69.39 50.01 30.36-11.62V92.66L74.43 22.52l-28.3-14.2z" fill="#424242" opacity=".2"/></svg>