<svg width="128" height="128" xmlns="http://www.w3.org/2000/svg" width="512px" height="512px"><linearGradient id="a" gradientUnits="userSpaceOnUse" x1="64" x2="64" y1="32.086" y2="96.216"><stop offset="0" stop-color="#616161"/><stop offset=".352" stop-color="#4e4e4e"/><stop offset="1" stop-color="#212121"/></linearGradient><path d="M88 92H40c-2.21 0-4-1.79-4-4V40c0-2.21 1.79-4 4-4h48c2.21 0 4 1.79 4 4v48c0 2.21-1.79 4-4 4z" fill="url(#a)"/><path d="M88 39c.55 0 1 .45 1 1v48c0 .55-.45 1-1 1H40c-.55 0-1-.45-1-1V40c0-.55.45-1 1-1h48m0-3H40c-2.21 0-4 1.79-4 4v48c0 2.21 1.79 4 4 4h48c2.21 0 4-1.79 4-4V40c0-2.21-1.79-4-4-4z" fill="#eee" opacity=".2"/></svg>