<svg xmlns="http://www.w3.org/2000/svg" viewBox="0 0 128 128" width="512px" height="512px"><path d="M60.5 124c.48-13.19-.05-47.32-.19-55.55 0-.63 1.68-40.31-37.99-40.57-7.24-.05-13.27 1.08-18.32 3V124h56.5z" fill="#543930"/><radialGradient id="a" cx="31.227" cy="94.518" r="34.51" gradientTransform="matrix(1 0 0 .9979 0 .194)" gradientUnits="userSpaceOnUse"><stop offset=".794" stop-color="#6d4c41" stop-opacity="0"/><stop offset="1" stop-color="#6d4c41"/></radialGradient><path d="M60.31 68.45c0-1.77-56.31 38.6-56.31 38.6V124h56.5c.48-13.19-.05-47.32-.19-55.55z" fill="url(#a)"/><path d="M21.53 39.45c-6.21 0-12.27 1.59-17.53 4.84v71.69c3.88 2.79 8.08 4.79 12.18 5.98 3.59 1.04 6.42 1.56 11.42 1.56 2.98 0 6.71-1.39 9.36-3 11.72-7.13 19.31-18.02 19.31-39.23 0-28.43-16.7-41.84-34.74-41.84z" fill="#ffca28"/><g fill="#6d4c41"><path d="M21.35 77.36c-.97-1.29-3.22-3.16-7.58-3.16s-6.61 1.87-7.58 3.16c-.43.57-.32 1.23-.02 1.62.28.37 1.09.71 1.99.41.9-.31 2.66-1.22 5.61-1.24 2.95.02 4.71.93 5.61 1.24.9.31 1.72-.04 1.99-.41.3-.39.41-1.05-.02-1.62zM54.33 77.36c-.97-1.29-3.22-3.16-7.58-3.16s-6.61 1.87-7.58 3.16c-.43.57-.32 1.23-.02 1.62.28.37 1.09.71 1.99.41.9-.31 2.66-1.22 5.61-1.24 2.95.02 4.71.93 5.61 1.24.9.31 1.72-.04 1.99-.41.3-.39.41-1.05-.02-1.62z"/></g><g fill="#404040"><path d="M19.35 85.64c.67-.79 1.07-.16 1.2.36.45 1.76-.25 4.54-3.47 5.43-4.36 1.2-8.76-1.42-9.25-4.98-.06-.44.43-.77.82-.55 1.31.72 2.93 2.23 6.3 1.88 3.28-.33 3.68-1.29 4.4-2.14zM52.2 85.64c.67-.79 1.07-.16 1.2.36.45 1.76-.25 4.54-3.47 5.43-4.36 1.2-8.76-1.42-9.25-4.98-.06-.44.43-.77.82-.55 1.31.72 2.93 2.23 6.3 1.88 3.28-.33 3.68-1.29 4.4-2.14z"/></g><path d="M36.35 114.85c3.02.38 8.02-2.23 6.91-5.19-.42-1.12-2.1-1.45-2.1-1.45s2.76-3.12 1.34-4.76c-1.91-2.21-5.07-.59-7.43-1.27-.48-.14-.99-.36-1.46-.2.2.94.76 1.62 1.95 2.04 1.34.47 2.8.2 3.54.83.76.66.11 1.59-.87 2.17-1.39.82-3.47 1.24-3.37 1.9.11.72 2.49.8 3.02.95.48.14 1.18.32 1.39.83.38.89-.93 1.85-1.6 2.25-.74.44-2.61.93-2.68.99-.14.12-.11.37.02.51.13.15 1.05.36 1.34.4z" fill="#795548"/><path d="M38.35 93.53c-.11-.04-.22-.07-.33-.09h-7.33c-.11.01-.22.04-.33.09-.66.27-1.03.96-.72 1.69.31.73 1.77 2.79 4.71 2.79s4.4-2.06 4.71-2.79c.31-.73-.05-1.42-.71-1.69z" fill="#e59600"/><g><path d="M60.31 68.45c0-.63 2.36-40.02-37.99-40.57-7.23-.1-13.27 1.06-18.32 3.04v45.73c.57-2.44 2.53-6.75 9.27-8.17 20.37-4.31 28.6-14.06 28.6-14.06 3.45 7.53 17.17 8.56 13.43 40.48 0 0 5.26-.08 5.26-.14.27-8.7-.25-18.23-.25-26.31z" fill="#543930"/><radialGradient id="b" cx="24.256" cy="86.497" r="43.747" gradientTransform="matrix(1 0 0 1.1286 0 -11.122)" gradientUnits="userSpaceOnUse"><stop offset=".794" stop-color="#6d4c41" stop-opacity="0"/><stop offset="1" stop-color="#6d4c41"/></radialGradient><path d="M60.31 68.45c0-.63 2.36-40.02-37.99-40.57-7.23-.1-13.27 1.06-18.32 3.04v45.73c.57-2.44 2.53-6.75 9.27-8.17 20.37-4.31 28.6-14.06 28.6-14.06 3.45 7.53 17.17 8.56 13.43 40.48 0 0 5.26-.08 5.26-.14.27-8.7-.25-18.23-.25-26.31z" fill="url(#b)"/></g><g><path d="M67.5 124c-.48-13.19.05-47.32.19-55.55 0-.63-1.68-40.31 37.99-40.57 7.24-.05 13.27 1.08 18.32 3V124H67.5z" fill="#543930"/><radialGradient id="c" cx="48.416" cy="94.518" r="34.51" gradientTransform="matrix(-1 0 0 .9979 145.19 .194)" gradientUnits="userSpaceOnUse"><stop offset=".794" stop-color="#6d4c41" stop-opacity="0"/><stop offset="1" stop-color="#6d4c41"/></radialGradient><path d="M67.69 68.45c0-1.77 56.31 38.6 56.31 38.6V124H67.5c-.48-13.19.05-47.32.19-55.55z" fill="url(#c)"/><path d="M106.47 39.45c6.21 0 12.27 1.59 17.53 4.84v71.69c-3.88 2.79-8.08 4.79-12.18 5.98-3.59 1.04-6.42 1.56-11.42 1.56-2.98 0-6.71-1.39-9.36-3-11.72-7.13-19.31-18.02-19.31-39.23 0-28.43 16.7-41.84 34.74-41.84z" fill="#ffca28"/><g fill="#6d4c41"><path d="M106.65 77.36c.97-1.29 3.22-3.16 7.58-3.16 4.36 0 6.61 1.87 7.58 3.16.43.57.32 1.23.02 1.62-.28.37-1.09.71-1.99.41-.9-.31-2.66-1.22-5.61-1.24-2.95.02-4.71.93-5.61 1.24-.9.31-1.72-.04-1.99-.41-.3-.39-.41-1.05.02-1.62zM73.67 77.36c.97-1.29 3.22-3.16 7.58-3.16 4.36 0 6.61 1.87 7.58 3.16.43.57.32 1.23.02 1.62-.28.37-1.09.71-1.99.41-.9-.31-2.66-1.22-5.61-1.24-2.95.02-4.71.93-5.61 1.24-.9.31-1.72-.04-1.99-.41-.3-.39-.41-1.05.02-1.62z"/></g><g fill="#404040"><path d="M108.65 85.64c-.67-.79-1.07-.16-1.2.36-.45 1.76.25 4.54 3.47 5.43 4.36 1.2 8.76-1.42 9.25-4.98.06-.44-.43-.77-.82-.55-1.31.72-2.93 2.23-6.3 1.88-3.29-.33-3.68-1.29-4.4-2.14zM75.8 85.64c-.67-.79-1.07-.16-1.2.36-.45 1.76.25 4.54 3.47 5.43 4.36 1.2 8.76-1.42 9.25-4.98.06-.44-.43-.77-.82-.55-1.31.72-2.93 2.23-6.3 1.88-3.28-.33-3.68-1.29-4.4-2.14z"/></g><path d="M91.65 114.85c-3.02.38-8.02-2.23-6.91-5.19.42-1.12 2.1-1.45 2.1-1.45s-2.76-3.12-1.34-4.76c1.91-2.21 5.07-.59 7.43-1.27.48-.14.99-.36 1.46-.2-.2.94-.76 1.62-1.95 2.04-1.34.47-2.8.2-3.54.83-.76.66-.11 1.59.87 2.17 1.39.82 3.47 1.24 3.37 1.9-.11.72-2.49.8-3.02.95-.48.14-1.18.32-1.39.83-.38.89.93 1.85 1.6 2.25.74.44 2.61.93 2.68.99.14.12.11.37-.02.51-.13.15-1.05.36-1.34.4z" fill="#795548"/><path d="M89.65 93.53c.11-.04.22-.07.33-.09h7.33c.11.01.22.04.33.09.66.27 1.03.96.72 1.69-.31.73-1.77 2.79-4.71 2.79s-4.4-2.06-4.71-2.79c-.32-.73.05-1.42.71-1.69z" fill="#e59600"/><g><path d="M67.69 68.45c0-.63-2.36-40.02 37.99-40.57 7.23-.1 13.27 1.06 18.32 3.04V74.2c-4.45-5.54-10.85-19.78-10.85-19.78-12.89 9.6-36.62 10.48-41.41 21.01 0 0-.63 7.35.97 19.48 0 0-5.26-.08-5.26-.14-.29-8.71.24-18.24.24-26.32z" fill="#543930"/><radialGradient id="d" cx="41.446" cy="86.497" r="43.747" gradientTransform="matrix(-1 0 0 1.1286 145.19 -11.122)" gradientUnits="userSpaceOnUse"><stop offset=".794" stop-color="#6d4c41" stop-opacity="0"/><stop offset="1" stop-color="#6d4c41"/></radialGradient><path d="M67.69 68.45c0-.63-2.36-40.02 37.99-40.57 7.23-.1 13.27 1.06 18.32 3.04V74.2c-4.45-5.54-10.85-19.78-10.85-19.78-12.89 9.6-36.62 10.48-41.41 21.01 0 0-.63 7.35.97 19.48 0 0-5.26-.08-5.26-.14-.29-8.71.24-18.24.24-26.32z" fill="url(#d)"/></g></g><radialGradient id="e" cx="61.589" cy="6.895" r="36.798" gradientTransform="matrix(.9985 0 0 .9337 2.266 -6.362)" gradientUnits="userSpaceOnUse"><stop offset=".481" stop-color="#ff80ab"/><stop offset=".998" stop-color="#ff4081"/></radialGradient><path d="M78.39 3.74c-10.51 0-14.37 12.57-14.37 12.57S60.21 3.74 49.62 3.74c-7.96 0-17.03 6.31-13.68 20.64 3.35 14.33 27.97 32.11 27.97 32.11s.13-.05.13-.13c0 .08.08.12.08.12s24.58-17.77 27.93-32.1c3.36-14.34-5.7-20.64-13.66-20.64z" fill="url(#e)"/></svg>