<svg width="128" height="128" xmlns="http://www.w3.org/2000/svg" width="512px" height="512px"><linearGradient id="a" gradientUnits="userSpaceOnUse" x1="64" x2="64" y1="20" y2="117.014"><stop offset=".005" stop-color="#d7ccc8"/><stop offset=".261" stop-color="#d4c9c5"/><stop offset=".483" stop-color="#cdbfba"/><stop offset=".694" stop-color="#bfaea8"/><stop offset=".896" stop-color="#ad978f"/><stop offset="1" stop-color="#a1887f"/></linearGradient><path fill="url(#a)" d="M8 20h112v96H8z"/><path d="M123 72H5c-.8 0-1.28-.89-.83-1.55L8 66h112l3.83 4.45A.997.997 0 0 1 123 72z" fill="#795548"/><radialGradient id="b" cx="63.25" cy="-2.75" gradientTransform="matrix(0 1 -1.3123 0 59.641 -66)" gradientUnits="userSpaceOnUse" r="36.5"><stop offset="0" stop-color="#795548"/><stop offset="1" stop-color="#5d4037"/></radialGradient><path d="M124 20H4L18.83 5.17C19.58 4.42 20.6 4 21.66 4h84.69c1.06 0 2.08.42 2.83 1.17L124 20z" fill="url(#b)"/><path d="M122 22H6c-1.1 0-2-.9-2-2h120c0 1.1-.9 2-2 2z" fill="#6d4c41"/><path fill="#b2836b" d="M8 67.5h112v1H8z" opacity=".4"/><g opacity=".68"><path fill="#cca88f" d="M8 27h112v1H8zM8 43h112v1H8zM8 59h112v1H8zM8 76h112v1H8zM8 88h112v1H8zM8 100h112v1H8zM8 112h112v1H8z" opacity=".4"/></g><linearGradient id="c" gradientUnits="userSpaceOnUse" x1="64" x2="64" y1="-2.993" y2="25.211"><stop offset="0" stop-color="#795548"/><stop offset="1" stop-color="#5d4037"/></linearGradient><path d="M124 20H4L18.83 5.17C19.58 4.42 20.6 4 21.66 4h84.69c1.06 0 2.08.42 2.83 1.17L124 20z" fill="url(#c)"/><path d="M122 22H6c-1.1 0-2-.9-2-2h120c0 1.1-.9 2-2 2z" fill="#5d4037"/><path d="M123 72H5c-.8 0-1.28-.89-.83-1.55L8 66h112l3.83 4.45A.997.997 0 0 1 123 72z" fill="#6d4c41"/><defs><path id="d" d="M120 66V20h4L109.17 5.17A4.004 4.004 0 0 0 106.34 4H21.66c-1.06 0-2.08.42-2.83 1.17L4 20h4v46l-3.83 4.45C3.73 71.11 4.2 72 5 72h3v44h112V72h3c.8 0 1.28-.89.83-1.55L120 66z"/></defs><linearGradient id="e" gradientUnits="userSpaceOnUse" x1="49.129" x2="14.135" y1="68" y2="68"><stop offset="0" stop-color="#a1887f"/><stop offset="1" stop-color="#a1887f" stop-opacity="0"/></linearGradient><path opacity=".6" fill="url(#e)" d="M8 20h48v96H8z"/><linearGradient id="f" gradientTransform="matrix(-1 0 0 1 184 0)" gradientUnits="userSpaceOnUse" x1="105.129" x2="70.135" y1="68" y2="68"><stop offset="0" stop-color="#a1887f"/><stop offset="1" stop-color="#a1887f" stop-opacity="0"/></linearGradient><path opacity=".6" fill="url(#f)" d="M72 116h48V20H72z"/><linearGradient id="g" gradientUnits="userSpaceOnUse" x1="64" x2="64" y1="20.667" y2="121.333"><stop offset=".005" stop-color="#d7ccc8"/><stop offset=".355" stop-color="#d4c9c5"/><stop offset=".661" stop-color="#ccbfba"/><stop offset=".948" stop-color="#bfaea8"/><stop offset="1" stop-color="#bcaaa4"/></linearGradient><path d="M64 20c-.2 0-24 10-24 10v90h48V28v2L64 20z" fill="url(#g)"/><path d="M62.9 16.55L37.37 27.32c-.84.42-1.37 1.27-1.37 2.21 0 1.36 1.11 2.47 2.47 2.47H40v-2l22.9-9.45c.7-.35 1.51-.35 2.21 0L88 30v2h1.53c1.36 0 2.47-1.11 2.47-2.47 0-.94-.53-1.79-1.37-2.21L65.1 16.55c-.69-.35-1.51-.35-2.2 0z" fill="#4e342e"/><path d="M124 124H4v-4c0-2.21 1.79-4 4-4h112c2.21 0 4 1.79 4 4v4z" fill="#6d4c41"/><path fill="#4e342e" d="M57 96h14v20H57z"/><g fill="#795548"><path d="M56 96h2v20h-2zM70 96h2v20h-2z"/></g><path fill="#4e342e" d="M21.22 39h9.9v20h-9.9z"/><path d="M32 38H20v22h12V38zm-1.94 20h-8v-8h8v8zm0-10h-8v-8h8v8z" fill="#795548"/><path d="M33 60H19c-.28 0-.5-.22-.5-.5v-1c0-.28.22-.5.5-.5h14c.28 0 .5.22.5.5v1c0 .28-.22.5-.5.5zM33 40H19c-.28 0-.5-.22-.5-.5v-1c0-.28.22-.5.5-.5h14c.28 0 .5.22.5.5v1c0 .28-.22.5-.5.5z" fill="#5d4037"/><path fill="#4e342e" d="M21.22 81h9.9v20h-9.9z"/><path d="M32 80H20v22h12V80zm-1.94 20h-8v-8h8v8zm0-10h-8v-8h8v8z" fill="#795548"/><path d="M33 102H19c-.28 0-.5-.22-.5-.5v-1c0-.28.22-.5.5-.5h14c.28 0 .5.22.5.5v1c0 .28-.22.5-.5.5zM33 82H19c-.28 0-.5-.22-.5-.5v-1c0-.28.22-.5.5-.5h14c.28 0 .5.22.5.5v1c0 .28-.22.5-.5.5z" fill="#5d4037"/><path fill="#4e342e" d="M97.26 39h9.9v20h-9.9z"/><path d="M108.04 38h-12v22h12V38zm-1.94 20h-8v-8h8v8zm0-10h-8v-8h8v8z" fill="#795548"/><path d="M109.04 60h-14c-.28 0-.5-.22-.5-.5v-1c0-.28.22-.5.5-.5h14c.28 0 .5.22.5.5v1c0 .28-.22.5-.5.5zM109.04 40h-14c-.28 0-.5-.22-.5-.5v-1c0-.28.22-.5.5-.5h14c.28 0 .5.22.5.5v1c0 .28-.22.5-.5.5z" fill="#5d4037"/><g><path fill="#4e342e" d="M97.26 81h9.9v20h-9.9z"/><path d="M108.04 80h-12v22h12V80zm-1.94 20h-8v-8h8v8zm0-10h-8v-8h8v8z" fill="#795548"/><path d="M109.04 102h-14c-.28 0-.5-.22-.5-.5v-1c0-.28.22-.5.5-.5h14c.28 0 .5.22.5.5v1c0 .28-.22.5-.5.5zM109.04 82h-14c-.28 0-.5-.22-.5-.5v-1c0-.28.22-.5.5-.5h14c.28 0 .5.22.5.5v1c0 .28-.22.5-.5.5z" fill="#5d4037"/></g><path d="M72.05 96h-16.1c-1.08 0-1.95-.87-1.95-1.95v-.1c0-1.08.87-1.95 1.95-1.95h16.1c1.08 0 1.95.87 1.95 1.95v.1c0 1.08-.87 1.95-1.95 1.95z" fill="#5d4037"/><path fill="#ff1744" d="M46.58 33h34.83v6.86H46.58zM46.58 45.5h34.83v6.86H46.58z"/><path fill="#ff1744" d="M60.24 49.5h7.52v17h-7.52z"/><g opacity=".2"><path d="M106.34 7c.27 0 .52.1.71.29L118.76 19H117v48.11l.73.84.9 1.04H117v50h3c.55 0 1 .45 1 1v1H7v-1c0-.55.45-1 1-1h3v-50H9.38l.9-1.04.72-.84V19H9.24L20.95 7.29a.99.99 0 0 1 .71-.29h84.68m0-3H21.66c-1.06 0-2.08.42-2.83 1.17L4 20c0 1.1.9 2 2 2h2v44l-3.83 4.45C3.73 71.11 4.2 72 5 72h3v44c-2.21 0-4 1.79-4 4v4h120v-4c0-2.21-1.79-4-4-4V72h3c.8 0 1.28-.89.83-1.55L120 66V22h2c1.1 0 2-.9 2-2L109.17 5.17A4.004 4.004 0 0 0 106.34 4z" fill="#424242"/></g></svg>