<svg width="128" height="128" xmlns="http://www.w3.org/2000/svg" xmlns:xlink="http://www.w3.org/1999/xlink"><linearGradient id="a" gradientUnits="userSpaceOnUse" x1="64" x2="64" y1="36.833" y2="104.334"><stop offset="0" stop-color="#ffc107"/><stop offset="1" stop-color="#ffd54f"/></linearGradient><path d="M120 104H8c-2.21 0-4-1.79-4-4V28c0-2.21 1.79-4 4-4h112c2.21 0 4 1.79 4 4v72c0 2.21-1.79 4-4 4z" fill="url(#a)"/><linearGradient id="b" gradientUnits="userSpaceOnUse" x1="64" x2="64" y1="8.456" y2="72.154"><stop offset="0" stop-color="#ffe082"/><stop offset=".993" stop-color="#ffca28"/></linearGradient><path d="M124 30.16V28c0-2.21-1.79-4-4-4H8c-2.21 0-4 1.79-4 4v2.02l59.91 46.13L124 30.16z" fill="url(#b)"/><defs><path id="c" d="M120 104H8c-2.21 0-4-1.79-4-4V28c0-2.21 1.79-4 4-4h112c2.21 0 4 1.79 4 4v72c0 2.21-1.79 4-4 4z"/></defs><clipPath id="d"><use xlink:href="#c" overflow="visible"/></clipPath><g clip-path="url(#d)" fill="none" stroke="#ffb300" stroke-width="3" stroke-miterlimit="10"><path d="M43.01 60.76l-43.2 47.17M84.88 60.66L128 108.12"/></g><path clip-path="url(#d)" fill="none" stroke="#ffb300" stroke-width="3" stroke-miterlimit="10" d="M.08 27.78l63.83 48.36 64.01-48.2"/><g opacity=".2"><path d="M120 27c.55 0 1 .45 1 1v72c0 .55-.45 1-1 1H8c-.55 0-1-.45-1-1V28c0-.55.45-1 1-1h112m0-3H8c-2.21 0-4 1.79-4 4v72c0 2.21 1.79 4 4 4h112c2.21 0 4-1.79 4-4V28c0-2.21-1.79-4-4-4z" fill="#444"/></g></svg>