<svg width="128" height="128" xmlns="http://www.w3.org/2000/svg" width="512px" height="512px"><linearGradient id="a" gradientUnits="userSpaceOnUse" x1="64" x2="64" y1="4.393" y2="123.331"><stop offset="0" stop-color="#ff5252"/><stop offset=".206" stop-color="#fd4d4d"/><stop offset=".436" stop-color="#f64040"/><stop offset=".679" stop-color="#ea2a2a"/><stop offset=".927" stop-color="#da0b0b"/><stop offset="1" stop-color="#d50000"/></linearGradient><ellipse cx="64" cy="112" rx="12" ry="12" fill="url(#a)"/><linearGradient id="b" gradientUnits="userSpaceOnUse" x1="64" x2="64" y1="4.393" y2="123.331"><stop offset="0" stop-color="#ff5252"/><stop offset=".206" stop-color="#fd4d4d"/><stop offset=".436" stop-color="#f64040"/><stop offset=".679" stop-color="#ea2a2a"/><stop offset=".927" stop-color="#da0b0b"/><stop offset="1" stop-color="#d50000"/></linearGradient><path d="M70.14 92H57.86c-2.19 0-3.98-1.74-4.03-3.91L52 8.09C51.95 5.85 53.77 4 56.03 4h15.94c2.26 0 4.08 1.85 4.03 4.09l-1.83 80c-.05 2.17-1.84 3.91-4.03 3.91z" fill="url(#b)"/><g opacity=".2" fill="#424242"><path d="M64 103c4.96 0 9 4.04 9 9s-4.04 9-9 9-9-4.04-9-9 4.04-9 9-9m0-3c-6.63 0-12 5.37-12 12s5.37 12 12 12 12-5.37 12-12-5.37-12-12-12zM71.97 7c.39 0 .63.2.75.31.13.14.29.37.28.71l-1.83 80c-.01.54-.48.98-1.03.98H57.86c-.56 0-1.02-.44-1.03-.98L55 8.02c-.01-.34.15-.57.28-.71.12-.11.36-.31.75-.31h15.94m0-3H56.03C53.77 4 51.95 5.85 52 8.09l1.83 80c.05 2.17 1.84 3.91 4.03 3.91h12.27c2.19 0 3.98-1.74 4.03-3.91l1.83-80C76.05 5.85 74.23 4 71.97 4z"/></g></svg>