<svg xmlns="http://www.w3.org/2000/svg" viewBox="0 0 128 128" width="512px" height="512px"><path fill="#795548" d="M105.2 123.4l-2.7-30.2H69.3l-2.6 30.2z"/><circle cx="85.8" cy="62.9" r="11.1" fill="#fff8e1"/><path d="M85.8 53.8c5 0 9.1 4.1 9.1 9.1S90.8 72 85.8 72s-9.1-4.1-9.1-9.1 4.1-9.1 9.1-9.1m0-2c-6.1 0-11.1 5-11.1 11.1S79.7 74 85.8 74s11.1-5 11.1-11.1-5-11.1-11.1-11.1z" fill="#424242" opacity=".2"/><circle cx="76.3" cy="75.3" r="11.1" fill="#fff8e1"/><path d="M76.3 66.2c5 0 9.1 4.1 9.1 9.1s-4.1 9.1-9.1 9.1-9.1-4.1-9.1-9.1 4.1-9.1 9.1-9.1m0-2c-6.1 0-11.1 5-11.1 11.1s5 11.1 11.1 11.1 11.1-5 11.1-11.1-5-11.1-11.1-11.1z" fill="#424242" opacity=".2"/><circle cx="95.3" cy="75.3" r="11.1" fill="#fff8e1"/><path d="M95.3 66.2c5 0 9.1 4.1 9.1 9.1s-4.1 9.1-9.1 9.1-9.1-4.1-9.1-9.1 4.1-9.1 9.1-9.1m0-2c-6.1 0-11.1 5-11.1 11.1s5 11.1 11.1 11.1 11.1-5 11.1-11.1-4.9-11.1-11.1-11.1z" fill="#424242" opacity=".2"/><circle cx="69.9" cy="86.7" r="11.1" fill="#fff8e1"/><circle cx="101.7" cy="86.7" r="11.1" fill="#fff8e1"/><path d="M69.9 77.7c5 0 9.1 4.1 9.1 9.1s-4.1 9.1-9.1 9.1-9.1-4.1-9.1-9.1 4.1-9.1 9.1-9.1m0-2c-6.1 0-11.1 5-11.1 11.1s5 11.1 11.1 11.1S81 92.8 81 86.7s-5-11-11.1-11zM101.7 77.7c5 0 9.1 4.1 9.1 9.1s-4.1 9.1-9.1 9.1-9.1-4.1-9.1-9.1 4.1-9.1 9.1-9.1m0-2c-6.1 0-11.1 5-11.1 11.1s5 11.1 11.1 11.1 11.1-5 11.1-11.1c0-6.2-5-11.1-11.1-11.1z" fill="#424242" opacity=".2"/><circle cx="85.8" cy="86.7" r="11.1" fill="#fff8e1"/><path d="M85.8 77.7c5 0 9.1 4.1 9.1 9.1s-4.1 9.1-9.1 9.1-9.1-4.1-9.1-9.1 4.1-9.1 9.1-9.1m0-2c-6.1 0-11.1 5-11.1 11.1s5 11.1 11.1 11.1 11.1-5 11.1-11.1c0-6.2-5-11.1-11.1-11.1z" fill="#424242" opacity=".2"/><path d="M115.4 102.1H56.5c-1.6 0-2.9-1.3-2.9-2.9v-6.7c0-1.6 1.3-2.9 2.9-2.9h58.9c1.6 0 2.9 1.3 2.9 2.9v6.7c0 1.6-1.3 2.9-2.9 2.9z" fill="#8d6e63"/><path d="M56.8 102h11.8l-1.8 21.4h3l1.8-20.9c.1-.8-.2-1.8-.8-2.4-.6-.6-1.4-1.1-2.2-1.1H56.8c-.1 0 .2 0 .2-.1V93h58v5.9c0 .1.2.1.1.1h-11.8c-.8 0-1.6.4-2.2 1s-.8 1.6-.8 2.4l1.8 21h3l-1.8-21.4h11.8c1.7 0 2.9-1.3 2.9-3.1v-6.2c0-1.7-1.1-2.7-2.9-2.7H56.8C55 90 54 91 54 92.7v6.2c0 1.8 1 3.1 2.8 3.1z" fill="#424242" opacity=".2"/><path d="M89.4 110.8c-.3-1.9-1.7-3.4-3.5-3.4s-3.2 1.4-3.5 3.4c-1.6.4-2.9.4-2.9 2.5 0 2.3 3.9 6.1 6.5 6.1s6.3-3.8 6.3-6.1c0-2.1-1.2-2.1-2.9-2.5z" fill="#4e342e"/><path d="M16 123.4h8.1c-.6-10.6-1-21.4-.6-32 5.6-5.2 12.4-5.9 19.6-2.7 1.1.5 2.5-.9 1.4-1.9-4.5-4-10.5-4.9-16-3.4 6-4.2 13.7-5.3 20.9-3.7 1.3.3 2.1-1.5.9-2.2-5.1-2.7-11.4-2.9-17.2-1.2 7.4-4.3 15.6-6 24.5-3.8 1.6.4 2.8-2 1.2-2.8-10.3-5.3-22.2-2-31.2 4.5 2.2-3.4 4.8-6.4 8-8.8 8.1-6.3 18.6-8 28.7-7.2 1.8.1 2.2-2.8.4-3.2-11-2.2-23-.1-32 6.8-2.7 2.1-5.1 4.5-7.3 7.3V69c.3-2.1 2.3-5 3.7-6.5 7.2-7.5 16.5-10.3 27.1-10.8 1.6-.1 1.5-2.2 0-2.4-10-1.3-20.9 2.1-28.7 8.7 8-11.5 24.1-15.5 37.6-14.1 1.4.1 1.6-2 .3-2.3-10.3-3-23.3-.8-32.8 5.4 0-.1.1-.1.1-.2.1-.2.2-.4.3-.5 8-9.8 22.7-12.9 34.4-14.8 1.8-.3 1.2-2.9-.4-3-6.8-.3-14.7.9-21.9 3.8 3.6-3.1 7.7-5.7 12-7.6 5.2-2.4 10.8-3.9 16.4-4.9 2.6-.5 1.8-2.4-.6-2.5-15.5-1-32.6 9.2-42 20.7C15.2 57.1 15 84.6 15.3 108.1c.2 5 .4 10.1.7 15.3z" fill="#ffa726"/><g opacity=".2"><path d="M16 123.4h1c-.3-5.7-.5-10.7-.5-15.6-.3-21.1-.5-50.1 15.3-69.4 8.1-9.8 23.8-20.3 39.2-20.3.7 0 1.4 0 2 .1.6 0 1 .2 1.2.4-.1.1-.3.1-.7.2-6.2 1.1-11.8 2.8-16.7 5-4.3 2-8.4 4.6-12.2 7.8-.4.3-.5.9-.2 1.3.2.3.5.5.9.5.1 0 .2 0 .4-.1 6.1-2.4 13-3.7 19.6-3.7h1.9c.3 0 .5.4.5.7 0 .3-.1.3-.2.3-12.8 2-27 5.5-35 15.2 0 0 0 .1-.1.1l-.1.2c-.1.1-.1.2-.2.3 0 0 0 .1-.1.1v.1c-.2.4-.2.9.2 1.2.2.2.4.3.7.3.2 0 .4 0 .5-.2 6.3-4.2 14.5-6.5 22.4-6.5 3.4 0 6.6.4 9.6 1.3 0 0 .1 0 .1.1v.3c-1.8-.2-3.6-.3-5.4-.3-14.3 0-26.6 5.5-33.1 14.8-.3.4-.2 1 .1 1.3.2.2.4.3.7.3.2 0 .5-.1.6-.2 6.4-5.8 15.1-9 23.6-9 1.4 0 2.8.1 4.2.3.3 0 .3.2.3.3 0 0 0 .1-.2.1-12.3.7-21.1 4.2-27.8 11.1-1.3 1.4-3.6 4.6-4 7.1-.1.5.2.9.6 1.1.1.1.3.1.4.1.3 0 .6-.1.8-.4 2.1-2.8 4.5-5.2 7.1-7.1 6.3-4.8 14.4-7.4 23-7.4 2.8 0 5.5.3 8.2.8.4.1.4.5.3.6 0 0-.1.6-.5.6-1.6-.1-3-.2-4.4-.2-10.1 0-18.5 2.6-25 7.6-3.1 2.4-5.9 5.5-8.2 9.1-.3.4-.2.9.2 1.3.2.2.4.3.7.3.2 0 .4-.1.6-.2 6.2-4.5 13.1-7 19.6-7 3.8 0 7.4.9 10.6 2.5.2.1.3.2.2.4-.1.2-.3.5-.6.5H58c-2.6-.6-5.2-1-7.8-1-5.9 0-11.7 1.7-17.3 4.9-.4.3-.6.8-.4 1.3.2.4.5.6.9.6h.3c2.4-.7 4.8-1.1 7.2-1.1 3.4 0 6.6.8 9.2 2.2h.1s0 .1-.1.2c0 0-.1.1-.2.1-2.4-.5-4.7-.7-6.9-.7-5.6 0-10.8 1.6-15.1 4.6-.4.3-.5.8-.3 1.2.2.4.5.6.9.6h.3c1.5-.4 3.1-.7 4.7-.7 3.9 0 7.5 1.4 10.3 3.8h.1c0 .1-.2.2-.3.2h-.1c-3-1.3-6-2-8.8-2-4.4 0-8.4 1.7-11.9 4.9-.2.2-.3.4-.3.7-.4 11 0 22.1.6 32.1h1c-.6-10.6-1-21.4-.6-32 3.4-3.2 7.2-4.6 11.2-4.6 2.7 0 5.5.7 8.4 1.9.2.1.3.1.5.1 1 0 1.9-1.1.9-2-3.1-2.8-7-4.1-11-4.1-1.7 0-3.4.2-5 .7 4.2-3 9.3-4.4 14.5-4.4 2.2 0 4.3.2 6.4.8h.3c1.1 0 1.8-1.6.6-2.2-3-1.6-6.3-2.3-9.7-2.3-2.5 0-5 .4-7.5 1.1 5.2-3 10.8-4.8 16.8-4.8 2.5 0 5 .3 7.6.9h.4c1.4 0 2.3-2.1.8-2.8-3.6-1.8-7.3-2.6-11.1-2.6-7.1 0-14.2 2.9-20.1 7.2 2.2-3.3 4.8-6.4 8-8.8C42.6 60 51.3 58 60 58c1.4 0 2.8 0 4.2.1h.1c1.7 0 2.1-2.8.3-3.2-2.8-.5-5.6-.8-8.4-.8-8.4 0-16.8 2.5-23.6 7.6-2.7 2.1-5.1 4.6-7.3 7.3.3-2.1 2.3-5 3.8-6.6 7.2-7.5 16.5-10.2 27.1-10.8 1.6-.1 1.5-2.2 0-2.4-1.4-.2-2.9-.3-4.3-.3-8.7 0-17.7 3.3-24.4 9 7-10.1 20.1-14.4 32.3-14.4 1.8 0 3.6.1 5.3.3h.1c1.2 0 1.4-2 .2-2.3-3.1-.9-6.4-1.3-9.8-1.3-8 0-16.3 2.3-22.9 6.7 0-.1.1-.1.1-.2.1-.2.2-.4.3-.5 8-9.8 22.7-12.9 34.4-14.8 1.8-.3 1.2-2.9-.4-3h-2c-6.3 0-13.4 1.2-19.9 3.8 3.6-3.1 7.7-5.7 12-7.6 5.2-2.3 10.8-3.9 16.4-4.9 2.6-.5 1.8-2.4-.6-2.5-.7 0-1.4-.1-2.1-.1C56 17.1 40 26.9 31 37.8c-15.7 19.1-15.9 46.6-15.6 70.1.1 5.2.3 10.3.6 15.5z" fill="#424242"/></g></svg>