<svg width="128" height="128" xmlns="http://www.w3.org/2000/svg"><path fill="#424242" d="M21.02 4h85.97v120H21.02z"/><path d="M103.98 7v114H24.02V7h79.96m3-3H21.02v120h85.97V4h-.01z" fill="#eee" opacity=".2"/><path fill="none" stroke="#212121" stroke-width="3" stroke-miterlimit="10" d="M24.31 64h79.38"/><linearGradient id="a" gradientUnits="userSpaceOnUse" x1="64" x2="64" y1="9.192" y2="58.551"><stop offset=".012" stop-color="#bdbdbd"/><stop offset=".273" stop-color="#9f9f9f"/><stop offset=".536" stop-color="#888"/><stop offset=".785" stop-color="#7a7a7a"/><stop offset="1" stop-color="#757575"/></linearGradient><path fill="url(#a)" d="M27.57 9.3h72.86v50.72H27.57z"/><linearGradient id="b" gradientUnits="userSpaceOnUse" x1="64" x2="64" y1="68.102" y2="117.46"><stop offset=".012" stop-color="#bdbdbd"/><stop offset=".273" stop-color="#9f9f9f"/><stop offset=".536" stop-color="#888"/><stop offset=".785" stop-color="#7a7a7a"/><stop offset="1" stop-color="#757575"/></linearGradient><path fill="url(#b)" d="M27.57 68.21h72.86v50.72H27.57z"/><path fill="#fff" stroke="#bdbdbd" stroke-width="2" stroke-miterlimit="10" d="M49.2 21.57h29.61v13.7H49.2z"/><path fill="#bdbdbd" d="M49.2 44.4h29.61v4.79H49.2z"/><g><path fill="#fff" stroke="#bdbdbd" stroke-width="2" stroke-miterlimit="10" d="M49.2 79.76h29.61v13.7H49.2z"/><path fill="#bdbdbd" d="M49.2 102.59h29.61v4.79H49.2z"/></g></svg>