<svg width="128" height="128" xmlns="http://www.w3.org/2000/svg" xmlns:xlink="http://www.w3.org/1999/xlink" width="512px" height="512px"><linearGradient id="a" gradientUnits="userSpaceOnUse" x1="100.625" x2="100.625" y1="13.333" y2="122.667"><stop offset=".177" stop-color="#bcaaa4"/><stop offset=".366" stop-color="#b9a69f"/><stop offset=".586" stop-color="#ae9991"/><stop offset=".82" stop-color="#9e837a"/><stop offset="1" stop-color="#8d6e63"/></linearGradient><path d="M123.75 124H77.5V15c0-1.66 1.34-3 3-3h40.25c1.66 0 3 1.34 3 3v109z" fill="url(#a)"/><path d="M97.58 99.08h-6.25c-1.1 0-2-.9-2-2v-6c0-1.1.9-2 2-2h6.25c1.1 0 2 .9 2 2v6c0 1.11-.89 2-2 2zM97.58 82.42h-6.25c-1.1 0-2-.9-2-2v-6c0-1.1.9-2 2-2h6.25c1.1 0 2 .9 2 2v6a2 2 0 0 1-2 2zM97.58 65.75h-6.25c-1.1 0-2-.9-2-2v-6c0-1.1.9-2 2-2h6.25c1.1 0 2 .9 2 2v6a2 2 0 0 1-2 2zM97.58 48h-6.25c-1.1 0-2-.9-2-2v-6c0-1.1.9-2 2-2h6.25c1.1 0 2 .9 2 2v6a2 2 0 0 1-2 2zM118.58 99.08h-9.75c-1.1 0-2-.9-2-2v-6c0-1.1.9-2 2-2h9.75c1.1 0 2 .9 2 2v6c0 1.11-.89 2-2 2zM118.58 82.42h-9.75c-1.1 0-2-.9-2-2v-6c0-1.1.9-2 2-2h9.75c1.1 0 2 .9 2 2v6a2 2 0 0 1-2 2zM118.58 65.75h-9.75c-1.1 0-2-.9-2-2v-6c0-1.1.9-2 2-2h9.75c1.1 0 2 .9 2 2v6a2 2 0 0 1-2 2zM118.58 48h-9.75c-1.1 0-2-.9-2-2v-6c0-1.1.9-2 2-2h9.75c1.1 0 2 .9 2 2v6a2 2 0 0 1-2 2z" fill="#6d4c41"/><path fill="#c62828" d="M90.25 29.62h8v5h-8zM90.25 92h8v5h-8z"/><linearGradient id="b" gradientUnits="userSpaceOnUse" x1="48" x2="48" y1="3.75" y2="124.808"><stop offset=".177" stop-color="#d7ccc8"/><stop offset=".354" stop-color="#d3c8c3"/><stop offset=".56" stop-color="#c9bab5"/><stop offset=".78" stop-color="#b8a59e"/><stop offset="1" stop-color="#a1887f"/></linearGradient><path d="M92 124H4V8c0-2.21 1.79-4 4-4h80c2.21 0 4 1.79 4 4v116z" fill="url(#b)"/><path d="M88 7c.55 0 1 .45 1 1v4c0 1.66 1.34 3 3 3h28.75v106H7V8c0-.55.45-1 1-1h80m0-3H8C5.79 4 4 5.79 4 8v116h119.75V15c0-1.66-1.34-3-3-3H92V8c0-2.21-1.79-4-4-4z" fill="#424242" opacity=".2"/><path d="M25.05 97.08H13.83c-1.1 0-2-.9-2-2V89.3c0-1.1.9-2 2-2h11.22c1.1 0 2 .9 2 2v5.78c0 1.11-.89 2-2 2zM25.05 80.79H13.83c-1.1 0-2-.9-2-2v-5.78c0-1.1.9-2 2-2h11.22c1.1 0 2 .9 2 2v5.78a2 2 0 0 1-2 2zM25.05 64.49H13.83c-1.1 0-2-.9-2-2v-5.78c0-1.1.9-2 2-2h11.22c1.1 0 2 .9 2 2v5.78c0 1.11-.89 2-2 2zM25.05 48.19H13.83c-1.1 0-2-.9-2-2v-5.78c0-1.1.9-2 2-2h11.22c1.1 0 2 .9 2 2v5.78c0 1.11-.89 2-2 2zM53.28 97.08H42.06c-1.1 0-2-.9-2-2V89.3c0-1.1.9-2 2-2h11.22c1.1 0 2 .9 2 2v5.78a2 2 0 0 1-2 2zM53.28 80.79H42.06c-1.1 0-2-.9-2-2v-5.78c0-1.1.9-2 2-2h11.22c1.1 0 2 .9 2 2v5.78c0 1.1-.9 2-2 2zM53.28 64.49H42.06c-1.1 0-2-.9-2-2v-5.78c0-1.1.9-2 2-2h11.22c1.1 0 2 .9 2 2v5.78a2 2 0 0 1-2 2zM53.28 48.19H42.06c-1.1 0-2-.9-2-2v-5.78c0-1.1.9-2 2-2h11.22c1.1 0 2 .9 2 2v5.78a2 2 0 0 1-2 2zM81.5 97.08H70.28c-1.1 0-2-.9-2-2V89.3c0-1.1.9-2 2-2H81.5c1.1 0 2 .9 2 2v5.78a2 2 0 0 1-2 2zM81.5 80.79H70.28c-1.1 0-2-.9-2-2v-5.78c0-1.1.9-2 2-2H81.5c1.1 0 2 .9 2 2v5.78c0 1.1-.9 2-2 2zM81.5 64.49H70.28c-1.1 0-2-.9-2-2v-5.78c0-1.1.9-2 2-2H81.5c1.1 0 2 .9 2 2v5.78a2 2 0 0 1-2 2zM81.5 48.19H70.28c-1.1 0-2-.9-2-2v-5.78c0-1.1.9-2 2-2H81.5c1.1 0 2 .9 2 2v5.78a2 2 0 0 1-2 2zM25.05 31.86H13.83c-1.1 0-2-.9-2-2v-5.78c0-1.1.9-2 2-2h11.22c1.1 0 2 .9 2 2v5.78c0 1.11-.89 2-2 2zM53.28 31.86H42.06c-1.1 0-2-.9-2-2v-5.78c0-1.1.9-2 2-2h11.22c1.1 0 2 .9 2 2v5.78a2 2 0 0 1-2 2zM81.5 31.86H70.28c-1.1 0-2-.9-2-2v-5.78c0-1.1.9-2 2-2H81.5c1.1 0 2 .9 2 2v5.78a2 2 0 0 1-2 2zM11 110h22.42v14H11z" fill="#6d4c41"/><g opacity=".2" fill="#424242"><path d="M11 110h2.8v14H11zM30.62 110h2.8v14h-2.8z"/></g><path fill="#6d4c41" d="M36.79 110h22.42v14H36.79z"/><g opacity=".2" fill="#424242"><path d="M36.79 110h2.8v14h-2.8zM56.41 110h2.8v14h-2.8z"/></g><g><path fill="#6d4c41" d="M62.58 110H85v14H62.58z"/><g opacity=".2" fill="#424242"><path d="M62.58 110h2.8v14h-2.8zM82.2 110H85v14h-2.8z"/></g></g><g><path d="M87.75 112.08H8.67c-1.1 0-2-.9-2-2v-.3h83.08v.3a2 2 0 0 1-2 2z" fill="#4db6ac"/><path d="M89.75 110.36H6.67v-2.44c0-.55.45-1 1-1h81.08c.55 0 1 .45 1 1v2.44z" fill="#00796b"/></g><g><path d="M100 104.71c-1.63 0-2.96-1.33-2.96-2.96V25c0-1.63 1.33-2.96 2.96-2.96h11.57c1.63 0 2.96 1.33 2.96 2.96v76.75c0 1.63-1.33 2.96-2.96 2.96H100z" fill="#ef5350"/><path d="M111.57 23.07c1.06 0 1.93.87 1.93 1.93v76.75c0 1.06-.87 1.93-1.93 1.93H100c-1.06 0-1.93-.87-1.93-1.93V25c0-1.06.87-1.93 1.93-1.93h11.57m0-2.07H100c-2.21 0-4 1.79-4 4v76.75c0 2.21 1.79 4 4 4h11.57c2.21 0 4-1.79 4-4V25c0-2.21-1.79-4-4-4z" fill="#c62828"/></g><g><defs><path id="c" d="M92 124H4V8c0-2.21 1.79-4 4-4h80c2.21 0 4 1.79 4 4v116z"/></defs><clipPath id="d"><use xlink:href="#c" overflow="visible"/></clipPath><path clip-path="url(#d)" fill="#bf360c" d="M-2 4h107.83v7.83H-2z"/></g></svg>