<svg xmlns="http://www.w3.org/2000/svg" viewBox="0 0 128 128" width="512px" height="512px"><path d="M99.55 64.37h-71.1c-7.67 0-13.94 6.68-13.94 14.85s6.27 14.85 13.94 14.85h71.11c7.67 0 13.94-6.68 13.94-14.85s-6.28-14.85-13.95-14.85z" fill="#e59600"/><path d="M64.02 4H64h-.02c-57.03.31-47.15 67.9-47.15 67.9s3.45 50.38 45.04 52.04c.15.01.3.01.44.02.55.02 1.11.03 1.68.03h.02c.58 0 1.15-.01 1.71-.03.14 0 .28-.01.42-.02 41.56-1.64 44.37-51.2 44.37-51.2S123.13 4.32 64.02 4z" fill="#543930"/><radialGradient id="a" cx="64.282" cy="64.162" r="59.722" gradientTransform="matrix(0 -1 -.8131 0 116.452 128.12)" gradientUnits="userSpaceOnUse"><stop offset=".794" stop-color="#6d4c41" stop-opacity="0"/><stop offset="1" stop-color="#6d4c41"/></radialGradient><path d="M64.02 4H64h-.02c-57.03.31-47.15 67.9-47.15 67.9S20.4 123.99 64 123.99s46.51-51.25 46.51-51.25S123.13 4.32 64.02 4z" fill="url(#a)"/><path d="M97.28 90.65c-2.36 4.3-5.56 8.02-9.75 8.91-2.9.62-4.78-.62-5.88-1.86-1.64-1.85-3.61-3.4-5.91-4.3-2.96-1.16-7.16-2.33-12.05-2.34-4.9.01-9.09 1.18-12.05 2.34-2.3.9-4.27 2.45-5.91 4.3-1.1 1.24-2.98 2.48-5.88 1.86-5.35-1.14-8.77-6.49-10.92-12.15-2.84-7.47-.04-34.81.92-37.36 1.35-3.59 5.07-5.67 8.84-4.99 5.79 1.05 15.02 2.35 25.2 2.35h.22c10.18 0 19.41-1.3 25.2-2.35 3.77-.68 7.49 1.4 8.84 4.99 1.04 2.78 3.36 32.89-.87 40.6z" fill="#ffca28"/><path d="M64.05 108.06c4.94 0 10.42-3 13.11-5.3.71-.6.28-1.76-.65-1.76H51.5c-.93 0-1.36 1.16-.65 1.76 2.73 2.3 8.26 5.3 13.2 5.3zM69.02 87.29a1.63 1.63 0 0 0-.42-.11h-9.2c-.14.02-.28.05-.42.11-.83.34-1.29 1.2-.9 2.12.4.92 2.23 3.5 5.92 3.5s5.52-2.58 5.92-3.5c.39-.91-.07-1.78-.9-2.12z" fill="#e59600"/><g fill="#404040"><ellipse cx="42.62" cy="75.27" rx="6.41" ry="6.64"/><ellipse cx="85.38" cy="75.27" rx="6.41" ry="6.64"/></g><g fill="#6d4c41"><path d="M95.18 64.82c.01-.01-2.96-4.71-9.83-4.71s-9.84 4.7-9.84 4.7l.01.01c-.24.34-.39.75-.39 1.2 0 1.14.91 2.06 2.04 2.06.23 0 .81-.17.86-.19 4.12-1.71 7.34-1.72 7.34-1.72s3.2.01 7.32 1.73c.05.02.62.2.86.2 1.13 0 2.04-.92 2.04-2.06-.02-.47-.16-.88-.41-1.22zM52.45 64.81c.01-.01-2.96-4.71-9.83-4.71s-9.84 4.7-9.84 4.7l.01.01c-.24.34-.39.75-.39 1.2 0 1.14.91 2.06 2.04 2.06.23 0 .81-.17.85-.19 4.12-1.71 7.34-1.72 7.34-1.72s3.2.01 7.31 1.73c.05.02.62.2.85.2 1.13 0 2.04-.92 2.04-2.06.01-.47-.14-.89-.38-1.22z"/></g></svg>