<svg xmlns="http://www.w3.org/2000/svg" viewBox="0 0 128 128" width="512px" height="512px"><path d="M25.73 34.74c27.05 0 31.37 19.51 31.37 47.59 0 23.97-10.35 39.27-28.5 41.22-9.35 1-17.91-.79-24.6-5.64V40.6c5.31-3.77 12.38-5.86 21.73-5.86z" fill="#ffca28"/><g fill="#6d4c41"><path d="M55.1 77.19c-3.34-4.73-11.18-4.89-15.1-.86-.68.7-1.4 1.61-.89 2.62.57 1.12 1.73.94 2.69.55 2.55-1.03 5.17-1.49 7.91-.93 1.18.24 2.2.73 3.32 1.13 1.5.53 3.05-1.05 2.07-2.51zM7.87 79.71c2.34-1.02 4.71-1.6 7.29-1.31 1.17.13 2.32.44 3.42.87.87.34 1.81.9 2.7.29 2.57-1.77-1.99-4.65-3.32-5.23-2.9-1.25-6.35-1.14-9.15.32-1.11.58-2.32 1.42-2.98 2.52-.82 1.37.42 3.2 2.04 2.54z"/></g><g fill="#404040"><path d="M19.35 85.64c.67-.79 1.07-.16 1.2.36.45 1.76-.25 4.54-3.47 5.43-4.36 1.2-8.76-1.42-9.25-4.98-.06-.44.43-.77.82-.55 1.31.72 2.93 2.23 6.3 1.88 3.28-.33 3.68-1.29 4.4-2.14zM52.2 85.64c.67-.79 1.07-.16 1.2.36.45 1.76-.25 4.54-3.47 5.43-4.36 1.2-8.76-1.42-9.25-4.98-.06-.44.43-.77.82-.55 1.31.72 2.93 2.23 6.3 1.88 3.28-.33 3.68-1.29 4.4-2.14z"/></g><path d="M36.35 114.85c3.02.38 8.02-2.23 6.91-5.19-.42-1.12-2.1-1.45-2.1-1.45s2.76-3.12 1.34-4.76c-1.91-2.21-5.07-.59-7.43-1.27-.48-.14-.99-.36-1.46-.2.2.94.76 1.62 1.95 2.04 1.34.47 2.8.2 3.54.83.76.66.11 1.59-.87 2.17-1.39.82-3.47 1.24-3.37 1.9.11.72 2.49.8 3.02.95.48.14 1.18.32 1.39.83.38.89-.93 1.85-1.6 2.25-.74.44-2.61.93-2.68.99-.14.12-.11.37.02.51.13.15 1.05.36 1.34.4z" fill="#795548"/><path d="M38.35 93.53c-.11-.04-.22-.07-.33-.09h-7.33c-.11.01-.22.04-.33.09-.66.27-1.03.96-.72 1.69.31.73 1.77 2.79 4.71 2.79s4.4-2.06 4.71-2.79c.31-.73-.05-1.42-.71-1.69z" fill="#e59600"/><path d="M21.96 28.41H22c47.64.25 37.88 54.66 37.88 54.66s-.61 3.94-1.53 5.65c-1.1 2.06-1.85 2.81-1.92 1.64-.07-1.16-.01-19.44-1.85-24.35-1.09-2.89-4.08-4.56-7.12-4.02-7.58 1.35-9.78 1.28-14.5 1.32-8.41.07-18.46-.98-23.13-1.83-2.2-.4-4.38.39-5.82 1.94v-31.6c4.78-2.1 10.68-3.37 17.95-3.41z" fill="#543930"/><radialGradient id="a" cx="36.284" cy="71.24" r="38.083" gradientTransform="matrix(-.9998 -.0217 -.0243 1.1197 59.972 -7.738)" gradientUnits="userSpaceOnUse"><stop offset=".668" stop-color="#6d4c41" stop-opacity="0"/><stop offset="1" stop-color="#6d4c41"/></radialGradient><path d="M21.96 28.41H22c47.64.25 37.88 54.66 37.88 54.66s-.61 3.94-1.53 5.65c-1.1 2.06-1.85 2.81-1.92 1.64-.07-1.16-.01-19.44-1.85-24.35-1.09-2.89-4.08-4.56-7.12-4.02-7.58 1.35-10.91 1.32-15.63 1.25-9.75-.13-17.32-.91-21.99-1.76-2.2-.4-4.38.39-5.82 1.94v-31.6c4.77-2.1 10.67-3.37 17.94-3.41z" fill="url(#a)"/><g><path d="M102.27 34.74c-27.05 0-31.37 19.51-31.37 47.59 0 23.97 10.35 39.27 28.5 41.22 9.35 1 17.91-.79 24.6-5.64V40.6c-5.31-3.77-12.38-5.86-21.73-5.86z" fill="#ffca28"/><g fill="#6d4c41"><path d="M72.9 77.19c3.34-4.73 11.18-4.89 15.1-.86.68.7 1.4 1.61.89 2.62-.57 1.12-1.73.94-2.69.55-2.55-1.03-5.17-1.49-7.91-.93-1.18.24-2.2.73-3.32 1.13-1.5.53-3.05-1.05-2.07-2.51zM120.13 79.71c-2.34-1.02-4.71-1.6-7.29-1.31-1.17.13-2.32.44-3.42.87-.87.34-1.81.9-2.7.29-2.57-1.77 1.99-4.65 3.32-5.23 2.9-1.25 6.35-1.14 9.15.32 1.11.58 2.32 1.42 2.98 2.52.82 1.37-.42 3.2-2.04 2.54z"/></g><g fill="#404040"><path d="M108.65 85.64c-.67-.79-1.07-.16-1.2.36-.45 1.76.25 4.54 3.47 5.43 4.36 1.2 8.76-1.42 9.25-4.98.06-.44-.43-.77-.82-.55-1.31.72-2.93 2.23-6.3 1.88-3.28-.33-3.68-1.29-4.4-2.14zM75.8 85.64c-.67-.79-1.07-.16-1.2.36-.45 1.76.25 4.54 3.47 5.43 4.36 1.2 8.76-1.42 9.25-4.98.06-.44-.43-.77-.82-.55-1.31.72-2.93 2.23-6.3 1.88-3.28-.33-3.68-1.29-4.4-2.14z"/></g><path d="M91.65 114.85c-3.02.38-8.02-2.23-6.91-5.19.42-1.12 2.1-1.45 2.1-1.45s-2.76-3.12-1.34-4.76c1.91-2.21 5.07-.59 7.43-1.27.48-.14.99-.36 1.46-.2-.2.94-.76 1.62-1.95 2.04-1.34.47-2.8.2-3.54.83-.76.66-.11 1.59.87 2.17 1.39.82 3.47 1.24 3.37 1.9-.11.72-2.49.8-3.02.95-.48.14-1.18.32-1.39.83-.38.89.93 1.85 1.6 2.25.74.44 2.61.93 2.68.99.14.12.11.37-.02.51-.13.15-1.05.36-1.34.4z" fill="#795548"/><path d="M89.65 93.53c.11-.04.22-.07.33-.09h7.33c.11.01.22.04.33.09.66.27 1.03.96.72 1.69-.31.73-1.77 2.79-4.71 2.79s-4.4-2.06-4.71-2.79c-.31-.73.05-1.42.71-1.69z" fill="#e59600"/><path d="M106.04 28.41H106c-47.64.25-37.88 54.66-37.88 54.66s.61 3.94 1.53 5.65c1.1 2.06 1.85 2.81 1.92 1.64.07-1.16.01-19.44 1.85-24.35 1.09-2.89 4.08-4.56 7.12-4.02 7.58 1.35 9.78 1.28 14.5 1.32 8.41.07 18.46-.98 23.13-1.83 2.2-.4 4.38.39 5.82 1.94v-31.6c-4.78-2.1-10.68-3.37-17.95-3.41z" fill="#543930"/><radialGradient id="b" cx="106.704" cy="74.359" r="39.619" gradientTransform="matrix(.9998 -.0217 .0243 1.1197 -1.78 -6.584)" gradientUnits="userSpaceOnUse"><stop offset=".668" stop-color="#6d4c41" stop-opacity="0"/><stop offset="1" stop-color="#6d4c41"/></radialGradient><path d="M106.04 28.41H106c-47.64.25-37.88 54.66-37.88 54.66s.61 3.94 1.53 5.65c1.1 2.06 1.85 2.81 1.92 1.64.07-1.16.01-19.44 1.85-24.35 1.09-2.89 4.08-4.56 7.12-4.02 7.58 1.35 10.91 1.32 15.63 1.25 9.75-.13 17.32-.91 21.99-1.76 2.2-.4 4.38.39 5.82 1.94v-31.6c-4.77-2.1-10.67-3.37-17.94-3.41z" fill="url(#b)"/></g><radialGradient id="c" cx="61.589" cy="6.895" r="36.798" gradientTransform="matrix(.9985 0 0 .9337 2.266 -6.362)" gradientUnits="userSpaceOnUse"><stop offset=".481" stop-color="#ff80ab"/><stop offset=".998" stop-color="#ff4081"/></radialGradient><path d="M78.39 3.74c-10.51 0-14.37 12.57-14.37 12.57S60.21 3.74 49.62 3.74c-7.96 0-17.03 6.31-13.68 20.64 3.35 14.33 27.97 32.11 27.97 32.11s.13-.05.13-.13c0 .08.08.12.08.12s24.58-17.77 27.93-32.1c3.36-14.34-5.7-20.64-13.66-20.64z" fill="url(#c)"/></svg>