<svg width="128" height="128" xmlns="http://www.w3.org/2000/svg" width="512px" height="512px"><radialGradient id="a" cx="62.75" cy="4.25" gradientUnits="userSpaceOnUse" r="119.817"><stop offset="0" stop-color="#cfd8dc"/><stop offset=".195" stop-color="#c6d1d6"/><stop offset=".508" stop-color="#afbdc4"/><stop offset=".826" stop-color="#90a4ae"/><stop offset="1" stop-color="#90a4ae"/></radialGradient><path d="M80 124H48c-4.4 0-8-3.6-8-8V12c0-4.4 3.6-8 8-8h32c4.4 0 8 3.6 8 8v104c0 4.4-3.6 8-8 8z" fill="url(#a)"/><path d="M80 7c2.76 0 5 2.24 5 5v104c0 2.76-2.24 5-5 5H48c-2.76 0-5-2.24-5-5V12c0-2.76 2.24-5 5-5h32m0-3H48c-4.4 0-8 3.6-8 8v104c0 4.4 3.6 8 8 8h32c4.4 0 8-3.6 8-8V12c0-4.4-3.6-8-8-8z" fill="#bdbdbd" opacity=".2"/><path fill="#90a4ae" d="M47.94 23h32v1h-32zM47.94 35h32v1h-32zM47.94 47h32v1h-32zM47.94 59h32v1h-32zM47.94 71h32v1h-32zM47.94 83h32v1h-32zM47.94 95h32v1h-32zM47.94 107h32v1h-32z" opacity=".2"/><path d="M64 117.5a5.51 5.51 0 0 1-5.5-5.5V16c0-3.03 2.47-5.5 5.5-5.5s5.5 2.47 5.5 5.5v96c0 3.03-2.47 5.5-5.5 5.5z" fill="#607d8b"/><path d="M64 12c2.2 0 4 1.8 4 4v96c0 2.2-1.8 4-4 4s-4-1.8-4-4V16c0-2.2 1.8-4 4-4m0-3c-3.86 0-7 3.14-7 7v96c0 3.86 3.14 7 7 7s7-3.14 7-7V16c0-3.86-3.14-7-7-7z" fill="#78909c"/><path d="M64 14c1.1 0 2 .9 2 2v96c0 1.1-.9 2-2 2s-2-.9-2-2V16c0-1.1.9-2 2-2m0-2c-2.2 0-4 1.8-4 4v96c0 2.2 1.8 4 4 4s4-1.8 4-4V16c0-2.2-1.8-4-4-4z" fill="#bdbdbd" opacity=".2"/><radialGradient id="b" cx="63.833" cy="80.417" gradientUnits="userSpaceOnUse" r="14.305"><stop offset="0" stop-color="#40c4ff"/><stop offset=".278" stop-color="#3dc1fe"/><stop offset=".513" stop-color="#32b9fa"/><stop offset=".733" stop-color="#21abf5"/><stop offset=".942" stop-color="#0898ed"/><stop offset="1" stop-color="#0091ea"/></radialGradient><path d="M73.55 89.75h-19.1c-1.35 0-2.45-1.1-2.45-2.45v-7.1c0-1.35 1.1-2.45 2.45-2.45h19.1c1.35 0 2.45 1.1 2.45 2.45v7.1c0 1.35-1.1 2.45-2.45 2.45z" fill="url(#b)"/><g opacity=".2"><path d="M73 80.75v6H55v-6h18m.55-3h-19.1c-1.35 0-2.45 1.1-2.45 2.45v7.1c0 1.35 1.1 2.45 2.45 2.45h19.1c1.35 0 2.45-1.1 2.45-2.45v-7.1c0-1.35-1.1-2.45-2.45-2.45z" fill="#424242"/></g></svg>