<svg width="128" height="128" xmlns="http://www.w3.org/2000/svg" xmlns:xlink="http://www.w3.org/1999/xlink"><radialGradient id="a" cx="63.167" cy="0" gradientUnits="userSpaceOnUse" r="27.625"><stop offset="0" stop-color="#757575"/><stop offset=".979" stop-color="#212121"/></radialGradient><path d="M88 24H40c-2.21 0-4-1.79-4-4V8c0-2.21 1.79-4 4-4h48c2.21 0 4 1.79 4 4v12c0 2.21-1.79 4-4 4z" fill="url(#a)"/><radialGradient id="b" cx="63.667" cy="102" gradientUnits="userSpaceOnUse" r="25.365"><stop offset="0" stop-color="#757575"/><stop offset=".979" stop-color="#212121"/></radialGradient><path d="M88 124H40c-2.21 0-4-1.79-4-4v-12c0-2.21 1.79-4 4-4h48c2.21 0 4 1.79 4 4v12c0 2.21-1.79 4-4 4z" fill="url(#b)"/><path d="M88 7c.55 0 1 .45 1 1v12c0 .55-.45 1-1 1H40c-.55 0-1-.45-1-1V8c0-.55.45-1 1-1h48m0-3H40c-2.21 0-4 1.79-4 4v12c0 2.21 1.79 4 4 4h48c2.21 0 4-1.79 4-4V8c0-2.21-1.79-4-4-4zM88 107c.55 0 1 .45 1 1v12c0 .55-.45 1-1 1H40c-.55 0-1-.45-1-1v-12c0-.55.45-1 1-1h48m0-3H40c-2.21 0-4 1.79-4 4v12c0 2.21 1.79 4 4 4h48c2.21 0 4-1.79 4-4v-12c0-2.21-1.79-4-4-4z" fill="#eee" opacity=".2"/><radialGradient id="c" cx="64" cy="16.167" gradientTransform="matrix(1.2222 0 0 1 -14.222 0)" gradientUnits="userSpaceOnUse" r="102.88"><stop offset="0" stop-color="#e57373"/><stop offset=".043" stop-color="#e76d6d"/><stop offset=".223" stop-color="#ed5a58"/><stop offset=".341" stop-color="#ef5350"/><stop offset=".608" stop-color="#d23534"/><stop offset=".765" stop-color="#c62828"/><stop offset="1" stop-color="#c62828"/></radialGradient><path d="M88 116H40c-11.05 0-20-8.95-20-20V32c0-11.05 8.95-20 20-20h48c11.05 0 20 8.95 20 20v64c0 11.05-8.95 20-20 20z" fill="url(#c)"/><defs><path id="d" d="M88 116H40c-11.05 0-20-8.95-20-20V32c0-11.05 8.95-20 20-20h48c11.05 0 20 8.95 20 20v64c0 11.05-8.95 20-20 20z"/></defs><clipPath id="e"><use xlink:href="#d" overflow="visible"/></clipPath><radialGradient id="f" cx="67" cy="14" gradientUnits="userSpaceOnUse" r="102.319"><stop offset="0" stop-color="#e53935"/><stop offset=".237" stop-color="#d7302d"/><stop offset=".706" stop-color="#c02121"/><stop offset="1" stop-color="#b71c1c"/></radialGradient><path clip-path="url(#e)" fill="url(#f)" d="M10.22 16h117.33v4H10.22z"/><radialGradient id="g" cx="67" cy="14" gradientUnits="userSpaceOnUse" r="102.319"><stop offset="0" stop-color="#e53935"/><stop offset=".237" stop-color="#d7302d"/><stop offset=".706" stop-color="#c02121"/><stop offset="1" stop-color="#b71c1c"/></radialGradient><path clip-path="url(#e)" fill="url(#g)" d="M10.22 24h117.33v4H10.22z"/><radialGradient id="h" cx="67" cy="14" gradientUnits="userSpaceOnUse" r="102.319"><stop offset="0" stop-color="#e53935"/><stop offset=".237" stop-color="#d7302d"/><stop offset=".706" stop-color="#c02121"/><stop offset="1" stop-color="#b71c1c"/></radialGradient><path clip-path="url(#e)" fill="url(#h)" d="M10.22 32h117.33v4H10.22z"/><radialGradient id="i" cx="67" cy="14" gradientUnits="userSpaceOnUse" r="102.319"><stop offset="0" stop-color="#e53935"/><stop offset=".237" stop-color="#d7302d"/><stop offset=".706" stop-color="#c02121"/><stop offset="1" stop-color="#b71c1c"/></radialGradient><path clip-path="url(#e)" fill="url(#i)" d="M10.22 40h117.33v4H10.22z"/><radialGradient id="j" cx="67" cy="14" gradientUnits="userSpaceOnUse" r="102.319"><stop offset="0" stop-color="#e53935"/><stop offset=".237" stop-color="#d7302d"/><stop offset=".706" stop-color="#c02121"/><stop offset="1" stop-color="#b71c1c"/></radialGradient><path clip-path="url(#e)" fill="url(#j)" d="M10.22 48h117.33v4H10.22z"/><radialGradient id="k" cx="67" cy="14" gradientUnits="userSpaceOnUse" r="102.319"><stop offset="0" stop-color="#e53935"/><stop offset=".237" stop-color="#d7302d"/><stop offset=".706" stop-color="#c02121"/><stop offset="1" stop-color="#b71c1c"/></radialGradient><path clip-path="url(#e)" fill="url(#k)" d="M10.22 56h117.33v4H10.22z"/><radialGradient id="l" cx="67" cy="14" gradientUnits="userSpaceOnUse" r="102.319"><stop offset="0" stop-color="#e53935"/><stop offset=".237" stop-color="#d7302d"/><stop offset=".706" stop-color="#c02121"/><stop offset="1" stop-color="#b71c1c"/></radialGradient><path clip-path="url(#e)" fill="url(#l)" d="M10.22 64h117.33v4H10.22z"/><radialGradient id="m" cx="67" cy="14" gradientUnits="userSpaceOnUse" r="102.319"><stop offset="0" stop-color="#e53935"/><stop offset=".237" stop-color="#d7302d"/><stop offset=".706" stop-color="#c02121"/><stop offset="1" stop-color="#b71c1c"/></radialGradient><path clip-path="url(#e)" fill="url(#m)" d="M10.22 72h117.33v4H10.22z"/><radialGradient id="n" cx="67" cy="14" gradientUnits="userSpaceOnUse" r="102.319"><stop offset="0" stop-color="#e53935"/><stop offset=".237" stop-color="#d7302d"/><stop offset=".706" stop-color="#c02121"/><stop offset="1" stop-color="#b71c1c"/></radialGradient><path clip-path="url(#e)" fill="url(#n)" d="M10.22 80h117.33v4H10.22z"/><radialGradient id="o" cx="67" cy="14" gradientUnits="userSpaceOnUse" r="102.319"><stop offset="0" stop-color="#e53935"/><stop offset=".237" stop-color="#d7302d"/><stop offset=".706" stop-color="#c02121"/><stop offset="1" stop-color="#b71c1c"/></radialGradient><path clip-path="url(#e)" fill="url(#o)" d="M10.22 88h117.33v4H10.22z"/><radialGradient id="p" cx="67" cy="14" gradientUnits="userSpaceOnUse" r="102.319"><stop offset="0" stop-color="#e53935"/><stop offset=".237" stop-color="#d7302d"/><stop offset=".706" stop-color="#c02121"/><stop offset="1" stop-color="#b71c1c"/></radialGradient><path clip-path="url(#e)" fill="url(#p)" d="M10.22 96h117.33v4H10.22z"/><radialGradient id="q" cx="67" cy="14" gradientUnits="userSpaceOnUse" r="102.319"><stop offset="0" stop-color="#e53935"/><stop offset=".237" stop-color="#d7302d"/><stop offset=".706" stop-color="#c02121"/><stop offset="1" stop-color="#b71c1c"/></radialGradient><path clip-path="url(#e)" fill="url(#q)" d="M10.22 104h117.33v4H10.22z"/><radialGradient id="r" cx="67" cy="14" gradientUnits="userSpaceOnUse" r="102.319"><stop offset="0" stop-color="#e53935"/><stop offset=".237" stop-color="#d7302d"/><stop offset=".706" stop-color="#c02121"/><stop offset="1" stop-color="#b71c1c"/></radialGradient><path clip-path="url(#e)" fill="url(#r)" d="M10.22 112h117.33v4H10.22z"/><g opacity=".2"><path d="M88 15c9.37 0 17 7.63 17 17v64c0 9.37-7.63 17-17 17H40c-9.37 0-17-7.63-17-17V32c0-9.37 7.63-17 17-17h48m0-3H40c-11.05 0-20 8.95-20 20v64c0 11.05 8.95 20 20 20h48c11.05 0 20-8.95 20-20V32c0-11.05-8.95-20-20-20z" fill="#424242"/></g></svg>