<svg width="128" height="128" xmlns="http://www.w3.org/2000/svg"><g fill="#e0e0e0"><path d="M36 57h-8v-5h-7v-7H9v7H4v15h52V55H36zM104 55v-3H80v15h44V55z"/></g><g fill="#424242" opacity=".2"><path d="M19 47v5.17c0 1.1.9 1.83 2 1.83h5v3.21c0 1.1.9 1.79 2 1.79h7.88c1.1 0 2.12-.68 2.12-1.79V57h16v8H6V54h3.5c1.1 0 1.5-.73 1.5-1.83V47h8m2-2H9v7H4v15h52V55H36v2h-8v-5h-7v-7zM102 54v.85c0 1.1 1.08 2.15 2.18 2.15H122v8H82V54h20m2-2H80v15h44V55h-20v-3z"/></g><path fill="#66bb6a" d="M4.13 64H124v60H4.13z"/><linearGradient id="a" gradientUnits="userSpaceOnUse" x1="4.135" x2="124" y1="94" y2="94"><stop offset="0" stop-color="#fdd835"/><stop offset="1" stop-color="#ffeb3b"/></linearGradient><path fill="url(#a)" d="M4.13 124l39.9-59.97L84.02 64 124 124z"/><linearGradient id="b" gradientUnits="userSpaceOnUse" x1="64" x2="64" y1="79.833" y2="164.347"><stop offset=".006" stop-color="#616161"/><stop offset=".186" stop-color="#666"/><stop offset=".414" stop-color="#767676"/><stop offset=".669" stop-color="#909090"/><stop offset=".94" stop-color="#b4b4b4"/><stop offset="1" stop-color="#bdbdbd"/></linearGradient><path fill="url(#b)" d="M12 124l36.07-60h32L116 124z"/><g fill="#fff"><path d="M55.57 67H52.6l1.05-3h2.66zM48.66 95h-5.84l5.24-15h4.3l-3.7 15zm4.42-18h-3.94l2.77-8h3.17l-2 8zM41.48 124h-8.74l7.67-22h6.5z"/></g><g fill="#fff"><path d="M72.48 67h2.96l-1.04-3h-2.66zM75.68 80h4.3l5.24 15h-5.84l-3.7-15zm-2.71-11h3.17l2.77 8h-3.94l-2-8zM86.57 124h8.74l-7.67-22h-6.51z"/></g><linearGradient id="c" gradientUnits="userSpaceOnUse" x1="64" x2="64" y1="15.625" y2="81.898"><stop offset="0" stop-color="#424242"/><stop offset=".268" stop-color="#4a4a4a"/><stop offset=".686" stop-color="#606060"/><stop offset=".993" stop-color="#757575"/></linearGradient><path d="M109.57 49.74H18.43V18.43h91.15v31.31zm-88-3.15h84.85V21.57H21.57v25.02z" fill="url(#c)"/><linearGradient id="d" gradientUnits="userSpaceOnUse" x1="108" x2="108" y1="15.625" y2="81.898"><stop offset="0" stop-color="#424242"/><stop offset=".268" stop-color="#4a4a4a"/><stop offset=".686" stop-color="#606060"/><stop offset=".993" stop-color="#757575"/></linearGradient><path fill="url(#d)" d="M106 16h4v65h-4z"/><linearGradient id="e" gradientUnits="userSpaceOnUse" x1="20" x2="20" y1="15.625" y2="81.898"><stop offset="0" stop-color="#424242"/><stop offset=".268" stop-color="#4a4a4a"/><stop offset=".686" stop-color="#606060"/><stop offset=".993" stop-color="#757575"/></linearGradient><path fill="url(#e)" d="M18 16h4v65h-4z"/><linearGradient id="f" gradientUnits="userSpaceOnUse" x1="64" x2="64" y1="52.581" y2="18.123"><stop offset=".011" stop-color="#66bb6a"/><stop offset=".238" stop-color="#61b665"/><stop offset=".527" stop-color="#53a657"/><stop offset=".847" stop-color="#3c8c40"/><stop offset="1" stop-color="#2e7d32"/></linearGradient><path d="M98 51.18H30c-1.1 0-2-.9-2-2V18c0-1.1.9-2 2-2h68c1.1 0 2 .9 2 2v31.18a2 2 0 0 1-2 2z" fill="url(#f)"/><path d="M96.2 19.6v27.98H31.8V19.6h64.4m.13-2.13H31.67c-1.1 0-2 .9-2 2v28.24c0 1.1.9 2 2 2h64.65c1.1 0 2-.9 2-2V19.47c.01-1.1-.89-2-1.99-2z" fill="#fff"/><path fill="none" stroke="#fafafa" stroke-width="2" stroke-miterlimit="10" d="M55 18v31"/><g fill="#fafafa"><path d="M49.53 39l-5.61 6.08L38.31 39z"/><path d="M40.67 34.82h6.52v6.32h-6.52z"/></g><g fill="#fafafa"><path d="M83.53 39l-5.61 6.08L72.31 39z"/><path d="M74.67 34.82h6.52v6.32h-6.52z"/></g><circle cx="43.83" cy="27.33" r="4.67" opacity=".3" fill="#f5f5f5"/><path d="M89.25 31.33H67c-1.65 0-3-1.35-3-3v-2c0-1.65 1.35-3 3-3h22.25c1.65 0 3 1.35 3 3v2c0 1.65-1.35 3-3 3z" opacity=".3" fill="#f5f5f5"/><g opacity=".2"><path d="M121 67v54H7.13V67H121m3-3H4.13v60H124V64z" fill="#424242"/></g></svg>