<svg width="128" height="128" xmlns="http://www.w3.org/2000/svg" width="512px" height="512px"><linearGradient id="a" gradientUnits="userSpaceOnUse" x1="28.49" x2="28.49" y1="149.833" y2="111.838"><stop offset="0" stop-color="#d32f2f"/><stop offset=".41" stop-color="#d02d2d"/><stop offset=".731" stop-color="#c62626"/><stop offset="1" stop-color="#b71c1c"/></linearGradient><path d="M33.35 75.02L22.14 86.24 4.29 116.49c-.5.9-.34 2.03.39 2.76l4.08 4.07c.73.73 1.86.89 2.76.39l30.25-17.85 11.22-11.22-19.64-19.62z" fill="url(#a)"/><path d="M33.35 79.26l15.38 15.38-8.83 8.83-29.4 17.35-3.32-3.32 17.35-29.42 8.82-8.82m0-4.24L22.14 86.24 4.29 116.49c-.5.9-.34 2.03.39 2.76l4.08 4.08a2.309 2.309 0 0 0 2.76.39l30.25-17.85 11.22-11.22-19.64-19.63z" fill="#424242" opacity=".2"/><linearGradient id="b" gradientUnits="userSpaceOnUse" x1="67.435" x2="67.435" y1="10.333" y2="108.527"><stop offset="0" stop-color="#ef5350"/><stop offset="1" stop-color="#e53935"/></linearGradient><path d="M19.68 83a3.99 3.99 0 0 0 0 5.63l19.69 19.69a3.99 3.99 0 0 0 5.63 0l71.35-71.35-25.31-25.32" fill="url(#b)"/><path fill="#212121" d="M22.496 80.19l2.814-2.814 25.321 25.321-2.814 2.814z"/><linearGradient id="c" gradientUnits="userSpaceOnUse" x1="108.924" x2="108.924" y1="4.667" y2="27.241"><stop offset="0" stop-color="#d32f2f"/><stop offset="1" stop-color="#b71c1c"/></linearGradient><path d="M93.85 8.83l25.32 25.32 4.25-4.25c.78-.78.78-2.04 0-2.81L100.91 4.58a1.98 1.98 0 0 0-2.81 0" fill="url(#c)"/><path fill="#212121" d="M91.036 11.651l2.814-2.814 25.322 25.321-2.815 2.814z"/><linearGradient id="d" gradientUnits="userSpaceOnUse" x1="78.105" x2="78.105" y1="31" y2="58.297"><stop offset="0" stop-color="#d32f2f"/><stop offset="1" stop-color="#b71c1c"/></linearGradient><path d="M85.87 57.66C74.44 69.09 61.7 74.87 57.41 70.59c-4.29-4.29 1.5-17.03 12.93-28.45s24.17-17.21 28.45-12.93c4.29 4.28-1.5 17.02-12.92 28.45z" fill="url(#d)"/><path d="M99.51 7.42l21.08 21.08-77.7 77.7c-.25.25-.54.29-.69.29-.15 0-.44-.04-.69-.29L21.8 86.5c-.38-.38-.38-1 0-1.38l77.71-77.7m0-3.42c-.51 0-1.02.19-1.41.58L19.68 83a3.99 3.99 0 0 0 0 5.63l19.69 19.69c.78.78 1.79 1.17 2.81 1.17s2.04-.39 2.81-1.17l78.42-78.42c.78-.78.78-2.04 0-2.81l-22.5-22.51c-.39-.39-.9-.58-1.4-.58z" fill="#424242" opacity=".2"/></svg>