<svg width="128" height="128" xmlns="http://www.w3.org/2000/svg"><linearGradient id="a" gradientUnits="userSpaceOnUse" x1="64" x2="64" y1="3.262" y2="124.812"><stop offset="0" stop-color="#ffeb3b"/><stop offset=".036" stop-color="#ffe93a"/><stop offset=".508" stop-color="#fdd835"/><stop offset=".659" stop-color="#fccf32"/><stop offset="1" stop-color="#fbc02d"/></linearGradient><path d="M120 52H78c-1.1 0-2-.9-2-2V8c0-2.21-1.79-4-4-4H56c-2.21 0-4 1.79-4 4v42c0 1.1-.9 2-2 2H8c-2.21 0-4 1.79-4 4v16c0 2.21 1.79 4 4 4h42c1.1 0 2 .9 2 2v42c0 2.21 1.79 4 4 4h16c2.21 0 4-1.79 4-4V78c0-1.1.9-2 2-2h42c2.21 0 4-1.79 4-4V56c0-2.21-1.79-4-4-4z" fill="url(#a)"/><path d="M72 7c.55 0 1 .45 1 1v42c0 2.76 2.24 5 5 5h42c.55 0 1 .45 1 1v16c0 .55-.45 1-1 1H78c-2.76 0-5 2.24-5 5v42c0 .55-.45 1-1 1H56c-.55 0-1-.45-1-1V78c0-2.76-2.24-5-5-5H8c-.55 0-1-.45-1-1V56c0-.55.45-1 1-1h42c2.76 0 5-2.24 5-5V8c0-.55.45-1 1-1h16m0-3H56c-2.21 0-4 1.79-4 4v42c0 1.1-.9 2-2 2H8c-2.21 0-4 1.79-4 4v16c0 2.21 1.79 4 4 4h42c1.1 0 2 .9 2 2v42c0 2.21 1.79 4 4 4h16c2.21 0 4-1.79 4-4V78c0-1.1.9-2 2-2h42c2.21 0 4-1.79 4-4V56c0-2.21-1.79-4-4-4H78c-1.1 0-2-.9-2-2V8c0-2.21-1.79-4-4-4z" fill="#424242" opacity=".2"/></svg>