<svg width="128" height="128" xmlns="http://www.w3.org/2000/svg" width="512px" height="512px"><linearGradient id="a" gradientUnits="userSpaceOnUse" x1="64" x2="64" y1="13.849" y2="114.626"><stop offset="0" stop-color="#616161"/><stop offset=".352" stop-color="#4e4e4e"/><stop offset="1" stop-color="#212121"/></linearGradient><path d="M102 108H26c-3.31 0-6-2.69-6-6V26c0-3.31 2.69-6 6-6h76c3.31 0 6 2.69 6 6v76c0 3.31-2.69 6-6 6z" fill="url(#a)"/><path d="M102 23c1.65 0 3 1.35 3 3v76c0 1.65-1.35 3-3 3H26c-1.65 0-3-1.35-3-3V26c0-1.65 1.35-3 3-3h76m0-3H26c-3.31 0-6 2.69-6 6v76c0 3.31 2.69 6 6 6h76c3.31 0 6-2.69 6-6V26c0-3.31-2.69-6-6-6z" fill="#eee" opacity=".2"/></svg>