<svg width="128" height="128" xmlns="http://www.w3.org/2000/svg"><linearGradient id="a" gradientTransform="scale(-1 1) rotate(-6.569 7.865 1467.223)" gradientUnits="userSpaceOnUse" x1="108.589" x2="108.589" y1="43.394" y2="108.635"><stop offset=".005" stop-color="#eee"/><stop offset=".282" stop-color="#eaeaea"/><stop offset=".577" stop-color="#ddd"/><stop offset=".879" stop-color="#c8c8c8"/><stop offset="1" stop-color="#bdbdbd"/></linearGradient><path d="M32.73 38.42l22.29 2.57 22.29 2.57 3.62.41-7.02 53.18c-1.03 8.96-17.17 10.48-26.76 9.38-9.59-1.11-24.64-6.31-23.61-15.27l5.48-53.27 3.71.43z" fill="url(#a)"/><path d="M31.01 40.45l1.47.17 22.29 2.57 22.3 2.57 1.38.15-6.73 50.98c-.28 2.45-2.29 4.39-5.97 5.78-3.35 1.26-7.93 1.95-12.89 1.95-1.87 0-3.75-.1-5.45-.3-4.08-.47-10.17-1.89-15-4.45-3.27-1.74-7.09-4.59-6.65-8.39l5.25-51.03m-1.98-2.47l-5.48 53.27c-1.03 8.96 14.01 14.16 23.61 15.27 1.73.2 3.67.31 5.7.31 9.22 0 20.21-2.35 21.06-9.69l7.02-53.18-3.62-.41-22.29-2.57-22.29-2.57-3.71-.43z" fill="#424242" opacity=".2"/><linearGradient id="b" gradientTransform="scale(-1 1) rotate(-6.569 7.865 1467.223)" gradientUnits="userSpaceOnUse" x1="108.554" x2="108.554" y1="63.304" y2="103.413"><stop offset="0" stop-color="#ffb300"/><stop offset="1" stop-color="#ffea00"/></linearGradient><path d="M31.98 58.65L28.8 88.37c0 1.69 1.18 3.45 2.95 4.52 3.16 1.92 9.52 4.18 16.75 5.01 6.9.8 12.94.1 16.51-.95 2.27-.66 4.22-2.3 4.66-3.85l3.75-29.68-41.44-4.77z" fill="url(#b)"/><ellipse cx="52.71" cy="61.04" rx="5.15" ry="20.87" transform="rotate(-83.431 52.713 61.039)" fill="#e4a324"/><g fill="#e4a324"><ellipse cx="58.51" cy="93.79" rx="1" ry="1" transform="rotate(-83.431 58.505 93.79)"/><ellipse cx="61.01" cy="91.32" rx=".69" ry=".69" transform="rotate(-83.431 61.013 91.322)"/><ellipse cx="56.78" cy="89.54" rx="1.21" ry="1.21" transform="rotate(-83.431 56.776 89.545)"/><ellipse cx="61.09" cy="88.79" rx="1.24" ry="1.24" transform="rotate(-83.431 61.085 88.789)"/><ellipse cx="57.74" cy="83.05" rx="1" ry="1" transform="rotate(-83.431 57.737 83.054)"/><ellipse cx="60.29" cy="83.83" rx=".89" ry=".89" transform="rotate(-83.431 60.294 83.83)"/><ellipse cx="64.69" cy="78.59" rx=".89" ry=".89" transform="rotate(-83.431 64.686 78.59)"/><ellipse cx="56.84" cy="72.37" rx="1.12" ry="1.12" transform="rotate(-83.431 56.835 72.373)"/><ellipse cx="61.5" cy="81.1" rx="1.37" ry="1.37" transform="rotate(-83.431 61.5 81.104)"/><ellipse cx="58.42" cy="76.51" rx="1.35" ry="1.35" transform="rotate(-83.431 58.42 76.51)"/><ellipse cx="63.16" cy="75.4" rx="1" ry="1" transform="rotate(-83.431 63.159 75.407)"/></g><g><linearGradient id="c" gradientTransform="scale(-1 1) rotate(-6.569 7.865 1467.223)" gradientUnits="userSpaceOnUse" x1="143.921" x2="143.921" y1="48.626" y2="93.942"><stop offset=".005" stop-color="#eee"/><stop offset=".282" stop-color="#eaeaea"/><stop offset=".577" stop-color="#ddd"/><stop offset=".879" stop-color="#c8c8c8"/><stop offset="1" stop-color="#bdbdbd"/></linearGradient><path d="M30.83 43.5l-4.31-3.73s-3.24 3.15-9.67 3.52c-5.5.31-10.48 1.45-12 19.44-1.31 15.68.39 19.48 9.2 22.67 7.67 2.77 9.62 4.81 9.62 4.81l2.42-2.2 2.05-19.36 2.69-25.15zm-14.4 31.14c-4.57-.53-4.02-5.37-3.33-11.34.69-5.97 1.25-10.81 5.82-10.28 4.57.53 4.02 5.37 3.33 11.34-.69 5.96-1.53 10.77-5.82 10.28z" fill="url(#c)"/><path d="M26.42 42.61l2.09 1.81-2.56 24-1.96 18.52-.45.41c-1.52-.98-4.2-2.39-8.73-4.03-7.32-2.65-9.03-4.99-7.73-20.4C8.51 46 12.82 45.75 17 45.51c4.5-.27 7.65-1.78 9.42-2.9m-9.4 34.28c6.02 0 6.84-7.1 7.43-12.28.36-3.09.69-6 .29-8.34-.7-4.06-3.41-5.21-5.57-5.46-.31-.04-.62-.05-.91-.05-5.95 0-6.67 6.25-7.37 12.29-.36 3.09-.69 6-.29 8.34.7 4.06 3.41 5.21 5.57 5.46.29.02.57.04.85.04m9.51-37.12s-3.24 3.15-9.67 3.52c-5.5.31-10.48 1.45-12 19.44-1.32 15.68.38 19.48 9.19 22.67 7.67 2.77 9.62 4.81 9.62 4.81l2.42-2.2 2.05-19.36 2.69-25.15-4.3-3.73zm-9.51 34.9c-.19 0-.39-.01-.59-.04-4.58-.53-4.02-5.37-3.33-11.34.65-5.67 1.19-10.32 5.16-10.32.21 0 .43.01.66.04 4.57.53 4.02 5.37 3.33 11.34-.66 5.69-1.45 10.32-5.23 10.32z" fill="#424242" opacity=".2"/></g><path d="M35.28 91.11c1.73.43 3.45-.76 3.65-2.53l3.05-26.51a2.95 2.95 0 0 0-2.25-3.21c-1.72-.41-3.42.78-3.62 2.54l-3.06 26.5c-.17 1.48.78 2.85 2.23 3.21z" opacity=".51" fill="#fff" fill-opacity=".72"/><g><linearGradient id="d" gradientTransform="scale(-1 1) rotate(-6.569 7.865 1467.223)" gradientUnits="userSpaceOnUse" x1="75.965" x2="139.21" y1="43.251" y2="43.251"><stop offset=".005" stop-color="#eee"/><stop offset=".282" stop-color="#eaeaea"/><stop offset=".577" stop-color="#ddd"/><stop offset=".879" stop-color="#c8c8c8"/><stop offset="1" stop-color="#bdbdbd"/></linearGradient><path d="M39.63 19.98c-.84.49-1.63 1.08-2.58 1.25-1.6.29-3.18-.54-4.87-.08-4.77 1.3-7.34 4.81-6.17 9.58.39 1.6-.29 2.26-.86 3.71-1.57 4.01.72 9.55 5.22 10.57 2.69.61 5.47-.37 8.1.22 2.21.5 3.13 2.71 5.03 3.71 1.79.95 3.87 1.38 5.87 1.55 2.69.23 6.44-1.45 8.68.76 3.46 3.42.27 9.29 4.51 12.52 1.73 1.32 4.3 1.35 6.19.44 3.64-1.75 3.33-6.26 4.69-9.44.35-.85.8-1.61 1.64-2.05.84-.45 1.69-.2 2.58-.44 1.2-.31 2.36-.8 3.34-1.58 1.14-.91.62-2.91 2.37-3.05.54-.04 1.26-.26 1.7-.52 2.4-1.41 3.27-4.71 1.94-7.15-.5-.89-.91-1.18-.92-2.21-.01-.94.29-1.72.05-2.71-.6-2.43-2.55-4.15-4.86-5.06-.43-.17-.88-.32-1.33-.46-.75-.23-1.38-.33-1.9-.96-.27-.32-.45-.77-.63-1.14-.49-1.03-1.21-1.88-2.02-2.67-2.41-2.34-5.87-3.22-9.19-3.15-.9.02-1.72.23-2.59.44-2.2.52-2.86-.96-4.44-2.05-1.97-1.35-4.49-1.67-6.83-1.6-1.38.04-2.47.72-3.74 1.09-1.48.43-2.22-.09-3.61-.35-1.24-.23-2.62-.07-3.84.2-.57.11-1.06.36-1.53.63z" fill="url(#d)"/><path d="M52.91 20.62c2.12 0 3.79.41 4.98 1.22.31.21.59.46.89.73.86.76 2.04 1.81 3.95 1.81.44 0 .9-.06 1.37-.17l.19-.05c.71-.17 1.33-.32 1.93-.33h.33c3.01 0 5.59.9 7.27 2.53.75.73 1.25 1.37 1.55 2l.07.14c.19.42.45.99.87 1.49.89 1.07 1.93 1.37 2.69 1.58l.27.08c.45.14.83.27 1.16.4.88.35 2.99 1.39 3.52 3.53.06.22.03.47-.02.93-.04.37-.09.79-.09 1.27.01 1.41.53 2.21.91 2.8.09.14.19.29.29.46.76 1.39.23 3.38-1.11 4.17-.13.07-.52.2-.75.22-2.49.2-3.17 2.22-3.46 3.08-.05.16-.13.39-.18.5-.63.49-1.44.85-2.45 1.12-.14.04-.35.05-.61.06-.64.03-1.51.07-2.45.57-1.51.8-2.21 2.11-2.64 3.14-.49 1.13-.77 2.33-1.05 3.48-.6 2.52-1.05 4.1-2.57 4.83-.55.26-1.2.41-1.85.41-.8 0-1.52-.22-2.04-.61-1.37-1.04-1.53-2.49-1.7-4.96-.16-2.3-.36-5.17-2.59-7.38-1.22-1.21-2.82-1.8-4.88-1.8-.96 0-1.88.12-2.78.23-.74.1-1.45.19-2.03.19-.12 0-.24 0-.36-.01-2.02-.17-3.71-.61-5.02-1.3-.49-.26-.96-.73-1.5-1.28-.96-.98-2.16-2.2-4.08-2.63-.75-.17-1.56-.25-2.48-.25-.74 0-1.46.05-2.15.1-.64.04-1.26.08-1.85.08-.63 0-1.14-.05-1.6-.15-1.8-.41-2.79-1.83-3.22-2.65-.84-1.58-1-3.48-.43-4.95.11-.28.23-.54.36-.8.48-1.01 1.08-2.28.59-4.26-1.14-4.61 2.39-6.3 4.59-6.9.16-.04.33-.06.55-.06.35 0 .77.06 1.2.12.53.08 1.14.16 1.79.16.4 0 .78-.03 1.14-.1 1.18-.21 2.11-.78 2.86-1.24l.45-.27c.25-.15.57-.32.83-.38.79-.17 1.49-.26 2.09-.26.32 0 .62.02.88.07.29.06.57.13.85.21.59.16 1.26.35 2.09.35.56 0 1.12-.08 1.69-.25.53-.15 1.02-.34 1.45-.51.68-.27 1.23-.48 1.75-.5.19 0 .36-.01.54-.01m0-2.21c-.2 0-.4 0-.6.01-1.38.04-2.47.72-3.74 1.09-.4.12-.75.17-1.08.17-.85 0-1.52-.33-2.54-.52-.42-.08-.85-.11-1.29-.11-.86 0-1.74.13-2.56.31-.52.11-1.01.36-1.48.63-.84.49-1.63 1.08-2.58 1.25-.25.05-.5.06-.75.06-.99 0-1.98-.28-2.99-.28-.37 0-.75.04-1.13.14-4.77 1.3-7.34 4.81-6.17 9.58.39 1.6-.29 2.26-.86 3.71-1.57 4.01.72 9.55 5.22 10.57.69.16 1.39.21 2.09.21 1.34 0 2.69-.19 4.01-.19.67 0 1.34.05 2 .2 2.21.5 3.13 2.71 5.03 3.71 1.79.95 3.87 1.38 5.87 1.55.18.01.36.02.54.02 1.48 0 3.21-.42 4.81-.42 1.24 0 2.41.25 3.32 1.16 3.46 3.42.27 9.29 4.51 12.52.96.73 2.17 1.07 3.38 1.07.98 0 1.96-.22 2.81-.63 3.64-1.75 3.33-6.26 4.69-9.44.35-.85.8-1.61 1.64-2.05.84-.45 1.69-.2 2.58-.44 1.2-.31 2.36-.8 3.34-1.58 1.14-.91.62-2.91 2.37-3.05.54-.04 1.26-.26 1.7-.52 2.4-1.41 3.27-4.71 1.94-7.15-.5-.89-.91-1.18-.92-2.21-.01-.94.29-1.72.05-2.71-.6-2.43-2.55-4.15-4.86-5.06-.43-.17-.88-.32-1.33-.46-.75-.23-1.38-.33-1.9-.96-.27-.32-.45-.77-.63-1.14-.49-1.03-1.21-1.88-2.02-2.67-2.32-2.25-5.61-3.15-8.81-3.15h-.38c-.9.02-1.72.23-2.59.44-.31.07-.59.11-.85.11-1.55 0-2.23-1.23-3.59-2.16-1.82-1.24-4.08-1.61-6.25-1.61z" fill="#424242" opacity=".2"/></g><g fill="#f44336"><path d="M83.56 13.63l6.6-1.18c.32-.06.62.2.59.53l-.93 13.78c-.04.53-.75.65-.97.17l-5.66-12.6c-.14-.29.05-.64.37-.7zM100.54 13.43l5.5 3.83c.27.19.29.58.04.8l-10.41 9.09c-.4.35-.99-.07-.81-.56l4.91-12.92c.12-.31.5-.42.77-.24zM111.3 25.89l1.18 6.6c.06.32-.2.62-.53.59l-13.78-.93c-.53-.04-.65-.75-.17-.97l12.6-5.66c.29-.13.64.05.7.37z"/></g><g><linearGradient id="e" gradientTransform="rotate(-6.569 88.369 64.472)" gradientUnits="userSpaceOnUse" x1="76.895" x2="76.895" y1="59.986" y2="121.559"><stop offset=".005" stop-color="#eee"/><stop offset=".282" stop-color="#eaeaea"/><stop offset=".577" stop-color="#ddd"/><stop offset=".879" stop-color="#c8c8c8"/><stop offset="1" stop-color="#bdbdbd"/></linearGradient><path d="M97.44 58.68L76.4 61.11l-21.04 2.42-3.42.38 6.63 50.19c.97 8.45 16.2 9.89 25.26 8.85s23.25-5.96 22.28-14.41l-5.17-50.27-3.5.41z" fill="url(#e)"/><path d="M99.06 60.6l4.96 48.19c.41 3.56-3.19 6.26-6.28 7.89-4.56 2.42-10.31 3.75-14.16 4.2-1.6.18-3.38.28-5.14.28-7.82 0-17.18-1.91-17.8-7.33l-6.35-48.08 1.31-.15 21.04-2.42 21.04-2.42 1.38-.16m1.87-2.32l-3.49.41-21.04 2.42-21.04 2.42-3.42.38 6.63 50.19c.8 6.93 11.17 9.15 19.88 9.15 1.91 0 3.75-.11 5.38-.3 9.05-1.04 23.25-5.96 22.28-14.41l-5.18-50.26z" fill="#424242" opacity=".2"/><linearGradient id="f" gradientTransform="rotate(-6.569 88.369 64.472)" gradientUnits="userSpaceOnUse" x1="76.863" x2="76.863" y1="78.777" y2="116.631"><stop offset="0" stop-color="#ffb300"/><stop offset="1" stop-color="#ffea00"/></linearGradient><path d="M98.14 77.78l3 28.05c0 1.59-1.12 3.26-2.79 4.27-2.98 1.81-8.98 3.94-15.81 4.73-6.52.75-12.21.09-15.59-.9-2.14-.63-3.98-2.17-4.4-3.63l-3.54-28.01 39.13-4.51z" fill="url(#f)"/><ellipse cx="78.58" cy="80.03" rx="19.69" ry="4.86" transform="rotate(-6.569 78.608 80.06)" fill="#e4a324"/><g fill="#e4a324"><ellipse cx="73.11" cy="110.94" rx=".94" ry=".94" transform="rotate(-6.569 73.14 110.98)"/><ellipse cx="70.74" cy="108.61" rx=".65" ry=".65" transform="rotate(-6.569 70.771 108.652)"/><ellipse cx="74.74" cy="106.94" rx="1.14" ry="1.14" transform="rotate(-6.569 74.772 106.973)"/><ellipse cx="70.68" cy="106.22" rx="1.17" ry="1.17" transform="rotate(-6.569 70.703 106.26)"/><ellipse cx="73.84" cy="100.81" rx=".94" ry=".94" transform="rotate(-6.569 73.865 100.845)"/><ellipse cx="71.42" cy="101.54" rx=".84" ry=".84" transform="rotate(-6.569 71.45 101.578)"/><ellipse cx="67.28" cy="96.6" rx=".84" ry=".84" transform="rotate(-6.569 67.304 96.63)"/><ellipse cx="74.69" cy="90.73" rx="1.06" ry="1.06" transform="rotate(-6.569 74.716 90.762)"/><ellipse cx="70.28" cy="98.97" rx="1.29" ry="1.29" transform="rotate(-6.569 70.312 99.005)"/><ellipse cx="73.19" cy="94.63" rx="1.27" ry="1.27" transform="rotate(-6.569 73.22 94.667)"/><ellipse cx="68.72" cy="93.59" rx=".94" ry=".94" transform="rotate(-6.569 68.746 93.625)"/></g><g><linearGradient id="g" gradientTransform="rotate(-6.569 88.369 64.472)" gradientUnits="userSpaceOnUse" x1="110.241" x2="110.241" y1="64.924" y2="107.692"><stop offset=".005" stop-color="#eee"/><stop offset=".282" stop-color="#eaeaea"/><stop offset=".577" stop-color="#ddd"/><stop offset=".879" stop-color="#c8c8c8"/><stop offset="1" stop-color="#bdbdbd"/></linearGradient><path d="M101.76 87.21l1.94 18.27 2.29 2.08s1.84-1.93 9.08-4.54c8.32-3.01 9.92-6.59 8.67-21.4-1.43-16.97-6.13-18.05-11.32-18.35-6.07-.35-9.12-3.32-9.12-3.32l-4.06 3.52 2.52 23.74zm5.57-4.05c-.65-5.63-1.18-10.2 3.14-10.7s4.84 4.07 5.49 9.7c.65 5.63 1.18 10.2-3.14 10.7-4.05.47-4.84-4.06-5.49-9.7z" fill="url(#g)"/><path d="M103.39 62.64c1.66 1.06 4.65 2.49 8.9 2.73 3.94.23 8.01.46 9.36 16.43 1.22 14.54-.39 16.76-7.3 19.25-4.28 1.55-6.8 2.88-8.24 3.8l-.42-.38-1.85-17.48-2.42-22.65 1.97-1.7m8.88 32.35c.26 0 .53-.02.8-.05 2.04-.23 4.6-1.32 5.26-5.15.38-2.2.06-4.96-.28-7.87-.66-5.7-1.34-11.59-6.95-11.59-.28 0-.57.02-.86.05-2.04.23-4.6 1.32-5.26 5.15-.38 2.2-.06 4.96.27 7.87.56 4.89 1.34 11.59 7.02 11.59m-8.98-35.03l-4.06 3.52 2.54 23.73 1.94 18.27 2.29 2.08s1.84-1.93 9.08-4.54c8.32-3.01 9.92-6.59 8.67-21.4-1.43-16.97-6.13-18.05-11.32-18.35-6.08-.34-9.14-3.31-9.14-3.31zm8.98 32.94c-3.57 0-4.32-4.37-4.94-9.74-.65-5.63-1.18-10.2 3.14-10.7.22-.02.42-.04.62-.04 3.75 0 4.26 4.39 4.87 9.74.65 5.63 1.18 10.2-3.14 10.7-.19.03-.37.04-.55.04z" fill="#424242" opacity=".2"/></g><path d="M95.04 108.41c-1.63.41-3.25-.72-3.44-2.39L88.72 81c-.16-1.4.75-2.71 2.13-3.03a2.79 2.79 0 0 1 3.42 2.39l2.88 25.02c.14 1.4-.76 2.7-2.11 3.03z" opacity=".51" fill="#fff" fill-opacity=".72"/><g><linearGradient id="h" gradientTransform="rotate(-6.569 88.369 64.472)" gradientUnits="userSpaceOnUse" x1="46.106" x2="105.795" y1="59.852" y2="59.852"><stop offset=".005" stop-color="#eee"/><stop offset=".282" stop-color="#eaeaea"/><stop offset=".577" stop-color="#ddd"/><stop offset=".879" stop-color="#c8c8c8"/><stop offset="1" stop-color="#bdbdbd"/></linearGradient><path d="M90.92 41.29c.79.46 1.54 1.02 2.44 1.18 1.51.27 3.01-.51 4.6-.07 4.5 1.22 6.93 4.54 5.82 9.04-.37 1.51.27 2.13.81 3.5 1.48 3.78-.68 9.01-4.93 9.98-2.54.58-5.16-.35-7.64.2-2.09.47-2.96 2.56-4.74 3.51-1.69.89-3.65 1.3-5.54 1.46-2.54.21-6.08-1.37-8.19.72-3.26 3.23-.25 8.77-4.25 11.82-1.64 1.25-4.06 1.27-5.84.41-3.43-1.65-3.14-5.91-4.43-8.9-.33-.8-.76-1.52-1.55-1.94-.79-.42-1.59-.19-2.44-.41-1.13-.3-2.23-.76-3.15-1.49-1.07-.86-.59-2.75-2.23-2.88-.51-.04-1.19-.24-1.6-.49-2.27-1.33-3.09-4.45-1.83-6.75.47-.84.86-1.11.87-2.09.01-.89-.27-1.63-.04-2.56.56-2.3 2.41-3.92 4.58-4.77.4-.16.83-.3 1.26-.43.71-.21 1.3-.31 1.8-.91.26-.3.43-.73.59-1.08.47-.97 1.14-1.77 1.91-2.52 2.27-2.21 5.54-3.04 8.67-2.97.85.02 1.62.22 2.45.41 2.07.49 2.7-.91 4.19-1.93 1.86-1.27 4.24-1.57 6.44-1.51 1.3.04 2.33.68 3.53 1.03 1.39.41 2.09-.09 3.41-.33 1.17-.22 2.47-.07 3.63.18.5.1.96.33 1.4.59z" fill="url(#h)"/><path d="M78.39 41.89c.17 0 .34 0 .5.01.5.02 1.01.22 1.65.47.4.16.86.34 1.36.48.55.16 1.08.24 1.61.24.78 0 1.42-.17 1.97-.33.27-.07.53-.15.8-.2.25-.05.53-.07.83-.07.57 0 1.23.08 1.97.24.24.05.55.22.79.36.14.08.28.17.42.26.71.43 1.59.98 2.7 1.17.35.06.7.09 1.08.09.61 0 1.18-.08 1.69-.15.41-.06.8-.11 1.14-.11.2 0 .36.02.52.06 2.08.57 5.41 2.16 4.34 6.52-.46 1.87.1 3.06.56 4.02.11.23.23.47.34.75.54 1.39.39 3.18-.4 4.67-.41.77-1.34 2.11-3.04 2.5-.44.1-.92.15-1.51.15-.56 0-1.14-.04-1.76-.08-.65-.05-1.33-.09-2.03-.09-.87 0-1.63.08-2.34.24-1.81.41-2.94 1.56-3.85 2.49-.51.52-.95.97-1.41 1.21-1.23.65-2.83 1.06-4.73 1.22-.13-.01-.25-.01-.36-.01-.55 0-1.22-.09-1.92-.18-.85-.11-1.72-.22-2.62-.22-1.95 0-3.45.56-4.61 1.7-2.1 2.08-2.29 4.79-2.44 6.96-.16 2.33-.32 3.69-1.61 4.68-.49.37-1.17.58-1.92.58-.61 0-1.23-.14-1.74-.39-1.43-.69-1.85-2.18-2.42-4.56-.26-1.09-.53-2.22-.98-3.27-.41-.99-1.07-2.22-2.5-2.98-.89-.47-1.71-.51-2.32-.54-.24-.01-.45-.02-.57-.05-.96-.25-1.71-.6-2.31-1.06-.05-.1-.12-.32-.17-.47-.27-.81-.91-2.72-3.25-2.91-.23-.02-.6-.14-.71-.21-1.27-.75-1.77-2.63-1.06-3.93.1-.17.19-.32.27-.44.36-.55.85-1.31.86-2.63.01-.46-.04-.85-.08-1.2-.05-.43-.07-.66-.02-.88.49-2.01 2.48-3 3.32-3.33.31-.12.67-.25 1.09-.37l.26-.08c.72-.21 1.7-.49 2.53-1.48.41-.48.65-1.02.83-1.42l.05-.11c.3-.62.77-1.23 1.48-1.92 1.58-1.53 4.01-2.38 6.86-2.38h.32c.56.01 1.14.15 1.81.31l.19.04c.44.11.88.16 1.29.16 1.81 0 2.92-.99 3.73-1.71.29-.25.55-.49.84-.69 1.1-.74 2.68-1.13 4.68-1.13m0-2.09c-2.04 0-4.17.35-5.88 1.52-1.28.88-1.92 2.04-3.39 2.04-.24 0-.51-.03-.8-.1-.83-.2-1.6-.4-2.45-.41h-.36c-3.02 0-6.13.85-8.32 2.97-.77.74-1.44 1.55-1.91 2.52-.16.35-.34.78-.59 1.08-.49.59-1.09.69-1.8.91-.42.13-.85.27-1.26.43-2.17.86-4.02 2.48-4.58 4.77-.23.93.05 1.67.04 2.56-.01.98-.4 1.25-.87 2.09-1.26 2.3-.44 5.41 1.83 6.75.42.24 1.1.45 1.6.49 1.64.13 1.16 2.02 2.23 2.88.92.73 2.01 1.2 3.15 1.49.84.22 1.64-.01 2.44.41.79.42 1.21 1.14 1.55 1.94 1.29 2.99 1 7.26 4.43 8.9.8.38 1.72.59 2.65.59 1.14 0 2.29-.32 3.19-1.01 4-3.05.99-8.59 4.25-11.82.86-.85 1.96-1.09 3.14-1.09 1.51 0 3.14.4 4.54.4.17 0 .35-.01.51-.02 1.89-.16 3.85-.57 5.54-1.46 1.79-.95 2.65-3.03 4.74-3.51a8.51 8.51 0 0 1 1.88-.19c1.25 0 2.52.18 3.78.18.66 0 1.32-.05 1.97-.2 4.25-.96 6.41-6.2 4.93-9.98-.54-1.38-1.18-2-.81-3.5 1.11-4.49-1.32-7.81-5.82-9.04-.36-.1-.71-.13-1.07-.13-.96 0-1.89.27-2.83.27-.24 0-.47-.02-.71-.06-.9-.16-1.65-.72-2.44-1.18-.44-.26-.9-.49-1.4-.6-.77-.17-1.6-.29-2.41-.29-.41 0-.82.03-1.22.1-.92.19-1.55.5-2.36.5-.3 0-.63-.04-1.02-.16-1.2-.35-2.23-.99-3.53-1.03-.18-.01-.37-.01-.56-.01z" fill="#424242" opacity=".2"/></g></g></svg>