<svg viewBox="0 0 128 128" xmlns="http://www.w3.org/2000/svg" xmlns:xlink="http://www.w3.org/1999/xlink" width="512px" height="512px"><defs><path id="a" d="M4 4h120v120H4z"/></defs><clipPath id="b"><use xlink:href="#a"/></clipPath><g clip-path="url(#b)"><defs><path id="c" d="M33.32 5h154v154h-154z"/></defs><clipPath id="d"><use xlink:href="#c"/></clipPath><g clip-path="url(#d)"><path d="M79.06 96.18c-6.52 0-11.82-5.69-11.82-12.69s5.3-12.69 11.82-12.69h67.95c6.52 0 11.82 5.69 11.82 12.69s-5.3 12.69-11.82 12.69H79.06z" fill="#E59600"/><path d="M147.01 72.3c5.69 0 10.32 5.02 10.32 11.19s-4.63 11.19-10.32 11.19H79.06c-5.69 0-10.32-5.02-10.32-11.19S73.36 72.3 79.06 72.3h67.95m0-3H79.06c-7.33 0-13.32 6.39-13.32 14.19s5.99 14.19 13.32 14.19h67.95c7.33 0 13.32-6.39 13.32-14.19s-5.99-14.19-13.32-14.19z" fill="#CC8600"/><linearGradient id="e" x1="109.19" x2="109.19" y1="-8.234" y2="95.157" gradientTransform="rotate(4.93 -220.921 71.043)" gradientUnits="userSpaceOnUse"><stop stop-color="#FFCA28" offset=".599"/><stop stop-color="#FFB300" offset="1"/></linearGradient><path d="M109.24 123.5c-1.11 0-2.23-.05-3.34-.14-10.55-.91-19.96-5.95-26.52-14.19-7.43-9.34-10.67-22.17-9.39-37.08 1.26-14.65 6.51-27.95 14.79-37.47 7.81-8.98 17.57-13.93 27.47-13.93.83 0 1.67.04 2.49.11 10.14.88 19.75 7.25 26.36 17.48 7.09 10.97 10.26 25.43 8.95 40.71-1.22 14.12-6.15 25.77-14.27 33.69-7.15 6.98-16.58 10.82-26.54 10.82z" fill="url(#e)"/><path d="M112.25 22.19c.79 0 1.58.03 2.36.1 9.68.83 18.87 6.96 25.23 16.8 6.91 10.69 10 24.81 8.71 39.77-1.19 13.75-5.97 25.08-13.83 32.75-6.87 6.7-15.92 10.4-25.49 10.4-1.07 0-2.15-.05-3.21-.14-10.13-.87-19.18-5.71-25.47-13.63-7.19-9.04-10.32-21.49-9.07-36.02 1.24-14.33 6.36-27.33 14.42-36.61 7.53-8.65 16.89-13.42 26.35-13.42m0-3c-20.69 0-41.01 20.93-43.75 52.77-2.85 33 16.32 51.09 37.27 52.9 1.15.1 2.31.15 3.47.15 19.85 0 39.62-14.7 42.31-45.88 2.86-33.18-15.12-57.96-36.68-59.81-.87-.09-1.75-.13-2.62-.13z" fill="#EDA600"/><path d="M80.86 63.21c1.37-1.31 4.29-3.04 9.14-2.13 4.86.91 6.95 3.59 7.75 5.3.35.76.09 1.51-.33 1.91-.39.38-1.37.61-2.31.06s-2.7-1.99-5.98-2.63c-3.29-.59-5.45.11-6.53.28-1.07.17-1.9-.4-2.13-.89-.24-.53-.21-1.32.39-1.9zm36.4 3.84c1.37-1.31 4.29-3.04 9.14-2.13 4.86.91 6.95 3.59 7.75 5.3.35.76.09 1.51-.33 1.91-.39.38-1.37.61-2.31.06s-2.7-1.99-5.98-2.63c-3.29-.59-5.45.11-6.53.28-1.07.17-1.9-.4-2.13-.89-.24-.52-.22-1.32.39-1.9z" fill="#6D4C41"/><radialGradient id="f" cx="-345.91" cy="103.48" r="19.862" gradientTransform="rotate(-5.285 -128.178 -5018.945)" gradientUnits="userSpaceOnUse"><stop stop-color="#EC407A" stop-opacity=".4" offset=".069"/><stop stop-color="#EC407A" stop-opacity=".15" offset=".547"/><stop stop-color="#FFB300" stop-opacity="0" offset=".778"/><stop stop-color="#FFB300" stop-opacity="0" offset=".971"/></radialGradient><circle cx="126.79" cy="101.76" r="17.82" fill="url(#f)"/><radialGradient id="g" cx="-387.26" cy="92.643" r="19.862" gradientTransform="rotate(-5.285 -128.178 -5018.945)" gradientUnits="userSpaceOnUse"><stop stop-color="#EC407A" stop-opacity=".4" offset=".069"/><stop stop-color="#EC407A" stop-opacity=".15" offset=".547"/><stop stop-color="#FFB300" stop-opacity="0" offset=".778"/><stop stop-color="#FFB300" stop-opacity="0" offset=".971"/></radialGradient><circle cx="84.63" cy="94.78" r="17.82" fill="url(#g)"/><path d="M78.93 73.42c-.58.08-1.01 1.53-.5 4.09.61 3.09 2.76 5.43 4.71 6.39 2.44 1.21 7.29 2.04 11.14-.66 4.43-3.09 3.12-5.65 1.52-5.07-1.63.6-4.58 1.23-7.01 1.08-2.53-.16-5.26-1.38-7.02-3-1.3-1.18-2.21-2.92-2.84-2.83zm36.13 6.48c-.58.08-1.01 1.53-.5 4.09.61 3.09 2.76 5.43 4.71 6.39 2.44 1.21 7.29 2.04 11.14-.66 4.43-3.09 3.12-5.65 1.52-5.07-1.63.6-4.58 1.23-7.01 1.08-2.53-.16-5.26-1.38-7.02-3-1.3-1.18-2.21-2.91-2.84-2.83z" fill="#444"/><path d="M97.05 93.27c2.84.21 2.82-1.48 3.75-.45 1.81 2 2.21 3.31 1.86 3.95-.53.97-1.53.97-4.44.35s-5.9-1.87-5.99-2.97c-.06-.74.11-1.99 1.18-3.24.53-.61.81 2.15 3.64 2.36z" fill="#E59600"/><radialGradient id="h" cx="-64.184" cy="84.247" r="9.38" gradientTransform="matrix(-.7326 -.1212 -.0816 .6179 55.012 43.89)" gradientUnits="userSpaceOnUse"><stop stop-color="#543930" offset="0"/><stop stop-color="#543930" offset=".992"/></radialGradient><path d="M99.55 100.91c-.22-.06-5.9-1.97-7.22.96-1.2 2.66 3.44 3.95 3.44 3.95s-4.53-.9-5.21 2.39c-.69 3.28 6.45 4.78 6.45 4.78" fill="none" stroke="url(#h)" stroke-linecap="round" stroke-linejoin="round" stroke-miterlimit="10" stroke-width="3"/><radialGradient id="i" cx="106.45" cy="31.897" r="45.167" gradientTransform="matrix(-1.0193 -.0197 0 .9956 219.34 -.637)" gradientUnits="userSpaceOnUse"><stop stop-color="#6D4C41" offset="0"/><stop stop-color="#543930" offset="1"/></radialGradient><path d="M109.94 9.1c22.83.52 25.21 11.12 25.82 11.01 6.57-1.2 15.61 3.94 20.56 12.62 12.79 22.43-2.86 39.63-3.19 41.58-1.71 10.05-2.55 11.78-2.55 11.78s-.51-13.87-8.25-23.04c-4.94-5.86-9.68-18.63-9.68-18.63s-13.89 4.7-24.46 10.58c-8.92 4.96-14.5 11.55-14.5 11.55s-1.67-5.17-.36-10.51c2.82-11.48 13.91-16.47 13.91-16.47s-5.54 1.44-13.07 7.96C77.54 61.91 73.12 88.56 73.12 88.56c-5.7-5.29-15.18-18.04-14.02-36.7.57-9.31 9.48-43.7 50.84-42.76z" fill="url(#i)"/><path d="M132.83 20.86c-3.37-5.7-11.08-8.84-22.91-9.07h-.24c-16.64-.32-29.5 5.31-38.2 16.59-6.91 8.96-9.25 19.59-9.6 24.17-1.08 14.28 6.45 26.63 12.01 32.57-.2 1.11-.72 2.81-.78 3.55-6.41-5.49-15.1-19.45-14.02-36.83.58-9.29 9.45-43.64 50.59-42.84h.25c22.7.44 25.18 11.07 25.81 11.09l.01.04c.8-.15 1.68-.19 2.6-.17 6.6.13 12.65 4.32 17.32 11.76 13.87 22.06-2.22 40.7-2.55 42.65-1.71 10.05-2.55 11.78-2.55 11.78s-.12-3.15-1.07-7.43c.36-2.09.69-3.81 1.13-6.14.27-.45 14.68-19.82 2.81-38.96-4.08-6.57-9.47-10.73-15.09-10.84-.73-.01-1.41.03-2.02.15-.19.03-.39.05-.59.05-1.73-.05-2.52-1.47-2.91-2.12z" fill="#3F2720"/></g><path clip-path="url(#d)" fill="none" d="M55.85 13.09h108.94v108.94H55.85z"/></g><g clip-path="url(#b)"><defs><path id="j" transform="rotate(180 16.18 82)" d="M-60.82 5h154v154h-154z"/></defs><clipPath id="k"><use xlink:href="#j"/></clipPath><g clip-path="url(#k)"><path d="M-20.51 96.18c-6.52 0-11.82-5.69-11.82-12.69s5.3-12.69 11.82-12.69h67.95c6.52 0 11.82 5.69 11.82 12.69s-5.3 12.69-11.82 12.69h-67.95z" fill="#E59600"/><path d="M47.44 72.3c5.69 0 10.32 5.02 10.32 11.19s-4.63 11.19-10.32 11.19h-67.95c-5.69 0-10.32-5.02-10.32-11.19S-26.2 72.3-20.51 72.3h67.95m0-3h-67.95c-7.33 0-13.32 6.39-13.32 14.19s5.99 14.19 13.32 14.19h67.95c7.33 0 13.32-6.39 13.32-14.19S54.77 69.3 47.44 69.3z" fill="#CC8600"/><linearGradient id="l" x1="15.394" x2="15.394" y1="-.147" y2="103.24" gradientTransform="scale(-1 1) rotate(4.928 -237.104 -304.978)" gradientUnits="userSpaceOnUse"><stop stop-color="#FFCA28" offset=".599"/><stop stop-color="#FFB300" offset="1"/></linearGradient><path d="M17.26 123.5c-9.96 0-19.39-3.84-26.54-10.82-8.12-7.92-13.06-19.58-14.27-33.69-1.32-15.28 1.86-29.74 8.95-40.71C-7.99 28.05 1.62 21.67 11.76 20.8c.82-.07 1.66-.11 2.49-.11 9.91 0 19.66 4.95 27.47 13.93 8.27 9.51 13.52 22.82 14.79 37.47 1.29 14.92-1.96 27.74-9.39 37.08-6.55 8.24-15.97 13.28-26.52 14.19-1.11.1-2.23.14-3.34.14z" fill="url(#l)"/><path d="M14.25 22.19c9.47 0 18.82 4.76 26.34 13.41 8.07 9.28 13.19 22.28 14.42 36.61 1.25 14.53-1.88 26.98-9.07 36.02-6.29 7.91-15.34 12.75-25.47 13.63-1.06.09-2.14.14-3.21.14-9.57 0-18.63-3.69-25.49-10.4-7.86-7.67-12.64-18.99-13.83-32.75-1.29-14.95 1.8-29.08 8.71-39.77 6.36-9.84 15.56-15.97 25.23-16.8.79-.05 1.58-.09 2.37-.09m0-3c-.87 0-1.75.04-2.62.11-21.56 1.86-39.54 26.64-36.67 59.81C-22.36 110.3-2.59 125 17.26 125c1.16 0 2.31-.05 3.47-.15 20.95-1.81 40.12-19.9 37.27-52.9-2.74-31.83-23.07-52.76-43.75-52.76z" fill="#EDA600"/><path d="M45.64 63.21c-1.37-1.31-4.29-3.04-9.14-2.13-4.86.91-6.95 3.59-7.75 5.3-.35.76-.09 1.51.33 1.91.39.38 1.37.61 2.31.06s2.7-1.99 5.98-2.63c3.29-.59 5.45.11 6.53.28 1.07.17 1.9-.4 2.13-.89.24-.53.21-1.32-.39-1.9zm-36.4 3.84C7.87 65.74 4.95 64.01.1 64.92c-4.86.91-6.95 3.59-7.75 5.3-.35.76-.09 1.51.33 1.91.39.38 1.37.61 2.31.06s2.7-1.99 5.98-2.63c3.29-.59 5.45.11 6.53.28 1.07.17 1.9-.4 2.13-.89.24-.52.22-1.32-.39-1.9z" fill="#6D4C41"/><radialGradient id="m" cx="-439.65" cy="94.811" r="19.862" gradientTransform="scale(-1 1) rotate(-5.285 -144.36 -4668.334)" gradientUnits="userSpaceOnUse"><stop stop-color="#EC407A" stop-opacity=".4" offset=".069"/><stop stop-color="#EC407A" stop-opacity=".15" offset=".547"/><stop stop-color="#FFB300" stop-opacity="0" offset=".778"/><stop stop-color="#FFB300" stop-opacity="0" offset=".971"/></radialGradient><circle cx="-.29" cy="101.76" r="17.82" fill="url(#m)"/><radialGradient id="n" cx="-481" cy="83.972" r="19.862" gradientTransform="scale(-1 1) rotate(-5.285 -144.36 -4668.334)" gradientUnits="userSpaceOnUse"><stop stop-color="#EC407A" stop-opacity=".4" offset=".069"/><stop stop-color="#EC407A" stop-opacity=".15" offset=".547"/><stop stop-color="#FFB300" stop-opacity="0" offset=".778"/><stop stop-color="#FFB300" stop-opacity="0" offset=".971"/></radialGradient><circle cx="41.87" cy="94.78" r="17.82" fill="url(#n)"/><path d="M47.57 73.42c.58.08 1.01 1.53.5 4.09-.61 3.09-2.76 5.43-4.71 6.39-2.44 1.21-7.29 2.04-11.14-.66-4.43-3.09-3.12-5.65-1.52-5.07 1.63.6 4.58 1.23 7.01 1.08 2.53-.16 5.26-1.38 7.02-3 1.3-1.18 2.21-2.92 2.84-2.83zM11.44 79.9c.58.08 1.01 1.53.5 4.09-.61 3.09-2.76 5.43-4.71 6.39-2.44 1.21-7.29 2.04-11.14-.66-4.43-3.09-3.12-5.65-1.52-5.07 1.63.6 4.58 1.23 7.01 1.08 2.53-.16 5.26-1.38 7.02-3 1.3-1.18 2.21-2.91 2.84-2.83z" fill="#444"/><path d="M29.45 93.27c-2.84.21-2.82-1.48-3.75-.45-1.81 2-2.21 3.31-1.86 3.95.53.97 1.53.97 4.44.35s5.9-1.87 5.99-2.97c.06-.74-.11-1.99-1.18-3.24-.53-.61-.81 2.15-3.64 2.36z" fill="#E59600"/><radialGradient id="o" cx="61.568" cy="108.51" r="9.38" gradientTransform="matrix(.7326 -.1212 .0816 .6179 -22.652 43.89)" gradientUnits="userSpaceOnUse"><stop stop-color="#543930" offset="0"/><stop stop-color="#543930" offset=".992"/></radialGradient><path d="M26.95 100.91c.22-.06 5.9-1.97 7.22.96 1.2 2.66-3.44 3.95-3.44 3.95s4.53-.9 5.21 2.39c.69 3.28-6.45 4.78-6.45 4.78" fill="none" stroke="url(#o)" stroke-linecap="round" stroke-linejoin="round" stroke-miterlimit="10" stroke-width="3"/><radialGradient id="p" cx="15.544" cy="30.096" r="45.167" gradientTransform="matrix(1.0193 -.0197 0 .9956 .99 -.637)" gradientUnits="userSpaceOnUse"><stop stop-color="#6D4C41" offset="0"/><stop stop-color="#543930" offset="1"/></radialGradient><path d="M17.73 9.1C-5.1 9.62-7.48 20.22-8.09 20.11c-6.57-1.2-15.61 3.94-20.56 12.62-12.79 22.43 2.86 39.63 3.19 41.58 1.71 10.05 2.55 11.78 2.55 11.78s.51-13.87 8.25-23.04c4.94-5.86 9.68-18.63 9.68-18.63S8.91 49.12 19.48 55c8.92 4.96 14.5 11.55 14.5 11.55s1.67-5.17.36-10.51c-2.82-11.48-13.91-16.47-13.91-16.47s5.54 1.44 13.07 7.96c16.61 14.39 21.04 41.04 21.04 41.04 5.7-5.29 15.18-18.04 14.02-36.7-.57-9.32-9.47-43.71-50.83-42.77z" fill="url(#p)"/><path d="M-5.17 20.86c3.37-5.7 11.08-8.84 22.91-9.07h.24c16.64-.32 29.5 5.31 38.2 16.59 6.91 8.96 9.25 19.59 9.6 24.17 1.08 14.28-6.45 26.63-12.01 32.57.2 1.11.72 2.81.78 3.55 6.41-5.49 15.1-19.45 14.02-36.83C67.99 42.55 59.12 8.2 17.98 9h-.25c-22.7.43-25.18 11.07-25.81 11.08l-.01.04c-.8-.15-1.68-.19-2.6-.17-6.6.13-12.65 4.32-17.32 11.76-13.87 22.06 2.22 40.7 2.55 42.65 1.71 10.05 2.55 11.78 2.55 11.78s.12-3.15 1.07-7.43c-.36-2.09-.69-3.81-1.13-6.14-.27-.45-14.68-19.82-2.81-38.96 4.08-6.57 9.47-10.73 15.09-10.84.73-.01 1.41.03 2.02.15.19.03.39.05.59.05 1.74-.04 2.53-1.46 2.91-2.11z" fill="#3F2720"/></g><path transform="rotate(180 16.18 67.56)" clip-path="url(#k)" fill="none" d="M-38.29 13.09H70.65v108.94H-38.29z"/></g><linearGradient id="q" x1="64.22" x2="64.22" y1="-4.38" y2="54.603" gradientUnits="userSpaceOnUse"><stop stop-color="#F48FB1" offset="0"/><stop stop-color="#EC407A" offset="1"/></linearGradient><path d="M64.22 70.89c-.66 0-1.28-.26-1.75-.73-1.16-1.17-2.64-2.66-4.33-4.36-8.42-8.45-22.51-22.58-26.83-29-2.03-3.03-3.26-5.96-3.76-8.95-.55-3.29-.52-7.96.77-10.97C31.37 9.75 37.53 5.5 44.79 5.5l.94.02c2.79.05 5.6.65 8.37 1.81 1.88.79 3.4 1.87 5 3.01.81.58 1.66 1.18 2.57 1.76.74.47 1.62.72 2.55.72s1.8-.25 2.54-.72c.91-.58 1.74-1.17 2.55-1.75 1.61-1.15 3.14-2.24 5.03-3.03 2.76-1.15 5.57-1.76 8.35-1.8l.96-.02c7.26 0 13.42 4.25 16.47 11.38 1.29 3.01 1.32 7.68.77 10.97-.51 3.02-1.75 5.95-3.76 8.94-4.31 6.43-18.43 20.58-26.86 29.03-1.68 1.69-3.15 3.16-4.3 4.33-.47.48-1.09.74-1.75.74z" fill="url(#q)"/><path d="M44.79 7h.06c.15 0 .3.01.45.01.13 0 .26 0 .42.01 2.58.04 5.21.61 7.79 1.69 1.73.73 3.11 1.71 4.71 2.85.83.59 1.69 1.2 2.64 1.81.98.62 2.14.95 3.35.95s2.37-.33 3.35-.95c.94-.6 1.79-1.2 2.61-1.79 1.61-1.15 3-2.14 4.73-2.87 2.59-1.08 5.21-1.65 7.83-1.69.13 0 .26-.01.39-.01.15 0 .3 0 .45-.01h.06c6.74 0 12.24 3.82 15.09 10.47 1.16 2.72 1.16 7.16.67 10.12-.48 2.81-1.63 5.55-3.54 8.37-4.23 6.3-18.27 20.38-26.67 28.8-1.69 1.69-3.16 3.17-4.31 4.34a.941.941 0 0 1-1.36 0c-1.16-1.17-2.64-2.66-4.33-4.36-8.39-8.41-22.42-22.48-26.65-28.78-1.91-2.86-3.06-5.59-3.53-8.36-.5-2.98-.5-7.42.67-10.14C32.55 10.82 38.05 7 44.79 7m38.86-3h-.11c-.3.01-.58.01-.88.02-3.08.05-6.07.74-8.9 1.92-3.03 1.27-5.11 3.18-7.8 4.89-.51.32-1.12.48-1.74.48s-1.24-.16-1.74-.48c-2.7-1.71-4.77-3.62-7.8-4.89-2.83-1.18-5.82-1.87-8.9-1.92-.29-.01-.59-.01-.88-.02h-.11c-7.83 0-14.51 4.48-17.85 12.29-1.42 3.32-1.45 8.32-.87 11.81.58 3.47 2.04 6.61 3.99 9.54 5.26 7.82 24.32 26.44 31.33 33.57.77.79 1.79 1.18 2.81 1.18s2.04-.39 2.81-1.18c7.01-7.13 26.08-25.75 31.33-33.57 1.97-2.92 3.41-6.06 4-9.54.58-3.49.56-8.49-.87-11.81C98.15 8.48 91.47 4 83.65 4z" fill="#D92E67"/></svg>