<svg width="128" height="128" xmlns="http://www.w3.org/2000/svg" width="512px" height="512px"><path d="M64.36 60.75s-.53 5.61-4.81 10.06c-.71.73 0 1.92.98 1.62 3.34-1.02 8.31-3.53 12.49-9.69l-8.66-1.99z" fill="#424242"/><path d="M65.18 61.96l6.15 1.41c-3.75 4.96-7.98 7.13-11 8.07 3.31-3.47 4.47-7.54 4.85-9.48m-.82-1.21s-.53 5.61-4.81 10.06c-.63.65-.13 1.67.67 1.67.1 0 .2-.01.3-.05 3.34-1.02 8.31-3.53 12.49-9.69l-8.65-1.99z" fill="#424242" opacity=".2"/><path d="M98.98 27.92c-4.62 0-7.81 4.42-9.97 4.42-1.48 0-2.95-.97-3.73-1.58-.38-.3-.88-.39-1.35-.26l-1.89.5c1.69 2 4.11 4.57 7.09 6.89 2.07-1.43 5.33-3.31 9.15-4.13 3.15-.68 6.28.63 6.84-1.5.57-2.12-1.52-4.34-6.14-4.34z" fill="#424242"/><path d="M98.98 28.92c2.29 0 4.06.59 4.85 1.62.35.46.46.96.33 1.47-.07.27-.15.55-1.77.55-.23 0-.48 0-.73-.01-.28-.01-.57-.01-.87-.01-.74 0-1.71.03-2.72.24-3.62.78-6.74 2.46-8.89 3.87-2.15-1.74-3.97-3.59-5.34-5.11l.36-.1c.05-.01.1-.02.15-.02.12 0 .23.04.32.11 1.04.82 2.64 1.8 4.35 1.8 1.19 0 2.37-.82 3.74-1.77 1.77-1.24 3.79-2.64 6.22-2.64m0-1c-4.62 0-7.81 4.42-9.97 4.42-1.48 0-2.95-.97-3.73-1.58-.27-.21-.6-.32-.93-.32-.14 0-.28.02-.41.05l-1.9.51c1.69 2 4.11 4.57 7.09 6.89 2.07-1.43 5.33-3.31 9.15-4.13.85-.18 1.71-.22 2.51-.22.57 0 1.1.02 1.6.02 1.39 0 2.43-.15 2.74-1.29.56-2.13-1.53-4.35-6.15-4.35z" fill="#424242" opacity=".2"/><path d="M101.75 43.31c0-1.11-.85-2.01-1.96-2.15-8.92-1.14-15.94-9.72-18.21-12.81-.51-.7-1.33-1.11-2.19-1.11H23v-.13c0-1.46-.89-2.7-2.34-2.9l-7.22-1.01c-.8-.11-1.44.51-1.44 1.32v2.71H7.71C5.75 27.25 4 28.83 4 30.79v13.42C4 46.16 5.75 48 7.71 48h29.97v8.24c0 3.2 2.64 6 5.84 6-.29.79-.51 1.59-.64 2.36-1.69 10.44 5.91 16.69 16.34 18.43 1.71.29 3.39.43 5.01.43 8.26 0 14.98-3.82 16.44-12.55.19-1.15.26-2.24.25-3.29l.02.01.04-2.23c2.57 0 4.9 1.46 6.87 2.4l.53-1.59 13.42 4.52-.05-27.42zm-26.4 26.73c-.89 5.34-4.64 8.05-11.12 8.05-1.31 0-2.7-.12-4.12-.36-4.22-.7-7.67-2.26-9.74-4.39-1.99-2.05-2.7-4.62-2.17-7.87.17-1.08.65-2.2 1.34-3.22 6.46.01 16.41.45 25.29 1.99.73 1.62.9 3.53.52 5.8z" fill="#757575"/><path d="M14 25.31l6.39.89c.57.08.61.72.61.91v.13c0 1.1.9 2 2 2h56.39c.23 0 .45.1.58.29 2.7 3.69 10.01 12.4 19.57 13.61.1.01.21.08.21.17l.03 24.64L89 64.32c-.21-.07-.42-.1-.64-.1-.31 0-.61.07-.89.21-.29.14-.53.35-.72.61-1.66-.81-3.62-1.63-5.78-1.63a2 2 0 0 0-2 1.97l-.03 1.96c-.02.11-.02.21-.02.32.01 1.01-.06 1.97-.22 2.93-1.58 9.46-9.74 10.88-14.46 10.88-1.5 0-3.07-.14-4.68-.41-3.95-.66-16.69-3.78-14.7-16.14.1-.64.28-1.31.54-1.99.23-.61.14-1.3-.23-1.84s-.99-.86-1.64-.86c-2.04 0-3.84-1.87-3.84-4V48c0-1.1-.9-2-2-2H7.71C6.88 46 6 45.08 6 44.21V30.79c0-.81.81-1.54 1.71-1.54H12c1.1 0 2-.9 2-2v-1.94m50.23 54.78c9.48 0 12.35-5.29 13.1-9.72.45-2.67.23-4.94-.67-6.95-.27-.61-.83-1.04-1.49-1.15-10.42-1.8-21.4-2.01-25.63-2.02-.67 0-1.29.33-1.66.89-.86 1.29-1.43 2.68-1.65 4.01-.62 3.86.29 7.08 2.71 9.58 2.36 2.43 6.21 4.2 10.84 4.97 1.53.26 3.03.39 4.45.39M13.26 23.2c-.71 0-1.26.59-1.26 1.33v2.71H7.71C5.75 27.25 4 28.83 4 30.79v13.42C4 46.16 5.75 48 7.71 48h29.97v8.24c0 3.2 2.64 6 5.84 6-.29.79-.51 1.59-.64 2.36-1.69 10.44 5.91 16.69 16.34 18.43 1.71.29 3.39.43 5.01.43 8.26 0 14.98-3.82 16.44-12.55.19-1.15.26-2.24.25-3.29l.02.01.04-2.23c2.55 0 4.9 1.47 6.87 2.41l.53-1.59 13.42 4.51-.03-27.43c0-1.11-.85-2.01-1.96-2.15-8.92-1.14-15.94-9.72-18.21-12.81-.51-.7-1.33-1.11-2.19-1.11H23v-.13c0-1.46-.89-2.7-2.34-2.9l-7.22-1.01c-.06.02-.12.01-.18.01zm50.97 54.89c-1.31 0-2.7-.12-4.12-.36-4.22-.7-7.67-2.26-9.74-4.39-1.99-2.05-2.7-4.62-2.17-7.87.17-1.08.65-2.2 1.34-3.22 6.46.01 16.41.45 25.29 1.99.73 1.63.9 3.54.52 5.8-.89 5.34-4.63 8.05-11.12 8.05z" fill="#424242" opacity=".2"/><linearGradient id="a" gradientUnits="userSpaceOnUse" x1="87.018" x2="120.555" y1="81.701" y2="67.584"><stop offset="0" stop-color="#6d4c41"/><stop offset="1" stop-color="#4e342e"/></linearGradient><path d="M80.96 65.42v-4.01s-.17-2.75 2.77-3.7c3.15-1.02 6.39-3.96 7.26-5.67.87-1.71 1.86-3.3 2.13-5.43 0 0 .23-2.77 3.63-2.77h5.01s2.61 6.19 4.59 9.43c1.98 3.24 17.66 21.8 17.66 38.47 0 0 .54 13.34-15.41 13.04-14.37-.27-13.82-2.31-13.7-3 0 0 .36-3.12-.06-4.68-.42-1.56-1.26-2.09-1.26-3.54s1.23-1.89 1.23-6.21-2.86-6.42-2.86-8.12c0-1.7.32-2.2.22-3.76-.01.03-.04-7.54-11.21-10.05z" fill="url(#a)"/><path d="M99.78 46.85c.95 2.15 2.6 5.7 4 7.99.36.59.96 1.41 1.86 2.65 4.2 5.76 15.36 21.07 15.36 34.26v.12c0 .04.08 3.96-2.64 6.79-2 2.08-5.11 3.14-9.25 3.14h-.47c-6.5-.12-9.42-.61-10.66-.95.08-1.29.11-3.15-.26-4.51-.26-.98-.64-1.68-.91-2.19-.17-.33-.23-.44-.24-.5.03-.09.09-.23.14-.33.55-1.32 1.09-2.86 1.09-5.94 0-3.48-1.4-5.84-2.33-7.4-.18-.3-.42-.71-.52-.93.01-.47.05-.82.1-1.21.08-.65.18-1.38.11-2.49-.05-1.24-.8-8.9-11.19-12.21v-1.71c0-.12.01-.07 0-.14.04-.5.46-.63.69-.71 3.84-1.24 7.76-4.7 9.01-7.16l.39-.75c.82-1.56 1.74-3.32 2.04-5.65.01-.02.02-.05.02-.06.04-.03.23-.1.63-.1h3.03m1.97-3.01h-5.01c-3.4 0-3.63 2.77-3.63 2.77-.27 2.13-1.26 3.72-2.13 5.43-.87 1.71-4.11 4.65-7.26 5.67-2.94.95-2.77 3.7-2.77 3.7v4.01c11.16 2.5 11.19 10.07 11.19 10.07.1 1.56-.22 2.06-.22 3.76 0 1.7 2.86 3.8 2.86 8.12s-1.23 4.76-1.23 6.21c0 1.45.84 1.98 1.26 3.54.42 1.56.06 4.68.06 4.68-.12.69-.67 2.73 13.7 3h.52c15.41 0 14.89-13.05 14.89-13.05 0-16.67-15.68-35.23-17.66-38.47-1.96-3.25-4.57-9.44-4.57-9.44z" fill="#424242" opacity=".2"/><path d="M70.55 32.24h-24.7c-1.18 0-2.14.96-2.14 2.14v20.65c0 1.18.96 2.14 2.14 2.14h24.3c5.42 0 8.9-5.87 8.9-12.63.01-6.77-3.69-12.3-8.5-12.3z" fill="#565656"/><g fill="#424242"><path d="M67.96 42.37H51.15c-.5 0-.9-.4-.9-.9v-4.33c0-.5.4-.9.9-.9h16.82a3.07 3.07 0 0 1 3.07 3.07 3.077 3.077 0 0 1-3.08 3.06zM67.96 53.17H51.15c-.5 0-.9-.4-.9-.9v-4.33c0-.5.4-.9.9-.9h16.82a3.07 3.07 0 0 1 3.07 3.07 3.084 3.084 0 0 1-3.08 3.06z"/></g></svg>