<svg width="128" height="128" xmlns="http://www.w3.org/2000/svg" width="512px" height="512px"><radialGradient id="a" cx="7.585" cy="18.568" gradientTransform="matrix(0 1 -.893 0 24.167 10.982)" gradientUnits="userSpaceOnUse" r="116.623"><stop offset="0" stop-color="#616161"/><stop offset=".523" stop-color="#414141"/><stop offset="1" stop-color="#212121"/></radialGradient><path d="M64 4L5.48 19.6C4.61 19.84 4 20.63 4 21.54v84.93c0 .91.61 1.7 1.48 1.93L64 124V4z" fill="url(#a)"/><path d="M64 4l58.52 15.6a1.99 1.99 0 0 1 1.48 1.93v84.93c0 .91-.61 1.7-1.48 1.93L64 124V4z" fill="#212121"/><radialGradient id="b" cx="5" cy="38.25" gradientUnits="userSpaceOnUse" r="62.774"><stop offset="0" stop-color="#ffca28"/><stop offset=".326" stop-color="#ffc51f"/><stop offset=".847" stop-color="#ffb808"/><stop offset="1" stop-color="#ffb300"/></radialGradient><path d="M20 65.19c0-1.72-1.1-3.18-2.62-3.74.38-.37.62-.88.62-1.45 0-1.1-.9-2-2-2s-2 .9-2 2c0 .57.24 1.08.62 1.45A3.986 3.986 0 0 0 12 65.19c0 1.53.87 2.85 2.13 3.52.29.75 1.01 1.29 1.87 1.29s1.58-.54 1.87-1.29c1.26-.68 2.13-1.99 2.13-3.52z" fill="url(#b)"/><radialGradient id="c" cx="5" cy="38.25" gradientUnits="userSpaceOnUse" r="62.774"><stop offset="0" stop-color="#ffca28"/><stop offset=".326" stop-color="#ffc51f"/><stop offset=".847" stop-color="#ffb808"/><stop offset="1" stop-color="#ffb300"/></radialGradient><path d="M52 65.19c0-1.72-1.1-3.18-2.62-3.74.38-.37.62-.88.62-1.45 0-1.1-.9-2-2-2s-2 .9-2 2c0 .57.24 1.08.62 1.45A3.986 3.986 0 0 0 44 65.19c0 1.53.87 2.85 2.13 3.52.29.75 1.01 1.29 1.87 1.29s1.58-.54 1.87-1.29c1.26-.68 2.13-1.99 2.13-3.52z" fill="url(#c)"/><radialGradient id="d" cx="64.75" cy="28.75" gradientUnits="userSpaceOnUse" r="67.091"><stop offset="0" stop-color="#ffb300"/><stop offset=".352" stop-color="#fa0"/><stop offset=".914" stop-color="#ff9300"/><stop offset="1" stop-color="#ff8f00"/></radialGradient><path d="M84 65.19c0-1.72-1.1-3.18-2.62-3.74.38-.37.62-.88.62-1.45 0-1.1-.9-2-2-2s-2 .9-2 2c0 .57.24 1.08.62 1.45A3.986 3.986 0 0 0 76 65.19c0 1.53.87 2.85 2.13 3.52.29.75 1.01 1.29 1.87 1.29s1.58-.54 1.87-1.29c1.26-.68 2.13-1.99 2.13-3.52z" fill="url(#d)"/><radialGradient id="e" cx="64.75" cy="28.75" gradientUnits="userSpaceOnUse" r="67.091"><stop offset="0" stop-color="#ffb300"/><stop offset=".352" stop-color="#fa0"/><stop offset=".914" stop-color="#ff9300"/><stop offset="1" stop-color="#ff8f00"/></radialGradient><path d="M116 65.19c0-1.72-1.1-3.18-2.62-3.74A2 2 0 0 0 114 60c0-1.1-.9-2-2-2s-2 .9-2 2c0 .57.24 1.08.62 1.45a3.982 3.982 0 0 0-2.62 3.74c0 1.53.87 2.85 2.13 3.52.29.76 1.01 1.29 1.87 1.29s1.58-.54 1.87-1.29c1.26-.68 2.13-1.99 2.13-3.52z" fill="url(#e)"/><radialGradient id="f" cx="5" cy="38.25" gradientUnits="userSpaceOnUse" r="62.774"><stop offset="0" stop-color="#ffca28"/><stop offset=".326" stop-color="#ffc51f"/><stop offset=".847" stop-color="#ffb808"/><stop offset="1" stop-color="#ffb300"/></radialGradient><path fill="url(#f)" d="M4 40l60-8v12L4 48z"/><radialGradient id="g" cx="64.75" cy="28.75" gradientUnits="userSpaceOnUse" r="67.091"><stop offset="0" stop-color="#ffb300"/><stop offset=".352" stop-color="#fa0"/><stop offset=".914" stop-color="#ff9300"/><stop offset="1" stop-color="#ff8f00"/></radialGradient><path fill="url(#g)" d="M124 40l-60-8v12l60 4z"/><radialGradient id="h" cx="5" cy="38.25" gradientUnits="userSpaceOnUse" r="62.774"><stop offset="0" stop-color="#ffca28"/><stop offset=".326" stop-color="#ffc51f"/><stop offset=".847" stop-color="#ffb808"/><stop offset="1" stop-color="#ffb300"/></radialGradient><path d="M26 60h12c1.1 0 2 .9 2 2v4c0 1.1-.9 2-2 2H26c-1.1 0-2-.9-2-2v-4c0-1.1.9-2 2-2z" fill="url(#h)"/><radialGradient id="i" cx="5" cy="38.25" gradientUnits="userSpaceOnUse" r="62.774"><stop offset="0" stop-color="#ffca28"/><stop offset=".326" stop-color="#ffc51f"/><stop offset=".847" stop-color="#ffb808"/><stop offset="1" stop-color="#ffb300"/></radialGradient><path d="M58 60h6v8h-6c-1.1 0-2-.9-2-2v-4c0-1.1.9-2 2-2z" fill="url(#i)"/><radialGradient id="j" cx="64.75" cy="28.75" gradientUnits="userSpaceOnUse" r="67.091"><stop offset="0" stop-color="#ffb300"/><stop offset=".352" stop-color="#fa0"/><stop offset=".914" stop-color="#ff9300"/><stop offset="1" stop-color="#ff8f00"/></radialGradient><path d="M64 60h6c1.1 0 2 .9 2 2v4c0 1.1-.9 2-2 2h-6v-8z" fill="url(#j)"/><radialGradient id="k" cx="64.75" cy="28.75" gradientUnits="userSpaceOnUse" r="67.091"><stop offset="0" stop-color="#ffb300"/><stop offset=".352" stop-color="#fa0"/><stop offset=".914" stop-color="#ff9300"/><stop offset="1" stop-color="#ff8f00"/></radialGradient><path d="M90 60h12c1.1 0 2 .9 2 2v4c0 1.1-.9 2-2 2H90c-1.1 0-2-.9-2-2v-4c0-1.1.9-2 2-2z" fill="url(#k)"/><path d="M64 7.1l57 15.2v83.39l-57 15.2L7 105.7V22.3L64 7.1M64 4L5.48 19.6C4.61 19.84 4 20.63 4 21.54v84.93c0 .91.61 1.7 1.48 1.93L64 124l58.52-15.6a1.99 1.99 0 0 0 1.48-1.93V21.54c0-.91-.61-1.7-1.48-1.93L64 4z" fill="#eee" opacity=".2"/></svg>