<svg width="128" height="128" xmlns="http://www.w3.org/2000/svg" width="512px" height="512px"><linearGradient id="a" gradientUnits="userSpaceOnUse" x1="64" x2="64" y1="39.48" y2="88.31"><stop offset="0" stop-color="#ffb74d"/><stop offset=".743" stop-color="#fb8d03"/><stop offset=".768" stop-color="#fb8c00"/><stop offset="1" stop-color="#fb8c00"/></linearGradient><path d="M62.06 85.2L42.8 65.94a2.746 2.746 0 0 1 0-3.88L62.06 42.8a2.746 2.746 0 0 1 3.88 0L85.2 62.06a2.746 2.746 0 0 1 0 3.88L65.94 85.2a2.746 2.746 0 0 1-3.88 0z" fill="url(#a)"/><path d="M64 45.11L82.89 64 64 82.89 45.11 64 64 45.11M64 42c-.7 0-1.4.27-1.94.8L42.8 62.06a2.746 2.746 0 0 0 0 3.88L62.06 85.2c.54.53 1.24.8 1.94.8s1.4-.27 1.94-.8L85.2 65.94a2.746 2.746 0 0 0 0-3.88L65.94 42.8c-.54-.53-1.24-.8-1.94-.8z" fill="#424242" opacity=".2"/></svg>