<svg width="128" height="128" xmlns="http://www.w3.org/2000/svg"><path fill="#90a4ae" d="M4 4v120h118.46z"/><path d="M7 11.31L115.29 121H7V11.31M4 4v120h118.46L4 4z" fill="#424242" opacity=".2"/><g><linearGradient id="a" gradientUnits="userSpaceOnUse" x1="60.036" x2="60.036" y1="18.226" y2="118.456"><stop offset=".003" stop-color="#eee"/><stop offset=".349" stop-color="#ebebeb"/><stop offset=".594" stop-color="#e2e2e2"/><stop offset=".806" stop-color="#d3d3d3"/><stop offset="1" stop-color="#bdbdbd"/></linearGradient><path d="M8.91 113.37v6.17l102.25-.24L8.91 18.1v21.74h7.12v5.69H8.91v5.69h7.12v5.69H8.91v5.69h14.23v5.22H8.91v5.69h7.12v5.69H8.91v5.69h7.12v5.69H8.91v5.69h14.23v5.69H8.91v5.69h7.12v5.69H8.91zm20.4-55.32l43.06 42.82H29.31V58.05z" fill="url(#a)"/></g></svg>