<svg width="128" height="128" xmlns="http://www.w3.org/2000/svg" xmlns:xlink="http://www.w3.org/1999/xlink"><linearGradient id="a" gradientTransform="matrix(.9562 -.0107 -.0107 .9562 1.794 5.174)" gradientUnits="userSpaceOnUse" x1="47.306" x2="100.708" y1="36.863" y2="87.257"><stop offset=".258" stop-color="#f05455"/><stop offset=".893" stop-color="#d41f26"/></linearGradient><path d="M102.74 26.04c-28.67-28.67-67.83-3.83-80.78 17.3-7.34 11.97-3.6 18.53 2.72 29.69 4.72 8.34 6.11 18.36 6.11 18.36l3.35 3.35 3.35 3.35s10.02 1.39 18.36 6.11c11.17 6.32 17.72 10.06 29.69 2.72 21.13-12.95 45.88-52.21 17.2-80.88z" fill="url(#a)"/><defs><path id="b" d="M102.74 26.04c-28.67-28.67-67.83-3.83-80.78 17.3-7.34 11.97-3.6 18.53 2.72 29.69 4.72 8.34 6.11 18.36 6.11 18.36l3.35 3.35 3.35 3.35s10.02 1.39 18.36 6.11c11.17 6.32 17.72 10.06 29.69 2.72 21.13-12.95 45.88-52.21 17.2-80.88z"/></defs><clipPath id="c"><use xlink:href="#b" overflow="visible"/></clipPath><g clip-path="url(#c)"><linearGradient id="d" gradientTransform="rotate(44.997 56.81 65.953) scale(.9455 .9669)" gradientUnits="userSpaceOnUse" x1="46.517" x2="57.381" y1="108.644" y2="99.378"><stop offset=".21" stop-color="#f47c20"/><stop offset=".786" stop-color="#f8981d"/></linearGradient><path d="M30.7 105.58l-7.8-7.8c.29-12.71-7.79-39.39-7.79-39.39l55.36 55.36s-26.72-8.37-38.63-8.19l-1.14.02z" fill="url(#d)"/></g><path d="M72.82 16.08c10.43 0 19.79 4.07 27.8 12.08 9.31 9.31 13.29 20.35 11.81 32.81-2.17 18.37-15.96 35.73-28.46 43.39-4 2.45-7.35 3.59-10.55 3.59-4.86 0-9.55-2.66-16.05-6.34l-.05-.03c-7.25-4.1-15.54-5.81-18.4-6.31l-2.66-2.66-2.66-2.66c-.5-2.87-2.2-11.16-6.31-18.4l-.03-.05c-6.28-11.09-9.15-16.15-2.74-26.6 8.56-13.97 28.4-28.82 48.3-28.82m0-3c-21.37 0-42.1 15.98-50.86 30.26-7.34 11.97-3.6 18.53 2.72 29.69 4.72 8.34 6.11 18.36 6.11 18.36l3.35 3.35 3.35 3.35s10.02 1.39 18.36 6.11c6.82 3.86 11.92 6.76 17.58 6.76 3.61 0 7.45-1.18 12.11-4.04 21.13-12.95 45.88-52.21 17.21-80.88-9.3-9.29-19.69-12.96-29.93-12.96z" fill="#434343" opacity=".2"/><linearGradient id="e" gradientTransform="matrix(.9562 -.0107 -.0107 .9562 1.794 5.174)" gradientUnits="userSpaceOnUse" x1="23.478" x2="36.386" y1="91.585" y2="104.493"><stop offset=".228" stop-color="#ffe0b2"/><stop offset=".872" stop-color="#fcb64e"/></linearGradient><path d="M20.95 116.09l-8.17-8.17c-1.32-1.32-2.14-2.6-.69-3.85L31.7 87.16c3.35-3.35 7.81-4.33 11.08-1.06 3.27 3.27 2.3 7.73-1.06 11.08L24.8 116.79c-1.25 1.44-2.53.63-3.85-.7z" fill="url(#e)"/><g opacity=".2"><path d="M38.14 86.09c1.19 0 2.27.48 3.22 1.43 2.65 2.65 1.19 6-1.06 8.25-.03.03-.07.07-.1.11l-16.91 19.6c-.17-.1-.46-.32-.93-.8l-8.17-8.17c-.47-.47-.69-.77-.8-.93L33 88.67c.04-.03.07-.07.11-.1 1.6-1.6 3.39-2.48 5.03-2.48m0-2c-2.22 0-4.52 1.14-6.44 3.07l-19.61 16.92c-1.45 1.26-.63 2.53.69 3.85l8.17 8.17c.83.83 1.64 1.46 2.44 1.46.48 0 .95-.22 1.42-.76l16.92-19.61c3.35-3.35 4.33-7.81 1.06-11.08-1.4-1.4-3.01-2.02-4.65-2.02z" fill="#434343"/></g><radialGradient id="f" cx="30.116" cy="27.844" gradientUnits="userSpaceOnUse" r="10.458"><stop offset=".375" stop-color="#fafbfb"/><stop offset=".946" stop-color="#eee"/></radialGradient><circle cx="32.37" cy="30.86" r="16" fill="url(#f)"/><g opacity=".2"><path d="M32.37 17.86c7.17 0 13 5.83 13 13s-5.83 13-13 13-13-5.83-13-13 5.83-13 13-13m0-3c-8.84 0-16 7.16-16 16s7.16 16 16 16 16-7.16 16-16-7.16-16-16-16z" fill="#434343"/></g></svg>