<svg width="128" height="128" xmlns="http://www.w3.org/2000/svg"><linearGradient id="a" gradientUnits="userSpaceOnUse" x1="64" x2="64" y1="36" y2="91.637"><stop offset="0" stop-color="#ef5350"/><stop offset=".578" stop-color="#e0403e"/><stop offset="1" stop-color="#d32f2f"/></linearGradient><path d="M60.66 89.94l-28-48.53C31.42 38.92 33.22 36 36 36h56c2.78 0 4.58 2.92 3.34 5.4l-28 48.53c-1.37 2.76-5.3 2.76-6.68.01z" fill="url(#a)"/><path d="M92 39c.34 0 .53.19.62.35.09.15.17.38.06.66L64.74 88.44l-.04.08-.04.08c-.17.33-.45.4-.66.4-.21 0-.49-.07-.66-.41l-.04-.08-.04-.08-27.94-48.42a.669.669 0 0 1 .06-.66c.09-.16.28-.35.62-.35h56m0-3H36c-2.78 0-4.58 2.92-3.34 5.4l28 48.53A3.698 3.698 0 0 0 64 92c1.33 0 2.65-.69 3.34-2.06l28-48.53C96.58 38.92 94.78 36 92 36z" fill="#424242" opacity=".2"/></svg>