<svg viewBox="0 0 128 128" xmlns="http://www.w3.org/2000/svg" width="512px" height="512px"><linearGradient id="a" x1="-93.047" x2="-93.047" y1="-73.413" y2="-17.291" gradientUnits="userSpaceOnUse"><stop stop-color="#eee" offset=".005"/><stop stop-color="#EAEAEA" offset=".282"/><stop stop-color="#ddd" offset=".577"/><stop stop-color="#C8C8C8" offset=".879"/><stop stop-color="#BDBDBD" offset="1"/></linearGradient><path d="M-42.13-44.72c-.91-4.33-4.3-20.11-5.87-27.41-.47-2.21-2.11-3.82-3.99-3.81-5.36 0-15.39-.05-16.6-.05h-44.08c-.61 0-2.56.06-4.11 1.79-4.7 5.27-12.54 20.52-13.76 22.07-.08.1-6.27 2.31-9.09 4-1.12.67-1.74 2.13-1.9 3.63l-2.46 20.75c-.64 4.1 1.7 5.76 5.37 5.76h91.51c2.8 0 5.11-.68 5.11-5.69v-19.79c0-.43-.05-.85-.13-1.25z" fill="url(#a)"/><path d="M-51.98-73c.36 0 .87.59 1.05 1.44 1.46 6.78 4.95 23.06 5.86 27.43.04.2.07.44.07.66v19.79c0 2.81-.49 2.69-2.11 2.69h-91.51c-1.3 0-2.02-.23-2.25-.5s-.3-.92-.16-1.77c.01-.04.01-.06.02-.09l2.47-20.83c.08-.8.36-1.28.46-1.36 1.87-1.12 5.83-2.66 7.51-3.31 1.46-.57 1.86-.72 2.39-1.39.5-.63 1.28-2 2.99-5.03 2.85-5.03 7.61-13.53 10.65-16.93.57-.64 1.22-.79 1.87-.79h60.69-.02m.02-3.01s-.01 0 0 0h-60.7c-.63 0-2.55.08-4.08 1.79-4.7 5.27-12.54 20.52-13.76 22.07-.08.1-6.27 2.31-9.09 4-1.12.67-1.74 2.13-1.9 3.63l-2.46 20.75c-.64 4.1 1.7 5.76 5.37 5.76h91.51c2.8 0 5.11-.68 5.11-5.69v-19.79c0-.42-.05-.84-.13-1.24-.91-4.33-4.3-20.17-5.87-27.47-.49-2.21-2.13-3.81-4-3.81z" fill="#424242" opacity=".2"/><linearGradient id="b" x1="46.43" x2="46.43" y1="-117.5" y2="-61.374" gradientUnits="userSpaceOnUse"><stop stop-color="#616161" offset=".011"/><stop stop-color="#5D5D5D" offset=".25"/><stop stop-color="#505050" offset=".504"/><stop stop-color="#3B3B3B" offset=".766"/><stop stop-color="#212121" offset="1"/></linearGradient><path d="M97.35-88.93c-.91-4.33-4.3-20.11-5.86-27.41-.47-2.21-2.11-3.75-3.99-3.75-5.36 0-15.39.01-16.6.01H26.82c-.61 0-2.56-.01-4.11 1.73C18-113.07 10.16-97.86 8.95-96.31c-.08.1-6.27 2.3-9.09 3.99-1.12.67-1.74 2.12-1.9 3.62L-4.5-67.9c-.64 4.1 1.7 5.82 5.37 5.82h91.51c2.8 0 5.1-.8 5.1-5.81v-19.79c-.01-.43-.05-.84-.13-1.25z" fill="url(#b)"/><path d="M87.5-117.08c.36 0 .87.53 1.05 1.38 1.46 6.78 4.94 23.03 5.86 27.4.04.2.06.41.06.63v19.79c0 2.81-.49 2.81-2.1 2.81H.86c-1.3 0-2.02-.29-2.25-.56s-.3-.95-.16-1.8l.02-.1L.94-88.37c.08-.8.36-1.28.46-1.36 1.87-1.12 5.83-2.66 7.51-3.31 1.46-.57 1.86-.72 2.39-1.39.5-.63 1.28-2 2.99-5.03 2.85-5.03 7.61-13.46 10.65-16.87.57-.64 1.22-.72 1.87-.72h44.08c.75 0 4.89 0 9.21-.01l7.4-.02m0-3c-5.36 0-15.39.01-16.6.01H26.8c-.63 0-2.55.01-4.08 1.73C18-113.07 10.16-97.86 8.95-96.31c-.08.1-6.27 2.3-9.09 3.99-1.12.67-1.74 2.12-1.9 3.62L-4.5-67.9c-.64 4.1 1.7 5.82 5.37 5.82h91.51c2.8 0 5.1-.8 5.1-5.81v-19.79c0-.42-.04-.84-.13-1.24-.91-4.33-4.3-20.11-5.86-27.41-.48-2.22-2.12-3.75-3.99-3.75z" fill="#eee" opacity=".2"/><linearGradient id="c" x1="63.938" x2="63.938" y1="-14.732" y2="4.139" gradientTransform="matrix(1 0 0 -1 0 89.343)" gradientUnits="userSpaceOnUse"><stop stop-color="#E0E0E0" offset="0"/><stop stop-color="#9E9E9E" offset="1"/></linearGradient><path fill="url(#c)" d="M112.59 85.08H15.18L4 104.12h119.88z"/><path d="M19.08 82.42l89.61.01 11.68 19.7H7.5l11.58-19.71m-1.15-2L4 104.12h119.88l-14.05-23.7h-91.9z" fill="#424242" opacity=".2"/><path d="M26.79 88.03h-6.44l.87-1.68h6.46zm10.08 0h-6.44l.8-1.68h6.61zm9.59 0h-6.44l.92-1.68h6.45zm9.54 0h-6.44l1.04-1.68h6.03zm9.4 0h-6.44l.51-1.68h5.41zm9.6 0h-6.45l-.71-1.68h6.1zm9.84 0H78.4l-1.22-1.68h6.44zm9.49 0h-6.44l-1.15-1.68h6.45zm12.9 0h-9.67l-1.23-1.68h9.95zm-4.93 2.51h6.44l-1.14-1.68h-6.54zm-10.53 0h6.44l-1.23-1.68h-6.44zm-9.61 0h6.44l-1.09-1.68h-6.43zm-10.33 0h6.44l-1.15-1.68h-6.07zm-9.22 0h6.44l-.71-1.68h-5.43zm-9.22 0h6.44l.39-1.68h-6.24zm-10.09 0h6.44l.78-1.68h-6.18zm-11.22 0h6.44l1-1.68h-6.45zm-13.14 0h9.68l.95-1.68h-9.71zm61.01 2.51h6.45l-1.12-1.68h-6.44zm-10.26 0h6.44l-.94-1.68h-6.04zm-12.1 0h6.44l-.18-1.68h-5.76zm-11.52 0h6.45l.57-1.68h-6.18zm-12.13 0h6.45l1.02-1.68h-6.45zm-16.25 0h12.85l1.06-1.68H18.63zm73.14.03h19.3l-1.15-1.74H89.69zm14.66 2.48h6.44l-1.3-1.68h-6.44zm-12.03 0h6.45l-1.26-1.68h-6.44zm-51.33 0h43.75l-1.01-1.68H43.12zm-13.74 0h6.44l.79-1.68h-6.3zm-12.31 0h6.45l.76-1.68H17zm25.36 4.43h44.81l-1.92-3.48H43.3z" fill="#F5F5F5"/><path d="M121.74 108.05H6.14c-1.18 0-2.14-.96-2.14-2.14v-1.79h119.88v1.79c0 1.19-.96 2.14-2.14 2.14z" fill="#9E9E9E"/><path d="M122.88 105.12v.79c0 .63-.51 1.14-1.14 1.14H6.14c-.63 0-1.14-.51-1.14-1.14v-.79h117.88m1-1H4v1.79c0 1.18.96 2.14 2.14 2.14h115.6c1.18 0 2.14-.96 2.14-2.14v-1.79z" fill="#424242" opacity=".2"/><linearGradient id="d" x1="63.883" x2="63.883" y1="20.113" y2="84.671" gradientUnits="userSpaceOnUse"><stop stop-color="#E0E0E0" offset=".006"/><stop stop-color="#9E9E9E" offset=".999"/></linearGradient><path d="M112.59 85.08H15.18V22.79c0-1.57 1.27-2.84 2.84-2.84h91.72c1.57 0 2.84 1.27 2.84 2.84v62.29z" fill="url(#d)"/><path d="M109.74 21.95c.47 0 .84.38.84.84v60.29h-93.4V22.79c0-.47.38-.84.84-.84h91.72m0-2H18.02c-1.57 0-2.84 1.27-2.84 2.84v62.29h97.41V22.79c0-1.57-1.28-2.84-2.85-2.84z" fill="#424242" opacity=".2"/><path fill="#616161" d="M24.02 27.23h79.66v49.9H24.02z"/></svg>