<svg viewBox="0 0 128 128" xmlns="http://www.w3.org/2000/svg"><path d="M109.31 7.18s9.78 27.79 4.42 29.66-38.54 5.03-51.81 5.7c9.6 15.82-6.13 43.57-5.53 61.11.19 5.51 3.6 8.58 1.2 12.03-1.14 1.65-3.05 2.1-5.02 2.1-2.15 0-4.39-.54-5.8-.66-.39-.03-.79-.05-1.19-.05-6.74 0-13.58 4.56-17.7 4.56-.83 0-1.54-.18-2.13-.63-.67.45-1.51.67-2.34.67-1.88 0-3.63-1.13-2.88-3.22 0 0 3.1-.8 4.09-1.68 1.89-.97 7.14-4.78 12.56-9.62 1.83-1.63 5.67-5.64 6.92-14.56 1.13-8.03-3.68-35.62-2.17-50.52-.93-6.76-2.62-10.92.67-16.46.89-1.5 2.22-2.69 3.82-3.37 17.24-7.41 49.23-12.82 62.89-15.06m1.92-3.24l-2.39.39c-11.22 1.84-45.38 7.45-63.56 15.26-2.16.93-3.94 2.5-5.16 4.55-3.22 5.42-2.46 9.82-1.58 14.9.17.99.35 2.01.51 3.09-.8 8.51.29 20.54 1.25 31.16.73 8.04 1.42 15.64.96 18.89-.8 5.66-2.81 9.97-5.99 12.8-5.28 4.71-10.34 8.38-11.96 9.21l-.32.17-.24.21c-.39.26-1.79.78-2.93 1.08l-1.48.38-.52 1.43c-.61 1.69-.42 3.36.53 4.71 1.05 1.49 2.94 2.38 5.07 2.38.79 0 1.57-.13 2.3-.36.66.22 1.38.32 2.16.32 2.33 0 4.85-.95 7.76-2.04 3.13-1.18 6.67-2.51 9.94-2.51.32 0 .64.01.94.04.4.03.97.12 1.58.22 1.27.2 2.86.45 4.47.45 3.37 0 5.85-1.13 7.39-3.35 2.24-3.24 1.21-6.38.38-8.9-.49-1.5-1.01-3.05-1.07-4.87-.21-6.26 1.85-14.11 4.03-22.43 3.31-12.63 6.72-25.63 3.04-35.95 14.49-.97 42.88-3.69 48.34-5.61.83-.29 1.97-.96 2.73-2.53 2.93-6.09-3.38-25.12-5.38-30.81l-.8-2.28z" fill="#BA8F63"/><linearGradient id="a" x1="15.421" x2="103.42" y1="112.93" y2="5.433" gradientUnits="userSpaceOnUse"><stop stop-color="#E0BB95" offset="0"/><stop stop-color="#DEB892" offset=".411"/><stop stop-color="#D6B088" offset=".743"/><stop stop-color="#CCA47A" offset="1"/></linearGradient><path d="M109.31 7.18c-13.66 2.24-45.65 7.66-62.89 15.06-1.6.69-2.93 1.88-3.82 3.37-3.29 5.53-1.6 9.7-.65 16.45-1.52 14.9 3.29 42.49 2.17 50.52-1.25 8.91-5.1 12.93-6.92 14.56-5.42 4.84-10.67 8.65-12.56 9.62-.99.88-4.09 1.68-4.09 1.68-1.08 3.01 3.02 4.03 5.21 2.56 3.65 2.78 12.54-4.59 21.01-3.88 2.72.23 8.43 2.01 10.83-1.44 2.39-3.45-1.01-6.51-1.2-12.03-.6-17.54 15.13-45.29 5.53-61.11 13.27-.67 46.46-3.83 51.81-5.7 5.35-1.88-4.43-29.66-4.43-29.66z" fill="url(#a)"/><path d="M58.45 45.56c-.67 2.39-1.27 4.67-1.78 6.95-.49 2.28-.93 4.53-1.14 6.81-.29 2.27-.42 4.55-.43 6.87-.06 2.34.15 4.66.16 7.19v.03a.1.1 0 0 1-.1.1c-.04 0-.08-.03-.09-.07-.7-2.32-1.32-4.67-1.53-7.09-.3-2.41-.25-4.85 0-7.26.28-2.41.84-4.79 1.63-7.08s1.8-4.51 3.11-6.56c.03-.05.09-.06.13-.03.04.02.05.07.04.11v.03zM47.92 112.21c.88-.91 1.41-1.52 1.67-2.06.26-.52.34-.86.55-1.3l.76-1.64c.32-.68.67-1.43 1.16-2.57l.04-.1a.1.1 0 0 1 .14-.05c.02.01.04.03.05.05.41.82.61 1.73.63 2.64.03.91-.11 1.84-.47 2.7-.39.85-1.04 1.59-1.86 2.03-.82.46-1.77.59-2.67.54-.06 0-.1-.05-.1-.11 0-.03.01-.05.03-.07l.07-.06zM48.99 36.62c1.16-.98 1.64-1.82 2-2.64.36-.81.63-1.64.89-2.52.25-.88.49-1.79.68-2.75.07-.25.09-.48.14-.74.07-.27.07-.5.09-.77.07-.57.02-1.09-.12-1.85l-.02-.09c-.01-.06.03-.12.09-.13.03-.01.06 0 .08.02 1.04.78 1.57 2.05 1.74 3.28.19 1.25.08 2.53-.25 3.74-.36 1.2-.98 2.35-1.89 3.25-.9.91-2.16 1.45-3.42 1.46-.06 0-.11-.05-.11-.11 0-.03.02-.07.04-.09l.06-.06z" fill="#BA8F63"/></svg>