<svg viewBox="0 0 128 128" xmlns="http://www.w3.org/2000/svg" width="512px" height="512px"><linearGradient id="a" x1="62.992" x2="62.992" y1="20.455" y2="106.97" gradientUnits="userSpaceOnUse"><stop stop-color="#FEE133" offset=".5"/><stop stop-color="#FEDE32" offset=".612"/><stop stop-color="#FCD32F" offset=".708"/><stop stop-color="#FAC12B" offset=".797"/><stop stop-color="#F7A924" offset=".883"/><stop stop-color="#F6A323" offset=".9"/></linearGradient><path d="M62.99 118.96c-27.47 0-57.03-17.2-57.03-54.96S35.52 9.04 62.99 9.04c15.22 0 29.32 5.04 39.69 14.19 11.35 10.02 17.35 24.11 17.35 40.77 0 16.58-6 30.65-17.35 40.7-10.4 9.2-24.49 14.26-39.69 14.26z" fill="url(#a)"/><path d="M62.99 11c14.74 0 28.37 4.87 38.38 13.7 10.91 9.63 16.68 23.22 16.68 39.3 0 16-5.77 29.57-16.69 39.23C91.34 112.11 77.71 117 62.99 117c-14.79 0-28.42-4.83-38.39-13.59C13.69 93.82 7.92 80.19 7.92 64c0-16.26 5.77-29.92 16.67-39.48C34.54 15.8 48.18 11 62.99 11m0-3.93c-30.63 0-59 19.67-59 56.93 0 37.06 28.37 56.93 59 56.93s59-20.38 59-56.93c0-36.75-28.37-56.93-59-56.93z" fill="#EB8F00"/><path d="M52.68 105.33c-3.45 0-6.65-1.95-8.34-5.08s-1.52-6.79.45-9.78c4.36-6.63 11.09-10.14 19.46-10.14s15.1 3.51 19.46 10.14c1.97 2.99 2.14 6.65.45 9.78s-4.88 5.08-8.34 5.08c-1.07 0-2.15-.19-3.2-.55-2.72-.95-5.54-1.43-8.37-1.43-2.84 0-5.65.48-8.37 1.43-1.05.37-2.13.55-3.2.55z" fill="#242424"/><path d="M43.74 24.7c.36-1.12 1.35-1.86 2.54-1.89 3.28-.14 6.53-1.74 8.67-4.3.86-1.07 2.3-1.37 3.45-.75 1.11.59 1.59 1.8 1.21 3.01-.05.16-.12.32-.2.48a12.64 12.64 0 0 1-2.73 3.43c-2.95 2.65-6.99 3.9-10.8 3.34-.85-.14-1.51-.57-1.91-1.21-.37-.62-.46-1.39-.23-2.11zm40.54 0c-.36-1.12-1.35-1.86-2.54-1.89-3.28-.14-6.53-1.74-8.67-4.3-.86-1.07-2.3-1.37-3.45-.75-1.11.59-1.59 1.8-1.21 3.01.05.16.12.32.2.48a12.64 12.64 0 0 0 2.73 3.43c2.95 2.65 6.99 3.9 10.8 3.34.85-.14 1.51-.57 1.91-1.21.37-.62.46-1.39.23-2.11z" fill="#EB8F00" stroke="#EB8F00" stroke-miterlimit="10"/><path d="M82.77 45.03c4.19 0 8 3.54 8 9.42s-3.81 9.42-8 9.42-8-3.54-8-9.42 3.81-9.42 8-9.42zm-37.54 0c-4.19 0-8 3.54-8 9.42s3.81 9.42 8 9.42 8-3.54 8-9.42-3.81-9.42-8-9.42z" fill="#242424"/><linearGradient id="b" x1="61.387" x2="125.62" y1="65.82" y2="65.82" gradientUnits="userSpaceOnUse"><stop stop-color="#FEE133" offset=".136"/><stop stop-color="#FDDD32" offset=".34"/><stop stop-color="#FCD02F" offset=".556"/><stop stop-color="#F9BB29" offset=".778"/><stop stop-color="#F6A323" offset=".965"/></linearGradient><path d="M118.9 72.53H68.1c-3.69 0-6.71-3.02-6.71-6.71s3.02-6.71 6.71-6.71h51.14c3.51 0 6.37 2.87 6.37 6.37v.34c.01 3.69-3.01 6.71-6.71 6.71z" fill="url(#b)"/><path d="M119.09 57.11H68v4h51.09c2.46 0 4.47 1.95 4.47 4.36v.37c0 2.59-2.16 4.69-4.81 4.69H68v4h50.75c4.92 0 8.92-3.9 8.92-8.69v-.37c0-4.61-3.85-8.36-8.58-8.36z" fill="#EB8F00"/></svg>