<svg width="128" height="128" xmlns="http://www.w3.org/2000/svg" xmlns:xlink="http://www.w3.org/1999/xlink" width="512px" height="512px"><linearGradient id="a" gradientUnits="userSpaceOnUse" x1="63.75" x2="63.75" y1="92.167" y2="124.836"><stop offset=".275" stop-color="#757575"/><stop offset=".993" stop-color="#bdbdbd"/></linearGradient><path fill="url(#a)" d="M54.75 84h18v40h-18z"/><path d="M69.75 87v34h-12V87h12m3-3h-18v40h18V84z" fill="#444" opacity=".2"/><linearGradient id="b" gradientUnits="userSpaceOnUse" x1="76.094" x2="76.094" y1="23.5" y2="90.394"><stop offset="0" stop-color="#64b5f6"/><stop offset=".664" stop-color="#2196f3"/></linearGradient><path d="M123.95 95.96H28.24v-72h69.72c14.36 0 26 11.64 26 26v46z" fill="url(#b)"/><linearGradient id="c" gradientUnits="userSpaceOnUse" x1="4.667" x2="48.184" y1="59.957" y2="59.957"><stop offset="0" stop-color="#607d8b"/><stop offset=".422" stop-color="#4c636e"/><stop offset="1" stop-color="#33424a"/></linearGradient><path d="M48.78 95.96H4V46.35c0-12.36 10.02-22.39 22.39-22.39 12.36 0 22.39 10.02 22.39 22.39v49.61z" fill="url(#c)"/><linearGradient id="d" gradientUnits="userSpaceOnUse" x1="4" x2="48.896" y1="92.957" y2="92.957"><stop offset="0" stop-color="#64b5f6"/><stop offset=".664" stop-color="#2196f3"/></linearGradient><path fill="url(#d)" d="M4 89.96h44.9v6H4z"/><path d="M70.99 89.82H14.04a2.76 2.76 0 0 1-2.76-2.76V50.94c0-1.54 1.25-2.8 2.8-2.8h56.94a2.77 2.77 0 0 1 2.77 2.77v36.11a2.808 2.808 0 0 1-2.8 2.8z" fill="#ffd740"/><g><defs><path id="e" d="M71 89.82H14.06a2.78 2.78 0 0 1-2.78-2.78v-36.1a2.78 2.78 0 0 1 2.78-2.78H71a2.78 2.78 0 0 1 2.78 2.78v36.1A2.78 2.78 0 0 1 71 89.82z"/></defs><defs><path id="f" d="M73.78 51.01v-.07c0-1.54-1.25-2.79-2.79-2.79H14.07c-1.54 0-2.79 1.25-2.79 2.79 0 .22-.02 1.25-.02 1.25l30.79 22.79c.25.19.6.2.86 0l30.75-22.96c.18-.14.12-.79.12-1.01z"/></defs><defs><path id="g" d="M71 89.82H14.07c-1.54 0-2.79-1.25-2.79-2.79V50.94c0-1.54 1.25-2.8 2.8-2.8h56.94a2.77 2.77 0 0 1 2.77 2.77v36.11c-.01 1.55-1.25 2.8-2.79 2.8z"/></defs><clipPath id="h"><use xlink:href="#g" overflow="visible"/></clipPath><g clip-path="url(#h)" fill="#ffb300"><path d="M7.993 90.848L30.5 66.278l2.213 2.027-22.508 24.57zM52.3 68.243l2.221-2.017 22.458 24.723-2.22 2.017z"/></g><g clip-path="url(#h)"><path fill="#ffb300" d="M42.48 77.19L8.33 51.31l1.81-2.39 32.35 24.51L74.92 49l1.81 2.4z"/></g><g opacity=".2"><path d="M70.78 51.15v35.67h-56.5V51.15h56.5m.23-3H14.08c-1.54 0-2.8 1.25-2.8 2.8v36.11a2.76 2.76 0 0 0 2.76 2.76h56.95c1.54 0 2.79-1.25 2.79-2.79V50.92a2.77 2.77 0 0 0-2.77-2.77z" fill="#444"/></g></g><g><linearGradient id="i" gradientUnits="userSpaceOnUse" x1="76.094" x2="76.094" y1="23.5" y2="90.394"><stop offset="0" stop-color="#64b5f6"/><stop offset=".664" stop-color="#2196f3"/></linearGradient><path d="M97.95 23.96H28.24v.08c11.5.94 20.54 10.56 20.54 22.31v43.61h.12v6h75.05v-46c0-14.36-11.64-26-26-26z" fill="url(#i)"/></g><g opacity=".2"><path d="M97.95 26.96c12.68 0 23 10.32 23 23v43H7V46.35c0-10.69 8.7-19.39 19.39-19.39.49 0 1.01.02 1.6.07.08.01.16.01.24.01.24 0 .47-.03.7-.08h69.02m0-3H28.24v.08a22.5 22.5 0 0 0-1.85-.08C14.02 23.96 4 33.98 4 46.35v49.61h119.95v-46c0-14.36-11.64-26-26-26z" fill="#444"/></g><g><linearGradient id="j" gradientUnits="userSpaceOnUse" x1="76.861" x2="76.861" y1="12.5" y2="64.502"><stop offset=".227" stop-color="#ef5350"/><stop offset=".783" stop-color="#e53935"/></linearGradient><path d="M85.89 4.24H67.83c-3.31 0-6 2.69-6 6V14c0 .18.01.36.03.53v42.56a2.49 2.49 0 0 0 2.49 2.49h5.02a2.49 2.49 0 0 0 2.49-2.49V20H85.9c3.31 0 6-2.69 6-6v-3.76c-.01-3.31-2.69-6-6.01-6z" fill="url(#j)"/><path d="M85.89 6.24c2.21 0 4 1.79 4 4V14c0 2.21-1.79 4-4 4H71.85c-1.1 0-2 .9-2 2v37.09c0 .27-.22.49-.49.49h-5.02a.49.49 0 0 1-.49-.49V14.53c0-.06 0-.12-.01-.18-.01-.12-.02-.24-.02-.36v-3.76c0-2.21 1.79-4 4-4h18.07m0-1.99H67.83c-3.31 0-6 2.69-6 6V14c0 .18.01.36.03.53v42.56a2.49 2.49 0 0 0 2.49 2.49h5.02a2.49 2.49 0 0 0 2.49-2.49V20H85.9c3.31 0 6-2.69 6-6v-3.76c-.01-3.31-2.69-6-6.01-6z" fill="#444" opacity=".2"/><radialGradient id="k" cx="63.854" cy="56.168" gradientUnits="userSpaceOnUse" r="14.929"><stop offset="0" stop-color="#eceff1"/><stop offset=".672" stop-color="#b0bec5"/></radialGradient><circle cx="66.85" cy="59.42" r="9" fill="url(#k)"/><path d="M66.85 52.42c3.86 0 7 3.14 7 7s-3.14 7-7 7-7-3.14-7-7 3.14-7 7-7m0-2a9 9 0 1 0 .001 18.001 9 9 0 0 0-.001-18.001z" fill="#444" opacity=".2"/></g></svg>