<svg width="128" height="128" xmlns="http://www.w3.org/2000/svg"><linearGradient id="a" gradientUnits="userSpaceOnUse" x1="66.296" x2="66.296" y1="91.48" y2="117.402"><stop offset="0" stop-color="#ffc044"/><stop offset=".847" stop-color="#ca4300"/></linearGradient><path d="M15.27 94.4s1.62 24.29 51.1 23.93c49.48-.36 50.2-22.67 50.92-26.45.72-3.78-18.53-11.34-54.16-9.72s-38.68.37-47.86 12.24z" fill="url(#a)"/><linearGradient id="b" gradientUnits="userSpaceOnUse" x1="65.608" x2="65.608" y1="81.527" y2="115.434"><stop offset=".005" stop-color="#fbc02d"/><stop offset=".081" stop-color="#fcca30"/><stop offset=".209" stop-color="#fdd534"/><stop offset=".36" stop-color="#fdd835"/><stop offset=".69" stop-color="#fff59d"/><stop offset="1" stop-color="#fdd835"/></linearGradient><path d="M12.73 83.56s-3.21 8.69-2.31 10.67c.9 1.98 1.62 1.98 1.62 1.98s8.82-1.8 25.55 2.88 25.07 7.73 29.26 11.14c5.22 4.25 6.55 6.49 9.97 5.77s5.94-5.76 12.6-11.16 9.54-12.42 18.35-12.6c8.82-.18 12.78-1.44 13.14-3.96.36-2.52-.9-5.4-2.52-6.3s-81.51-.54-81.51-.54c-16.75-.71-24.15 2.12-24.15 2.12z" fill="url(#b)"/><radialGradient id="c" cx="65.458" cy="76.615" gradientTransform="matrix(1 0 0 .3611 0 48.953)" gradientUnits="userSpaceOnUse" r="57.048"><stop offset="0" stop-color="#583223"/><stop offset=".101" stop-color="#7b3915"/><stop offset=".225" stop-color="#a04106"/><stop offset=".291" stop-color="#ae4400"/><stop offset=".321" stop-color="#a84302"/><stop offset=".724" stop-color="#623a15"/><stop offset=".946" stop-color="#603813"/></radialGradient><path d="M11.49 67.77s-2.88 3.42-2.52 5.76c.36 2.34-1.08 1.08 0 4.32s.18 5.04 4.32 6.48c4.14 1.44 2.16 2.52 6.66 3.78 4.5 1.26 7.2 1.8 10.44 3.42 3.24 1.62 4.5 2.52 8.28 2.34 3.78-.18 8.28.18 8.28.18l7.02 1.08s1.08.36 6.12.72 6.84-1.26 9.36-1.44c2.52-.18 6.3.9 8.46.36 2.16-.54 7.02-2.34 7.02-2.34s4.5-3.06 7.02-2.88c2.52.18 6.66-.72 8.64-1.8 1.98-1.08 6.48-1.44 6.48-1.44s3.06-1.26 5.94-2.7c2.88-1.44 4.32-1.44 5.58-2.34 1.26-.9 1.81-1 3.06-3.24 1.05-1.89.9-4.5 0-7.2s-15.12-9.72-15.12-9.72l-84.39-3.78-10.65 10.44z" fill="url(#c)"/><path d="M108.6 60.56c.07-.88.07-1.43.07-1.43L26.79 55l-1.56 8.11c25.62 12.38 58.37 12.3 83.37-2.55z" fill="#972f00"/><linearGradient id="d" gradientUnits="userSpaceOnUse" x1="30.316" x2="106.275" y1="71.551" y2="71.551"><stop offset="0" stop-color="#ff3d2a"/><stop offset=".041" stop-color="#f63424"/><stop offset=".174" stop-color="#dd1d14"/><stop offset=".314" stop-color="#cc0d09"/><stop offset=".464" stop-color="#c10302"/><stop offset=".64" stop-color="#be0000"/><stop offset=".99" stop-color="#ff1500"/></linearGradient><path d="M25.23 63.1l-.96 5.03 1.44 7.38s7.74 7.38 32.93 7.02c25.19-.36 34.19-3.78 42.11-7.02 6.32-2.58 7.59-11.46 7.85-14.95-25 14.85-57.75 14.93-83.37 2.54z" fill="url(#d)"/><linearGradient id="e" gradientUnits="userSpaceOnUse" x1="63.424" x2="63.424" y1="56.162" y2="76.32"><stop offset="0" stop-color="#518f00"/><stop offset=".197" stop-color="#619e15"/><stop offset=".404" stop-color="#6faa27"/><stop offset=".424" stop-color="#72ad2b"/><stop offset=".547" stop-color="#80b93c"/><stop offset=".678" stop-color="#88c147"/><stop offset=".833" stop-color="#8bc34a"/><stop offset="1" stop-color="#8cc63f"/></linearGradient><path d="M10.38 55.3c-1.04 1.02-2.7.3-4.07-.14s-3.46.06-3.27 1.54c.13.98 1.21 1.43 2.08 1.83.87.4 1.8 1.37 1.34 2.23-.41.77-1.53.67-2.18 1.24-1.02.89-.07 2.8 1.24 3.04 1.31.24 2.57-.55 3.68-1.3.27 1.33.53 2.67.8 4 .18-.97.39-2.01 1.07-2.71.68-.7 2-.8 2.49.05.52.9-.18 2-.28 3.04-.15 1.5 1.28 2.95 2.72 2.76 1.44-.19 2.48-1.95 1.98-3.37 0 1.63 1.31 3.14 2.87 3.31 1.56.17 3.14-1.03 3.46-2.63.26 1.75 1.64 3.26 3.31 3.61-.58-1.05.53-2.58 1.66-2.29-1.03.74-.4 2.61.78 3.06 1.18.45 2.47-.03 3.64-.51 2.16-.89 4.33-1.78 6.49-2.67 1.49-.61 2.99-1.23 4.54-1.64 4.66-1.23 9.77-.53 13.96 1.93.17-.28.34-.57.51-.85.93-.6 1.84.99 1.58 2.1-.25 1.11-.95 2.26-.48 3.29.72 1.57 3.1.84 4.17-.48s1.93-3.15 3.57-3.47c1.63-.32 3.3 1.08 4.88.54 1.26-.43 2.06-2 3.38-2.02 2.28-.04 3.01 4.39 5.25 3.94 2.14-.43 1.66-4.71 3.81-5.07 1.48-.24 2.33 1.73 2.41 3.28.08 1.56.11 3.48 1.46 4.18 2.6 1.36 5.56-4.01 7.89-2.2 1.46 1.13.72 4.06 2.34 4.93.97.52 2.16-.12 2.94-.91s1.46-1.79 2.48-2.19c2.24-.86 4.92 1.58 6.99.33.98-.59 1.4-1.8 1.82-2.88.42-1.09 1.05-2.26 2.14-2.55s2.39 1.12 1.66 2.01c4.65-.58 7.15-5.28 6.03-10.89-1.06-5.32-7.4-6.79-6.86-9.96-3.49 1.84-4.56 3.47-8.25 2.13-1.77-.64-3.48-1.66-5.36-1.67-3.19-.01-5.67 2.82-8.68 3.91-2.83 1.03-5.98.44-8.78-.69-2.79-1.13-5.36-2.78-8.12-3.99-5.73-2.51-12.26-3.01-18.28-1.41-4.51 1.2-8.97 3.56-13.57 2.82-3.37-.54-6.28-2.69-9.47-3.93-6.92-2.67-13.02.36-19.87-.22-2.27-.19-4.26-1.15-6.26.79-.99.96-1.45 2.29-1.3 3.69.07.29 1.25 3.46 1.66 3.06z" fill="url(#e)"/><linearGradient id="f" gradientUnits="userSpaceOnUse" x1="32.417" x2="101.99" y1="18.369" y2="70.162"><stop offset="0" stop-color="#ffc044"/><stop offset=".847" stop-color="#ca4300"/></linearGradient><path d="M33.09 19.13c-8.9 2.81-19.43 11.52-21.59 21.83s1.68 14.16 13.92 17.51 20.87 3.36 36.95 4.56c16.07 1.2 35.51 1.2 45.11-3.36s16.55-3.84 8.4-23.27-36.7-21.9-50.64-22.79c-18.72-1.2-27.59 4.08-32.15 5.52z" fill="url(#f)"/><g fill="#fadc8b"><path d="M35.73 25.28c.41 1.05-.14 1.67-.65 1.86-.49.19-1.32.13-1.74-.94-.48-1.25-.39-2.87.18-3.09.57-.22 1.73.93 2.21 2.17zM52.24 30.98c-1.01.5-1.67 0-1.91-.49-.23-.47-.24-1.31.79-1.82 1.2-.59 2.82-.64 3.09-.09.27.56-.77 1.81-1.97 2.4zM43.04 33.81c-.12 1.12-.88 1.42-1.43 1.36-.52-.05-1.24-.49-1.12-1.63.14-1.33.96-2.73 1.57-2.67.6.06 1.11 1.61.98 2.94zM56.66 22.99c-.52 1-1.34.99-1.83.74-.46-.24-.97-.91-.44-1.93.62-1.19 1.9-2.19 2.44-1.91.54.29.45 1.91-.17 3.1zM88.26 23.94c-1.07-.34-1.21-1.15-1.04-1.68.16-.5.73-1.11 1.82-.77 1.27.4 2.48 1.49 2.3 2.07-.19.6-1.8.78-3.08.38zM72.98 21.1c.75.84.45 1.61.04 1.97-.39.35-1.2.58-1.96-.28-.89-1-1.37-2.55-.91-2.96.45-.4 1.94.27 2.83 1.27zM96.16 29.69c-.49-1.01 0-1.67.49-1.91.47-.23 1.31-.24 1.81.79.59 1.2.63 2.83.08 3.09-.54.27-1.79-.77-2.38-1.97zM90.25 40.38c-1.1.22-1.62-.43-1.72-.96-.1-.51.1-1.33 1.23-1.55 1.31-.26 2.89.11 3.01.71.12.59-1.21 1.54-2.52 1.8zM78.37 31.73c1.12-.04 1.53.68 1.55 1.22.02.52-.31 1.29-1.46 1.34-1.34.05-2.84-.56-2.86-1.17-.02-.61 1.44-1.33 2.77-1.39zM66.01 36.4c-.36 1.06-1.18 1.19-1.7 1.01-.5-.17-1.1-.75-.73-1.84.43-1.27 1.54-2.45 2.12-2.25.59.19.74 1.81.31 3.08z"/></g><path d="M59.88 16.55c1.67 0 3.4.06 5.16.17 11.01.71 40.26 2.58 47.95 20.89 3.23 7.7 4.11 12.39 2.69 14.33a3.12 3.12 0 0 0 .37 4.11c.39.37.81.73 1.21 1.08 1.49 1.29 2.9 2.5 3.24 4.24.54 2.69-.01 5.12-1.42 6.34-.63.54-1.01 1.32-1.07 2.15-.06.81.21 1.61.74 2.23.6 1.91.65 3.51.14 4.42-.68 1.22-.83 1.32-1.5 1.77-.2.13-.41.28-.64.44-.1.07-.24.14-.46.23a3.123 3.123 0 0 0-1.93 3.36 3.12 3.12 0 0 0 2.72 2.63c.37.5.83 1.58.75 2.67-.18.12-.59.35-1.46.6-.83.24-1.53.81-1.93 1.58-.32.61-.42 1.31-.3 1.98-.02.11-.04.24-.06.37-.39 2.54-1.19 7.84-7.04 12.81-7.84 6.67-21.54 10.13-40.71 10.26h-1.06c-38.75 0-45.56-15.37-46.72-20.08-.35-1.4-1.6-2.37-3.03-2.37h-.1c-.8.03-1.49.07-2.05.12.1-1.24.81-4.12 2.11-7.8.55-1.56-.2-3.27-1.72-3.92-.91-.38-.91-.38-1.19-1.79-.14-.69-.32-1.54-.64-2.52-.09-.28-.15-.48-.19-.63.32-.74.54-1.67.32-3.14.01-.57.86-2.12 1.73-3.21l2.12-2.09c.72-.71 1.05-1.71.9-2.71-.09-.59-.27-1.1-.55-1.58-.79-1.35-2.22-2.15-3.84-2.15-.36 0-.72.04-1.07.12-.27-.26-.6-.47-.96-.62-.23-.09-.47-.16-.71-.2.05-.58-.01-1.17-.21-1.74 1.49-.12 2.49-.81 3.09-1.39l-2.19-2.23-2.17-2.21c.56-.55 1.32-.86 2.1-.86 1.13 0 1.97.65 2.23 1.06-.17-.26-.52-1.11-.68-1.57 0-.37.13-.67.38-.92.14-.14.24-.2.3-.23a3.132 3.132 0 0 0 1.63-3.23c-.23-1.51-.1-3.38.39-5.72 1.87-8.94 11.37-16.94 19.48-19.5.88-.28 1.84-.66 2.94-1.09 4.49-1.77 11.27-4.46 22.91-4.46m0-3.12c-15.1 0-22.69 4.4-26.79 5.69-8.9 2.81-19.43 11.52-21.59 21.83-.56 2.68-.71 4.92-.42 6.83-.34.18-.68.42-1.02.75-.99.96-1.45 2.29-1.3 3.69.03.28 1.07 3.1 1.54 3.1.03 0 .06-.01.08-.04-.39.4-.87.54-1.38.54-.86 0-1.83-.38-2.69-.66-.32-.11-.68-.16-1.04-.16-1.18 0-2.38.56-2.24 1.69.13.98 1.21 1.43 2.08 1.83.87.4 1.8 1.37 1.34 2.23-.4.78-1.52.68-2.17 1.25-1.02.89-.07 2.8 1.24 3.04.16.03.33.04.49.04 1.13 0 2.22-.69 3.19-1.35.27 1.33.53 2.67.8 4 .18-.97.39-2.01 1.07-2.71.35-.36.86-.56 1.34-.56.47 0 .91.19 1.15.6.09.16.14.32.16.49l-2.24 2.2s-2.88 3.42-2.52 5.76c.36 2.34-1.08 1.08 0 4.32 1.01 3.03.29 4.8 3.58 6.19-.65 1.84-2.91 8.48-2.14 10.18.9 1.98 1.62 1.98 1.62 1.98s1.19-.24 3.51-.32c1.29 5.22 8.66 22.45 49.75 22.45h1.08c49.48-.36 50.2-22.67 50.92-26.45.04-.21.01-.43-.08-.67 2.31-.65 3.49-1.62 3.67-2.93.36-2.52-.9-5.4-2.52-6.3-.09-.05-.41-.09-.93-.13.4-.16.76-.34 1.11-.59 1.26-.9 1.81-1 3.06-3.24 1.05-1.89.9-4.5 0-7.2-.08-.23-.25-.48-.5-.76 2.24-1.94 3.22-5.4 2.44-9.31-.68-3.43-3.55-5.26-5.37-6.97 2.05-2.8 1.83-7.46-2.33-17.38-8.16-19.43-36.68-21.9-50.62-22.79-1.86-.1-3.64-.16-5.33-.16z" fill="#424242" opacity=".2"/></svg>