<svg viewBox="0 0 128 128" xmlns="http://www.w3.org/2000/svg"><linearGradient id="a" x1="64" x2="64" y1="19.717" y2="107.7" gradientUnits="userSpaceOnUse"><stop stop-color="#FEE133" offset=".5"/><stop stop-color="#FEDE32" offset=".612"/><stop stop-color="#FCD32F" offset=".708"/><stop stop-color="#FAC12B" offset=".797"/><stop stop-color="#F7A924" offset=".883"/><stop stop-color="#F6A323" offset=".9"/></linearGradient><path d="M64 119.89C36.07 119.89 6 102.4 6 64S36.07 8.11 64 8.11c15.48 0 29.81 5.12 40.36 14.43C115.9 32.72 122 47.06 122 64c0 16.86-6.1 31.17-17.64 41.39-10.58 9.35-24.91 14.5-40.36 14.5z" fill="url(#a)"/><path d="M64 10.11c14.99 0 28.86 4.95 39.03 13.93C114.13 33.83 120 47.65 120 64c0 16.27-5.87 30.07-16.97 39.89-10.21 9.03-24.07 14-39.03 14-15.04 0-28.9-4.91-39.04-13.82C13.86 94.32 8 80.46 8 64c0-16.54 5.86-30.42 16.96-40.15C35.07 14.99 48.93 10.11 64 10.11m0-4c-31.15 0-60 20-60 57.89 0 37.68 28.85 57.89 60 57.89s60-20.73 60-57.89c0-37.37-28.85-57.89-60-57.89z" fill="#EB8F00"/><path d="M64.01 98.38c3.85 0 7.66.66 11.3 1.93 7.7 2.69 14.37-5.99 9.9-12.8-4.66-7.08-11.91-11-21.19-11s-16.53 3.91-21.19 11c-4.48 6.81 2.2 15.48 9.9 12.8 3.62-1.27 7.43-1.93 11.28-1.93z" fill="#242424"/><path d="M77.39 124.52c-1.84 0-3.13-.48-3.94-1.46-2.24-2.71-1-9.03-.48-11.72.11-.54.3-1.17.51-1.85.77-2.48 2.21-7.1-2.51-9.06-.5-.21-.99-.4-1.47-.59 1.52.3 3.08.52 4.68.54h.1c1.99 0 4.21-.75 6.24-1.65-1.64 2.02-.54 5.59.71 9.66.47 1.52.95 3.1 1.23 4.43.9 4.35.53 8.1-.97 10.02-.83 1.06-2.04 1.61-3.69 1.67-.13.01-.27.01-.41.01z" fill="#5F7AFF"/><path d="M77.73 101.87c.09 2.2.85 4.67 1.6 7.1.45 1.48.92 3.01 1.18 4.25.76 3.67.53 6.96-.59 8.38-.31.4-.84.86-2.19.91-.12 0-.23.01-.35.01-1.79 0-2.25-.55-2.4-.74-1.09-1.32-1.1-4.7-.06-10.07.08-.43.27-1.02.46-1.64.5-1.6 1.54-4.95.34-7.8.68-.08 1.35-.22 2.01-.4m8.3-7.79c-1.47 0-7.55 4.3-11.74 4.3h-.08c-4.97-.06-9.85-2.3-14.07-2.4h-.24c-4.72 0-4.65 3.65-4.65 3.65.82-.26 1.79-.38 2.87-.38 3.16 0 7.35 1.06 12.09 3.03 3.88 1.62 1.38 5.73.8 8.68-1.11 5.71-2.62 15.57 6.38 15.57.16 0 .33 0 .5-.01 6.92-.27 7.9-7.48 6.54-14.1-.96-4.65-4.03-11.19-2.09-12.67 2.15-1.63 3.09-1.51 3.99-5.17.09-.35-.02-.5-.3-.5z" fill="#4864ED"/><g fill="#242424"><path d="M83.76 38.05c3.69 0 7.04 4.33 7.04 11.5s-3.35 11.5-7.04 11.5-7.04-4.33-7.04-11.5 3.36-11.5 7.04-11.5zM44.22 38.05c-3.69 0-7.04 4.33-7.04 11.5s3.35 11.5 7.04 11.5 7.04-4.33 7.04-11.5-3.35-11.5-7.04-11.5z"/></g></svg>