<svg width="128" height="128" xmlns="http://www.w3.org/2000/svg"><linearGradient id="a" gradientUnits="userSpaceOnUse" x1="8" x2="8" y1="35.5" y2="82.715"><stop offset="0" stop-color="#bbdefb"/><stop offset=".991" stop-color="#64b5f6"/></linearGradient><path d="M12 84H9.66C6.53 84 4 81.47 4 78.34V41.66C4 38.53 6.53 36 9.66 36H12v48z" fill="url(#a)"/><linearGradient id="b" gradientUnits="userSpaceOnUse" x1="120" x2="120" y1="31.5" y2="58.169"><stop offset="0" stop-color="#bbdefb"/><stop offset=".991" stop-color="#64b5f6"/></linearGradient><path d="M121.11 57.22L116 53.5V36.03l5.11-3.72c1.33-.97 2.89.44 2.89 2.61v19.7c0 2.16-1.56 3.57-2.89 2.6z" fill="url(#b)"/><radialGradient id="c" cx="112.5" cy="36.333" gradientUnits="userSpaceOnUse" r="17.013"><stop offset="0" stop-color="#90caf9"/><stop offset=".989" stop-color="#42a5f5"/></radialGradient><path fill="url(#c)" d="M100 36.03h16v17.48h-16z"/><radialGradient id="d" cx="16" cy="36.333" gradientUnits="userSpaceOnUse" r="48.448"><stop offset="0" stop-color="#90caf9"/><stop offset=".989" stop-color="#42a5f5"/></radialGradient><path fill="url(#d)" d="M12 36h20v48H12z"/><radialGradient id="e" cx="202" cy="66.333" gradientUnits="userSpaceOnUse" r="20.652"><stop offset="0" stop-color="#90caf9"/><stop offset=".989" stop-color="#42a5f5"/></radialGradient><path fill="url(#e)" d="M192 68h20v20h-20z"/><path d="M29 39v42H9.66C8.19 81 7 79.81 7 78.34V41.66C7 40.19 8.19 39 9.66 39H29m3-3H9.66C6.53 36 4 38.53 4 41.66v36.69C4 81.47 6.53 84 9.66 84H32V36zM121 36.1v17.33l-3.23-2.35-.79-.57H103V39.03h13.98l.79-.57L121 36.1m1-4.1c-.3 0-.6.1-.89.31L116 36.03h-16V53.5h16l5.11 3.72c.29.21.6.31.89.31 1.05 0 2-1.23 2-2.92v-19.7c0-1.68-.95-2.91-2-2.91zM209 71v14h-14V71h14m3-3h-20v20h20V68z" fill="#424242" opacity=".2"/><radialGradient id="f" cx="175.833" cy="65.167" gradientUnits="userSpaceOnUse" r="59.167"><stop offset="0" stop-color="#bbdefb"/><stop offset=".231" stop-color="#acd7fa"/><stop offset=".672" stop-color="#85c5f8"/><stop offset="1" stop-color="#64b5f6"/></radialGradient><path d="M194.09 124h-36.18c-3.26 0-5.91-2.65-5.91-5.91V33.91c0-3.26 2.65-5.91 5.91-5.91h36.18c3.26 0 5.91 2.65 5.91 5.91v84.18c0 3.26-2.65 5.91-5.91 5.91z" fill="url(#f)"/><radialGradient id="g" cx="66" cy="28.833" gradientUnits="userSpaceOnUse" r="109.157"><stop offset="0" stop-color="#bbdefb"/><stop offset=".196" stop-color="#acd7fa"/><stop offset=".571" stop-color="#85c5f8"/><stop offset=".85" stop-color="#64b5f6"/><stop offset=".996" stop-color="#64b5f6"/></radialGradient><path d="M104 124H28c-4.42 0-8-3.58-8-8V36c0-4.42 3.58-8 8-8h76c4.42 0 8 3.58 8 8v80c0 4.42-3.58 8-8 8z" fill="url(#g)"/><path d="M194.09 31c1.6 0 2.91 1.3 2.91 2.91v84.18c0 1.6-1.3 2.91-2.91 2.91h-36.18c-1.6 0-2.91-1.3-2.91-2.91V33.91c0-1.6 1.3-2.91 2.91-2.91h36.18m0-3h-36.18c-3.26 0-5.91 2.65-5.91 5.91v84.18c0 3.26 2.65 5.91 5.91 5.91h36.18c3.26 0 5.91-2.65 5.91-5.91V33.91c0-3.26-2.65-5.91-5.91-5.91zM104 31c2.76 0 5 2.24 5 5v80c0 2.76-2.24 5-5 5H28c-2.76 0-5-2.24-5-5V36c0-2.76 2.24-5 5-5h76m0-3H28c-4.42 0-8 3.58-8 8v80c0 4.42 3.58 8 8 8h76c4.42 0 8-3.58 8-8V36c0-4.42-3.58-8-8-8z" fill="#424242" opacity=".2"/><path d="M96 108H44c-2.21 0-4-1.79-4-4V72c0-2.21 1.79-4 4-4h52c2.21 0 4 1.79 4 4v32c0 2.21-1.79 4-4 4z" fill="none" opacity=".2"/><g opacity=".2" fill="#1565c0"><path d="M64 52c2.21 0 4 1.79 4 4s-1.79 4-4 4-4-1.79-4-4 1.79-4 4-4m0-1c-2.76 0-5 2.24-5 5s2.24 5 5 5 5-2.24 5-5-2.24-5-5-5zM76 52c2.21 0 4 1.79 4 4s-1.79 4-4 4-4-1.79-4-4 1.79-4 4-4m0-1c-2.76 0-5 2.24-5 5s2.24 5 5 5 5-2.24 5-5-2.24-5-5-5zM96 52c2.2 0 4 1.8 4 4s-1.8 4-4 4h-8c-2.2 0-4-1.8-4-4s1.8-4 4-4h8m0-1h-8c-2.76 0-5 2.24-5 5s2.24 5 5 5h8c2.76 0 5-2.24 5-5s-2.24-5-5-5z"/></g><path d="M96 67H44c-2.76 0-5 2.24-5 5v2.9c-.3-.19-.66-.3-1.04-.3h-2c-1.1 0-2 .9-2 2v22c0 1.1.9 2 2 2h2c.38 0 .74-.11 1.04-.3v3.7c0 2.76 2.24 5 5 5h52c2.76 0 5-2.24 5-5V72c0-2.76-2.24-5-5-5zM38.96 98.6c0 .55-.45 1-1 1h-2c-.55 0-1-.45-1-1v-22c0-.55.45-1 1-1h2c.55 0 1 .45 1 1v22zM100 104c0 2.21-1.79 4-4 4H44c-2.21 0-4-1.79-4-4V72c0-2.21 1.79-4 4-4h52c2.21 0 4 1.79 4 4v32zM188 100c2.2 0 4 1.8 4 4v8c0 2.2-1.8 4-4 4s-4-1.8-4-4v-8c0-2.2 1.8-4 4-4m0-1c-2.76 0-5 2.24-5 5v8c0 2.76 2.24 5 5 5s5-2.24 5-5v-8c0-2.76-2.24-5-5-5z" opacity=".2" fill="#1565c0"/><radialGradient id="h" cx="69.333" cy="68.667" gradientUnits="userSpaceOnUse" r="39.953"><stop offset="0" stop-color="#64b5f6"/><stop offset="1" stop-color="#42a5f5"/></radialGradient><path d="M96 108H44c-2.21 0-4-1.79-4-4V72c0-2.21 1.79-4 4-4h52c2.21 0 4 1.79 4 4v32c0 2.21-1.79 4-4 4z" fill="url(#h)"/><radialGradient id="i" cx="69.833" cy="73.5" gradientTransform="matrix(0 1 -1.1941 0 157.596 3.667)" gradientUnits="userSpaceOnUse" r="39.501"><stop offset="0" stop-color="#b3e5fc"/><stop offset="1" stop-color="#4fc3f7"/></radialGradient><path d="M92 104H48c-2.21 0-4-1.79-4-4V76c0-2.21 1.79-4 4-4h44c2.21 0 4 1.79 4 4v24c0 2.21-1.79 4-4 4z" fill="url(#i)"/><radialGradient id="j" cx="234" cy="58.833" gradientUnits="userSpaceOnUse" r="48.007"><stop offset="0" stop-color="#bbdefb"/><stop offset=".196" stop-color="#acd7fa"/><stop offset=".571" stop-color="#85c5f8"/><stop offset=".85" stop-color="#64b5f6"/><stop offset=".996" stop-color="#64b5f6"/></radialGradient><path d="M260 100h-52c-2.21 0-4-1.79-4-4V64c0-2.21 1.79-4 4-4h52c2.21 0 4 1.79 4 4v32c0 2.21-1.79 4-4 4z" fill="url(#j)"/><radialGradient id="k" cx="233.667" cy="68.167" gradientTransform="matrix(0 1 -1.0853 0 307.649 -165.5)" gradientUnits="userSpaceOnUse" r="34.167"><stop offset="0" stop-color="#b3e5fc"/><stop offset="1" stop-color="#4fc3f7"/></radialGradient><path d="M253.04 92.93h-38.07c-1.1 0-2-.9-2-2v-22c0-1.1.9-2 2-2h38.07c1.1 0 2 .9 2 2v22a2 2 0 0 1-2 2z" fill="url(#k)"/><linearGradient id="l" gradientUnits="userSpaceOnUse" x1="36.958" x2="36.958" y1="70.333" y2="94.929"><stop offset="0" stop-color="#64b5f6"/><stop offset=".214" stop-color="#5eb2f6"/><stop offset=".511" stop-color="#4caaf5"/><stop offset=".857" stop-color="#2e9cf4"/><stop offset=".987" stop-color="#2196f3"/></linearGradient><path d="M37.96 99.6h-2c-.55 0-1-.45-1-1v-22c0-.55.45-1 1-1h2c.55 0 1 .45 1 1v22c0 .55-.45 1-1 1z" fill="url(#l)"/><linearGradient id="m" gradientUnits="userSpaceOnUse" x1="64" x2="64" y1="51.333" y2="62.338"><stop offset="0" stop-color="#64b5f6"/><stop offset=".214" stop-color="#5eb2f6"/><stop offset=".511" stop-color="#4caaf5"/><stop offset=".857" stop-color="#2e9cf4"/><stop offset=".987" stop-color="#2196f3"/></linearGradient><circle cx="64" cy="56" r="4" fill="url(#m)"/><linearGradient id="n" gradientUnits="userSpaceOnUse" x1="76" x2="76" y1="51.333" y2="62.338"><stop offset="0" stop-color="#64b5f6"/><stop offset=".214" stop-color="#5eb2f6"/><stop offset=".511" stop-color="#4caaf5"/><stop offset=".857" stop-color="#2e9cf4"/><stop offset=".987" stop-color="#2196f3"/></linearGradient><circle cx="76" cy="56" r="4" fill="url(#n)"/><linearGradient id="o" gradientUnits="userSpaceOnUse" x1="92" x2="92" y1="51.333" y2="62.338"><stop offset="0" stop-color="#64b5f6"/><stop offset=".214" stop-color="#5eb2f6"/><stop offset=".511" stop-color="#4caaf5"/><stop offset=".857" stop-color="#2e9cf4"/><stop offset=".987" stop-color="#2196f3"/></linearGradient><path d="M96 60h-8c-2.2 0-4-1.8-4-4s1.8-4 4-4h8c2.2 0 4 1.8 4 4s-1.8 4-4 4z" fill="url(#o)"/><linearGradient id="p" gradientUnits="userSpaceOnUse" x1="188" x2="188" y1="99.667" y2="116.582"><stop offset="0" stop-color="#64b5f6"/><stop offset=".214" stop-color="#5eb2f6"/><stop offset=".511" stop-color="#4caaf5"/><stop offset=".857" stop-color="#2e9cf4"/><stop offset=".987" stop-color="#2196f3"/></linearGradient><path d="M192 104v8c0 2.2-1.8 4-4 4s-4-1.8-4-4v-8c0-2.2 1.8-4 4-4s4 1.8 4 4z" fill="url(#p)"/><g opacity=".2" fill="#1565c0"><path d="M34 40c1.1 0 2 .9 2 2s-.9 2-2 2-2-.9-2-2 .9-2 2-2m0-2c-2.21 0-4 1.79-4 4s1.79 4 4 4 4-1.79 4-4-1.79-4-4-4zM34 48c1.1 0 2 .9 2 2s-.9 2-2 2-2-.9-2-2 .9-2 2-2m0-2c-2.21 0-4 1.79-4 4s1.79 4 4 4 4-1.79 4-4-1.79-4-4-4z"/></g><linearGradient id="q" gradientUnits="userSpaceOnUse" x1="34" x2="34" y1="39.75" y2="43.767"><stop offset="0" stop-color="#ff1744"/><stop offset="1" stop-color="#d50000"/></linearGradient><circle cx="34" cy="42" r="2" fill="url(#q)"/><linearGradient id="r" gradientUnits="userSpaceOnUse" x1="34" x2="34" y1="47.75" y2="51.767"><stop offset="0" stop-color="#76ff03"/><stop offset="1" stop-color="#64dd17"/></linearGradient><circle cx="34" cy="50" r="2" fill="url(#r)"/><g opacity=".2" fill="#1565c0"><path d="M187.83 79.83c1.1 0 2 .9 2 2s-.9 2-2 2-2-.9-2-2 .9-2 2-2m0-2c-2.21 0-4 1.79-4 4s1.79 4 4 4a3.999 3.999 0 1 0 0-8zM187.83 87.83c1.1 0 2 .9 2 2s-.9 2-2 2-2-.9-2-2 .9-2 2-2m0-2c-2.21 0-4 1.79-4 4s1.79 4 4 4a3.999 3.999 0 1 0 0-8z"/></g><linearGradient id="s" gradientUnits="userSpaceOnUse" x1="187.833" x2="187.833" y1="79.583" y2="83.601"><stop offset="0" stop-color="#ff1744"/><stop offset="1" stop-color="#d50000"/></linearGradient><circle cx="187.83" cy="81.83" r="2" fill="url(#s)"/><linearGradient id="t" gradientUnits="userSpaceOnUse" x1="187.833" x2="187.833" y1="87.583" y2="91.601"><stop offset="0" stop-color="#76ff03"/><stop offset="1" stop-color="#64dd17"/></linearGradient><circle cx="187.83" cy="89.83" r="2" fill="url(#t)"/><radialGradient id="u" cx="175.833" cy="3" gradientTransform="matrix(-.0175 .9998 -1.9997 -.0349 184.901 -172.702)" gradientUnits="userSpaceOnUse" r="65.208"><stop offset="0" stop-color="#bbdefb"/><stop offset=".996" stop-color="#64b5f6"/></radialGradient><circle cx="176" cy="36" r="32" fill="url(#u)"/><linearGradient id="v" gradientUnits="userSpaceOnUse" x1="176" x2="176" y1="9.873" y2="61.746"><stop offset="0" stop-color="#0288d1"/><stop offset="1" stop-color="#01579b"/></linearGradient><circle cx="176" cy="36" r="26" fill="url(#v)"/><radialGradient id="w" cx="175.833" cy="12.5" gradientUnits="userSpaceOnUse" r="46.181"><stop offset="0" stop-color="#29b6f6"/><stop offset="1" stop-color="#0288d1"/></radialGradient><circle cx="176" cy="36" r="23" fill="url(#w)"/><radialGradient id="x" cx="175.667" cy="25.167" gradientUnits="userSpaceOnUse" r="21.173"><stop offset="0" stop-color="#1e88e5"/><stop offset="1" stop-color="#0d47a1"/></radialGradient><circle cx="176" cy="36" r="10" fill="url(#x)"/><g opacity=".2"><path d="M176 26c5.52 0 10 4.48 10 10s-4.48 10-10 10-10-4.48-10-10 4.48-10 10-10m0-3c-7.17 0-13 5.83-13 13s5.83 13 13 13 13-5.83 13-13-5.83-13-13-13z" fill="#eee"/></g><g opacity=".2"><path d="M176 28c4.41 0 8 3.59 8 8s-3.59 8-8 8-8-3.59-8-8 3.59-8 8-8m0-2c-5.52 0-10 4.48-10 10s4.48 10 10 10 10-4.48 10-10-4.48-10-10-10z" fill="#424242"/></g><g opacity=".2"><path d="M260 63c.55 0 1 .45 1 1v32c0 .55-.45 1-1 1h-52c-.55 0-1-.45-1-1V64c0-.55.45-1 1-1h52m0-3h-52c-2.21 0-4 1.79-4 4v32c0 2.21 1.79 4 4 4h52c2.21 0 4-1.79 4-4V64c0-2.21-1.79-4-4-4z" fill="#424242"/></g><g opacity=".2"><path d="M176 7c15.99 0 29 13.01 29 29s-13.01 29-29 29-29-13.01-29-29 13.01-29 29-29m0-3c-17.67 0-32 14.33-32 32s14.33 32 32 32 32-14.33 32-32-14.33-32-32-32z" fill="#424242"/></g><path d="M253.04 92.93h-38.07c-1.1 0-2-.9-2-2v-22c0-1.1.9-2 2-2h38.07c1.1 0 2 .9 2 2v22a2 2 0 0 1-2 2zM92 104H48c-2.21 0-4-1.79-4-4V76c0-2.21 1.79-4 4-4h44c2.21 0 4 1.79 4 4v24c0 2.21-1.79 4-4 4z" opacity=".2" fill="none" stroke="#1565c0" stroke-width="2" stroke-miterlimit="10"/></svg>