<svg viewBox="0 0 128 128" xmlns="http://www.w3.org/2000/svg"><linearGradient id="a" x1="64" x2="64" y1="19.717" y2="107.7" gradientUnits="userSpaceOnUse"><stop stop-color="#F6A323" offset=".566"/><stop stop-color="#FEE133" offset=".917"/></linearGradient><path d="M64 119.89C36.07 119.89 6 102.4 6 64S36.07 8.11 64 8.11c15.48 0 29.81 5.12 40.36 14.43C115.9 32.72 122 47.06 122 64c0 16.86-6.1 31.17-17.64 41.39-10.58 9.35-24.91 14.5-40.36 14.5z" fill="url(#a)"/><path d="M64 10.11c14.99 0 28.86 4.95 39.03 13.93C114.13 33.83 120 47.65 120 64c0 16.27-5.87 30.07-16.97 39.89-10.21 9.03-24.07 14-39.03 14-15.04 0-28.9-4.91-39.04-13.82C13.86 94.32 8 80.46 8 64c0-16.54 5.86-30.42 16.96-40.15C35.07 14.99 48.93 10.11 64 10.11m0-4c-31.15 0-60 20-60 57.89 0 37.68 28.85 57.89 60 57.89s60-20.73 60-57.89c0-37.37-28.85-57.89-60-57.89z" fill="#EB8F00"/><path fill="#fff" stroke="#A1A1A1" stroke-linecap="round" stroke-linejoin="round" stroke-miterlimit="10" stroke-width="3" d="M31.5 79.77l-28-8.52-.88-8.36L31.5 71.7zM13.83 99.17L9.38 91.5 32 88.88l.5 8.12zM94.5 79.77l28.75-8.52.5-8.36L94.5 71.7zM113.67 99.17l4.45-7.67-22.62-2.62L95 97z"/><path d="M30.41 105.11c-1.05 0-1.91-.86-1.91-1.91V68.91c0-1.05.86-1.91 1.91-1.91h67.18c1.05 0 1.91.86 1.91 1.91v34.28c0 1.05-.86 1.91-1.91 1.91H30.41z" fill="#fff"/><path d="M97.5 69v34.11h-67V69h67m.09-4H30.41a3.91 3.91 0 0 0-3.91 3.91v34.28a3.91 3.91 0 0 0 3.91 3.91h67.18a3.91 3.91 0 0 0 3.91-3.91V68.91A3.91 3.91 0 0 0 97.59 65z" fill="#A1A1A1"/><path d="M124 64c0-37.37-28.85-57.89-60-57.89S4 26.11 4 64c0 37.68 28.85 57.89 60 57.89s60-20.72 60-57.89z" fill="none"/><g fill="#6D4C41" stroke="#6D4C41" stroke-miterlimit="10"><path d="M31.33 36.01a2.662 2.662 0 0 1 2.53-1.88c3.27-.14 6.51-1.74 8.65-4.29.86-1.07 2.29-1.37 3.44-.75 1.1.59 1.59 1.8 1.2 3.01-.05.15-.11.31-.2.48-.71 1.3-1.62 2.44-2.73 3.42-2.94 2.64-6.97 3.89-10.77 3.33-.84-.14-1.51-.57-1.9-1.21-.36-.62-.45-1.39-.22-2.11zM96.67 36.26a2.662 2.662 0 0 0-2.53-1.88c-3.27-.14-6.51-1.74-8.65-4.29-.86-1.07-2.29-1.37-3.44-.75-1.1.59-1.59 1.8-1.2 3.01.05.15.11.31.2.48.71 1.3 1.62 2.44 2.73 3.42 2.94 2.64 6.97 3.89 10.77 3.33.84-.14 1.51-.57 1.9-1.21.36-.62.45-1.39.22-2.11z"/></g><path d="M51.6 55.36s-.09-.02-.25-.07c-.08-.02-.18-.05-.3-.08-.1-.01-.15 0-.23-.02-.2-.02-.45-.05-.74-.08-.3-.03-.66-.05-1.05-.06-.78-.02-1.72.03-2.74.17-.51.06-1.03.18-1.57.29-.54.1-1.08.26-1.62.43-.14.05-.71.21-.86.28-.22.08-.46.16-.72.27-.51.21-1.01.41-1.46.64-.92.46-1.73.94-2.37 1.39s-1.11.85-1.43 1.14c-.32.28-.49.45-.49.45l-.38.39c-1.2 1.23-3.17 1.24-4.4.04-.92-.9-1.16-2.24-.71-3.37 0 0 .04-.11.13-.32s.2-.52.4-.88c.38-.74 1-1.73 1.91-2.73.9-1.01 2.09-2.02 3.46-2.88.69-.42 1.42-.84 2.19-1.18.37-.17.79-.34 1.23-.5.51-.19.63-.22 1.15-.4.82-.23 1.65-.44 2.48-.58.83-.16 1.66-.21 2.48-.25 1.62-.06 3.17.11 4.48.45.66.15 1.25.36 1.78.57.54.21.93.41 1.37.64.2.11.4.22.53.3.1.07.18.14.25.19l.21.15c1.4 1.05 1.7 3.03.65 4.44a3.217 3.217 0 0 1-3.38 1.17zM76.4 55.36s.09-.02.25-.07c.08-.02.18-.05.3-.08.1-.01.15 0 .23-.02.2-.02.45-.05.74-.08.3-.03.66-.05 1.05-.06.78-.02 1.72.03 2.74.17.51.06 1.03.18 1.57.29.54.1 1.08.26 1.62.43.14.05.71.21.86.28.22.08.46.16.72.27.51.21 1.01.41 1.46.64.92.46 1.73.94 2.37 1.39s1.11.85 1.43 1.14c.32.28.49.45.49.45l.38.39c1.2 1.23 3.17 1.24 4.4.04.92-.9 1.16-2.24.71-3.37 0 0-.04-.11-.13-.32-.08-.21-.2-.52-.4-.88-.38-.74-1-1.73-1.91-2.73-.9-1.01-2.09-2.02-3.46-2.88-.69-.42-1.42-.84-2.19-1.18-.37-.17-.79-.34-1.23-.5-.51-.19-.63-.22-1.15-.4-.82-.23-1.65-.44-2.48-.58-.83-.16-1.66-.21-2.48-.25-1.62-.06-3.17.11-4.48.45-.66.15-1.25.36-1.78.57-.54.21-.93.41-1.37.64-.2.11-.4.22-.53.3-.1.07-.18.14-.25.19l-.21.15a3.175 3.175 0 0 0-.65 4.44 3.217 3.217 0 0 0 3.38 1.17z" fill="#242424"/></svg>