<svg width="128" height="128" xmlns="http://www.w3.org/2000/svg"><path d="M12.11 50.8c-.42-.85.32-1.8 1.25-1.61l37.55 7.62c2.09.43 4.54 1.08 3.82 4.74-.02.12-.07.25-.13.36l-8.41 14.98c-.03.06-.07.12-.12.17-4.86 6.07-8.51 2.74-11.65.1-3.23-2.72-6.47-5.29-9.42-8.32a80.989 80.989 0 0 1-8.04-9.7 78.568 78.568 0 0 1-3.32-5.12c-.23-.39-.88-1.9-1.53-3.22zM115.88 50.8c.42-.85-.32-1.8-1.25-1.61l-37.55 7.62c-2.09.43-4.54 1.08-3.82 4.74.02.12.07.25.13.36l8.41 14.98c.03.06.07.12.12.17 4.86 6.07 8.51 2.74 11.65.1 3.23-2.72 6.47-5.29 9.42-8.32 2.93-3.02 5.62-6.27 8.04-9.7 1.17-1.66 2.28-3.37 3.32-5.12.23-.39.88-1.9 1.53-3.22z" fill="#ffd300"/><linearGradient id="a" gradientUnits="userSpaceOnUse" x1="64.002" x2="64.002" y1="46.622" y2="107.68"><stop offset=".336" stop-color="#ffea00"/><stop offset=".533" stop-color="#fee209"/><stop offset=".849" stop-color="#fccc20"/><stop offset=".991" stop-color="#fbc02d"/></linearGradient><path d="M98.21 74.6C102.43 93.74 81.73 108.31 64 108c-16.91-.3-38.47-14.63-34.21-33.4C32.94 60.72 48.58 45.84 64 46.06c15.86.22 30.92 13.63 34.21 28.54z" fill="url(#a)"/><linearGradient id="b" gradientUnits="userSpaceOnUse" x1="64.003" x2="64.003" y1="65.66" y2="8.887"><stop offset=".009" stop-color="#fbc02d"/><stop offset=".121" stop-color="#fdd219"/><stop offset=".251" stop-color="#fee00b"/><stop offset=".408" stop-color="#ffe803"/><stop offset=".664" stop-color="#ffea00"/></linearGradient><path d="M84 21.22c.85-.51 1.71-1.01 2.56-1.52.82-.49.61-1.74-.33-1.91-3.37-.62-7.81-1.02-10.46-1.26-.89-.08-1.26-1.17-.62-1.78 1.26-1.2 2.52-2.4 3.78-3.61.72-.69.15-1.91-.84-1.79-4.66.58-9.24 1.8-13.54 3.59-.98.41-1.86-.75-1.21-1.59l2.46-3.17c1-1.29.28-2.38-.68-2.15-2.04.5-5.28 1.66-9.72 4.35-10.13 6.12-18.99 19.73-18.99 31.3 0 14.94 12.35 25.13 27.59 25.13s27.59-10.19 27.59-25.13c0-7.32-2.97-13.96-7.79-18.83-.47-.48-.39-1.28.2-1.63z" fill="url(#b)"/><path d="M114.64 49.19L87.97 54.6c2.3-3.67 3.62-8.04 3.62-12.92 0-7.32-2.97-13.96-7.79-18.83-.48-.49-.4-1.29.19-1.64.85-.51 1.71-1.01 2.56-1.52.82-.49.61-1.74-.33-1.91-3.37-.62-7.81-1.02-10.46-1.26-.89-.08-1.26-1.17-.62-1.78 1.26-1.2 2.52-2.4 3.78-3.61.72-.69.15-1.91-.84-1.79-4.66.58-9.24 1.8-13.54 3.59-.98.41-1.86-.75-1.21-1.59l2.46-3.16c1-1.29.28-2.38-.68-2.15-2.04.5-5.28 1.66-9.72 4.35C45.26 16.5 36.4 30.11 36.4 41.68c0 4.88 1.32 9.24 3.63 12.92l-26.68-5.42c-.92-.19-1.66.77-1.25 1.61.65 1.32 1.3 2.82 1.54 3.21 1.04 1.75 2.15 3.46 3.32 5.12 2.42 3.44 5.11 6.69 8.04 9.7 1.61 1.66 3.32 3.18 5.06 4.67-.1.36-.19.73-.28 1.09C25.53 93.37 47.09 107.7 64 108c17.73.31 38.43-14.25 34.21-33.4-.08-.37-.17-.73-.27-1.1 1.74-1.48 3.44-3 5.06-4.66 2.93-3.02 5.62-6.27 8.04-9.7 1.17-1.66 2.28-3.37 3.32-5.12.23-.39.89-1.9 1.54-3.21.41-.85-.33-1.81-1.26-1.62z" fill="none" stroke="#fcc13c" stroke-width="3" stroke-linecap="round" stroke-linejoin="round" stroke-miterlimit="10"/><linearGradient id="c" gradientUnits="userSpaceOnUse" x1="64.003" x2="64.003" y1="43.474" y2="51.901"><stop offset="0" stop-color="#f15a24"/><stop offset="1" stop-color="#ed1c24"/></linearGradient><path d="M62.89 52.86l-4.23-5.83c-.54-.74-.22-1.79.64-2.1l1.3-.48c2.2-.81 4.61-.81 6.81 0l1.3.48c.86.31 1.18 1.36.64 2.1l-4.23 5.83c-.55.76-1.68.76-2.23 0z" fill="url(#c)"/><radialGradient id="d" cx="44.337" cy="88.593" gradientUnits="userSpaceOnUse" r="61.392"><stop offset="0" stop-color="#fff"/><stop offset="1" stop-color="#bdbdbd"/></radialGradient><path d="M64 122.53c-24.33 0-44.22-19.41-44.99-43.56l11.57 5.77 10.97-7.38 10.7 6.9 12.03-9.99 11.74 9.77 10.99-7.11 10.64 7.2L109 78.45c-.5 24.39-20.49 44.08-45 44.08z" fill="url(#d)"/><path d="M64.29 76.23l9.93 8.27 1.7 1.41 1.85-1.2L87 78.73l9.09 6.15 1.45.98 1.57-.79 8.26-4.14c-1.75 22.4-20.54 40.09-43.38 40.09-22.66 0-41.33-17.41-43.33-39.56l8.47 4.22 1.56.78 1.45-.98 9.43-6.35 8.94 5.77 1.85 1.19 1.69-1.41 10.24-8.45m0-3.9L52.14 82.41l-10.6-6.84-11.07 7.45-12.96-6.47c-.01.32-.02.64-.02.97 0 25.69 20.82 46.51 46.51 46.51s46.51-20.82 46.51-46.51c0-.5-.02-.99-.04-1.48l-12.7 6.36-10.74-7.26-10.9 7.05-11.84-9.86z" fill="#aaa79f"/><g><path d="M60.12 36.59c.06 4.02-2.93 7.33-6.67 7.39-3.75.07-6.84-3.14-6.9-7.15s2.93-7.33 6.67-7.39 6.84 3.14 6.9 7.15z" fill="#fff"/><path d="M56.97 32.95c.49 2.26-.82 4.52-2.93 5.05-2.11.53-4.22-.88-4.71-3.14-.49-2.26.82-4.52 2.93-5.05 2.11-.52 4.22.88 4.71 3.14z"/></g><g><path d="M81.45 36.21c.06 4.02-2.93 7.33-6.67 7.39-3.75.07-6.84-3.14-6.9-7.15-.06-4.02 2.93-7.33 6.67-7.39s6.84 3.14 6.9 7.15z" fill="#fff"/><path d="M78.3 32.57c.49 2.26-.82 4.52-2.93 5.05-2.11.53-4.22-.88-4.71-3.14-.49-2.26.82-4.52 2.93-5.05 2.11-.52 4.22.88 4.71 3.14z"/></g></svg>