<svg width="128" height="128" xmlns="http://www.w3.org/2000/svg"><linearGradient id="a" gradientUnits="userSpaceOnUse" x1="64" x2="64" y1="5.395" y2="121.392"><stop offset="0" stop-color="#212121"/><stop offset=".309" stop-color="#242424"/><stop offset=".533" stop-color="#2d2d2d"/><stop offset=".731" stop-color="#3d3d3d"/><stop offset=".913" stop-color="#535353"/><stop offset="1" stop-color="#616161"/></linearGradient><path d="M76.44 124H51.56c-5.5 0-10-4.5-10-10V14c0-5.5 4.5-10 10-10h24.88c5.5 0 10 4.5 10 10v100c0 5.5-4.5 10-10 10z" fill="url(#a)"/><radialGradient id="b" cx="60.105" cy="61.054" gradientUnits="userSpaceOnUse" r="13.076"><stop offset=".001" stop-color="#ffee58"/><stop offset=".353" stop-color="#fdd743"/><stop offset=".725" stop-color="#fcc633"/><stop offset="1" stop-color="#fbc02d"/></radialGradient><circle cx="64" cy="63.84" r="13.08" fill="url(#b)"/><radialGradient id="c" cx="59.966" cy="96.247" gradientUnits="userSpaceOnUse" r="13.076"><stop offset=".002" stop-color="#81c784"/><stop offset=".112" stop-color="#77c07a"/><stop offset=".465" stop-color="#5aaf5e"/><stop offset=".773" stop-color="#49a44d"/><stop offset="1" stop-color="#43a047"/></radialGradient><circle cx="64" cy="99.45" r="13.08" fill="url(#c)"/><path d="M76.44 7.11c3.8 0 6.89 3.09 6.89 6.89v100c0 3.8-3.09 6.89-6.89 6.89H51.56c-3.8 0-6.89-3.09-6.89-6.89V14c0-3.8 3.09-6.89 6.89-6.89h24.88m0-3.11H51.56c-5.5 0-10 4.5-10 10v100c0 5.5 4.5 10 10 10h24.88c5.5 0 10-4.5 10-10V14c0-5.5-4.5-10-10-10z" fill="#eee" opacity=".2"/><radialGradient id="d" cx="59.92" cy="24.794" gradientUnits="userSpaceOnUse" r="13.076"><stop offset="0" stop-color="#e57373"/><stop offset=".11" stop-color="#e56969"/><stop offset=".464" stop-color="#e54f4c"/><stop offset=".772" stop-color="#e53f3b"/><stop offset="1" stop-color="#e53935"/></radialGradient><circle cx="64" cy="28.23" r="13.08" fill="url(#d)"/></svg>