<svg width="128" height="128" xmlns="http://www.w3.org/2000/svg"><linearGradient id="a" gradientUnits="userSpaceOnUse" x1="64" x2="64" y1="4.378" y2="123.545"><stop offset="0" stop-color="#fff"/><stop offset="1" stop-color="#c8c9ca"/></linearGradient><path fill="url(#a)" d="M4 4h120v120H4z"/><g fill="none" stroke="#bdbdbd" stroke-miterlimit="10"><path d="M4 4h120v120H4zM4 104h120M4 84h120M4 64h120M4 44h120M4 24h120M104 4v120M84 4v120M64 4v120M44 4v120M24 4v120"/></g><linearGradient id="b" gradientUnits="userSpaceOnUse" x1="24.579" x2="24.579" y1="55.294" y2="123.331"><stop offset=".005" stop-color="#4480f7"/><stop offset="1" stop-color="#3462bd"/></linearGradient><path fill="url(#b)" d="M15.29 54.72h18.58V124H15.29z"/><linearGradient id="c" gradientUnits="userSpaceOnUse" x1="50.614" x2="50.614" y1="80.634" y2="124"><stop offset=".005" stop-color="#ec4431"/><stop offset=".3" stop-color="#e74330"/><stop offset=".633" stop-color="#da3f2d"/><stop offset=".983" stop-color="#c33828"/><stop offset="1" stop-color="#c23828"/></linearGradient><path fill="url(#c)" d="M41.32 80.63H59.9V124H41.32z"/><linearGradient id="d" gradientUnits="userSpaceOnUse" x1="76.648" x2="76.648" y1="33.696" y2="124"><stop offset=".005" stop-color="#fdd835"/><stop offset=".27" stop-color="#f9d534"/><stop offset=".533" stop-color="#edcb32"/><stop offset=".794" stop-color="#d9ba2d"/><stop offset="1" stop-color="#c4a829"/></linearGradient><path fill="url(#d)" d="M67.36 33.7h18.58V124H67.36z"/><linearGradient id="e" gradientUnits="userSpaceOnUse" x1="102.682" x2="102.682" y1="99.1" y2="124"><stop offset=".008" stop-color="#2ca94f"/><stop offset=".997" stop-color="#207a39"/></linearGradient><path fill="url(#e)" d="M93.39 99.1h18.58V124H93.39z"/><g opacity=".2"><path d="M121 7v114H7V7h114m3-3H4v120h120V4z" fill="#424242"/></g></svg>