<svg width="128" height="128" xmlns="http://www.w3.org/2000/svg" width="512px" height="512px"><radialGradient id="a" cx="64.167" cy="68.667" gradientTransform="matrix(0 1 -1.3383 0 156.066 4.5)" gradientUnits="userSpaceOnUse" r="51.168"><stop offset="0" stop-color="#f5f5f5"/><stop offset=".589" stop-color="#eee"/><stop offset=".979" stop-color="#e1e1e1"/><stop offset="1" stop-color="#e0e0e0"/></radialGradient><path fill="url(#a)" d="M8 68h112v52H8z"/><linearGradient id="b" gradientUnits="userSpaceOnUse" x1="64" x2="64" y1="73.75" y2="118.506"><stop offset="0" stop-color="#81d4fa"/><stop offset=".558" stop-color="#4fc3f7"/><stop offset="1" stop-color="#29b6f6"/></linearGradient><path fill="url(#b)" d="M44 72h40v52H44z"/><path d="M84 72v48H44V72h40m2-2H42v52h44V70z" fill="#424242" opacity=".2"/><linearGradient id="c" gradientUnits="userSpaceOnUse" x1="20" x2="20" y1="80" y2="104"><stop offset="0" stop-color="#81d4fa"/><stop offset=".558" stop-color="#4fc3f7"/><stop offset="1" stop-color="#29b6f6"/></linearGradient><path d="M30 104H8V80h22c1.1 0 2 .9 2 2v20c0 1.1-.9 2-2 2z" fill="url(#c)"/><linearGradient id="d" gradientUnits="userSpaceOnUse" x1="108" x2="108" y1="80" y2="104"><stop offset="0" stop-color="#81d4fa"/><stop offset=".558" stop-color="#4fc3f7"/><stop offset="1" stop-color="#29b6f6"/></linearGradient><path d="M120 104H98c-1.1 0-2-.9-2-2V82c0-1.1.9-2 2-2h22v24z" fill="url(#d)"/><path d="M124 124H4v-4c0-2.21 1.79-4 4-4h112c2.21 0 4 1.79 4 4v4z" fill="#bdbdbd"/><path d="M117 71v48h3c.55 0 1 .45 1 1v1H7v-1c0-.55.45-1 1-1h3V71h106m3-3H8v48c-2.21 0-4 1.79-4 4v4h120v-4c0-2.21-1.79-4-4-4V68z" fill="#424242" opacity=".2"/><path fill="#0089da" d="M44 96h40v4H44z"/><path fill="#0fac34" d="M44 92h40v4H44z"/><path fill="#424242" d="M76 44h8v12h-8zM100 44h8v12h-8z"/><path fill="#fefefe" d="M4 58h120v10H4z"/><path d="M4 66v5c0 1.66 1.34 3 3 3h114c1.66 0 3-1.34 3-3v-5H4z" fill="#0089da"/><path d="M121 52H7c-1.66 0-3 1.34-3 3v3h120v-3c0-1.66-1.34-3-3-3z" fill="#0fac34"/><path d="M64 13v26c0 1.05.19 2.06.52 3h54.95c.33-.94.52-1.95.52-3V13c0-1.05-.19-2.06-.52-3H64.52c-.33.94-.52 1.95-.52 3z" fill="#fff"/><path d="M64.52 42c.4 1.12 1.01 2.13 1.78 3 1.65 1.84 4.03 3 6.69 3h38c2.66 0 5.05-1.16 6.69-3 .78-.87 1.39-1.88 1.78-3H64.52z" fill="#0089da"/><path d="M117.69 7c-1.65-1.84-4.03-3-6.69-3H73c-2.66 0-5.05 1.16-6.69 3-.78.87-1.39 1.88-1.78 3h54.95a9.037 9.037 0 0 0-1.79-3z" fill="#0fac34"/><g fill="#0fac34"><path d="M91.02 40H76.74c-.55 0-1-.45-1-1v-2.42c0-.22.07-.44.21-.62l7.26-9.26c.95-1.32 1.65-2.48 2.1-3.48.45-1 .67-1.95.67-2.87 0-1.23-.21-2.2-.64-2.89-.42-.7-1.03-1.05-1.83-1.05-.87 0-1.57.41-2.08 1.22-.4.64-.65 1.49-.73 2.53a1 1 0 0 1-.99.91h-3.38c-.59 0-1.06-.52-1-1.11.12-1.27.46-2.45 1-3.54.7-1.4 1.69-2.49 2.96-3.27 1.27-.78 2.71-1.17 4.32-1.17 2.47 0 4.38.68 5.74 2.04 1.36 1.36 2.04 3.29 2.04 5.8 0 1.56-.38 3.13-1.13 4.73-.75 1.59-2.1 3.56-4.06 5.89-.02.02-.03.04-.05.06l-2.43 3.48c-.46.66.01 1.57.82 1.57h6.47c.55 0 1 .45 1 1V39c.01.55-.44 1-.99 1zM107.76 29.57h.35c.55 0 1 .45 1 1v2.42c0 .55-.45 1-1 1h-.35c-.55 0-1 .45-1 1V39c0 .55-.45 1-1 1h-3.37c-.55 0-1-.45-1-1v-4.01c0-.55-.45-1-1-1h-7.21c-.52 0-.96-.41-1-.93l-.16-2.23c-.01-.18.02-.37.11-.53l8.96-17.37c.17-.33.51-.54.89-.54h3.78c.55 0 1 .45 1 1v15.19a1 1 0 0 0 1 .99zm-8.99 0h1.63c.55 0 1-.45 1-1v-8.24l-.11.21-3.43 7.62c-.3.66.18 1.41.91 1.41z"/></g><path d="M121 55v16H7V55h114m0-3H7c-1.66 0-3 1.34-3 3v16c0 1.66 1.34 3 3 3h114c1.66 0 3-1.34 3-3V55c0-1.66-1.34-3-3-3zM111 7c1.69 0 3.32.73 4.46 2 .53.59.93 1.26 1.19 2 .23.66.35 1.33.35 2v26c0 .67-.12 1.34-.35 2-.26.74-.66 1.41-1.19 2-1.14 1.27-2.77 2-4.46 2H73c-1.69 0-3.32-.73-4.46-2-.53-.59-.93-1.26-1.19-2-.23-.66-.35-1.33-.35-2V13c0-.67.12-1.34.35-2 .26-.74.66-1.41 1.19-2 1.14-1.27 2.77-2 4.46-2h38m0-3H73c-2.66 0-5.05 1.16-6.69 3-.78.87-1.39 1.88-1.78 3-.34.94-.53 1.95-.53 3v26c0 1.05.19 2.06.52 3 .4 1.12 1.01 2.13 1.78 3 1.65 1.84 4.03 3 6.69 3h38c2.66 0 5.05-1.16 6.69-3 .78-.87 1.39-1.88 1.78-3 .33-.94.52-1.95.52-3V13c0-1.05-.19-2.06-.52-3a9.182 9.182 0 0 0-1.78-3A8.9 8.9 0 0 0 111 4z" fill="#424242" opacity=".2"/><path opacity=".3" fill="#eee" d="M63.5 74h1v42h-1z"/></svg>