<svg viewBox="0 0 128 128" xmlns="http://www.w3.org/2000/svg" xmlns:xlink="http://www.w3.org/1999/xlink" width="512px" height="512px"><linearGradient id="a" x1="76.18" x2="51.999" y1="37.915" y2="97.127" gradientTransform="rotate(4.48 64.017 64.019)" gradientUnits="userSpaceOnUse"><stop stop-color="#BD161D" offset=".003"/><stop stop-color="#D21920" offset=".19"/><stop stop-color="#E11B22" offset=".399"/><stop stop-color="#EA1C24" offset=".643"/><stop stop-color="#ED1C24" offset="1"/></linearGradient><path d="M52.11 97.99c-4.08 0-6.03-2.23-6.83-3.56-1.19-1.99-1.35-4.41-.4-6.18 1.35-2.53 1.66-4.59.94-6.31-.75-1.79-2.57-3.1-5.58-4-1.7-.51-2.82-1.26-3.25-2.17-.29-.63-.2-1.2-.12-1.48l18.96-14.07 21.21-19 12.01-1.34c1.5 13.77-5.32 37.54-10.49 44.5-4.14 5.56-6.43 11.04-7.23 13.16-1.09-.49-2.36-.74-3.79-.74-2.37 0-4.53.69-5.36.99l-4.55-1.57-.32.19c-.57.33-1.1.68-1.63 1.07-1.25.33-2.45.51-3.57.51z" fill="url(#a)"/><path d="M88.32 40.77c1.24 14.42-5.91 37.06-10.41 43.11-3.76 5.06-6.02 10.05-7.03 12.59-1-.33-2.11-.5-3.33-.5-2.27 0-4.34.59-5.36.94l-3.92-1.35-.71-.24-.65.38c-.55.32-1.07.66-1.58 1.03-1.14.3-2.22.45-3.23.45-3.68 0-5.42-1.98-6.13-3.17-1.03-1.72-1.18-3.88-.38-5.38 1.47-2.76 1.79-5.05.97-7-.85-2.03-2.84-3.49-6.1-4.47-1.43-.43-2.4-1.04-2.73-1.71-.13-.26-.14-.51-.13-.69l18.71-13.88.06-.04.06-.05 20.97-18.8 10.92-1.22m1.45-1.8L76.7 40.42 55.35 59.55 36.18 73.78s-1.54 3.33 3.82 4.94c5.37 1.61 6.62 4.5 4.15 9.14-2.13 3.99.59 10.94 7.95 10.94 1.2 0 2.51-.18 3.95-.59.51-.38 1.06-.75 1.67-1.11l4.47 1.54c.17-.07 2.63-1.04 5.35-1.04 1.44 0 2.95.27 4.24 1.1 0 0 2.28-6.9 7.43-13.84 5.17-6.94 12.5-31.73 10.56-45.89z" fill="#A8141A"/><path d="M91.01 15.08s2.74 1.39 2.77 2.87l2.31 11.16-7.7 15-.03-.07c-.47 3.01-1.27 7.23-2.57 12.18-1.35 5.12-3.05 8.08-3.05 8.08l-15.78-4.65-.89-7.67c-.63.64-1.48 1.02-2.36 1.02-.28 0-.55-.04-.83-.11l-.53-.34c-1.76-.49-3.33-2.25-2.82-4.11l4.58-12.54a3.518 3.518 0 0 1 2.49-2.49c1.94-.99 4.82-1.4 7.62-1.4.75 0 1.49.03 2.21.09 2.93.23 6.59 1.47 9.2 2.98l3.4-6.79c.24-.42-.58-10.46-.58-10.46a2.634 2.634 0 0 1 2.56-2.75m0-.99h-.02c-2 .04-3.6 1.73-3.56 3.75v.06c.35 4.32.67 9.15.62 10.06l-2.87 5.74c-2.71-1.4-6.02-2.4-8.69-2.61-.76-.06-1.53-.09-2.29-.09-1.88 0-5.4.19-7.97 1.47-1.48.42-2.65 1.61-3.08 3.12l-4.57 12.5c-.01.03-.02.05-.02.08-.67 2.44 1.2 4.61 3.36 5.29l.42.27c.08.05.17.09.26.12.36.1.73.15 1.1.15.53 0 1.06-.11 1.56-.31l.71 6.08c.05.4.32.73.71.84l15.78 4.65c.09.03.19.04.28.04.35 0 .68-.18.86-.5.07-.13 1.78-3.14 3.15-8.32 1.06-4.02 1.91-8.04 2.54-11.93l7.69-14.98c.1-.2.14-.43.09-.65l-2.29-11.09c-.13-1.92-2.77-3.35-3.31-3.63-.15-.07-.31-.11-.46-.11z" fill="#1278C9"/><linearGradient id="b" x1="64.905" x2="60.563" y1="40.38" y2="49.932" gradientTransform="rotate(4.48 64.017 64.019)" gradientUnits="userSpaceOnUse"><stop stop-color="#2A82FF" offset="0"/><stop stop-color="#1599FF" offset=".357"/><stop stop-color="#05A9FF" offset=".719"/><stop stop-color="#00AFFF" offset=".997"/></linearGradient><path d="M59.16 48.5l4.63-12.54c.52-1.87 2.4-2.99 4.17-2.5 1.78.49 2.81 2.42 2.29 4.29l-3.53 12.71c-.52 1.87-2.4 2.99-4.17 2.5l-.54-.34c-1.77-.5-3.36-2.26-2.85-4.12z" fill="url(#b)"/><linearGradient id="c" x1="43.895" x2="62.952" y1="44.975" y2="44.975" gradientTransform="matrix(.9897 .0591 -.0616 1.0326 4.812 -5.218)" gradientUnits="userSpaceOnUse"><stop stop-color="#ED1C24" offset="0"/><stop stop-color="#EA1C24" offset=".357"/><stop stop-color="#E11B22" offset=".601"/><stop stop-color="#D21920" offset=".81"/><stop stop-color="#BD161D" offset=".997"/></linearGradient><path d="M63.8 54.06c-2.16-.35-4.61-1.37-7.15-2.97-4.3-2.71-8.46-6.9-9.88-9.97-.98-2.12-1.18-3.8-.57-4.86.56-.96 1.68-1.24 2.52-1.31.27-.02.51-.03.74-.03.92 0 1.53.18 1.85.55.62.72.38 2.36.07 4.43-.08.54-.16 1.11-.24 1.71-.04.35.1.72.42 1.1.83 1 3.05 2.24 4.66 2.34 1.97.12 3.37.52 4.41 1.26l.01.02c1.69 1.2 2.57 3.33 3.16 7.73z" fill="url(#c)"/><path d="M49.47 35.47c.51 0 1.17.06 1.43.36.46.53.21 2.21-.05 3.99-.08.54-.17 1.12-.24 1.72-.06.5.12 1.02.54 1.52.92 1.11 3.28 2.43 5.05 2.54 1.8.11 3.08.46 4.03 1.09l.01.01.1.07c1.43 1.02 2.25 2.92 2.81 6.59-1.9-.43-4.01-1.37-6.2-2.75-4.78-3.01-8.49-7.17-9.67-9.73-.89-1.92-1.1-3.47-.59-4.35.44-.75 1.38-.98 2.09-1.04.24-.01.47-.02.69-.02m0-1.11c-.24 0-.5.01-.79.04-2.74.23-4.61 2.21-2.41 6.95 1.4 3.01 5.47 7.3 10.09 10.2 2.66 1.68 5.48 2.89 8.08 3.14-.55-4.55-1.39-7.33-3.46-8.82l-.01-.01c-1.14-.82-2.66-1.24-4.7-1.36-1.78-.11-4.68-1.9-4.56-2.82.55-4.4 1.58-7.32-2.24-7.32z" fill="#A8141A"/><linearGradient id="d" x1="72.187" x2="97.763" y1="68.627" y2="68.627" gradientTransform="rotate(-3.714 432.418 324.676)" gradientUnits="userSpaceOnUse"><stop stop-color="#00AFFF" offset=".003"/><stop stop-color="#0CA2FF" offset=".368"/><stop stop-color="#2A82FF" offset="1"/></linearGradient><path d="M67.54 80.88c-.85 4.7-7.2 19.31-7.2 19.31l4.84 2.5 10.13-19.57c0 .01-4.69-1.16-7.77-2.24z" fill="url(#d)"/><path d="M72.4 60.38c-.04-.03-.09-.06-.14-.09-.28-.18-.55-.38-.82-.59-.54-.41-1.07-.82-1.59-1.25-.5-.45-1.02-.88-1.49-1.37l.03-.04c1.05.83 2.15 1.6 3.26 2.34.44.3.89.58 1.35.85l-.6.15z" fill="#D91A3D"/><linearGradient id="e" x1="74.382" x2="74.382" y1="31.278" y2="62.918" gradientTransform="rotate(4.48 64.017 64.019)" gradientUnits="userSpaceOnUse"><stop stop-color="#00AFFF" offset=".003"/><stop stop-color="#04A8FC" offset=".239"/><stop stop-color="#1095F3" offset=".579"/><stop stop-color="#2476E4" offset=".982"/><stop stop-color="#2574E3" offset="1"/></linearGradient><path d="M63.95 36.4l2.75 23.32 15.97 4.65s1.72-2.96 3.08-8.09c2.66-10 3.24-17.06 3.24-17.06.27-3.47-7.38-6.68-12.73-7.09-5.31-.4-12.02.59-12.31 4.27z" fill="url(#e)"/><linearGradient id="f" x1="75.113" x2="75.113" y1="31.797" y2="36.307" gradientTransform="matrix(.9003 .0705 -.0915 1.1676 11.421 -10.656)" gradientUnits="userSpaceOnUse"><stop stop-color="#BD161D" offset=".003"/><stop stop-color="#D21920" offset=".19"/><stop stop-color="#E11B22" offset=".399"/><stop stop-color="#EA1C24" offset=".643"/><stop stop-color="#ED1C24" offset="1"/></linearGradient><path d="M77.93 37.27c-.31 0-.63-.01-.97-.04-5.01-.37-7.29-1.88-8.31-3.07-.76-.89-.97-1.75-1.02-2.21 1.66-.56 2.83-.93 5.05-.93 1.13 0 2.52.1 4.25.31 4.5.54 6.82 1.97 7.56 2.52-.44.91-2.04 3.42-6.56 3.42z" fill="url(#f)"/><path d="M72.67 31.54c1.11 0 2.48.1 4.19.3 3.77.45 5.97 1.56 6.94 2.17-.61.98-2.2 2.73-5.87 2.73-.3 0-.62-.01-.93-.04-6.96-.52-8.46-3.17-8.79-4.41 1.4-.45 2.51-.75 4.46-.75m0-1.04c-2.47 0-3.72.45-5.58 1.08 0 0-.43 5.41 9.83 6.17.35.03.69.04 1.01.04 5.89 0 7.18-4.1 7.18-4.1s-2.3-2.18-8.12-2.88c-1.82-.21-3.2-.31-4.32-.31z" fill="#A8141A"/><path d="M76.54 35.55l-.49-.03c-1.2-.08-2.11-1.06-2.03-2.18l.17-2.56 4.83.32-.17 2.56c-.07 1.07-1.01 1.9-2.15 1.9-.05 0-.1 0-.16-.01z" fill="#EDC391"/><path d="M74.47 31.1l4.22.28-.15 2.26c-.06.91-.87 1.62-1.85 1.62h-.14l-.49-.03c-.5-.03-.97-.25-1.3-.61-.32-.35-.49-.8-.45-1.26l.16-2.26m-.56-.64l-.19 2.86c-.09 1.29.95 2.41 2.31 2.5l.49.03c.06 0 .12.01.17.01 1.29 0 2.36-.95 2.45-2.18l.19-2.86-5.42-.36z" fill="#D9AC77"/><defs><path id="g" d="M76.62 30.64l-2.71-.18-.19 2.86c-.09 1.29.95 2.41 2.31 2.5l.49.03c1.36.09 2.54-.88 2.62-2.18l.19-2.86-2.71-.17z"/></defs><clipPath id="h"><use xlink:href="#g"/></clipPath><g clip-path="url(#h)"><path d="M76.45 33.24c-1.99-.13-2.68-.73-2.68-.73l-.19 2.86c-.09 1.29.95 2.41 2.31 2.5l.49.03c1.36.09 2.54-.88 2.62-2.18l.19-2.86c.01.01-.75.51-2.74.38z"/></g><path d="M83.56 26.92l-13.48-.81c-1.29-.08-2.27-1.27-2.19-2.66.08-1.33 1.12-2.38 2.36-2.38h.13l13.48.81c.62.04 1.19.33 1.6.83.42.5.63 1.15.59 1.83-.08 1.33-1.12 2.38-2.36 2.38h-.13z" fill="#FFD29C"/><path d="M70.25 21.37h.11l1.82.11 9.85.59 1.82.11c1.13.07 1.98 1.12 1.91 2.34-.07 1.18-.98 2.1-2.06 2.1h-.11l-1.82-.11-9.85-.59-1.82-.11c-1.13-.07-1.98-1.12-1.91-2.34.07-1.18.97-2.1 2.06-2.1m0-.6c-1.39 0-2.57 1.17-2.66 2.66-.09 1.55 1.02 2.89 2.47 2.97l1.82.11 9.85.59 1.82.11h.15c1.39 0 2.57-1.17 2.66-2.66.09-1.55-1.02-2.89-2.47-2.97l-1.82-.11-9.85-.59-1.82-.11h-.15z" fill="#EDBD82"/><linearGradient id="i" x1="74.762" x2="74.762" y1="27.936" y2="7.834" gradientTransform="rotate(3.438 7.385 58.836)" gradientUnits="userSpaceOnUse"><stop stop-color="#FFD29C" offset="0"/><stop stop-color="#FFD39E" offset=".024"/><stop stop-color="#FCD8AF" offset=".316"/><stop stop-color="#FADCBA" offset=".629"/><stop stop-color="#F9DDBD" offset="1"/></linearGradient><path d="M76.94 32.2c-.15 0-.31 0-.46-.01-3.84-.23-7.79-3.46-7.4-10 .39-6.53 4.52-10.43 8.28-10.43.11 0 .23 0 .34.01 2.02.12 3.96 1.34 5.33 3.33 1.46 2.14 2.17 5 1.99 8.04-.37 6.26-4.33 9.06-8.08 9.06z" fill="url(#i)"/><path d="M77.36 12.06c.11 0 .22 0 .33.01 4.74.28 7.34 5.96 7.04 11.06-.36 6.06-4.17 8.78-7.78 8.78-.15 0-.3 0-.44-.01-5.27-.32-7.38-5.24-7.12-9.68.37-6.36 4.35-10.16 7.97-10.16m0-.6c-4.17 0-8.19 4.29-8.58 10.71-.39 6.57 3.51 10.07 7.68 10.32.16.01.32.01.48.01 4.02 0 8-3.02 8.38-9.34.4-6.61-3.3-11.44-7.6-11.69-.12-.01-.24-.01-.36-.01z" fill="#EDBD82"/><radialGradient id="j" cx="73.066" cy="20.93" r="1.482" gradientUnits="userSpaceOnUse"><stop stop-color="#454140" offset=".09"/><stop stop-color="#454140" offset="1"/></radialGradient><path d="M71.21 20.9s.04-.05.1-.12c.02-.02.03-.04.06-.06.03-.03.06-.05.1-.08s.07-.06.11-.09.08-.05.12-.08.09-.05.14-.08c.05-.02.1-.05.15-.07.05-.03.11-.05.17-.06l.18-.06c.12-.03.25-.06.38-.07.13-.02.27-.01.4-.01.13.01.27.02.4.06.13.02.25.07.37.11.06.02.12.05.17.08.06.03.11.05.16.08s.1.06.14.09.09.06.13.09.08.06.11.09l.17.17c.02.03.04.05.06.08.07.09.11.15.11.15a.4.4 0 0 1-.12.54c-.11.07-.24.08-.36.03l-.07-.03s-.05-.02-.12-.06l-.06-.03c-.02-.01-.05-.02-.07-.03-.05-.02-.11-.05-.17-.07-.03-.01-.06-.03-.1-.04l-.1-.03c-.02-.01-.04-.01-.05-.02-.02 0-.04-.01-.06-.01-.04-.01-.08-.02-.11-.03-.08-.01-.16-.04-.24-.04-.08-.02-.17-.02-.25-.03-.09 0-.17-.01-.26 0-.09 0-.17.01-.25.02-.04 0-.08.01-.12.02-.02 0-.04 0-.06.01-.02 0-.04.01-.06.01-.04.01-.07.01-.11.02l-.1.03c-.03.01-.06.02-.09.02-.03.01-.05.01-.07.02s-.05.01-.07.02-.05.02-.07.03c-.09.04-.15.06-.15.06a.402.402 0 0 1-.51-.25.42.42 0 0 1 .07-.38z" fill="url(#j)"/><ellipse transform="rotate(-86.572 72.96 23.005)" cx="72.96" cy="23" rx="1.26" ry="1.22" fill="#312D2D"/><radialGradient id="k" cx="81.175" cy="21.414" r="1.482" gradientUnits="userSpaceOnUse"><stop stop-color="#454140" offset=".09"/><stop stop-color="#454140" offset="1"/></radialGradient><path d="M82.54 22.17s-.05-.03-.14-.08c-.02-.01-.05-.03-.07-.04s-.04-.02-.07-.03c-.02-.01-.05-.02-.07-.03l-.09-.03c-.03-.01-.06-.03-.1-.04l-.1-.03c-.02-.01-.04-.01-.05-.02-.02 0-.04-.01-.06-.01-.04-.01-.08-.02-.11-.03-.08-.01-.16-.04-.24-.04-.08-.02-.17-.02-.25-.03-.09 0-.17-.01-.26 0-.09 0-.17.01-.25.02-.04 0-.08.01-.12.02-.02 0-.04 0-.06.01-.02 0-.04.01-.06.01-.04.01-.07.01-.11.02l-.1.03c-.07.01-.12.03-.18.05-.03.01-.05.02-.08.02-.02.01-.04.02-.06.02-.06.02-.11.04-.11.04l-.07.02a.385.385 0 0 1-.48-.27c-.04-.13 0-.26.07-.35 0 0 .04-.05.12-.13l.07-.07c.03-.02.06-.05.09-.07.03-.03.07-.05.1-.08.04-.03.08-.05.12-.08s.09-.05.14-.08c.05-.02.1-.05.15-.07.05-.03.11-.05.17-.06l.18-.06c.12-.03.25-.06.38-.07.13-.02.27-.01.4-.01.13.01.27.02.4.06.13.02.25.07.37.11.06.02.12.05.17.08.06.03.11.05.16.08s.1.06.14.09.09.06.13.09.08.06.11.09c.04.03.07.07.1.1l.09.09c.02.03.03.05.05.07.06.08.09.13.09.13.11.19.05.43-.14.55-.11.07-.25.07-.37.01z" fill="url(#k)"/><ellipse transform="rotate(-86.572 81.07 23.491)" cx="81.07" cy="23.49" rx="1.26" ry="1.22" fill="#312D2D"/><path d="M77.83 25.59c-.03-.01-.05-.02-.08-.03l-1.75-.1c-.03 0-.05.01-.08.02-.16.05-.26.21-.19.39.06.18.38.69 1.08.73s1.08-.43 1.16-.6c.09-.17.01-.34-.14-.41z" fill="#DBA689"/><path d="M78.84 27.65c-.81.42-3.39.27-4.15-.25-.44-.3-.92.09-.76.51.16.41 1.51 1.43 2.72 1.51 1.22.07 2.66-.78 2.87-1.17.21-.41-.22-.84-.68-.6z" fill="#424242"/><radialGradient id="l" cx="74.826" cy="5.669" r="12.072" gradientTransform="rotate(3.438 7.385 58.836)" gradientUnits="userSpaceOnUse"><stop stop-color="#454140" offset="0"/><stop stop-color="#312D2D" offset="1"/></radialGradient><path d="M77.83 9.73c-.01 0-.01 0 0 0-11.22-.61-9.69 12.33-9.69 12.33s1.13 2.29 1.13 2.25c.07-1.79.97-4.92 1.56-6.23.3-.66 1.03-1.02 1.73-.85 1.09.27 2.82.62 4.75.73h.04c1.93.12 3.69-.03 4.81-.16.72-.09 1.4.35 1.62 1.05.43 1.38.95 4.59.81 6.37 0 .04 1.39-2.1 1.39-2.1s3.05-12.65-8.15-13.39z" fill="url(#l)"/><path d="M77.83 9.73c-.01 0-.01 0 0 0-11.22-.61-9.69 12.33-9.69 12.33s1.1 2.25 1.13 2.25c.01-.37.06-.79.14-1.24-.03-.07-.54-1.21-.54-1.22-.04-.4-.13-1.74.06-3.35.2-1.73.78-4.15 2.39-5.85 1.5-1.59 3.67-2.33 6.46-2.17h.01c2.79.18 4.86 1.17 6.16 2.93 2.47 3.36 1.51 8.59 1.33 9.43-.01.01-.67 1.09-.68 1.11.02.47.02.91-.01 1.28.02 0 1.39-2.1 1.39-2.1s3.05-12.66-8.15-13.4z" fill="#1F1A1A"/><path d="M62.43 83.34l-3.44 5.01c-1.05 1.53-5.06 5.07-6.85 4.28s.26-6.57 1.3-8.09l3.44-5.01c1.05-1.53 3.15-1.92 4.68-.87s1.92 3.16.87 4.68z" fill="#91001F" stroke="#590B0D" stroke-miterlimit="10" stroke-width="1.089"/><linearGradient id="m" x1="205.37" x2="231.11" y1="7.261" y2="7.261" gradientTransform="matrix(.5008 -.7888 .8442 .536 -50.849 240.42)" gradientUnits="userSpaceOnUse"><stop stop-color="#2A82FF" offset="0"/><stop stop-color="#0CA2FF" offset=".632"/><stop stop-color="#00AFFF" offset=".997"/></linearGradient><path d="M75.41 64.8l-10.9 15.84c-1.71 2.37-4.84 2.41-6.38 1.66-1.53-.75-2.67-3.92-1.4-5.91 3.72-5.83 9.88-17.17 9.88-17.17l8.8 5.58z" fill="url(#m)"/><linearGradient id="n" x1="258.06" x2="283.82" y1="19.47" y2="19.47" gradientTransform="matrix(.272 -.8939 .9567 .2911 -18.94 313.09)" gradientUnits="userSpaceOnUse"><stop stop-color="#2A82FF" offset="0"/><stop stop-color="#0CA2FF" offset=".632"/><stop stop-color="#00AFFF" offset=".997"/></linearGradient><path d="M81.86 66.57l-6.82 18.61c-.68 2.25-3.21 3.45-5.34 2.85s-3.68-2.66-2.99-4.92c2.03-6.61 5.18-19.57 5.18-19.57l9.97 3.03z" fill="url(#n)"/><path d="M66.62 59.22l8.19 5.2 7.05 2.14-6.82 18.61c-.33 1.1-1.11 1.94-2.06 2.45l-7.8 15.07-4.84-2.5s4.21-9.69 6.23-15.82c-.02-.41.01-.83.14-1.26.79-2.58 1.75-6.12 2.63-9.48l-4.83 7.02c-1.1 1.53-2.8 2.09-4.28 2.09-.81 0-1.55-.17-2.09-.43-1.53-.75-2.67-3.92-1.4-5.91 3.71-5.84 9.88-17.18 9.88-17.18m0-.99a.987.987 0 0 0-.87.52c-.06.11-6.19 11.38-9.85 17.11-.73 1.14-.9 2.69-.47 4.23.41 1.45 1.26 2.62 2.27 3.11.7.34 1.6.53 2.53.53 2.09 0 3.94-.91 5.09-2.5l1.57-2.28c-.42 1.5-.79 2.8-1.12 3.86-.14.44-.2.9-.19 1.41-2.01 6.03-6.1 15.48-6.15 15.57a.99.99 0 0 0 .46 1.28l4.84 2.5a.986.986 0 0 0 1.33-.43l7.67-14.81c1.09-.67 1.89-1.67 2.25-2.85l6.81-18.58c.09-.26.08-.54-.04-.79-.12-.24-.34-.43-.6-.51l-6.92-2.11-8.08-5.13a1.22 1.22 0 0 0-.53-.13z" fill="#1278C9"/><path d="M93.83 18c-.03-1.48-2.8-2.87-2.8-2.87a2.678 2.678 0 0 0-2.62 2.73s.83 10.04.58 10.47l-3.89 7.45 3.27 8.39 7.79-15.01L93.83 18z" fill="#04AAFF"/><linearGradient id="o" x1="75.406" x2="89.966" y1="-.854" y2="20.827" gradientTransform="matrix(.9233 .0745 -.069 .9075 10.846 -1.712)" gradientUnits="userSpaceOnUse"><stop stop-color="#ED1C24" offset="0"/><stop stop-color="#EA1C24" offset=".357"/><stop stop-color="#E11B22" offset=".601"/><stop stop-color="#D21920" offset=".81"/><stop stop-color="#BD161D" offset=".997"/></linearGradient><path d="M96.8 25.23c-.22 0-.47 0-.74-.01-1.84-.05-5.85-.39-7.74-1.02-.11-.9-.53-3.86-1.75-10.49-.79-4.29-2.09-6.05-4.46-6.05-.42 0-.85.05-1.26.1s-.79.09-1.17.09c-.29 0-.55-.03-.78-.09-1.36-.35-2.17-.8-2.41-1.33-.3-.66.19-1.65.76-2.8l.08-.17c.47-.96 1.01-1.38 1.79-1.38 1.53 0 4.06 1.61 7.53 4.77 6.68 6.09 9.1 12.41 10.63 18.37-.13.01-.29.01-.48.01z" fill="url(#o)"/><path d="M79.13 2.59c.96 0 2.99.81 7.2 4.64 6.35 5.79 8.8 11.8 10.32 17.5-.17 0-.36 0-.56-.01-1.72-.04-5.37-.35-7.29-.9-.16-1.2-.61-4.21-1.71-10.2-.84-4.52-2.32-6.46-4.95-6.46-.45 0-.9.05-1.32.1-.39.05-.76.09-1.11.09-.25 0-.47-.02-.66-.07-1.58-.41-1.98-.84-2.08-1.06-.2-.44.28-1.42.75-2.37l.08-.17c.43-.9.85-1.09 1.33-1.09m0-1c-1.11 0-1.76.68-2.24 1.65-1.14 2.31-2.08 3.98 1.89 5.01.3.08.6.11.91.11.81 0 1.64-.2 2.43-.2 1.61 0 3.08.8 3.97 5.64 1.5 8.13 1.78 10.77 1.78 10.77 1.93.77 6.52 1.11 8.18 1.16.27.01.52.01.74.01.69 0 1.13-.03 1.13-.03-1.58-6.4-4.1-12.99-10.92-19.21-3.96-3.62-6.34-4.91-7.87-4.91z" fill="#A8141A"/><linearGradient id="p" x1="54.332" x2="68.237" y1="124.77" y2="96.729" gradientTransform="rotate(4.48 64.017 64.019)" gradientUnits="userSpaceOnUse"><stop stop-color="#B00026" offset=".003"/><stop stop-color="#BA0526" offset=".26"/><stop stop-color="#D61225" offset=".701"/><stop stop-color="#ED1C24" offset="1"/></linearGradient><path d="M48.94 125.84c-.73 0-1.43-.4-2.15-1.21-1.91-2.17 1.72-6.58 5.22-10.85 2.6-3.16 5.28-6.43 5.99-9.12.01-.06 1.1-4.5 2.27-6.77 1.26-1.09 4.01-3.43 5.55-3.43.33 0 .55.1.74.34.6.75 1 3.02-.46 9.51-2.33 2.18-5.53 5.82-7.71 9.63l-.91 1.6c-2.72 4.83-5.82 10.3-8.54 10.3z" fill="url(#p)"/><path d="M65.83 95.06c.17 0 .21.04.27.11.26.33.99 1.94-.54 8.82-2.35 2.23-5.52 5.85-7.68 9.65-.3.53-.61 1.06-.91 1.6-2.52 4.45-5.66 9.99-8.03 9.99-.54 0-1.09-.33-1.69-1-1.57-1.78 2.05-6.18 5.24-10.06 2.76-3.36 5.37-6.53 6.12-9.38.01-.04 1.05-4.29 2.17-6.52 1.09-.95 3.77-3.21 5.05-3.21m0-1.22c-1.59 0-3.92 1.83-6.04 3.66-1.24 2.33-2.38 7-2.38 7-1.65 6.28-14.89 16.21-11.08 20.53.87.99 1.74 1.41 2.6 1.41 3.39 0 6.77-6.57 10-12.2 2.24-3.92 5.57-7.61 7.73-9.62 1.88-8.2 1.05-10.78-.83-10.78z" fill="#A8141A"/><linearGradient id="q" x1="72.301" x2="83.391" y1="34.028" y2="34.028" gradientTransform="rotate(1.335 -355.092 -30.034)" gradientUnits="userSpaceOnUse"><stop stop-color="#BD161D" offset=".003"/><stop stop-color="#D21920" offset=".19"/><stop stop-color="#E11B22" offset=".399"/><stop stop-color="#EA1C24" offset=".643"/><stop stop-color="#ED1C24" offset="1"/></linearGradient><path fill="url(#q)" d="M70.77 40.61l11.07.82-6 6.02z"/><path d="M71.57 41.06l9.41.69-5.11 5.12-4.3-5.81m-1.6-.89l5.83 7.87 6.91-6.93-12.74-.94z" fill="#FFC003"/><path d="M65.79 32.21c1.88-1 1.71-.67 1.71-.67l1.96 4.08s-1.67-1-2.75-2.62c-.64-.95-2.21.42-2.21.42s.41-.74 1.29-1.21z" fill="#A8141A"/><path fill="#C62828" stroke="#A8141A" stroke-miterlimit="10" stroke-width="1.022" d="M82.28 67.85l-17.36-6.93 1.16-3.17 17.44 6.83z"/><path d="M76.68 61.46c.19.32.25.72.11 1.1l-.65 1.84c-.08.23-.22.42-.39.56h-.01c-.33.27-.79.37-1.23.22l-2.75-.97c-.41-.14-.69-.46-.8-.84a1.3 1.3 0 0 1 .02-.78l.65-1.84c.12-.33.36-.58.65-.72.3-.14.64-.17.97-.05l2.75.97c.31.09.53.28.68.51z" fill="#FFC003" stroke="#F7931E" stroke-miterlimit="10"/></svg>