<svg width="128" height="128" xmlns="http://www.w3.org/2000/svg" width="512px" height="512px"><radialGradient id="a" cx="63.333" cy="3.333" gradientUnits="userSpaceOnUse" r="120.141"><stop offset="0" stop-color="#eee"/><stop offset=".317" stop-color="#ebebeb"/><stop offset=".578" stop-color="#e1e1e1"/><stop offset=".819" stop-color="#cfcfcf"/><stop offset="1" stop-color="#bdbdbd"/></radialGradient><path fill="url(#a)" d="M4 4h120v120H4z"/><path d="M121 7v114H7V7h114m3-3H4v120h120V4z" fill="#424242" opacity=".2"/><radialGradient id="b" cx="63.667" cy="5.667" gradientUnits="userSpaceOnUse" r="109.364"><stop offset="0" stop-color="#616161"/><stop offset=".22" stop-color="#5e5e5e"/><stop offset=".407" stop-color="#535353"/><stop offset=".582" stop-color="#424242"/><stop offset=".749" stop-color="#292929"/><stop offset=".794" stop-color="#212121"/><stop offset="1" stop-color="#212121"/></radialGradient><path d="M4 4v24h16v60c0 2.21 1.79 4 4 4h12c2.21 0 4-1.79 4-4V28h14v60c0 2.21 1.79 4 4 4h12c2.21 0 4-1.79 4-4V28h14v60c0 2.21 1.79 4 4 4h12c2.21 0 4-1.79 4-4V28h16V4H4z" fill="url(#b)"/><path d="M121 7v18h-13c-1.66 0-3 1.34-3 3v60c0 .55-.45 1-1 1H92c-.55 0-1-.45-1-1V28c0-1.66-1.34-3-3-3H74c-1.66 0-3 1.34-3 3v60c0 .55-.45 1-1 1H58c-.55 0-1-.45-1-1V28c0-1.66-1.34-3-3-3H40c-1.66 0-3 1.34-3 3v60c0 .55-.45 1-1 1H24c-.55 0-1-.45-1-1V28c0-1.66-1.34-3-3-3H7V7h114m3-3H4v24h16v60c0 2.21 1.79 4 4 4h12c2.21 0 4-1.79 4-4V28h14v60c0 2.21 1.79 4 4 4h12c2.21 0 4-1.79 4-4V28h14v60c0 2.21 1.79 4 4 4h12c2.21 0 4-1.79 4-4V28h16V4z" fill="#eee" opacity=".2"/><path fill="none" d="M40 28h14v56H40zM74 28h14v56H74z"/><path fill="#424242" d="M7 20h114v8H7zM28 92h4v32h-4zM62.06 92h4v32h-4zM96 92h4v32h-4z"/></svg>