<svg viewBox="0 0 128 128" xmlns="http://www.w3.org/2000/svg" width="512px" height="512px"><linearGradient id="a" x1="64" x2="64" y1="19.717" y2="107.7" gradientUnits="userSpaceOnUse"><stop stop-color="#F6A323" offset=".566"/><stop stop-color="#FEE133" offset=".917"/></linearGradient><path d="M64 119.89C36.07 119.89 6 102.4 6 64S36.07 8.11 64 8.11c15.48 0 29.81 5.12 40.36 14.43C115.9 32.72 122 47.06 122 64c0 16.86-6.1 31.17-17.64 41.39-10.58 9.35-24.91 14.5-40.36 14.5z" fill="url(#a)"/><path d="M64 10.11c14.99 0 28.86 4.95 39.03 13.93C114.13 33.83 120 47.65 120 64c0 16.27-5.87 30.07-16.97 39.89-10.21 9.03-24.07 14-39.03 14-15.04 0-28.9-4.91-39.04-13.82C13.86 94.32 8 80.46 8 64c0-16.54 5.86-30.42 16.96-40.15C35.07 14.99 48.93 10.11 64 10.11m0-4c-31.15 0-60 20-60 57.89 0 37.68 28.85 57.89 60 57.89s60-20.73 60-57.89c0-37.37-28.85-57.89-60-57.89z" fill="#EB8F00"/><path d="M65.33 84.65c11.32 1.92 18.39 9.17 20.19 13.28.7 1.59.62 3.17-.21 4.23-.62.8-1.58 1.16-2.61.98-.35-.06-.69-.18-1.04-.35-5.4-2.75-11.78-4.81-18.44-5.94-6.63-1.13-13.3-1.29-19.29-.47-.38.05-.75.05-1.1-.01-1.03-.18-1.81-.83-2.14-1.79-.43-1.27.02-2.79 1.2-4.06 3.06-3.29 12.13-7.79 23.44-5.87zm17.44-29.96c4.19 0 8 3.54 8 9.42s-3.81 9.42-8 9.42-8-3.54-8-9.42 3.81-9.42 8-9.42zm-37.54 0c-4.19 0-8 3.54-8 9.42s3.81 9.42 8 9.42 8-3.54 8-9.42-3.81-9.42-8-9.42z" fill="#242424"/><path d="M8.49 44.03c2.64-10.73 15.15-24.09 19.1-24.9L71.54 8.68c5.28.23 13.47.69 19.04 7L8.49 44.03z" fill="#fff"/><path d="M71.73 10.69c4.17.19 10.25.58 15.04 4.19L11.71 40.8c1.34-3.16 3.43-6.65 6.08-10.11 4.76-6.21 8.99-9.32 10.19-9.6l.12-.02 43.63-10.38m-.38-4.02l-44.17 10.5C21.51 18.33 6.62 35.33 6.01 47l87.83-30.33c-6.16-9.34-16.74-9.75-22.49-10z" fill="#B3B3B3"/><path d="M6.16 76.54c-2.03-5.98-2.06-17.37.08-22.92l81.34-41.49c6.76 1.74 14.08 4.42 18.97 10.53L6.16 76.54z" fill="#fff"/><path d="M87.82 14.25c5.49 1.47 11.26 3.62 15.55 7.84L7.43 73.59c-1.15-5.54-1.04-13.95.43-18.55l79.96-40.79M87.35 10L4.68 52.17c-2.89 6.34-2.67 21.33.5 27.17l104.33-56C104.18 15.17 95.35 12 87.35 10z" fill="#B3B3B3"/><path d="M6.37 54.81c-.43-10.19 3.47-17.95 6.09-20.41l92.75-13.47c5.94 4 11.39 9.02 13.82 22.79L6.37 54.81z" fill="#fff"/><path d="M104.73 23.01c5.16 3.57 9.58 7.95 11.93 18.93L8.34 52.6c.16-7.91 2.99-14 5.07-16.32l91.32-13.27m.95-4.18L11.6 32.5C8.1 35.25 3.35 44.83 4.51 57l116.83-11.5c-2.33-16-8.33-21.83-15.66-26.67z" fill="#B3B3B3"/></svg>