<svg width="128" height="128" xmlns="http://www.w3.org/2000/svg"><path d="M57.74 117.39c-.16-.11-.35-.17-.54-.18-1.52-.08-8.62-.35-10.47 1.23-.83.72-1.09 1.6-1.11 2.41-.01.91 1.07 1.39 1.76.78 1.07-.95 2.79-1.94 4.98-1.47 11.64 2.5 6.88-1.73 5.38-2.77z" fill="#666"/><path d="M67.94 119.7c1.09.07.68 1.66-.26 2.21-1.07.62-2.67 2.2-6.06 2.29-6.23.17-4.33-1.91-9.01-1.65-.56.03-1.34-.42-1.82-.13-.77.47-1.5.56-1.43-.34.07-.87.34-1.84 1.11-2.56 2.24-2.13 5.67-4.38 8.64-2.69 2.57 1.49 6.49 2.72 8.83 2.87z" fill="#666"/><linearGradient id="a" gradientUnits="userSpaceOnUse" x1="63.111" x2="63.111" y1="34.943" y2="120.087"><stop offset=".079" stop-color="#ff8f00"/><stop offset=".11" stop-color="#ff9300"/><stop offset=".144" stop-color="#ffa000"/><stop offset=".179" stop-color="#ffb600"/><stop offset=".214" stop-color="#ffd400"/><stop offset=".25" stop-color="#fffa00"/><stop offset=".254" stop-color="#ff0"/><stop offset=".271" stop-color="#ffff05"/><stop offset=".293" stop-color="#ffff15"/><stop offset=".316" stop-color="#ffff2e"/><stop offset=".342" stop-color="#ffff52"/><stop offset=".368" stop-color="#ffff7f"/><stop offset=".396" stop-color="#ffffb7"/><stop offset=".424" stop-color="#fffff8"/><stop offset=".427" stop-color="#fff"/><stop offset=".561" stop-color="#f5f5f5"/><stop offset=".784" stop-color="#dcdcdc"/><stop offset="1" stop-color="#bdbdbd"/></linearGradient><path d="M48.23 30.43c-.16 7.75 1.35 11.35-1.27 16.8-8.42 17.5-22.17 53.22-2.48 62.41 9.91 4.62 19.21 11.73 37.49 11.73 16.37 0 7.4-21.82 7.4-21.82l-16.3-70.38-24.84 1.26z" fill="url(#a)"/><path d="M72.19 27.61l14.22 72.58c.01.07.03.14.05.21.01.03.82 3 1.06 6.72.3 4.6-.39 8.15-2 10.26-1.32 1.73-3.34 2.57-6.2 2.57-4.89 0-8.72-.26-12.05-.81a2.954 2.954 0 0 0-2.36.64c-.29.25-.53.54-.71.87-.68.23-1.95.51-4.17.57-.21.01-.41.01-.61.01-1.92 0-2.4-.25-3-.57-.43-.23-.88-.45-1.41-.63.91-.28 1.65-.99 1.94-1.94.38-1.22-.08-2.55-1.13-3.28-1.09-.75-2.4-1.34-3.91-2.02-4.6-2.07-10.9-4.9-14.22-14.52-5.35-15.49 2.22-31.68 7.23-42.39 1.37-2.92 2.55-5.45 3.19-7.43 2.02-6.25 2.66-10.83 2.1-15.82l21.98-5.02m2.3-3.54L46.9 30.38c1 5.27.81 9.77-1.58 17.17-2.76 8.53-17.68 30.61-10.4 51.68 4.8 13.89 15.31 15.28 19.24 17.99-2.69.01-6.27.24-7.5 1.3-.83.72-1.09 1.6-1.11 2.41-.01.63.51 1.05 1.06 1.05.24 0 .49-.08.7-.27.35-.31.77-.62 1.25-.88-.17.43-.25.87-.28 1.29-.05.66.47 1.15 1.05 1.15.18 0 .37-.05.55-.16.47-.28 1-.51 1.54-.54.27-.01.51-.02.74-.02 3.44 0 2.4 1.62 7.27 1.62.22 0 .45 0 .69-.01 3.27-.09 5.11-.62 6.15-1.22.36-.21.53-.56.53-.9 3.65.61 7.77.85 12.53.85 16.37 0 9.97-23.26 9.97-23.26L74.49 24.07z" fill="#9e9e9e"/><linearGradient id="b" gradientUnits="userSpaceOnUse" x1="65.217" x2="65.217" y1="3.55" y2="125.195"><stop offset="0"/><stop offset=".184" stop-color="#080808"/><stop offset=".471" stop-color="#1e1e1e"/><stop offset=".822" stop-color="#424242"/><stop offset=".919" stop-color="#4d4d4d"/></linearGradient><path d="M96.08 125.2c-3.1 0-9.25-.94-9.51-.98-14.58-2.23-16.91-14.96-15.99-22.14.84-6.52 1.29-17.7.81-21.61-.67 1.56-1.58 4.31-2.3 6.48-2.83 8.53-4.27 12.28-6.21 12.42-.06 0-.13.01-.19.01-.93 0-1.9-.47-2.78-1.37-1.47-1.49-4.88-6.45-4.7-20.29.16-12.46 5.41-25.23 9.49-32.66-1.11.49-2.28.88-3.51 1.17-.05.01-.1.02-.15.02-.7.05-1.4.08-2.07.08-11.36 0-16.52-7.2-20.41-14.97-.16-.32-.35-.65-.59-1.01-1.62-.4-3.3-.79-4.9-1.16-2.69-.63-5.22-1.22-6.75-1.67-.43-.13-1.76-.51-1.6-1.63.12-.82 1.29-1.28 2.62-1.55-.32 0-.63.02-.92.06-.12.02-.23.02-.33.02-.98 0-1.48-.59-1.61-1.15-.22-.89.38-1.93 1.42-2.48.94-.5 2.41-.62 4.27-.77 3.14-.26 7.04-.59 8.19-2.93 3.07-6.24 8.11-10.69 14.18-12.55 2.14-.65 4.39-.98 6.68-.98 5.04 0 10 1.6 13.97 4.52C78.71 12.13 82 18.81 82 25.94c0 2.12-.29 4.16-.86 6.09.18 2.4 1.46 5.06 3.37 9.03 2.33 4.85 5.52 11.49 8.66 21.79 4.53 14.88 3.04 23.21 1.45 32.04-.55 3.06-1.12 6.22-1.41 9.69-.84 9.78 7.38 12.6 10.88 13.81 1.25.43 1.76.61 1.93 1.24.08.31-.01.7-.22.94-.23.26-.54.45-1.02.56.09.03.18.06.27.08.19.06.36.18.48.34.2.27.36.77.12 1.28-.38.81-1.51 1.21-3.79 1.33-.17.01-.33.01-.5.01-.96 0-1.93-.14-2.84-.35 0 .1-.02.19-.04.27-.1.45-.46 1.01-1.61 1.09-.25.01-.51.02-.79.02z" fill="url(#b)"/><path d="M59.2 4.52c4.77 0 9.54 1.5 13.4 4.33 5.48 4.02 8.42 10.49 8.42 17.08 0 2.28-.35 4.27-.87 5.98.31 5.73 6.29 12.23 12.08 31.22 6.07 19.92 1.14 28.08 0 41.36-1.14 13.28 13.45 14.72 12.83 15.44-.25.3-1.13.38-2.15.38-1.44 0-3.15-.18-3.74-.18-.22 0-.28.02-.11.09.95.38 5.69 1.89 5.69 1.89s.66.88-2.95 1.07c-.15.01-.3.01-.45.01-3.42 0-7.07-1.94-7.22-2.02.17.09 5.26 2.85 2.65 3.03-.2.01-.44.02-.69.02-3.06 0-9.36-.97-9.36-.97-13.66-2.09-16.13-13.66-15.18-21.06.93-7.28 1.68-23.73.08-23.73-.03 0-.05 0-.08.01-1.71.57-6.07 19.73-8.73 19.92h-.13c-2.66 0-6.7-5.93-6.52-20.68.18-13.98 6.85-28.45 11.15-35.24-1.6 1.09-3.64 2.16-6.36 2.8-.69.05-1.36.07-2 .07-11.1 0-15.94-7.23-19.55-14.44-.25-.5-.54-.97-.86-1.43-4.47-1.1-9.52-2.19-11.98-2.91-3.12-.91 2.55-1.64 4.75-1.64.12 0 .24 0 .34.01.76.04 1.45.15 2.12.29-2.11-1.2-4.42-1.87-6.45-1.87-.36 0-.71.02-1.05.06-.07.01-.14.01-.21.01-1.07 0-.84-1.23.26-1.81 2.3-1.21 10.79.12 12.88-4.13 2.78-5.65 7.51-10.19 13.6-12.05 2.06-.61 4.23-.91 6.39-.91m0-1.94v1.93-1.93c-2.39 0-4.73.34-6.96 1.02-6.33 1.93-11.58 6.56-14.77 13.04-.91 1.85-4.67 2.17-7.41 2.39-1.97.16-3.53.29-4.64.88-1.45.77-2.24 2.24-1.91 3.57.12.48.36.89.7 1.2-.24.28-.4.63-.46 1.05-.1.72.05 2.04 2.28 2.69 1.56.46 3.99 1.02 6.81 1.68 1.47.34 3.02.71 4.52 1.07.13.21.24.4.33.6 4.03 8.05 9.39 15.51 21.27 15.51.7 0 1.42-.03 2.14-.08.1-.01.21-.02.31-.05.43-.1.85-.21 1.26-.34-3.9 7.7-8.28 19.41-8.43 30.87-.13 10 1.69 17.65 4.98 20.98 1.35 1.37 2.63 1.66 3.47 1.66.09 0 .18 0 .26-.01 2.55-.18 3.96-3.73 7.06-13.08.19-.58.4-1.21.62-1.85-.01 4.85-.38 11.66-1 16.55-1.29 10.08 3.4 21.17 16.8 23.21.26.04 6.49.99 9.66.99.31 0 .58-.01.83-.03 1.3-.09 1.93-.68 2.24-1.21.71.12 1.45.2 2.19.2.18 0 .37 0 .55-.01 1.99-.1 3.92-.41 4.61-1.89.3-.65.28-1.38-.04-1.99.02-.02.04-.04.05-.06.43-.51.59-1.19.41-1.83-.31-1.13-1.2-1.43-2.55-1.9-5.44-1.87-10.92-4.86-10.24-12.81.29-3.42.86-6.56 1.4-9.6 1.54-8.55 3.12-17.39-1.48-32.49-3.16-10.37-6.37-17.05-8.71-21.93-1.81-3.78-3.04-6.33-3.26-8.52.56-1.96.85-4.04.85-6.19 0-7.44-3.44-14.4-9.21-18.64-4.12-2.98-9.29-4.65-14.53-4.65z" fill="#666"/><g><circle cx="53.23" cy="20.51" r="6.41" fill="#fff"/><ellipse cx="52.97" cy="18.96" rx="2.94" ry="2.94" transform="rotate(-57.173 52.967 18.961)"/></g><path d="M33.8 26.34c.77.06 1.53.18 2.27.4.49.14 1 .34 1.31.75.26.34.3.81.09 1.19-.3.54-.81.44-1.35.31-2.96-.75-9.01-2.2-9.05-2.25.23-.19.66-.19.96-.22.76-.09 1.52-.14 2.29-.17 1.15-.06 2.32-.1 3.48-.01z" fill="#ff9f02"/></svg>