<svg width="128" height="128" xmlns="http://www.w3.org/2000/svg"><linearGradient id="a" gradientUnits="userSpaceOnUse" x1="64" x2="64" y1="4.25" y2="124.409"><stop offset="0" stop-color="#40c4ff"/><stop offset=".352" stop-color="#2db5f9"/><stop offset="1" stop-color="#0091ea"/></linearGradient><path d="M116 124H12c-4.42 0-8-3.58-8-8V12c0-4.42 3.58-8 8-8h104c4.42 0 8 3.58 8 8v104c0 4.42-3.58 8-8 8z" fill="url(#a)"/><path d="M116 7c2.76 0 5 2.24 5 5v104c0 2.76-2.24 5-5 5H12c-2.76 0-5-2.24-5-5V12c0-2.76 2.24-5 5-5h104m0-3H12c-4.42 0-8 3.58-8 8v104c0 4.42 3.58 8 8 8h104c4.42 0 8-3.58 8-8V12c0-4.42-3.58-8-8-8z" fill="#424242" opacity=".2"/><path d="M76 22c2.21 0 4 1.79 4 4v8c0 2.21-1.79 4-4 4H44c-6.5 0-12 7.33-12 16s5.5 16 12 16h34c1.1 0 2-.9 2-2V54.01c0-2.39 1.96-4.01 4.02-4.01.9 0 1.82.31 2.61 1l24 23.99a4.001 4.001 0 0 1 0 6.02l-24 23.99c-.79.69-1.71 1-2.61 1-2.06 0-4.02-1.62-4.02-4.01V88c0-1.1-.9-2-2-2H44c-15.46 0-28-14.33-28-32s12.54-32 28-32h32m0-3H44c-17.09 0-31 15.7-31 35s13.91 35 31 35h33v12.99c0 3.86 3.15 7.01 7.02 7.01 1.68 0 3.3-.62 4.59-1.74l.07-.07.07-.07 23.94-23.93A6.994 6.994 0 0 0 115 78c0-1.98-.84-3.87-2.31-5.19L88.76 48.88l-.07-.07-.08-.07A6.978 6.978 0 0 0 84.02 47C80.15 47 77 50.14 77 54.01V67H44c-4.79 0-9-6.07-9-13s4.21-13 9-13h32c3.86 0 7-3.14 7-7v-8c0-3.86-3.14-7-7-7z" fill="#424242" opacity=".2"/><path d="M44 22h32c2.21 0 4 1.79 4 4v8c0 2.21-1.79 4-4 4H44c-6.5 0-12 7.33-12 16s5.5 16 12 16h34c1.1 0 2-.9 2-2V54.01c0-3.44 4.05-5.27 6.63-3.01l24 23.99a4.001 4.001 0 0 1 0 6.02l-24 23.99c-2.59 2.26-6.63.43-6.63-3.01V88c0-1.1-.9-2-2-2H44c-15.46 0-28-14.33-28-32s12.54-32 28-32z" fill="#fafafa"/></svg>