<svg width="128" height="128" xmlns="http://www.w3.org/2000/svg"><radialGradient id="a" cx="47.167" cy="37.739" gradientTransform="matrix(1 0 0 1.0016 0 -.1)" gradientUnits="userSpaceOnUse" r="64.296"><stop offset="0" stop-color="#64b5f6"/><stop offset=".187" stop-color="#5fb2f5"/><stop offset=".406" stop-color="#51a9f1"/><stop offset=".639" stop-color="#3a9aec"/><stop offset=".85" stop-color="#1e88e5"/><stop offset="1" stop-color="#1e88e5"/></radialGradient><path d="M64 92.04H36c-2.21 0-4-1.79-4-4.01V39.96c0-2.21 1.79-4.01 4-4.01h28v56.09z" fill="url(#a)"/><path fill="#1e88e5" d="M40 35.95h4v56.09h-4z"/><radialGradient id="b" cx="86" cy="8.656" gradientTransform="matrix(1 0 0 1.0016 0 -.1)" gradientUnits="userSpaceOnUse" r="105.052"><stop offset="0" stop-color="#bbdefb"/><stop offset=".118" stop-color="#b3dafb"/><stop offset=".299" stop-color="#9ed0fa"/><stop offset=".519" stop-color="#7bc0f8"/><stop offset=".769" stop-color="#4caaf5"/><stop offset=".815" stop-color="#42a5f5"/><stop offset="1" stop-color="#2196f3"/></radialGradient><path d="M84.8 6.26C65.02 28.02 52 35.95 52 35.95v56.09s13.11 8.01 32.81 29.71c3.82 4.2 11.19 2.16 11.19-3.29V9.52c0-5.46-7.37-7.47-11.2-3.26z" fill="url(#b)"/><path d="M89.93 7C90.99 7 93 7.53 93 9.53v108.94c0 1.86-1.85 2.54-3.09 2.54-.65 0-1.88-.16-2.88-1.26-19.76-21.78-32.92-29.93-33.47-30.27l-.72-.44H36c-.55 0-1-.45-1-1.01V39.96c0-.55.45-1.01 1-1.01h16.84l.72-.44c.55-.33 13.61-8.4 33.46-30.24C88.03 7.17 89.28 7 89.93 7m0-3c-1.83 0-3.71.71-5.12 2.26C65.02 28.02 52 35.95 52 35.95H36c-2.21 0-4 1.79-4 4.01v48.08c0 2.21 1.79 4.01 4 4.01h16s13.11 8.01 32.81 29.71a6.851 6.851 0 0 0 5.1 2.25c3.13 0 6.09-2.08 6.09-5.54V9.53C96 6.08 93.06 4 89.93 4z" fill="#424242" opacity=".2"/></svg>