<svg viewBox="0 0 128 128" xmlns="http://www.w3.org/2000/svg"><linearGradient id="a" x1="64" x2="64" y1="19.717" y2="107.7" gradientUnits="userSpaceOnUse"><stop stop-color="#FEE133" offset=".5"/><stop stop-color="#FEDE32" offset=".612"/><stop stop-color="#FCD32F" offset=".708"/><stop stop-color="#FAC12B" offset=".797"/><stop stop-color="#F7A924" offset=".883"/><stop stop-color="#F6A323" offset=".9"/></linearGradient><path d="M64 119.89C36.07 119.89 6 102.4 6 64S36.07 8.11 64 8.11c15.48 0 29.81 5.12 40.36 14.43C115.9 32.72 122 47.06 122 64c0 16.86-6.1 31.17-17.64 41.39-10.58 9.35-24.91 14.5-40.36 14.5z" fill="url(#a)"/><path d="M64 10.11c14.99 0 28.86 4.95 39.03 13.93C114.13 33.83 120 47.65 120 64c0 16.27-5.87 30.07-16.97 39.89-10.21 9.03-24.07 14-39.03 14-15.04 0-28.9-4.91-39.04-13.82C13.86 94.32 8 80.46 8 64c0-16.54 5.86-30.42 16.96-40.15C35.07 14.99 48.93 10.11 64 10.11m0-4c-31.15 0-60 20-60 57.89 0 37.68 28.85 57.89 60 57.89s60-20.73 60-57.89c0-37.37-28.85-57.89-60-57.89z" fill="#EB8F00"/><radialGradient id="b" cx="25.701" cy="72.699" r="19.444" gradientTransform="matrix(.9791 0 0 .9301 2.087 10.544)" gradientUnits="userSpaceOnUse"><stop stop-color="#ED7770" offset="0"/><stop stop-color="#ED7770" stop-opacity="0" offset=".9"/></radialGradient><circle cx="27.25" cy="78.16" r="17.5" fill="url(#b)" opacity=".8"/><radialGradient id="c" cx="100.77" cy="72.699" r="19.444" gradientTransform="matrix(.9791 0 0 .9301 2.087 10.544)" gradientUnits="userSpaceOnUse"><stop stop-color="#ED7770" offset="0"/><stop stop-color="#ED7770" stop-opacity="0" offset=".9"/></radialGradient><circle cx="100.75" cy="78.16" r="17.5" fill="url(#c)" opacity=".8"/><circle cx="89.25" cy="59.15" r="21.38" fill="#fff"/><path d="M89.25 41.77c9.58 0 17.38 7.8 17.38 17.38s-7.8 17.38-17.38 17.38-17.38-7.8-17.38-17.38 7.8-17.38 17.38-17.38m0-4c-11.81 0-21.38 9.57-21.38 21.38s9.57 21.38 21.38 21.38 21.38-9.57 21.38-21.38-9.57-21.38-21.38-21.38z" fill="#EB8F00"/><ellipse cx="89.25" cy="59.15" rx="7.48" ry="7.6" fill="#242424"/><circle cx="38.73" cy="59.06" r="21.38" fill="#fff"/><path d="M38.73 41.68c9.58 0 17.38 7.8 17.38 17.38s-7.8 17.38-17.38 17.38-17.38-7.8-17.38-17.38 7.8-17.38 17.38-17.38m0-4c-11.81 0-21.38 9.57-21.38 21.38s9.57 21.38 21.38 21.38 21.38-9.57 21.38-21.38-9.57-21.38-21.38-21.38z" fill="#EB8F00"/><ellipse cx="38.73" cy="59.06" rx="7.48" ry="7.6" fill="#242424"/><path d="M62.67 81.05c-12.72 0-24.54-1.07-34.4-2.89-2.45-.45-4.61 1.7-4.11 4.13 3.28 16.04 19.07 29.21 38.5 29.21 21.27 0 35.58-13.6 38.55-29.27.46-2.42-1.7-4.53-4.12-4.08-9.87 1.83-21.7 2.9-34.42 2.9z" fill="none"/><path d="M62.67 81.05c-12.72 0-24.54-1.07-34.4-2.89-2.45-.45-4.61 1.7-4.11 4.13 3.28 16.04 19.07 29.21 38.5 29.21 21.27 0 35.58-13.6 38.55-29.27.46-2.42-1.7-4.53-4.12-4.08-9.87 1.83-21.7 2.9-34.42 2.9z" fill="none"/><g fill="#EB8F00" stroke="#EB8F00" stroke-miterlimit="10"><path d="M42.45 28.68c.05 0 .09-.01.14-.01 2.2-.14 2.64-3.33.22-3.66a19.41 19.41 0 0 0-5.87.22c-5.47 1.01-10.16 4.17-12.99 8.15-1.39 2.01 1.28 3.85 2.85 2.31 4.03-3.87 9.63-6.51 15.65-7.01zM85.55 28.68c-.05 0-.09-.01-.14-.01-2.2-.14-2.64-3.33-.22-3.66 1.89-.22 3.88-.16 5.87.22 5.47 1.01 10.16 4.17 12.99 8.15 1.39 2.01-1.28 3.85-2.85 2.31-4.03-3.87-9.63-6.51-15.65-7.01z"/></g><path fill="none" stroke="#242424" stroke-linecap="round" stroke-linejoin="round" stroke-miterlimit="10" stroke-width="8" d="M56 96h15"/></svg>