<svg width="128" height="128" xmlns="http://www.w3.org/2000/svg" width="512px" height="512px"><path d="M57.28 57.17a4.273 4.273 0 0 1-6.03 0L33.03 38.95a4.273 4.273 0 0 1 0-6.03 4.273 4.273 0 0 1 6.03 0l18.22 18.22a4.273 4.273 0 0 1 0 6.03z" fill="#fecc81"/><path d="M36.05 33.68c.61 0 1.18.23 1.6.66l18.22 18.22c.88.88.88 2.32 0 3.2-.42.42-.99.66-1.6.66s-1.18-.23-1.6-.66L34.45 37.53c-.42-.42-.66-.99-.66-1.6 0-.61.23-1.18.66-1.6.42-.42.99-.65 1.6-.65m0-2c-1.09 0-2.19.41-3.01 1.24a4.273 4.273 0 0 0 0 6.03l18.22 18.22c.83.83 1.92 1.24 3.01 1.24s2.19-.41 3.01-1.24a4.273 4.273 0 0 0 0-6.03L39.06 32.92a4.238 4.238 0 0 0-3.01-1.24z" fill="#434343" opacity=".2"/><linearGradient id="a" gradientTransform="rotate(-45.001 -242.042 613.214)" gradientUnits="userSpaceOnUse" x1="362.717" x2="362.717" y1="351.956" y2="398.281"><stop offset=".025" stop-color="#90a4ae"/><stop offset=".274" stop-color="#8a9fa9"/><stop offset=".597" stop-color="#7b929e"/><stop offset=".959" stop-color="#63808d"/><stop offset="1" stop-color="#607d8b"/></linearGradient><path d="M50.93 3.96l-38.82.14c-2.09 0-4.36 0-6.27 1.86-1.86 1.91-1.81 4.13-1.81 6.22l-.11 38.8c0 4.68 4.03 8.68 7.15 9.15 0 0 3.74.67 6.62-2.21l20.05-20.05L57.9 17.71c2.88-2.88 2.19-6.61 2.19-6.61-.47-3.12-4.24-7.14-9.16-7.14z" fill="url(#a)"/><path d="M50.94 6.96c3.56 0 5.95 3.03 6.19 4.58v.03s0 .01.01.03c.01.09.33 2.3-1.36 3.98L35.62 35.74 17.43 53.93l-1.86 1.86c-1.15 1.15-2.54 1.4-3.51 1.4-.27 0-.45-.02-.46-.02-.03 0-.05-.01-.08-.01-1.61-.24-4.6-2.96-4.6-6.17l.11-38.81v-.17c0-1.93.04-3 .93-3.93.98-.93 2.16-.98 4.16-.98l38.82-.14m-.01-3l-38.82.14c-2.09 0-4.36 0-6.27 1.86-1.86 1.91-1.81 4.13-1.81 6.22l-.11 38.8c0 4.68 4.03 8.68 7.15 9.15 0 0 .38.07.99.07 1.3 0 3.67-.31 5.63-2.28l20.05-20.05L57.9 17.71c2.88-2.88 2.19-6.61 2.19-6.61-.47-3.12-4.24-7.14-9.16-7.14z" fill="#434343" opacity=".2"/><radialGradient id="b" cx="362.275" cy="424.777" gradientTransform="rotate(-45.001 -242.042 613.214)" gradientUnits="userSpaceOnUse" r="25.387"><stop offset=".246" stop-color="#fcb64e"/><stop offset=".374" stop-color="#fcb348"/><stop offset=".54" stop-color="#faa939"/><stop offset=".726" stop-color="#f89a20"/><stop offset=".751" stop-color="#f8981d"/></radialGradient><path d="M75.66 38.07c9.54 9.54 8.94 25.6-1.34 35.88s-26.34 10.87-35.88 1.34-8.94-25.6 1.34-35.88 26.34-10.88 35.88-1.34z" fill="url(#b)"/><path d="M58.95 31.29v3c5.6 0 10.78 2.1 14.59 5.9 4.02 4.02 6.11 9.5 5.89 15.43-.22 6.02-2.79 11.77-7.22 16.21-4.6 4.6-10.81 7.24-17.04 7.24-5.6 0-10.79-2.1-14.59-5.9-4.02-4.02-6.11-9.5-5.89-15.43.22-6.02 2.79-11.77 7.22-16.21 4.6-4.6 10.81-7.24 17.04-7.24v-3m0 0c-6.8 0-13.78 2.73-19.17 8.12-10.28 10.27-10.87 26.33-1.34 35.87 4.54 4.54 10.55 6.78 16.71 6.78 6.8 0 13.78-2.73 19.17-8.12C84.6 63.67 85.2 47.6 75.66 38.07c-4.54-4.54-10.55-6.78-16.71-6.78z" fill="#434343" opacity=".2"/><path d="M99.12 99.04a4.285 4.285 0 0 1-6.04 0l-24.4-24.4a4.285 4.285 0 0 1 0-6.04 4.285 4.285 0 0 1 6.04 0L99.12 93a4.285 4.285 0 0 1 0 6.04z" fill="#fecc81"/><path d="M71.7 69.35c.61 0 1.18.23 1.6.66l24.4 24.4c.43.43.66.99.66 1.6 0 .61-.23 1.18-.66 1.6-.43.43-.99.66-1.6.66-.61 0-1.18-.23-1.6-.66l-24.4-24.4c-.88-.88-.88-2.32 0-3.21.42-.41.99-.65 1.6-.65m0-2c-1.09 0-2.19.41-3.02 1.24a4.285 4.285 0 0 0 0 6.04l24.4 24.4c.83.83 1.92 1.24 3.02 1.24 1.09 0 2.19-.41 3.02-1.24a4.285 4.285 0 0 0 0-6.04l-24.4-24.4a4.321 4.321 0 0 0-3.02-1.24z" fill="#434343" opacity=".2"/><linearGradient id="c" gradientTransform="rotate(-45.001 -177.322 586.407) scale(1 .8919)" gradientUnits="userSpaceOnUse" x1="362.717" x2="362.717" y1="454.11" y2="496.129"><stop offset=".006" stop-color="#ffe0b2"/><stop offset=".533" stop-color="#fff3e1"/><stop offset=".649" stop-color="#fff1dc"/><stop offset=".798" stop-color="#ffebce"/><stop offset=".966" stop-color="#ffe2b7"/><stop offset="1" stop-color="#ffe0b2"/></linearGradient><path d="M120.49 84.96L84.95 120.5c-4.61 4.61-11.75 5.02-15.86.91l-11.9-11.9c-4.11-4.11-3.7-11.25.91-15.86L93.64 58.1c4.61-4.61 11.75-5.02 15.86-.91l11.9 11.9c4.11 4.12 3.7 11.26-.91 15.87z" fill="url(#c)"/><path fill="#faa629" d="M64.294 87.447L87.82 63.92l26.855 26.856-23.525 23.525z"/><path d="M102.4 57.36c1.95 0 3.71.7 4.97 1.96l11.9 11.9c2.95 2.95 2.55 8.16-.91 11.62l-35.54 35.54c-1.82 1.82-4.24 2.86-6.64 2.86-1.95 0-3.71-.7-4.97-1.96l-11.9-11.9c-2.95-2.95-2.55-8.16.91-11.62l35.54-35.54c1.82-1.82 4.24-2.86 6.64-2.86m0-3c-3.08 0-6.29 1.26-8.76 3.74L58.1 93.64c-4.61 4.61-5.02 11.75-.91 15.86l11.9 11.9c1.9 1.9 4.45 2.84 7.1 2.84 3.08 0 6.29-1.26 8.76-3.74l35.54-35.54c4.61-4.61 5.02-11.75.91-15.86l-11.9-11.9c-1.9-1.9-4.45-2.84-7.1-2.84z" fill="#434343" opacity=".2"/><path d="M122.76 122.64a4.273 4.273 0 0 1-6.03 0l-18.22-18.22a4.273 4.273 0 0 1 0-6.03 4.273 4.273 0 0 1 6.03 0l18.22 18.22c1.65 1.66 1.65 4.38 0 6.03z" fill="#fecc81"/><path d="M101.52 99.15c.61 0 1.18.23 1.6.66l18.22 18.22c.42.42.66.99.66 1.6s-.23 1.18-.66 1.6-.99.66-1.6.66-1.18-.23-1.6-.66l-18.22-18.22c-.42-.42-.66-.99-.66-1.6s.23-1.18.66-1.6c.42-.43.99-.66 1.6-.66m0-2c-1.09 0-2.19.41-3.01 1.24a4.273 4.273 0 0 0 0 6.03l18.22 18.22c.83.83 1.92 1.24 3.01 1.24s2.19-.41 3.01-1.24a4.273 4.273 0 0 0 0-6.03l-18.22-18.22a4.263 4.263 0 0 0-3.01-1.24z" fill="#434343" opacity=".2"/></svg>