<svg width="128" height="128" xmlns="http://www.w3.org/2000/svg"><linearGradient id="a" gradientUnits="userSpaceOnUse" x1="5.516" x2="118.825" y1="5.28" y2="119.046"><stop offset="0" stop-color="#81d4fa"/><stop offset="1" stop-color="#0094d6"/></linearGradient><path d="M116 124H12c-4.42 0-8-3.58-8-8V12c0-4.42 3.58-8 8-8h104c4.42 0 8 3.58 8 8v104c0 4.42-3.58 8-8 8z" fill="url(#a)"/><path d="M116 7c2.76 0 5 2.24 5 5v104c0 2.76-2.24 5-5 5H12c-2.76 0-5-2.24-5-5V12c0-2.76 2.24-5 5-5h104m0-3H12c-4.42 0-8 3.58-8 8v104c0 4.42 3.58 8 8 8h104c4.42 0 8-3.58 8-8V12c0-4.42-3.58-8-8-8z" fill="#424242" opacity=".2"/><linearGradient id="b" gradientUnits="userSpaceOnUse" x1="21.247" x2="106.247" y1="20.744" y2="106.744"><stop offset="0" stop-color="#c2ecff"/><stop offset=".157" stop-color="#bdeafe"/><stop offset=".348" stop-color="#aee3fa"/><stop offset=".558" stop-color="#95d7f5"/><stop offset=".779" stop-color="#73c7ed"/><stop offset="1" stop-color="#49b3e3"/></linearGradient><path d="M101 109H27c-4.42 0-8-3.58-8-8V27c0-4.42 3.58-8 8-8h74c4.42 0 8 3.58 8 8v74c0 4.42-3.58 8-8 8z" fill="url(#b)"/><g><path d="M88.28 26c1.14 0 2.06.92 2.06 2.06v4.56c0 .29-.06.57-.17.83l-29.66 67.33c-.33.75-1.07 1.23-1.88 1.23h-8.76c-1.5 0-2.49-1.55-1.87-2.92L75.64 39.1c.63-1.36-.37-2.92-1.87-2.92H39.72c-1.14 0-2.06-.92-2.06-2.06v-6.07c0-1.14.92-2.06 2.06-2.06h48.56m0-2.99H39.72c-2.79 0-5.06 2.27-5.06 5.06v6.07c0 2.79 2.27 5.06 5.06 5.06h32.56L45.26 97.83a5.054 5.054 0 0 0 4.59 7.17h8.76c2 0 3.82-1.18 4.63-3.02L92.9 34.65c.28-.65.43-1.33.43-2.04v-4.56c0-2.78-2.26-5.05-5.05-5.05z" fill="#424242" opacity=".2"/><path d="M90.16 33.44L60.5 100.77c-.33.75-1.07 1.23-1.88 1.23h-8.76c-1.5 0-2.49-1.55-1.87-2.92l27.64-59.99c.63-1.36-.37-2.92-1.87-2.92H39.72c-1.14 0-2.06-.92-2.06-2.06v-6.07c0-1.14.92-2.06 2.06-2.06h48.56c1.14 0 2.06.92 2.06 2.06v4.56c-.01.3-.07.58-.18.84z" fill="#fafafa"/></g></svg>