<svg viewBox="0 0 128 128" xmlns="http://www.w3.org/2000/svg" width="512px" height="512px"><path d="M124.63 53.7s-4.3.09-4.3 3.54c0 8.51.09 26.76-22.19 26.76-17.84 0-26.36-9.21-27.79-19.39-.59-4.23-2.06-8.85-6.34-8.85s-5.75 4.61-6.34 8.85C56.23 74.79 47.71 84 29.87 84 7.58 84 7.67 65.74 7.67 57.24c0-3.45-4.3-3.54-4.3-3.54v-8.43S11.63 44 24.24 44s17.63 0 27.67 1c5.92.6 12.09.66 12.09.66s6.17-.06 12.09-.66c10.03-1 15.06-1 27.67-1s20.87 1.27 20.87 1.27v8.43z"/><path d="M20.67 60.3c-.1 1.61-.75 3.11-2.33 3.41a2.929 2.929 0 0 1-3.41-2.33c-.56-3.01.09-5.83 1.84-7.94a8.592 8.592 0 0 1 6.65-3.11c1.61 0 3.04 1 3.04 2.61 0 1.9-1.51 2.7-3.04 3.23-1.43.49-2.63 2.17-2.75 4.13zm64.25 0c-.1 1.61-.75 3.11-2.33 3.41a2.929 2.929 0 0 1-3.41-2.33c-.56-3.01.09-5.83 1.84-7.94a8.592 8.592 0 0 1 6.65-3.11c1.61 0 3.04 1 3.04 2.61 0 1.9-1.51 2.7-3.04 3.23-1.43.49-2.63 2.17-2.75 4.13z" fill="#858585"/></svg>