<svg xmlns="http://www.w3.org/2000/svg" viewBox="0 0 128 128" width="512px" height="512px"><ellipse transform="rotate(-17.127 62.9 66.112)" cx="62.9" cy="66.11" rx="53.6" ry="23.8" fill="#bf4900"/><ellipse transform="rotate(-17.127 62.913 66.105)" cx="62.92" cy="66.11" rx="53.6" ry="23.8" fill="#c04900"/><ellipse transform="rotate(-17.127 62.898 66.002)" cx="62.9" cy="66.01" rx="53.6" ry="23.8" fill="#c04900"/><ellipse transform="rotate(-17.127 62.913 65.995)" cx="62.92" cy="66" rx="53.6" ry="23.8" fill="#c14a00"/><ellipse transform="rotate(-17.127 62.897 65.893)" cx="62.9" cy="65.9" rx="53.6" ry="23.8" fill="#c24a00"/><ellipse transform="rotate(-17.127 62.912 65.886)" cx="62.91" cy="65.89" rx="53.5" ry="23.8" fill="#c24a00"/><ellipse transform="rotate(-17.127 62.801 65.813)" cx="62.8" cy="65.82" rx="53.5" ry="23.8" fill="#c34a00"/><ellipse transform="rotate(-17.127 62.815 65.806)" cx="62.82" cy="65.81" rx="53.5" ry="23.8" fill="#c34b00"/><ellipse transform="rotate(-17.127 62.8 65.704)" cx="62.8" cy="65.71" rx="53.5" ry="23.8" fill="#c44b00"/><ellipse transform="rotate(-17.127 62.815 65.697)" cx="62.82" cy="65.7" rx="53.5" ry="23.8" fill="#c54b00"/><ellipse transform="rotate(-17.127 62.8 65.594)" cx="62.8" cy="65.6" rx="53.4" ry="23.7" fill="#c54b00"/><ellipse transform="rotate(-17.127 62.814 65.588)" cx="62.82" cy="65.59" rx="53.4" ry="23.7" fill="#c64c00"/><ellipse transform="rotate(-17.127 62.799 65.485)" cx="62.8" cy="65.49" rx="53.4" ry="23.7" fill="#c74c00"/><ellipse transform="rotate(-17.127 62.688 65.412)" cx="62.69" cy="65.42" rx="53.4" ry="23.7" fill="#c74c00"/><ellipse transform="rotate(-17.127 62.702 65.405)" cx="62.7" cy="65.41" rx="53.4" ry="23.7" fill="#c84c00"/><ellipse transform="rotate(-17.127 62.687 65.303)" cx="62.69" cy="65.31" rx="53.4" ry="23.7" fill="#c94d00"/><ellipse transform="rotate(-17.127 62.701 65.296)" cx="62.7" cy="65.3" rx="53.3" ry="23.7" fill="#c94d00"/><ellipse transform="rotate(-17.127 62.686 65.193)" cx="62.69" cy="65.2" rx="53.3" ry="23.7" fill="#ca4d00"/><ellipse transform="rotate(-17.127 62.7 65.187)" cx="62.7" cy="65.19" rx="53.3" ry="23.7" fill="#ca4d00"/><ellipse transform="rotate(-17.127 62.59 65.113)" cx="62.59" cy="65.12" rx="53.3" ry="23.7" fill="#cb4e00"/><ellipse transform="rotate(-17.127 62.604 65.106)" cx="62.61" cy="65.11" rx="53.3" ry="23.7" fill="#cc4e00"/><ellipse transform="rotate(-17.127 62.589 65.004)" cx="62.59" cy="65.01" rx="53.3" ry="23.7" fill="#cc4e00"/><ellipse transform="rotate(-17.127 62.603 64.997)" cx="62.61" cy="65" rx="53.2" ry="23.6" fill="#cd4e00"/><ellipse transform="rotate(-17.127 62.588 64.895)" cx="62.59" cy="64.9" rx="53.2" ry="23.6" fill="#ce4f00"/><ellipse transform="rotate(-17.127 62.603 64.888)" cx="62.61" cy="64.89" rx="53.2" ry="23.6" fill="#ce4f00"/><ellipse transform="rotate(-17.127 62.492 64.815)" cx="62.49" cy="64.82" rx="53.2" ry="23.6" fill="#cf4f00"/><ellipse transform="rotate(-17.127 62.506 64.808)" cx="62.51" cy="64.81" rx="53.2" ry="23.6" fill="#cf4f00"/><ellipse transform="rotate(-17.127 62.49 64.705)" cx="62.49" cy="64.71" rx="53.1" ry="23.6" fill="#d05000"/><ellipse transform="rotate(-17.127 62.505 64.699)" cx="62.51" cy="64.7" rx="53.1" ry="23.6" fill="#d15000"/><ellipse transform="rotate(-17.127 62.49 64.596)" cx="62.49" cy="64.6" rx="53.1" ry="23.6" fill="#d15000"/><ellipse transform="rotate(-17.127 62.505 64.59)" cx="62.51" cy="64.59" rx="53.1" ry="23.6" fill="#d25000"/><ellipse transform="rotate(-17.127 62.49 64.487)" cx="62.49" cy="64.49" rx="53.1" ry="23.6" fill="#d35100"/><ellipse transform="rotate(-17.127 62.408 64.51)" cx="62.41" cy="64.51" rx="53.1" ry="23.6" fill="#d35100"/><ellipse transform="rotate(-17.127 62.393 64.407)" cx="62.4" cy="64.41" rx="53" ry="23.6" fill="#d45100"/><ellipse transform="rotate(-17.127 62.407 64.4)" cx="62.41" cy="64.4" rx="53" ry="23.6" fill="#d55100"/><ellipse transform="rotate(-17.127 62.392 64.298)" cx="62.4" cy="64.3" rx="53" ry="23.5" fill="#d55200"/><ellipse transform="rotate(-17.127 62.407 64.29)" cx="62.41" cy="64.29" rx="53" ry="23.5" fill="#d65200"/><ellipse transform="rotate(-17.127 62.391 64.188)" cx="62.39" cy="64.19" rx="53" ry="23.5" fill="#d65200"/><ellipse transform="rotate(-17.127 62.31 64.21)" cx="62.31" cy="64.21" rx="53" ry="23.5" fill="#d75200"/><ellipse transform="rotate(-17.127 62.295 64.108)" cx="62.3" cy="64.11" rx="52.9" ry="23.5" fill="#d85300"/><ellipse transform="rotate(-17.127 62.31 64.101)" cx="62.31" cy="64.1" rx="52.9" ry="23.5" fill="#d85300"/><ellipse transform="rotate(-17.127 62.294 63.999)" cx="62.3" cy="64" rx="52.9" ry="23.5" fill="#d95300"/><ellipse transform="rotate(-17.127 62.308 63.992)" cx="62.31" cy="64" rx="52.9" ry="23.5" fill="#da5300"/><ellipse transform="rotate(-17.127 62.293 63.89)" cx="62.3" cy="63.89" rx="52.9" ry="23.5" fill="#da5400"/><ellipse transform="rotate(-17.127 62.212 63.912)" cx="62.21" cy="63.92" rx="52.8" ry="23.5" fill="#db5400"/><ellipse transform="rotate(-17.127 62.197 63.81)" cx="62.2" cy="63.81" rx="52.8" ry="23.5" fill="#dc5400"/><ellipse transform="rotate(-17.127 62.211 63.803)" cx="62.21" cy="63.81" rx="52.8" ry="23.5" fill="#dc5400"/><ellipse transform="rotate(-17.127 62.196 63.7)" cx="62.2" cy="63.7" rx="52.8" ry="23.5" fill="#d50"/><ellipse transform="rotate(-17.127 62.21 63.693)" cx="62.21" cy="63.7" rx="52.8" ry="23.4" fill="#d50"/><ellipse transform="rotate(-17.127 62.195 63.59)" cx="62.2" cy="63.59" rx="52.8" ry="23.4" fill="#de5500"/><ellipse transform="rotate(-17.127 62.21 63.584)" cx="62.21" cy="63.59" rx="52.7" ry="23.4" fill="#df5500"/><ellipse transform="rotate(-17.127 62.099 63.51)" cx="62.1" cy="63.51" rx="52.7" ry="23.4" fill="#df5600"/><ellipse transform="rotate(-17.127 62.113 63.504)" cx="62.12" cy="63.51" rx="52.7" ry="23.4" fill="#e05600"/><ellipse transform="rotate(-17.127 62.098 63.402)" cx="62.1" cy="63.4" rx="52.7" ry="23.4" fill="#e15600"/><ellipse transform="rotate(-17.127 62.112 63.395)" cx="62.12" cy="63.4" rx="52.7" ry="23.4" fill="#e15600"/><ellipse transform="rotate(-17.127 62.097 63.292)" cx="62.1" cy="63.3" rx="52.7" ry="23.4" fill="#e25700"/><ellipse transform="rotate(-17.127 62.111 63.286)" cx="62.11" cy="63.29" rx="52.6" ry="23.4" fill="#e25700"/><ellipse transform="rotate(-17.127 62 63.213)" cx="62" cy="63.22" rx="52.6" ry="23.4" fill="#e35700"/><ellipse transform="rotate(-17.127 62.015 63.206)" cx="62.02" cy="63.21" rx="52.6" ry="23.4" fill="#e45700"/><ellipse transform="rotate(-17.127 62 63.103)" cx="62" cy="63.11" rx="52.6" ry="23.4" fill="#e45800"/><ellipse transform="rotate(-17.127 62.014 63.096)" cx="62.02" cy="63.1" rx="52.6" ry="23.4" fill="#e55800"/><ellipse transform="rotate(-17.127 62 62.994)" cx="62" cy="63" rx="52.5" ry="23.3" fill="#e65800"/><ellipse transform="rotate(-17.127 62.013 62.987)" cx="62.02" cy="62.99" rx="52.5" ry="23.3" fill="#e65800"/><ellipse transform="rotate(-17.127 61.998 62.885)" cx="62" cy="62.89" rx="52.5" ry="23.3" fill="#e75900"/><ellipse transform="rotate(-17.127 61.888 62.812)" cx="61.89" cy="62.81" rx="52.5" ry="23.3" fill="#e85900"/><ellipse transform="rotate(-17.127 61.902 62.805)" cx="61.9" cy="62.81" rx="52.5" ry="23.3" fill="#e85900"/><ellipse transform="rotate(-17.127 61.887 62.702)" cx="61.89" cy="62.71" rx="52.5" ry="23.3" fill="#e95900"/><ellipse transform="rotate(-17.127 61.901 62.695)" cx="61.9" cy="62.7" rx="52.4" ry="23.3" fill="#e95a00"/><ellipse transform="rotate(-17.127 61.886 62.593)" cx="61.89" cy="62.6" rx="52.4" ry="23.3" fill="#ea5a00"/><ellipse transform="rotate(-17.127 61.9 62.586)" cx="61.9" cy="62.59" rx="52.4" ry="23.3" fill="#eb5a00"/><ellipse transform="rotate(-17.127 61.79 62.513)" cx="61.79" cy="62.52" rx="52.4" ry="23.3" fill="#eb5a00"/><ellipse transform="rotate(-17.127 61.804 62.506)" cx="61.81" cy="62.51" rx="52.4" ry="23.3" fill="#ec5b00"/><ellipse transform="rotate(-17.127 61.789 62.403)" cx="61.79" cy="62.41" rx="52.4" ry="23.3" fill="#ed5b00"/><ellipse transform="rotate(-17.127 61.803 62.396)" cx="61.81" cy="62.4" rx="52.3" ry="23.3" fill="#ed5b00"/><ellipse transform="rotate(-17.127 61.788 62.294)" cx="61.79" cy="62.3" rx="52.3" ry="23.2" fill="#ee5b00"/><ellipse transform="rotate(-17.127 61.802 62.287)" cx="61.81" cy="62.29" rx="52.3" ry="23.2" fill="#ef5c00"/><ellipse transform="rotate(-17.127 61.692 62.214)" cx="61.69" cy="62.22" rx="52.3" ry="23.2" fill="#ef5c00"/><ellipse transform="rotate(-17.127 61.706 62.207)" cx="61.71" cy="62.21" rx="52.3" ry="23.2" fill="#f05c00"/><ellipse transform="rotate(-17.127 61.69 62.105)" cx="61.69" cy="62.11" rx="52.2" ry="23.2" fill="#f05c00"/><ellipse transform="rotate(-17.127 61.705 62.098)" cx="61.71" cy="62.1" rx="52.2" ry="23.2" fill="#f15d00"/><ellipse transform="rotate(-17.127 61.69 61.996)" cx="61.69" cy="62" rx="52.2" ry="23.2" fill="#f25d00"/><ellipse transform="rotate(-17.127 61.704 61.989)" cx="61.71" cy="61.99" rx="52.2" ry="23.2" fill="#f25d00"/><ellipse transform="rotate(-17.127 61.69 61.886)" cx="61.69" cy="61.89" rx="52.2" ry="23.2" fill="#f35d00"/><ellipse transform="rotate(-17.127 61.608 61.909)" cx="61.61" cy="61.91" rx="52.2" ry="23.2" fill="#f45e00"/><ellipse transform="rotate(-17.127 61.593 61.806)" cx="61.6" cy="61.81" rx="52.1" ry="23.2" fill="#f45e00"/><ellipse transform="rotate(-17.127 61.607 61.8)" cx="61.61" cy="61.8" rx="52.1" ry="23.2" fill="#f55e00"/><ellipse transform="rotate(-17.127 61.592 61.697)" cx="61.59" cy="61.7" rx="52.1" ry="23.1" fill="#f55e00"/><ellipse transform="rotate(-17.127 61.606 61.69)" cx="61.61" cy="61.69" rx="52.1" ry="23.1" fill="#f65f00"/><ellipse transform="rotate(-17.127 61.591 61.588)" cx="61.59" cy="61.59" rx="52.1" ry="23.1" fill="#f75f00"/><ellipse transform="rotate(-17.127 61.51 61.61)" cx="61.51" cy="61.61" rx="52.1" ry="23.1" fill="#f75f00"/><ellipse transform="rotate(-17.127 61.495 61.508)" cx="61.5" cy="61.51" rx="52" ry="23.1" fill="#f85f00"/><ellipse transform="rotate(-17.127 61.51 61.5)" cx="61.51" cy="61.5" rx="52" ry="23.1" fill="#f96000"/><ellipse transform="rotate(-17.127 61.494 61.398)" cx="61.5" cy="61.4" rx="52" ry="23.1" fill="#f96000"/><ellipse transform="rotate(-17.127 61.508 61.391)" cx="61.51" cy="61.39" rx="52" ry="23.1" fill="#fa6000"/><ellipse transform="rotate(-17.127 61.493 61.289)" cx="61.5" cy="61.29" rx="52" ry="23.1" fill="#fb6000"/><ellipse transform="rotate(-17.127 61.412 61.312)" cx="61.41" cy="61.31" rx="51.9" ry="23.1" fill="#fb6100"/><ellipse transform="rotate(-17.127 61.397 61.21)" cx="61.4" cy="61.21" rx="51.9" ry="23.1" fill="#fc6100"/><ellipse transform="rotate(-17.127 61.411 61.202)" cx="61.41" cy="61.21" rx="51.9" ry="23.1" fill="#fc6100"/><ellipse transform="rotate(-17.127 61.396 61.1)" cx="61.4" cy="61.1" rx="51.9" ry="23.1" fill="#fd6100"/><ellipse transform="rotate(-17.127 61.41 61.093)" cx="61.41" cy="61.1" rx="51.9" ry="23" fill="#fe6200"/><ellipse transform="rotate(-17.127 61.395 60.99)" cx="61.4" cy="60.99" rx="51.9" ry="23" fill="#fe6200"/><ellipse transform="rotate(-17.127 61.41 60.984)" cx="61.41" cy="60.99" rx="51.8" ry="23" fill="#ff6200"/><g opacity=".2"><path d="M84.2 37.4c5.5 0 10.3.7 14.5 2.1 3.3 1.1 5.6 2.4 7.1 4 2 2.2 4.4 5 5.3 7.9.2.7.3 1.4.4 2 0 1.8-.5 3.7-1.5 5.8-3.3 6.5-9.8 11.3-14.4 14.4-7.5 5-16.5 9.1-26.6 12.2-4.5 1.4-9.1 2.5-13.5 3.3-5.9 1-11.1 1.6-16 1.6-4.4 0-8.5-.4-12.3-1.3-8.1-1.9-12.5-5.5-12.9-10.9-.3-3.9 0-7.2 1-9.6 2.6-6.4 9-11.3 13.5-14.4 7.4-5.1 16.4-9.3 26.6-12.4 5.6-1.7 11.3-3 16.8-3.8 4.4-.6 8.3-.9 12-.9m0-3.2c-4.2 0-8.4.4-12.5 1-5.8.8-11.6 2.1-17.2 3.9-9.7 3-19.1 7.1-27.5 12.8-5.8 4-11.9 9.1-14.7 15.8-1.4 3.4-1.5 7.4-1.2 11 .7 8.3 8 12 15.4 13.7 4.2 1 8.6 1.4 13 1.4 5.5 0 11.1-.6 16.5-1.6 4.7-.8 9.3-2 13.9-3.4 9.6-2.9 19-7 27.4-12.6 6-4 12.2-9.1 15.5-15.6 1.1-2.2 1.9-4.7 1.8-7.2 0-1-.2-2-.5-2.9-1.1-3.4-3.7-6.6-5.9-9-2.2-2.4-5.4-3.9-8.4-4.9-5-1.7-10.3-2.4-15.6-2.4z" fill="#424242"/></g><ellipse transform="rotate(-17.127 61.188 58.696)" cx="61.19" cy="58.7" rx="37.7" ry="15.3" fill="#e05600"/><ellipse transform="rotate(-17.127 59.504 59.111)" cx="59.51" cy="59.11" rx="30.9" ry="11.9" fill="#ff7017"/><path d="M22.5 78.9c1 .9 2 1.4 3.2 1.9 1.1.4 2.3.7 3.5 1 2.4.5 4.8.8 7.3 1s4.9.3 7.4.3c2.5.1 5.1-.1 7.7.1-2.4 1-4.9 1.8-7.5 2.3s-5.2.6-7.9.4c-2.6-.2-5.3-.6-7.8-1.6-1.3-.5-2.5-1.2-3.5-2-.5-.4-1-.9-1.5-1.5-.4-.6-.7-1.2-.9-1.9z" fill="#ffba8f"/><path d="M89.2 14.8c4.8.3 9.5 1.2 14.1 2.8s9 3.9 12.8 7.2c1.8 1.7 3.5 3.6 4.8 5.7 1.3 2.2 2.3 4.5 2.9 6.9s.7 4.9.5 7.4c-.2 2.4-.8 4.8-1.6 7.1.1-2.4.3-4.8.1-7.1-.2-2.3-.6-4.6-1.3-6.7-1.4-4.3-4.1-8.1-7.5-11-1.7-1.5-3.6-2.8-5.5-4-1.9-1.3-4.1-2.2-6.1-3.2-4.1-2.1-8.6-3.6-13.2-5.1z" fill="#90a4ae"/><path d="M4.8 41.2c-1 .3-1.2-.9-.5-1.4 1-.7 2.5-1.1 3.6-1.6 2.5-1.1 4.9-2.1 7.4-3 4.9-1.9 9.9-3.8 14.8-5.5 6.6-2.3 13.4-4.4 20.2-5.8 11.3-2.4 22.9-3.8 34.5-2.6 6.1.6 21.1 2.3 30.1 13.8 4.2 5.3 4.9 13 3.6 19.4-.2-5.2-1-9.7-3.2-14.2-6.6-13-28.6-15.5-38.3-15.5-8.9 0-17.8 1.2-26.5 2.9-5.8 1.1-11.7 2.5-17.4 4.2-9.6 2.8-18.9 6.2-28.3 9.3zM65.4 104.3c.8-.1 1 1 .3 1.3-8.1 2.6-17.1 3.1-25.4 2.2-9-.9-18.2-4-25.1-10-2.9-2.5-5.6-5.9-7-9.6-.3-.7.7-1.2 1.1-.6 1.8 2.7 4.2 4.9 6.7 6.8 3.9 2.9 8.4 5.1 12.9 6.7 8.3 3 17.1 4 25.9 3.9 3.5.1 7.1-.2 10.6-.7z" fill="#b0bec5"/><path d="M55.7 114.5c-1.6.6-3.2 1.1-4.8 1.5-1.7.3-3.3.7-5 .8-1.7.2-3.4.3-5.1.2-.8-.1-1.7 0-2.5-.2l-2.5-.4c-3.4-.7-6.7-1.7-9.6-3.4-3-1.7-5.8-3.8-7.6-6.7 2.7 1.9 5.6 3.3 8.6 4.5s6.1 2 9.2 2.6c1.6.2 3.1.5 4.8.6.8.1 1.6.2 2.4.2.8 0 1.6.1 2.4.1.8.1 1.6 0 2.4 0h2.5c1.4.3 3.1.2 4.8.2z" fill="#90a4ae"/></svg>