<svg width="128" height="128" xmlns="http://www.w3.org/2000/svg" xmlns:xlink="http://www.w3.org/1999/xlink"><linearGradient id="a" gradientTransform="matrix(.9947 .103 -.1237 1.1949 6.878 -17.545)" gradientUnits="userSpaceOnUse" x1="6.082" x2="23.327" y1="73.14" y2="73.14"><stop offset="0" stop-color="#f1331e"/><stop offset=".294" stop-color="#ef331e"/><stop offset=".465" stop-color="#e6331d"/><stop offset=".605" stop-color="#d8321c"/><stop offset=".727" stop-color="#c4311a"/><stop offset=".839" stop-color="#aa3017"/><stop offset=".941" stop-color="#8b2f14"/><stop offset="1" stop-color="#752e12"/></linearGradient><path d="M16.91 60.08S6.55 59.65 4.28 67.8C1.46 77.88 19.83 83.88 19.83 83.88l-2.08-10.15s-4.53-.53-7-3.02c-2.47-2.49.11-4.94 5.69-6.15l.47-4.48z" fill="url(#a)"/><linearGradient id="b" gradientTransform="matrix(-.9947 .103 .1237 1.1949 227.937 -17.545)" gradientUnits="userSpaceOnUse" x1="112.265" x2="129.51" y1="63.991" y2="63.991"><stop offset="0" stop-color="#f1331e"/><stop offset=".294" stop-color="#ef331e"/><stop offset=".465" stop-color="#e6331d"/><stop offset=".605" stop-color="#d8321c"/><stop offset=".727" stop-color="#c4311a"/><stop offset=".839" stop-color="#aa3017"/><stop offset=".941" stop-color="#8b2f14"/><stop offset="1" stop-color="#752e12"/></linearGradient><path d="M111.16 60.08s10.36-.43 12.63 7.72c2.81 10.08-15.56 16.08-15.56 16.08l2.08-10.15s4.53-.53 7-3.02c2.47-2.49-.11-4.94-5.69-6.15l-.46-4.48z" fill="url(#b)"/><radialGradient id="c" cx="187.749" cy="-245" gradientUnits="userSpaceOnUse" r="1.054"><stop offset="0" stop-color="#eeebe6"/><stop offset=".91" stop-color="#f0eae6"/><stop offset="1" stop-color="#f1e9e6"/></radialGradient><path d="M189.08-244.33c-.89-.44-1.78-.89-2.67-1.33" fill="url(#c)"/><radialGradient id="d" cx="64" cy="96.618" gradientTransform="matrix(.9832 0 0 1 .951 0)" gradientUnits="userSpaceOnUse" r="38.632"><stop offset="0" stop-color="#f1331e"/><stop offset=".422" stop-color="#ef331d"/><stop offset=".668" stop-color="#e6321b"/><stop offset=".867" stop-color="#d83016"/><stop offset="1" stop-color="#ca2e12"/></radialGradient><path d="M111.25 70.89c0-.33-44.24 3.83-47.37 4.13-3.13-.3-47.37-4.46-47.37-4.13 0 0-.98 51.47 47.19 51.47 0 0 .3.01.36.01v-.01c45.6 0 47.19-51.47 47.19-51.47z" fill="url(#d)"/><linearGradient id="e" gradientUnits="userSpaceOnUse" x1="17.089" x2="119.007" y1="65.536" y2="65.536"><stop offset="0" stop-color="#f1e9e6"/><stop offset=".219" stop-color="#d6d0cd"/><stop offset=".55" stop-color="#b3b0ad"/><stop offset=".823" stop-color="#9e9c99"/><stop offset="1" stop-color="#969592"/></linearGradient><ellipse cx="64" cy="65.54" rx="48" ry="35.65" fill="url(#e)"/><linearGradient id="f" gradientUnits="userSpaceOnUse" x1="63.41" x2="63.41" y1="33.185" y2="96.147"><stop offset="0" stop-color="#f1e9e6"/><stop offset=".273" stop-color="#dcd6d3"/><stop offset=".831" stop-color="#a7a5a2"/><stop offset="1" stop-color="#969592"/></linearGradient><ellipse cx="63.41" cy="65.34" rx="45.01" ry="31.67" fill="url(#f)"/><defs><ellipse id="g" cx="63.06" cy="65.99" rx="44.69" ry="31.04"/></defs><clipPath id="h"><use xlink:href="#g" overflow="visible"/></clipPath><radialGradient id="i" cx="62.082" cy="74.75" gradientTransform="matrix(1 -.00175 .00154 .8834 -.115 8.825)" gradientUnits="userSpaceOnUse" r="47.225"><stop offset=".177" stop-color="#ad441f"/><stop offset=".354" stop-color="#a73d1e"/><stop offset=".616" stop-color="#96291a"/><stop offset=".928" stop-color="#7a0915"/><stop offset="1" stop-color="#730013"/></radialGradient><path d="M113.08 81.25c0 22.23-22.83 40.25-51 40.25s-51-18.02-51-40.25c0-14.45 8.76-22.85 21.5-32.75 7.11-5.53 20.14-8.5 30-8.5 10.45 0 19.08 4.7 27.5 8.25 14.25 6 23 19.02 23 33z" clip-path="url(#h)" fill="url(#i)"/><path d="M93.97 76.77c3.03.22 6.64-.5 8.28-3.08 1.48-2.33.73-5.2-.5-7.46-2.57-4.74-7.1-8.39-12.48-10.08-6.51-2.05-15.07.79-11.91 8.2C80.21 71 86 76.19 93.97 76.77z" fill="#5ba744"/><radialGradient id="j" cx="92.419" cy="66.093" gradientTransform="matrix(.8011 -.4192 .3813 .7286 -8.904 54.833)" gradientUnits="userSpaceOnUse" r="13.916"><stop offset=".276" stop-color="#f0d5bb"/><stop offset=".482" stop-color="#e9c9a9"/><stop offset=".795" stop-color="#e1ba94"/><stop offset="1" stop-color="#deb58c"/></radialGradient><path d="M94.34 74.87c3.03.22 6.64-.5 8.28-3.08 1.48-2.33.73-5.2-.5-7.46-2.57-4.74-7.1-8.39-12.48-10.08-6.51-2.05-15.07.79-11.91 8.2 2.85 6.65 8.64 11.84 16.61 12.42z" fill="url(#j)"/><linearGradient id="k" gradientUnits="userSpaceOnUse" x1="60.042" x2="79.746" y1="61.547" y2="61.547"><stop offset="0" stop-color="#ad441f"/><stop offset=".104" stop-color="#b84b1f"/><stop offset=".485" stop-color="#db6220"/><stop offset=".797" stop-color="#f07021"/><stop offset="1" stop-color="#f87521"/></linearGradient><path d="M68.82 57.25c1.8 1.62 3.37 3.75 3.45 6.17.08 2.42-1.87 4.99-4.29 4.81-1.33-.1-2.46-.93-3.67-1.49-1.21-.56-2.81-.76-3.72.21-.77.82-.67 2.19-.04 3.13s1.68 1.5 2.72 1.92c3.31 1.35 7.16 1.58 10.44.15 3.28-1.43 5.84-4.64 6.03-8.21.2-3.77-2.19-7.32-5.3-9.45-2.15-1.47-11.56-5.93-14.04-4.04-1.86 1.4 7.26 5.76 8.42 6.8z" fill="url(#k)"/><path d="M33.15 70.32c2.05-.03 4.03-.8 5.86-1.77 4.51-2.39 8.41-6.05 11.16-10.49 1.16-1.87 2.13-4.24 1.21-6.25-.9-1.94-3.19-2.66-5.25-2.82-7.01-.53-12.95 3.27-17.25 8.75-3.66 4.64-3.03 12.68 4.27 12.58z" fill="#5ba744"/><radialGradient id="l" cx="39.148" cy="59.065" gradientUnits="userSpaceOnUse" r="10.854"><stop offset=".276" stop-color="#f0d5bb"/><stop offset=".482" stop-color="#e9c9a9"/><stop offset=".795" stop-color="#e1ba94"/><stop offset="1" stop-color="#deb58c"/></radialGradient><path d="M33.38 68.77c1.95-.03 3.82-.73 5.56-1.61 4.29-2.17 7.98-5.5 10.6-9.53 1.1-1.7 2.02-3.85 1.15-5.67-.85-1.77-3.03-2.42-4.99-2.56-6.66-.48-12.29 2.97-16.38 7.95-3.46 4.22-2.86 11.52 4.06 11.42z" fill="url(#l)"/><path d="M75.73 46.95c1.8-.73 4.02-.04 5.22 1.49.55.7.9 1.64.64 2.49-.43 1.37-2.1 1.81-3.52 2.03-1.73.27-4.33.64-4.92-1.42-.5-1.73 1.05-3.98 2.58-4.59z" fill="#573014"/><linearGradient id="m" gradientUnits="userSpaceOnUse" x1="41.297" x2="58.098" y1="88.236" y2="88.236"><stop offset="0" stop-color="#ad441f"/><stop offset=".104" stop-color="#b84b1f"/><stop offset=".485" stop-color="#db6220"/><stop offset=".797" stop-color="#f07021"/><stop offset="1" stop-color="#f87521"/></linearGradient><path d="M48.98 85.83c1.89-.28 3.88-.21 5.63.56s3.21 2.35 3.5 4.24c-5.61.37-11.25.07-16.8-.88-.21-2.28 5.93-3.63 7.67-3.92z" fill="url(#m)"/><path d="M33.78 79.86c1.44 1.55 3.74 2.29 5.8 1.79 2.06-.5 3.78-2.28 4.12-4.37.14-.88.05-1.82-.4-2.59-.78-1.31-2.41-1.85-3.93-2.01-4.62-.47-10.18 2.25-5.59 7.18z" fill="#e5c37f"/><linearGradient id="n" gradientUnits="userSpaceOnUse" x1="75.612" x2="89.7" y1="81.85" y2="81.85"><stop offset="0" stop-color="#ad441f"/><stop offset=".104" stop-color="#b84b1f"/><stop offset=".485" stop-color="#db6220"/><stop offset=".797" stop-color="#f07021"/><stop offset="1" stop-color="#f87521"/></linearGradient><path d="M87.48 79.76c.87.66 1.66 1.47 2.03 2.49.37 1.02.22 2.29-.58 3.02-1.02.94-2.61.74-3.95.4-1.75-.44-3.47-1.02-5.14-1.73-1.29-.55-2.61-1.22-3.41-2.38-4.14-5.97 8.69-3.59 11.05-1.8z" fill="url(#n)"/><path d="M58.02 82.87c-1.27.07-2.82-.05-3.41-1.17-.46-.88-.04-2.02.71-2.68.75-.65 1.75-.93 2.72-1.14 2.21-.48 11.71-2.41 12.05.79.49 4.49-9.71 4.08-12.07 4.2zM50.68 71.11c-.68-.62-1.41-1.46-1.13-2.34.22-.68 1.01-1.05 1.73-1 .72.05 1.36.42 1.97.81 1.37.89 7.18 4.76 5.71 6.57-2.05 2.53-7.02-2.89-8.28-4.04z" fill="#367e40"/><ellipse cx="69.58" cy="90.5" rx="2.25" ry="2.25" transform="rotate(-45.001 69.581 90.501)" fill="#5ba744"/><ellipse cx="85.21" cy="49.12" rx="2.25" ry="2.25" transform="rotate(-45.001 85.207 49.126)" fill="#5ba744"/><ellipse cx="59.96" cy="54.25" rx="2.25" ry="2.25" transform="rotate(-45.001 59.957 54.251)" fill="#5ba744"/><ellipse cx="89.71" cy="86.38" rx="2.25" ry="2.25" transform="rotate(-45.001 89.707 86.376)" fill="#5ba744"/><ellipse cx="23.33" cy="61.5" rx="2.25" ry="2.25" transform="rotate(-45.001 23.332 61.5)" fill="#5ba744"/><ellipse cx="48.58" cy="46.5" rx="2.25" ry="2.25" transform="rotate(-45.001 48.582 46.5)" fill="#5ba744"/><g opacity=".2"><path d="M64 32.89c22.09 0 41.22 11.95 44.5 27.79.17.8.64 1.47 1.29 1.9-.55.58-.85 1.36-.82 2.16l.01.34c.01.15.01.3.01.46 0 1.92-.25 3.87-.73 5.82-.04.17-.07.33-.08.5-.03.39-.07.88-.13 1.45a3.009 3.009 0 0 0 3.55 3.26c1.9-.36 5.45-1.33 7.85-3.74.93-.94 1.42-1.88 1.64-2.73-.07 1.34-.81 3.36-4 5.84-3.17 2.46-7.22 4.14-8.82 4.74-.93.35-1.62 1.14-1.85 2.1-1.62 6.71-4.97 16.29-11.75 23.86-7.56 8.45-17.86 12.73-30.61 12.73H63.7c-13.62 0-24.36-4.34-31.91-12.9-6.72-7.61-9.71-17.21-11.04-23.93-.2-.99-.88-1.82-1.81-2.2-2.87-1.17-11.52-5.1-11.92-10.13.24.82.72 1.72 1.61 2.61 2.13 2.15 5.15 3.16 7.32 3.63a2.995 2.995 0 0 0 2.59-.65c.71-.61 1.1-1.51 1.05-2.45-.05-.92-.07-1.61-.07-2.01.05-.35.05-.71-.02-1.06-.34-1.57-.5-3.16-.5-4.74 0-.15.01-.29.01-.44l.01-.34a3 3 0 0 0-.83-2.17c.65-.43 1.13-1.1 1.3-1.9 3.29-15.85 22.42-27.8 44.51-27.8m0-3c-24.01 0-43.9 13.09-47.44 30.19-1.8.01-10.26.45-12.29 7.72-2.22 7.98 8.84 13.4 13.53 15.31 3.01 15.22 12.98 39.25 45.89 39.25 0 0 .3.01.36.01v-.01c30.91 0 41.6-23.64 45.28-38.88 3.91-1.49 16.85-7.1 14.46-15.68-2.05-7.36-10.69-7.72-12.35-7.72C107.9 42.98 88.01 29.89 64 29.89zm47.04 43.72c.06-.6.11-1.12.14-1.53.53-2.12.82-4.31.82-6.54 0-.3-.02-.6-.03-.9 5.34 1.24 7.77 3.63 5.35 6.07-1.87 1.88-4.9 2.64-6.28 2.9zm-94.46-.09c-1.51-.33-4.14-1.12-5.83-2.81-2.41-2.43-.01-4.81 5.28-6.05-.01.29-.03.58-.03.88 0 1.82.19 3.6.54 5.34-.02 0-.04.01-.04.01s-.02.97.08 2.63z" fill="#424242"/></g></svg>