<svg width="128" height="128" xmlns="http://www.w3.org/2000/svg" width="512px" height="512px"><linearGradient id="a" gradientUnits="userSpaceOnUse" x1="12.168" x2="63.893" y1="78.848" y2="78.848"><stop offset="0" stop-color="#eee"/><stop offset="1" stop-color="#bdbdbd"/></linearGradient><path fill="url(#a)" d="M63.89 123.6L12.17 93.84V34.09l51.72 30.08z"/><linearGradient id="b" gradientUnits="userSpaceOnUse" x1="63.736" x2="115.832" y1="78.855" y2="78.855"><stop offset="0" stop-color="#eee"/><stop offset="1" stop-color="#bdbdbd"/></linearGradient><path fill="url(#b)" d="M115.83 93.84l-51.9 29.78-.19-59.45 52.09-30.08z"/><linearGradient id="c" gradientUnits="userSpaceOnUse" x1="12.247" x2="115.809" y1="34.274" y2="34.274"><stop offset="0" stop-color="#eee"/><stop offset="1" stop-color="#bdbdbd"/></linearGradient><path fill="url(#c)" d="M63.89 64.17L12.25 34.12 63.89 4.38l51.92 29.74z"/><g fill="#4d4d4d"><path d="M41.6 28.06c-4.84 0-8.36 2.34-8.36 5.57s3.52 5.57 8.36 5.57 8.36-2.34 8.36-5.57-3.52-5.57-8.36-5.57zM86.19 39.2c4.84 0 8.36-2.34 8.36-5.57s-3.52-5.57-8.36-5.57-8.36 2.34-8.36 5.57 3.51 5.57 8.36 5.57zM63.89 39.2c-4.84 0-8.36 2.34-8.36 5.57s3.52 5.57 8.36 5.57 8.36-2.34 8.36-5.57-3.51-5.57-8.36-5.57zM55.53 22.48c0 3.23 3.52 5.57 8.36 5.57s8.36-2.34 8.36-5.57-3.52-5.57-8.36-5.57-8.36 2.34-8.36 5.57z"/></g><g fill="#4d4d4d"><path d="M109.67 60.64c2.52-4.36 2.23-8.73-.67-10.41-2.9-1.68-6.84.27-9.35 4.62-2.52 4.36-2.23 8.73.67 10.41 2.9 1.68 6.84-.26 9.35-4.62zM76.5 94.94c-2.52 4.36-2.23 8.73.67 10.41 2.9 1.68 6.84-.27 9.35-4.62s2.23-8.73-.67-10.41c-2.9-1.68-6.83.27-9.35 4.62z"/></g><path d="M32.15 82.24c2.95 5.11 7.56 7.39 10.97 5.42 3.41-1.97 3.74-7.1.79-12.21s-7.56-7.39-10.97-5.42c-3.41 1.97-3.74 7.1-.79 12.21z" fill="#db0000"/><g opacity=".2"><path d="M64.08 7.84L113 35.86V92.1l-48.95 28.08L15 92.1V35.96L64.08 7.84m0-3.46l-51.9 29.74-.18-.03v59.75l52 29.77.07.01L116 93.84V34.09l-.02.02-51.9-29.73z" fill="#424242"/></g></svg>