<svg width="128" height="128" xmlns="http://www.w3.org/2000/svg"><linearGradient id="a" gradientUnits="userSpaceOnUse" x1="5.516" x2="118.825" y1="5.28" y2="119.046"><stop offset="0" stop-color="#81d4fa"/><stop offset="1" stop-color="#0094d6"/></linearGradient><path d="M116 124H12c-4.42 0-8-3.58-8-8V12c0-4.42 3.58-8 8-8h104c4.42 0 8 3.58 8 8v104c0 4.42-3.58 8-8 8z" fill="url(#a)"/><path d="M116 7c2.76 0 5 2.24 5 5v104c0 2.76-2.24 5-5 5H12c-2.76 0-5-2.24-5-5V12c0-2.76 2.24-5 5-5h104m0-3H12c-4.42 0-8 3.58-8 8v104c0 4.42 3.58 8 8 8h104c4.42 0 8-3.58 8-8V12c0-4.42-3.58-8-8-8z" fill="#424242" opacity=".2"/><linearGradient id="b" gradientUnits="userSpaceOnUse" x1="21.247" x2="106.247" y1="20.744" y2="106.744"><stop offset="0" stop-color="#c2ecff"/><stop offset=".157" stop-color="#bdeafe"/><stop offset=".348" stop-color="#aee3fa"/><stop offset=".558" stop-color="#95d7f5"/><stop offset=".779" stop-color="#73c7ed"/><stop offset="1" stop-color="#49b3e3"/></linearGradient><path d="M101 109H27c-4.42 0-8-3.58-8-8V27c0-4.42 3.58-8 8-8h74c4.42 0 8 3.58 8 8v74c0 4.42-3.58 8-8 8z" fill="url(#b)"/></svg>