<svg width="128" height="128" xmlns="http://www.w3.org/2000/svg" xmlns:xlink="http://www.w3.org/1999/xlink"><linearGradient id="a" gradientUnits="userSpaceOnUse" x1="64" x2="64" y1="13.667" y2="104.001"><stop offset=".135" stop-color="#ef5350"/><stop offset=".842" stop-color="#e53935"/></linearGradient><path d="M100 124H28c-4.42 0-8-3.58-8-8V12c0-4.42 3.58-8 8-8h72c4.42 0 8 3.58 8 8v104c0 4.42-3.58 8-8 8z" fill="url(#a)"/><circle cx="52.17" cy="39.83" r="22.5" fill="#f5f5f5"/><defs><path id="b" d="M100 124H28c-4.42 0-8-3.58-8-8V12c0-4.42 3.58-8 8-8h72c4.42 0 8 3.58 8 8v104c0 4.42-3.58 8-8 8z"/></defs><clipPath id="c"><use xlink:href="#b" overflow="visible"/></clipPath><linearGradient id="d" gradientUnits="userSpaceOnUse" x1="52.957" x2="62.457" y1="53.358" y2="101.358"><stop offset="0" stop-color="#757575"/><stop offset="1" stop-color="#424242"/></linearGradient><path d="M108.67 134.67H17.33l-6.67-35.33s49.76-38.28 89.33-18c26.68 13.66 8.8 53.28 8.68 53.33z" clip-path="url(#c)" fill="url(#d)"/><g opacity=".2"><path d="M100 8c2.21 0 4 1.79 4 4v104c0 2.21-1.79 4-4 4H28c-2.21 0-4-1.79-4-4V12c0-2.21 1.79-4 4-4h72m0-4H28c-4.42 0-8 3.58-8 8v104c0 4.42 3.58 8 8 8h72c4.42 0 8-3.58 8-8V12c0-4.42-3.58-8-8-8z" fill="#424242"/></g></svg>