<svg width="128" height="128" xmlns="http://www.w3.org/2000/svg" width="512px" height="512px"><radialGradient id="a" cx="47.843" cy="28.923" gradientUnits="userSpaceOnUse" r="95.191"><stop offset="0" stop-color="#868686"/><stop offset="1" stop-color="#424242"/></radialGradient><circle cx="64" cy="64" r="60" fill="url(#a)"/><circle cx="64" cy="64" r="60" fill="none"/><circle cx="64" cy="64" r="60" fill="none"/><radialGradient id="b" cx="26.86" cy="78.509" gradientUnits="userSpaceOnUse" r="14.105"><stop offset="0" stop-color="#212121"/><stop offset=".281" stop-color="#242424"/><stop offset=".49" stop-color="#2d2d2d"/><stop offset=".676" stop-color="#3e3e3e"/><stop offset=".848" stop-color="#545454"/><stop offset=".926" stop-color="#616161"/></radialGradient><path d="M39.05 80.35c.91 6-3.56 11.66-9.97 12.62-6.41.97-12.34-3.12-13.24-9.12s3.56-11.66 9.97-12.62c6.41-.97 12.34 3.11 13.24 9.12z" opacity=".3" fill="url(#b)"/><radialGradient id="c" cx="40" cy="97.421" gradientUnits="userSpaceOnUse" r="13.252"><stop offset="0" stop-color="#212121"/><stop offset=".281" stop-color="#242424"/><stop offset=".49" stop-color="#2d2d2d"/><stop offset=".676" stop-color="#3e3e3e"/><stop offset=".848" stop-color="#545454"/><stop offset=".926" stop-color="#616161"/></radialGradient><path d="M48.26 107.08c-.77 4.08-4.68 6.76-8.74 6s-6.73-4.69-5.96-8.76 4.68-6.76 8.74-6 6.72 4.69 5.96 8.76z" opacity=".3" fill="url(#c)"/><path d="M64 8c30.88 0 56 25.12 56 56s-25.12 56-56 56S8 94.88 8 64 33.12 8 64 8m0-4C30.86 4 4 30.86 4 64s26.86 60 60 60 60-26.86 60-60S97.14 4 64 4z" fill="#eee" opacity=".2"/><radialGradient id="d" cx="62.432" cy="95.26" gradientUnits="userSpaceOnUse" r="15.023"><stop offset="0" stop-color="#212121"/><stop offset=".281" stop-color="#242424"/><stop offset=".49" stop-color="#2d2d2d"/><stop offset=".676" stop-color="#3e3e3e"/><stop offset=".848" stop-color="#545454"/><stop offset=".926" stop-color="#616161"/></radialGradient><circle cx="63.07" cy="98.68" r="8.84" opacity=".3" fill="url(#d)"/><radialGradient id="e" cx="109.702" cy="55.417" gradientTransform="matrix(.0682 .9977 -1.0103 .069 154.203 -62.553)" gradientUnits="userSpaceOnUse" r="11.739"><stop offset="0" stop-color="#212121"/><stop offset=".281" stop-color="#242424"/><stop offset=".49" stop-color="#2d2d2d"/><stop offset=".676" stop-color="#3e3e3e"/><stop offset=".848" stop-color="#545454"/><stop offset=".926" stop-color="#616161"/></radialGradient><path d="M116.19 52.87c-.12 5.46-4.74 9.78-10.32 9.66-5.58-.12-10.01-4.64-9.89-10.1s4.74-9.78 10.32-9.66c5.58.13 10.01 4.65 9.89 10.1z" opacity=".3" fill="url(#e)"/><radialGradient id="f" cx="99.697" cy="104.508" fx="99.307" fy="104.061" gradientTransform="matrix(.9964 .0852 -.0775 .9066 21.531 -33.822)" gradientUnits="userSpaceOnUse" r="7.47"><stop offset="0" stop-color="#212121"/><stop offset=".281" stop-color="#242424"/><stop offset=".49" stop-color="#2d2d2d"/><stop offset=".676" stop-color="#3e3e3e"/><stop offset=".848" stop-color="#545454"/><stop offset=".926" stop-color="#616161"/></radialGradient><path d="M117.88 71c-.25 2.97-2.85 5.17-5.8 4.91-2.95-.25-5.14-2.86-4.89-5.83s2.85-5.17 5.8-4.91c2.95.25 5.14 2.86 4.89 5.83z" opacity=".3" fill="url(#f)"/><radialGradient id="g" cx="82.118" cy="67.727" fx="81.728" fy="67.28" gradientTransform="matrix(.9964 .0852 -.0775 .9066 21.813 -37.124)" gradientUnits="userSpaceOnUse" r="7.47"><stop offset="0" stop-color="#212121"/><stop offset=".281" stop-color="#242424"/><stop offset=".49" stop-color="#2d2d2d"/><stop offset=".676" stop-color="#3e3e3e"/><stop offset=".848" stop-color="#545454"/><stop offset=".926" stop-color="#616161"/></radialGradient><path d="M105.24 33.11c-.25 2.97-2.85 5.17-5.8 4.91s-5.14-2.86-4.89-5.83 2.85-5.17 5.8-4.91 5.15 2.86 4.89 5.83z" opacity=".3" fill="url(#g)"/><radialGradient id="h" cx="92.263" cy="125.216" fx="91.873" fy="124.769" gradientTransform="matrix(.9964 .0852 -.0775 .9066 21.372 -31.963)" gradientUnits="userSpaceOnUse" r="7.47"><stop offset="0" stop-color="#212121"/><stop offset=".281" stop-color="#242424"/><stop offset=".49" stop-color="#2d2d2d"/><stop offset=".676" stop-color="#3e3e3e"/><stop offset=".848" stop-color="#545454"/><stop offset=".926" stop-color="#616161"/></radialGradient><path d="M109.45 91c-.25 2.97-2.85 5.17-5.8 4.91-2.95-.25-5.14-2.86-4.89-5.83s2.85-5.17 5.8-4.91c2.96.25 5.15 2.86 4.89 5.83z" opacity=".3" fill="url(#h)"/></svg>