<svg width="128" height="128" xmlns="http://www.w3.org/2000/svg" width="512px" height="512px"><linearGradient id="a" gradientUnits="userSpaceOnUse" x1="64.897" x2="64.897" y1="102.845" y2="124.284"><stop offset=".143" stop-color="#eceff1"/><stop offset=".448" stop-color="#eaedef"/><stop offset=".613" stop-color="#e2e5e7"/><stop offset=".745" stop-color="#d4d8db"/><stop offset=".858" stop-color="#c1c5c8"/><stop offset=".96" stop-color="#a8adb1"/><stop offset="1" stop-color="#9ca2a6"/></linearGradient><ellipse cx="64.9" cy="113.56" rx="20.92" ry="10.72" fill="url(#a)"/><linearGradient id="b" gradientUnits="userSpaceOnUse" x1="64.596" x2="64.596" y1="62.336" y2="110.856"><stop offset=".001" stop-color="#9ca2a6"/><stop offset=".361" stop-color="#c4c9cc"/><stop offset=".676" stop-color="#e1e5e7"/><stop offset=".857" stop-color="#eceff1"/></linearGradient><path d="M67.42 76.66c.14-13.12 2.72-14.53 2.72-14.53 0 .11-3.47-.3-4.93-.48a5.48 5.48 0 0 0-1.28 0c-1.45.18-4.86.59-4.86.48 0 0 2.61 1.41 2.75 14.53.11 10.18.54 25.59-.92 31.79-.92 3.92 8.61 3.17 7.54-.17-1.91-6.02-1.13-21.4-1.02-31.62z" fill="url(#b)"/><radialGradient id="c" cx="54.105" cy="20.969" gradientUnits="userSpaceOnUse" r="30.292"><stop offset="0" stop-color="#eceff1"/><stop offset=".198" stop-color="#e6eaec"/><stop offset=".453" stop-color="#d6dadd"/><stop offset=".737" stop-color="#bcc2c4"/><stop offset=".994" stop-color="#9ea5a8"/></radialGradient><path d="M84.31 8.53c.11-.11-2.44-4.51-20.5-4.51-17.96 0-20.23 4.31-20.12 4.42 0 0-4.44 17.04-2.19 31.29S54.55 63.35 64 63.35s20.25-9.38 22.51-23.63-2.2-31.19-2.2-31.19z" fill="url(#c)"/><path d="M63.87 5.93c9.68 0 16.23 1.63 18.08 2.79-1.78 1.11-7.99 2.77-18.08 2.77-10.02 0-16.14-1.67-17.84-2.78 1.7-1.11 7.81-2.78 17.84-2.78m0-2c-11.14 0-20.17 2.14-20.17 4.78s9.03 4.78 20.17 4.78c11.14 0 20.44-2.13 20.44-4.76s-9.3-4.8-20.44-4.8z" fill="#919191"/><linearGradient id="d" gradientUnits="userSpaceOnUse" x1="44.664" x2="79.606" y1="25.461" y2="52.7"><stop offset="0" stop-color="#d32f2f"/><stop offset="1" stop-color="#910000"/></linearGradient><path d="M63.86 36.81c-10.66 0-19.51-1.83-21.27-4.23.03 2.36.19 4.72.55 6.99C45.23 52.78 55.23 61.48 64 61.48c8.76 0 18.78-8.7 20.87-21.91.39-2.46.55-5.03.55-7.58-.64 2.68-10.05 4.82-21.56 4.82z" fill="url(#d)"/><linearGradient id="e" gradientUnits="userSpaceOnUse" x1="42.613" x2="85.42" y1="32.488" y2="32.488"><stop offset="0" stop-color="#961717"/><stop offset="1" stop-color="#d32f2f"/></linearGradient><path d="M85.42 32.4c0 4.26-9.43 7.8-21.3 7.8s-21.5-3.45-21.5-7.71 9.63-7.71 21.5-7.71c11.68 0 21.3 3.36 21.3 7.62z" fill="url(#e)"/><path d="M53.71 14.66a4.025 4.025 0 0 0-3.02.47c-.9.55-1.61 1.47-1.95 2.6-.51 1.7-.87 3.28-1.14 4.77-.26 1.49-.43 2.9-.53 4.26a41.693 41.693 0 0 0 .2 7.95 40.664 40.664 0 0 0 2.12 8.91c.51 1.42 1.48 2.51 2.48 3.07s2.03.58 2.84.02c.06-.04.09-.06.14-.1.69-.47 1.12-1.26 1.34-2.16.22-.9.21-1.92-.07-2.92-.46-1.66-.76-3.18-.95-4.6-.19-1.42-.28-2.75-.3-4.04-.02-1.29.04-2.55.17-3.83s.34-2.59.65-3.98c.31-1.39.74-2.87 1.34-4.46.45-1.2.32-2.45-.27-3.56-.58-1.11-1.64-2.07-3.05-2.4z" opacity=".47" fill="#fff"/><path d="M63.81 6.02c14.08 0 17.94 2.71 18.65 3.34.58 2.37 4.07 17.43 2.07 30.05-1.53 9.67-7.5 17.86-15.21 20.87-.41.16-.74.44-.96.79-1.26 1.48-2.83 5.38-2.94 15.56-.02 1.87-.06 3.91-.11 6.04-.14 6.9-.31 14.71.22 20.44.09.98.88 1.75 1.86 1.81 9.06.58 16.42 4.46 16.42 8.64 0 4.65-8.84 8.72-18.92 8.72-10.08 0-18.92-4.07-18.92-8.72 0-4.1 6.94-7.88 15.8-8.59.98-.08 1.76-.86 1.83-1.85.47-6.35.35-15.33.25-22.54-.02-1.38-.04-2.7-.05-3.95-.08-7.41-.97-12.61-2.57-15.04-.26-.4-.66-.69-1.11-.82-3.75-1.09-7.44-3.64-10.39-7.2-3.25-3.93-5.42-8.83-6.26-14.16-2.01-12.66 1.52-27.89 2.07-30.18.67-.6 4.37-3.21 18.27-3.21m0-2c-17.96 0-20.23 4.31-20.12 4.42 0 0-4.44 17.04-2.19 31.29 1.91 12.05 9.93 20.62 18.07 22.97.77 1.16 2.14 4.54 2.24 13.96.08 7.87.36 18.87-.19 26.32-9.99.81-17.64 5.24-17.64 10.59 0 5.92 9.36 10.72 20.92 10.72 11.55 0 20.92-4.8 20.92-10.72 0-5.46-7.98-9.97-18.29-10.63-.67-7.36-.19-18.36-.1-26.28.13-12.54 2.49-14.38 2.7-14.52-.02 0-.04.01-.08.01 7.57-2.96 14.68-11.17 16.46-22.42 2.26-14.25-2.19-31.2-2.19-31.2.09-.11-2.46-4.51-20.51-4.51zM70.13 62zm0 .13s-.01 0-.01.01c.01 0 .01-.01.01-.01z" fill="#424242" opacity=".2"/><path d="M70.73 111.55a14.708 14.708 0 0 1-7.92 1.18c-1.27-.16-2.63-.49-4.17-1.18-1.04-.47-1.47-1.58-1.02-2.29.45-.72 1.46-.89 2.28-.52 1.82.82 3.31 1.02 4.77 1.02 1.47 0 2.95-.2 4.77-1.02.82-.37 1.83-.2 2.28.52.48.72.05 1.83-.99 2.29z" fill="#bfbfbf"/><path d="M70.73 111.64a14.708 14.708 0 0 1-7.92 1.18c-1.27-.16-2.63-.49-4.17-1.18-1.04-.47-1.47-1.58-1.02-2.29.45-.72 1.46-.89 2.28-.52 1.82.82 3.31 1.02 4.77 1.02 1.47 0 2.95-.2 4.77-1.02.82-.37 1.83-.2 2.28.52.48.71.05 1.82-.99 2.29z" fill="#bfbfbf"/><path d="M65.7 119.3c-1.68.15-3.14.11-4.49-.01s-2.58-.34-3.79-.64-2.4-.68-3.65-1.2-2.56-1.17-3.98-2.08c-.57-.36-.73-1.08-.39-1.57.35-.49 1.04-.59 1.56-.25 1.29.83 2.5 1.43 3.64 1.9 1.14.47 2.23.82 3.34 1.1s2.23.47 3.46.58c1.23.11 2.57.14 4.11.01.61-.05 1.18.36 1.26.95.08.6-.4 1.16-1.07 1.21z" fill="#fff"/></svg>