<svg width="128" height="128" xmlns="http://www.w3.org/2000/svg" xmlns:xlink="http://www.w3.org/1999/xlink"><path d="M124 80H4l12-12h94.34c1.06 0 2.08.42 2.83 1.17L124 80z" fill="#f06292"/><linearGradient id="a" gradientUnits="userSpaceOnUse" x1="64" x2="64" y1="118" y2="124.43"><stop offset="0" stop-color="#fafafa"/><stop offset=".387" stop-color="#f3f3f3"/><stop offset=".996" stop-color="#eee"/></linearGradient><path fill="url(#a)" d="M4 120h120v4H4z"/><linearGradient id="b" gradientUnits="userSpaceOnUse" x1="64" x2="64" y1="108" y2="120.86"><stop offset="0" stop-color="#fafafa"/><stop offset=".387" stop-color="#f3f3f3"/><stop offset=".996" stop-color="#eee"/></linearGradient><path fill="url(#b)" d="M4 112h120v8H4z"/><linearGradient id="c" gradientUnits="userSpaceOnUse" x1="64" x2="64" y1="100" y2="112.86"><stop offset="0" stop-color="#fafafa"/><stop offset=".387" stop-color="#f3f3f3"/><stop offset=".996" stop-color="#eee"/></linearGradient><path fill="url(#c)" d="M4 104h120v8H4z"/><linearGradient id="d" gradientUnits="userSpaceOnUse" x1="64" x2="64" y1="92" y2="104.86"><stop offset="0" stop-color="#fafafa"/><stop offset=".387" stop-color="#f3f3f3"/><stop offset=".996" stop-color="#eee"/></linearGradient><path fill="url(#d)" d="M4 96h120v8H4z"/><linearGradient id="e" gradientUnits="userSpaceOnUse" x1="64" x2="64" y1="84" y2="96.86"><stop offset="0" stop-color="#fafafa"/><stop offset=".387" stop-color="#f3f3f3"/><stop offset=".996" stop-color="#eee"/></linearGradient><path fill="url(#e)" d="M4 88h120v8H4z"/><linearGradient id="f" gradientUnits="userSpaceOnUse" x1="64" x2="64" y1="76" y2="88.86"><stop offset="0" stop-color="#fafafa"/><stop offset=".387" stop-color="#f3f3f3"/><stop offset=".996" stop-color="#eee"/></linearGradient><path fill="url(#f)" d="M4 80h120v8H4z"/><radialGradient id="g" cx="53.667" cy="79.389" gradientTransform="matrix(0 1 -1.4167 0 166.134 25.722)" gradientUnits="userSpaceOnUse" r="64.271"><stop offset="0" stop-color="#e0e0e0" stop-opacity="0"/><stop offset=".918" stop-color="#e0e0e0" stop-opacity=".918"/><stop offset="1" stop-color="#e0e0e0"/></radialGradient><path opacity=".7" fill="url(#g)" d="M4 80h120v44H4z"/><path fill="#e0e0e0" d="M4 120h120v1H4zM4 112h120v1H4zM4 104h120v1H4zM4 96h120v1H4zM4 88h120v1H4z" opacity=".4"/><linearGradient id="h" gradientUnits="userSpaceOnUse" x1="36" x2="36" y1="72" y2="84.86"><stop offset="0" stop-color="#fafafa"/><stop offset=".387" stop-color="#f3f3f3"/><stop offset=".996" stop-color="#eee"/></linearGradient><path fill="url(#h)" d="M16 76h40v8H16z"/><radialGradient id="i" cx="62.276" cy="66.331" gradientTransform="scale(-1 1) rotate(-6.627 -54.916 907.355)" gradientUnits="userSpaceOnUse" r="3.071"><stop offset="0" stop-color="#ffa000"/><stop offset=".743" stop-color="#ff8f00"/><stop offset="1" stop-color="#ff8f00"/></radialGradient><circle cx="35.76" cy="56.9" r="1.78" fill="url(#i)"/><radialGradient id="j" cx="62.214" cy="47.933" gradientTransform="scale(-1 1) rotate(-6.627 -54.916 907.355)" gradientUnits="userSpaceOnUse" r="2.623"><stop offset="0" stop-color="#ffd740"/><stop offset=".203" stop-color="#ffd43c"/><stop offset=".416" stop-color="#ffcb2f"/><stop offset=".633" stop-color="#ffbd1a"/><stop offset=".834" stop-color="#ffab00"/><stop offset="1" stop-color="#ffab00"/></radialGradient><circle cx="37.48" cy="42.15" r="1.19" fill="url(#j)"/><radialGradient id="k" cx="62.226" cy="49.815" gradientTransform="scale(-1 1) rotate(-6.627 -54.916 907.355)" gradientUnits="userSpaceOnUse" r="15.375"><stop offset="0" stop-color="#ffd740"/><stop offset=".203" stop-color="#ffd43c"/><stop offset=".416" stop-color="#ffcb2f"/><stop offset=".633" stop-color="#ffbd1a"/><stop offset=".834" stop-color="#ffab00"/><stop offset="1" stop-color="#ffab00"/></radialGradient><path d="M31.03 46.18c.61-5.26 6.45-4.04 6.45-4.04s5.97.15 5.35 5.41.88 7.88.88 7.88l-7.67-.89-7.67-.89c-.01 0 2.05-2.21 2.66-7.47z" fill="url(#k)"/><path d="M27.86 55.39l15.94 1.85c.49.06.93-.3.99-.78.06-.49-.3-.93-.78-.99l-15.94-1.85c-.49-.06-.93.3-.99.78-.06.49.3.93.78.99z" fill="#ffd740"/><radialGradient id="l" cx="62.325" cy="63.285" gradientTransform="scale(-1 1) rotate(-6.627 -54.916 907.355)" gradientUnits="userSpaceOnUse" r="11.54"><stop offset="0" stop-color="#ffd740"/><stop offset=".243" stop-color="#ffd43c"/><stop offset=".499" stop-color="#ffcb2f"/><stop offset=".76" stop-color="#ffbd1a"/><stop offset="1" stop-color="#ffab00"/></radialGradient><path d="M27.86 55.39l15.94 1.85c.49.06.93-.3.99-.78.06-.49-.3-.93-.78-.99l-15.94-1.85c-.49-.06-.93.3-.99.78-.06.49.3.93.78.99z" fill="url(#l)"/><g opacity=".2"><path d="M37.48 40.96c.05 0 .09 0 .14.01.65.08 1.12.67 1.04 1.32 0 .01-.01.01-.01.02 1.7.35 4.62 1.5 4.18 5.25-.61 5.26.88 7.88.88 7.88l.3.03c.49.06.84.5.78.99-.05.45-.44.79-.89.79-.03 0-.07 0-.1-.01l-6.31-.73c.04.19.06.39.04.6a1.79 1.79 0 0 1-1.77 1.58c-.07 0-.14 0-.21-.01-.98-.11-1.68-1-1.57-1.98.02-.21.09-.4.18-.58l-6.31-.73a.89.89 0 0 1-.78-.99c.05-.45.44-.79.89-.79.03 0 .07 0 .1.01l.3.03s2.05-2.21 2.66-7.47c.42-3.59 3.27-4.16 5.04-4.16h.24V42c.07-.6.58-1.04 1.18-1.04m0-1c-.8 0-1.5.43-1.89 1.08-3.19.16-5.2 1.97-5.56 5.03-.43 3.68-1.6 5.76-2.13 6.54-.93.03-1.7.74-1.81 1.67a1.89 1.89 0 0 0 1.66 2.1l5.23.61a2.781 2.781 0 0 0 2.46 2.68c.11.01.22.02.32.02 1.27 0 2.37-.86 2.69-2.06l5.23.61c.07.01.15.01.22.01.96 0 1.77-.72 1.88-1.67.11-.94-.49-1.8-1.38-2.04-.34-.88-1-3.18-.58-6.86.36-3.07-1.19-5.29-4.26-6.17-.25-.8-.95-1.42-1.84-1.53-.07-.02-.16-.02-.24-.02z" fill="#424242"/></g><g opacity=".4"><path fill="#e0e0e0" d="M4 80h120v1H4z"/></g><g><linearGradient id="m" gradientUnits="userSpaceOnUse" x1="52" x2="72" y1="96" y2="96"><stop offset="0" stop-color="#bdbdbd"/><stop offset="1" stop-color="#bdbdbd" stop-opacity="0"/></linearGradient><path fill="url(#m)" d="M52 68h20v56H52z"/><defs><path id="n" d="M113.17 69.17a4.004 4.004 0 0 0-2.83-1.17H16L4 80v44h120V80l-10.83-10.83z"/></defs><clipPath id="o"><use xlink:href="#n" overflow="visible"/></clipPath><linearGradient id="p" gradientTransform="matrix(-1 0 0 1 12 0)" gradientUnits="userSpaceOnUse" x1="-4" x2="8" y1="96" y2="96"><stop offset="0" stop-color="#bdbdbd"/><stop offset="1" stop-color="#bdbdbd" stop-opacity="0"/></linearGradient><path clip-path="url(#o)" fill="url(#p)" d="M4 124h12V68H4z"/></g><g><radialGradient id="q" cx="36" cy="68.081" gradientUnits="userSpaceOnUse" r="60.702"><stop offset="0" stop-color="#fafafa"/><stop offset=".48" stop-color="#eee"/><stop offset="1" stop-color="#e0e0e0"/></radialGradient><path fill="url(#q)" d="M36 68L12 88v36h48V88z"/><defs><path id="r" d="M16 37.66v81.21h40V37.66H16zm30 28.03H26V51.03c0-5.52 4.48-10 10-10s10 4.48 10 10v14.66z"/></defs><clipPath id="s"><use xlink:href="#r" overflow="visible"/></clipPath><linearGradient id="t" gradientUnits="userSpaceOnUse" x1="36" x2="36" y1="106.875" y2="119.735"><stop offset="0" stop-color="#fafafa"/><stop offset=".387" stop-color="#f3f3f3"/><stop offset=".996" stop-color="#eee"/></linearGradient><path clip-path="url(#s)" fill="url(#t)" d="M16 110.88h40v8H16z"/><linearGradient id="u" gradientUnits="userSpaceOnUse" x1="36" x2="36" y1="98.875" y2="111.735"><stop offset="0" stop-color="#fafafa"/><stop offset=".387" stop-color="#f3f3f3"/><stop offset=".996" stop-color="#eee"/></linearGradient><path clip-path="url(#s)" fill="url(#u)" d="M16 102.88h40v8H16z"/><linearGradient id="v" gradientUnits="userSpaceOnUse" x1="36" x2="36" y1="90.875" y2="103.735"><stop offset="0" stop-color="#fafafa"/><stop offset=".387" stop-color="#f3f3f3"/><stop offset=".996" stop-color="#eee"/></linearGradient><path clip-path="url(#s)" fill="url(#v)" d="M16 94.88h40v8H16z"/><linearGradient id="w" gradientUnits="userSpaceOnUse" x1="36" x2="36" y1="82.875" y2="95.735"><stop offset="0" stop-color="#fafafa"/><stop offset=".387" stop-color="#f3f3f3"/><stop offset=".996" stop-color="#eee"/></linearGradient><path clip-path="url(#s)" fill="url(#w)" d="M16 86.88h40v8H16z"/><linearGradient id="x" gradientUnits="userSpaceOnUse" x1="36" x2="36" y1="74.875" y2="87.735"><stop offset="0" stop-color="#fafafa"/><stop offset=".387" stop-color="#f3f3f3"/><stop offset=".996" stop-color="#eee"/></linearGradient><path clip-path="url(#s)" fill="url(#x)" d="M16 78.88h40v8H16z"/><linearGradient id="y" gradientUnits="userSpaceOnUse" x1="36" x2="36" y1="66.875" y2="79.735"><stop offset="0" stop-color="#fafafa"/><stop offset=".387" stop-color="#f3f3f3"/><stop offset=".996" stop-color="#eee"/></linearGradient><path clip-path="url(#s)" fill="url(#y)" d="M16 70.88h40v8H16z"/><linearGradient id="z" gradientUnits="userSpaceOnUse" x1="36" x2="36" y1="58.875" y2="71.735"><stop offset="0" stop-color="#fafafa"/><stop offset=".387" stop-color="#f3f3f3"/><stop offset=".996" stop-color="#eee"/></linearGradient><path clip-path="url(#s)" fill="url(#z)" d="M16 62.88h40v8H16z"/><linearGradient id="A" gradientUnits="userSpaceOnUse" x1="36" x2="36" y1="50.875" y2="63.735"><stop offset="0" stop-color="#fafafa"/><stop offset=".387" stop-color="#f3f3f3"/><stop offset=".996" stop-color="#eee"/></linearGradient><path clip-path="url(#s)" fill="url(#A)" d="M16 54.88h40v8H16z"/><linearGradient id="B" gradientUnits="userSpaceOnUse" x1="36" x2="36" y1="42.875" y2="55.735"><stop offset="0" stop-color="#fafafa"/><stop offset=".387" stop-color="#f3f3f3"/><stop offset=".996" stop-color="#eee"/></linearGradient><path clip-path="url(#s)" fill="url(#B)" d="M16 46.88h40v8H16z"/><linearGradient id="C" gradientUnits="userSpaceOnUse" x1="36" x2="36" y1="34.875" y2="47.735"><stop offset="0" stop-color="#fafafa"/><stop offset=".387" stop-color="#f3f3f3"/><stop offset=".996" stop-color="#eee"/></linearGradient><path clip-path="url(#s)" fill="url(#C)" d="M16 38.88h40v8H16z"/><linearGradient id="D" gradientUnits="userSpaceOnUse" x1="36" x2="36" y1="26.875" y2="39.735"><stop offset="0" stop-color="#fafafa"/><stop offset=".387" stop-color="#f3f3f3"/><stop offset=".996" stop-color="#eee"/></linearGradient><path clip-path="url(#s)" fill="url(#D)" d="M16 30.88h40v8H16z"/><g><defs><path id="E" d="M36 72L12 92v32h48V92z"/></defs><clipPath id="F"><use xlink:href="#E" overflow="visible"/></clipPath><linearGradient id="G" gradientUnits="userSpaceOnUse" x1="36" x2="36" y1="116" y2="128.86"><stop offset="0" stop-color="#fafafa"/><stop offset=".387" stop-color="#f3f3f3"/><stop offset=".996" stop-color="#eee"/></linearGradient><path clip-path="url(#F)" fill="url(#G)" d="M12 120h48v8H12z"/><linearGradient id="H" gradientUnits="userSpaceOnUse" x1="36" x2="36" y1="108" y2="120.86"><stop offset="0" stop-color="#fafafa"/><stop offset=".387" stop-color="#f3f3f3"/><stop offset=".996" stop-color="#eee"/></linearGradient><path clip-path="url(#F)" fill="url(#H)" d="M12 112h48v8H12z"/><linearGradient id="I" gradientUnits="userSpaceOnUse" x1="36" x2="36" y1="100" y2="112.86"><stop offset="0" stop-color="#fafafa"/><stop offset=".387" stop-color="#f3f3f3"/><stop offset=".996" stop-color="#eee"/></linearGradient><path clip-path="url(#F)" fill="url(#I)" d="M12 104h48v8H12z"/><linearGradient id="J" gradientUnits="userSpaceOnUse" x1="36" x2="36" y1="92" y2="104.86"><stop offset="0" stop-color="#fafafa"/><stop offset=".387" stop-color="#f3f3f3"/><stop offset=".996" stop-color="#eee"/></linearGradient><path clip-path="url(#F)" fill="url(#J)" d="M12 96h48v8H12z"/><linearGradient id="K" gradientUnits="userSpaceOnUse" x1="36" x2="36" y1="84" y2="96.86"><stop offset="0" stop-color="#fafafa"/><stop offset=".387" stop-color="#f3f3f3"/><stop offset=".996" stop-color="#eee"/></linearGradient><path clip-path="url(#F)" fill="url(#K)" d="M12 88h48v8H12z"/><linearGradient id="L" gradientUnits="userSpaceOnUse" x1="36" x2="36" y1="76" y2="88.86"><stop offset="0" stop-color="#fafafa"/><stop offset=".387" stop-color="#f3f3f3"/><stop offset=".996" stop-color="#eee"/></linearGradient><path clip-path="url(#F)" fill="url(#L)" d="M12 80h48v8H12z"/><linearGradient id="M" gradientUnits="userSpaceOnUse" x1="36" x2="36" y1="68" y2="80.86"><stop offset="0" stop-color="#fafafa"/><stop offset=".387" stop-color="#f3f3f3"/><stop offset=".996" stop-color="#eee"/></linearGradient><path clip-path="url(#F)" fill="url(#M)" d="M12 72h48v8H12z"/></g><g opacity=".2"><path d="M36 41.03c5.52 0 10 4.48 10 10V65.7H26V51.03c0-5.53 4.48-10 10-10m0-1c-6.07 0-11 4.93-11 11V66.7h22V51.03c0-6.07-4.93-11-11-11z" fill="#424242"/></g><g><radialGradient id="N" cx="93.167" cy="6.333" gradientUnits="userSpaceOnUse" r="42.767"><stop offset="0" stop-color="#f48fb1"/><stop offset=".467" stop-color="#ef5a8c"/><stop offset=".739" stop-color="#ec407a"/><stop offset="1" stop-color="#ec407a"/></radialGradient><path d="M95.3 46.44l-1.96-2.75C83.94 32 77.84 24.16 79.22 16.07c1.13-6.59 7.12-10.83 13.71-9.7 3.63.62 6.95 2.94 8.82 6.11 2.81-2.37 6.72-3.45 10.35-2.83 6.59 1.13 10.83 7.12 9.7 13.71-1.39 8.1-9.75 13.46-22.5 21.36l-2.76 1.95c-.4.27-.96.18-1.24-.23z" fill="url(#N)"/></g><g><radialGradient id="O" cx="73.167" cy="40.5" gradientUnits="userSpaceOnUse" r="27.629"><stop offset="0" stop-color="#f48fb1"/><stop offset=".433" stop-color="#ef6090"/><stop offset=".76" stop-color="#ec407a"/><stop offset="1" stop-color="#ec407a"/></radialGradient><path d="M71.2 63.77l-1.28-1.74c-6.13-7.35-10.11-12.29-9.32-17.47.65-4.22 4.42-6.99 8.64-6.35 2.32.36 4.47 1.8 5.7 3.8 1.77-1.54 4.25-2.28 6.57-1.92 4.22.65 6.99 4.42 6.35 8.64-.79 5.18-6.07 8.7-14.12 13.88L72 63.89c-.26.19-.61.13-.8-.12z" fill="url(#O)"/></g><radialGradient id="P" cx="34.833" cy="10.833" gradientUnits="userSpaceOnUse" r="33.759"><stop offset="0" stop-color="#f48fb1"/><stop offset=".632" stop-color="#ef5a8c"/><stop offset="1" stop-color="#ec407a"/></radialGradient><path d="M59.56 37.97l-4.16-2.04c-.91-.45-1.61-1.12-1.99-1.91L38.76 5.44c-1.04-1.92-4.48-1.92-5.51 0L18.58 34.02c-.38.79-1.08 1.46-1.99 1.91l-4.16 2.04c-.93.75-.26 2.03 1.07 2.03h45c1.33 0 2-1.28 1.06-2.03z" fill="url(#P)"/><path d="M48 124H24v-16c0-6.63 5.37-12 12-12s12 5.37 12 12v16z" fill="#4fc3f7"/><g opacity=".2"><path d="M36 98c5.51 0 10 4.49 10 10v14H26v-14c0-5.51 4.49-10 10-10m0-2c-6.63 0-12 5.37-12 12v16h24v-16c0-6.63-5.37-12-12-12z" fill="#424242"/></g><radialGradient id="Q" cx="35.5" cy="57.375" gradientUnits="userSpaceOnUse" r="32.048"><stop offset="0" stop-color="#f48fb1"/><stop offset=".632" stop-color="#ef5a8c"/><stop offset="1" stop-color="#ec407a"/></radialGradient><path d="M61.92 85.7l-24-20a2.991 2.991 0 0 0-3.84 0l-24 20a3.008 3.008 0 0 0-.38 4.23 2.999 2.999 0 0 0 4.23.38L36 71.91l22.08 18.4a3.018 3.018 0 0 0 4.23-.39c1.06-1.27.88-3.16-.39-4.22z" fill="url(#Q)"/><g opacity=".2"><path d="M90.82 9.18c.53 0 1.07.05 1.61.14 2.73.47 5.32 2.26 6.74 4.68.45.76 1.21 1.28 2.08 1.43a3.031 3.031 0 0 0 2.44-.66c1.74-1.46 4.06-2.3 6.37-2.3.52 0 1.04.04 1.54.13 2.4.41 4.46 1.68 5.8 3.58 1.34 1.9 1.86 4.27 1.45 6.66-1.14 6.64-8.39 11.43-21.12 19.32-.05.03-.1.06-.15.1l-1.05.74-.74-1.05a.755.755 0 0 0-.11-.14c-9.38-11.67-14.64-18.59-13.5-25.24.74-4.35 4.3-7.39 8.64-7.39m0-3c-5.72 0-10.59 4.01-11.59 9.89-1.39 8.1 4.72 15.94 14.12 27.62l1.96 2.75c.18.25.45.38.73.38.18 0 .36-.05.52-.16l2.76-1.95c12.75-7.9 21.11-13.26 22.5-21.36 1.13-6.59-3.11-12.58-9.7-13.71-.68-.12-1.36-.17-2.05-.17-3 0-6.01 1.08-8.3 3-1.87-3.17-5.19-5.49-8.82-6.11-.73-.12-1.44-.18-2.13-.18z" fill="#424242"/></g><g opacity=".2"><path d="M68.03 41.12c.25 0 .51.02.76.06 1.44.22 2.82 1.14 3.59 2.4.46.75 1.23 1.26 2.1 1.4.15.02.3.03.45.03.72 0 1.42-.26 1.97-.74.91-.8 2.2-1.27 3.43-1.27.24 0 .48.02.71.05 2.58.4 4.23 2.64 3.83 5.22-.58 3.77-5.21 6.94-12.72 11.78-5.72-6.86-9.19-11.27-8.61-15.04.38-2.29 2.21-3.89 4.49-3.89m0-3c-3.71 0-6.84 2.63-7.43 6.44-.79 5.18 3.19 10.12 9.32 17.47l1.28 1.74a.578.578 0 0 0 .8.12l1.74-1.27c8.05-5.18 13.33-8.7 14.12-13.88.65-4.22-2.13-7.99-6.35-8.64-.38-.07-.77-.1-1.17-.1-1.96 0-3.93.73-5.41 2.01-1.23-2-3.38-3.45-5.7-3.8-.4-.06-.8-.09-1.2-.09z" fill="#424242"/></g><path d="M113.17 69.17a4.004 4.004 0 0 0-2.83-1.17H56V40h2.5c1.34 0 2.01-1.28 1.06-2.03l-4.16-2.04c-.91-.45-1.61-1.12-1.99-1.91L38.76 5.44C38.24 4.48 37.12 4 36 4s-2.24.48-2.76 1.44L18.58 34.02c-.38.79-1.08 1.46-1.99 1.91l-4.16 2.04c-.93.75-.26 2.03 1.07 2.03H16v28L4 80v44h120V80l-10.83-10.83zM121 121H7V81.24l9-9 .37-.38.87-.86h1.85L19 40c0-1.36 1.98-4.05 2.27-4.64L35.8 7.02a1.031 1.031 0 0 1 .4 0l14.53 28.32s.89 1.65 2.28 4.66v31h57.34c.27 0 .52.1.71.29l9.95 9.95V121z" opacity=".2" fill="#424242"/><g><defs><path id="R" d="M87.41 102c-.03-4.26-1.34-7.38-2.85-9.58-.22-.32-.43-.61-.66-.89-1.91-2.41-3.9-3.43-3.9-3.43s-1.99 1.03-3.91 3.43c-.22.28-.44.57-.66.89-1.51 2.2-2.82 5.32-2.85 9.58h-.01v13.9h14.84V102z"/></defs><clipPath id="S"><use xlink:href="#R" overflow="visible"/></clipPath><g clip-path="url(#S)"><path fill="#673ab7" d="M78.07 91.65v1.56l.84-1.56z"/><path d="M75.56 92.13c-.05.07-.11.14-.16.21-.64.93-1.23 2.03-1.72 3.31h1.88v-3.52z" fill="#4dd0e1"/><path d="M76.76 95.66l1.31-2.44v-1.57h-2.15c-.12.16-.24.32-.36.49v3.52h1.2z" fill="#26c6da"/><path fill="#4dd0e1" d="M76.88 109.22l-1.32 4.01h2.51v-4.01z"/><path d="M77.47 107.43l-.59 1.79h1.19v-1.24c-.21-.19-.4-.37-.6-.55z" fill="#a5d6a7"/><path d="M78.07 107.98v1.24h1.35l-.33-.33c-.36-.32-.69-.62-1.02-.91z" fill="#ffeb3b"/><path d="M75.31 98.36l1.45-2.7h-3.08c-.5 1.31-.88 2.81-1.05 4.52h1.13c.29-.79.84-1.42 1.55-1.82z" fill="#80deea"/><path d="M73.53 101.44c0-.45.09-.87.23-1.27h-1.13c-.06.59-.1 1.19-.1 1.82h-.01v1.56l1.03-1.92c-.01-.05-.02-.12-.02-.19z" fill="#3f51b5"/><path d="M75.56 105.55c-.26-.29-.5-.57-.71-.85-.15-.2-.31-.4-.44-.6l-.29.6-.64 1.34-.95 1.98v1.21h2.1l.93-2.31.35-.88.03-.07c-.14-.15-.26-.29-.38-.42z" fill="#64b5f6"/><path fill="#29b6f6" d="M75.56 113.23l-.91 2.77h3.42v-2.77z"/><path fill="#81d4fa" d="M72.52 109.22V114.42l.48-1.19 1.62-4.01z"/><path fill="#f44336" d="M79.97 89.65l-1.06 2h1.03z"/><path d="M78.91 91.65l-.84 1.57-1.31 2.44-1.45 2.7c.52-.29 1.12-.47 1.77-.47.1 0 .2.03.3.03l.68-1.42.4-.84 1.45-3.01.02-1h-1.02z" fill="#c5e1a5"/><path d="M73.55 101.64l-1.03 1.92v4.46l.95-1.98.64-1.34.29-.6c-.52-.81-.81-1.61-.85-2.46z" fill="#1e88e5"/><path fill="#fb8c00" d="M72.5 114.47l.02 1.53v-1.58z"/><path fill="#80deea" d="M75.56 113.23H73l-.48 1.19V116h2.13l.91-2.77z"/><linearGradient id="T" gradientUnits="userSpaceOnUse" x1="73.002" x2="77.469" y1="109.596" y2="109.596"><stop offset="0" stop-color="#ffc107"/><stop offset="1" stop-color="#fff59d"/></linearGradient><path d="M76.01 106.03l-.07-.07-.03.07-.35.88-.93 2.31-1.63 4.01h2.55l1.32-4.01.59-1.79c-.52-.48-1.01-.95-1.45-1.4z" fill="url(#T)"/><path fill="#673ab7" d="M81.93 91.65h-.84l.84 1.56zM79.87 95.56l.03.1h.2l.03-.1.01.1-.06-3.01-.08-.17-.08.17-.06 3.01z"/><path fill="#673ab7" d="M79.93 92.33l.01-.68-.02 1 .08-.17zM80.13 95.56l-.03.1h.04z"/><path d="M86.32 95.66a16.02 16.02 0 0 0-1.72-3.31c-.05-.08-.11-.14-.16-.21v3.52h1.88z" fill="#4dd0e1"/><path d="M81.93 93.21l1.31 2.44h1.2v-3.52c-.12-.17-.24-.33-.36-.49h-2.15v1.57z" fill="#26c6da"/><path fill="#2196f3" d="M80.1 95.66h-.2l.1.23zM80.15 96.26l-.01-.6.01.6zM80.15 96.26l-.01-.6h-.04l-.1.23zM79.8 99.05l.01-.31z"/><path fill="#4dd0e1" d="M81.93 109.22v4.01h2.51l-1.32-4.01z"/><path d="M81.93 107.98v1.24h1.19l-.59-1.79c-.2.18-.39.36-.6.55z" fill="#a5d6a7"/><g fill="#b39ddb"><path d="M78.07 89.37c-.62.53-1.31 1.21-2.01 2.08-.05.06-.09.13-.14.19H78.91l1.07-1.99.02-1.36-.01-.29s-.82.43-1.92 1.37zM83.94 91.45c-.69-.87-1.39-1.55-2.01-2.08C80.83 88.43 80 88 80 88v.29l.02 1.27v.09l1.07 1.99H84.08c-.05-.06-.09-.13-.14-.19z"/></g><path fill="#009688" d="M79.97 89.65l.01-.09.02.05.02-.05-.02-1.27-.03 1.36zM80.03 89.65l-.01-.09.01.09zM79.97 89.65l-.03 2z"/><path fill="#009688" d="M80.02 89.56l-.02.05.03.04z"/><path fill="#ffeb3b" d="M80.58 109.22l-.19.19-.39.39-.39-.39-.19-.19h-1.35v4.01H81.93v-4.01z"/><path fill="#80cbc4" d="M80.46 113.23h-2.39V116H81.93v-2.77z"/><path d="M80.91 108.89l-.33.33h1.35v-1.24c-.33.29-.66.59-1.02.91z" fill="#ffeb3b"/><path d="M83.24 95.66l1.45 2.7c.71.4 1.26 1.04 1.55 1.82h1.13c-.17-1.71-.55-3.21-1.05-4.52h-3.08z" fill="#80deea"/><path d="M86.53 106.03l-.64-1.34-.29-.6c-.13.2-.29.4-.44.6-.21.28-.45.56-.71.85-.13.14-.25.28-.38.42l.03.07.35.88.93 2.31h2.1v-1.21l-.95-1.98z" fill="#64b5f6"/><path d="M86.47 101.44c0 .07-.02.13-.02.2l1.03 1.92V102h-.01c0-.64-.04-1.24-.1-1.82h-1.13c.15.39.23.81.23 1.26z" fill="#3f51b5"/><path fill="#29b6f6" d="M81.93 113.23V116h3.42l-.91-2.77z"/><path fill="#81d4fa" d="M85.38 109.22l1.62 4.01.48 1.19V109.22z"/><path fill="#f44336" d="M80 92.48l.08.17-.02-1 .01.68z"/><path fill="#f44336" d="M80 92.48l.07-.15-.01-.68h-.12l-.01.68zM81.09 91.65l-1.06-2 .03 2zM79.98 89.56l-.01.09.03-.04zM80.06 91.65l-.03-2z"/><path fill="#f44336" d="M80.06 91.65l-.03-2-.03-.04-.03.04-.03 2z"/><path d="M83.24 95.66l-1.31-2.44-.84-1.57h-1.03l.02 1 1.45 3.01.4.84.68 1.42c.1-.01.2-.03.3-.03.66 0 1.25.18 1.77.47l-1.44-2.7z" fill="#c5e1a5"/><path d="M86.45 101.64c-.04.85-.33 1.65-.86 2.46l.29.6.64 1.34.95 1.98v-4.46l-1.02-1.92z" fill="#1e88e5"/><path fill="#fb8c00" d="M87.48 114.42V116l.02-1.53z"/><path fill="#80deea" d="M87 113.23h-2.56l.91 2.77h2.13v-1.58z"/><path fill="#ffea00" d="M79.81 98.6v.14-.14zM80.2 99.05l-.01-.45.01.45z"/><linearGradient id="U" gradientUnits="userSpaceOnUse" x1="82.531" x2="86.998" y1="109.596" y2="109.596"><stop offset="0" stop-color="#ffc107"/><stop offset="1" stop-color="#fff59d"/></linearGradient><path d="M85.38 109.22l-.93-2.31-.35-.88-.03-.07-.07.07c-.44.45-.93.91-1.46 1.4l.59 1.79 1.32 4.01H87l-1.62-4.01z" fill="url(#U)"/><path fill="#f44336" d="M79.86 95.66l-.01.6zM79.81 98.6l.04-2.34-.04 2.34zM79.87 95.56l-.01.1h.04z"/><path fill="#f44336" d="M80 95.89l-.1-.23h-.04l-.01.6zM80.19 98.6l-.04-2.34z"/><path d="M81.93 96.5l-.4-.84-1.45-3.01.06 3.01.01.6.04 2.34-.04-2.34-.15-.37-.15.36-.04 2.34.04-2.34.01-.6.06-3.01-1.45 3.01-.4.84-.68 1.42c.23.02.46.05.68.12.32.09.62.22.91.39.3.17.58.38.82.63l.01-.31-.01.31c.06.07.14.12.2.19.06-.07.13-.12.2-.19.16-.17.34-.32.53-.46.09-.06.19-.12.29-.18.29-.17.59-.3.91-.39.22-.06.45-.1.68-.12l-.68-1.4z" fill="#26c6da"/><path d="M78.07 98.03c-.22-.06-.45-.1-.68-.12l-.33.68-.76 1.58h1.97l.64-1.58.07-.18c-.29-.15-.59-.29-.91-.38z" fill="#ff8a80"/><path d="M78.07 100.18H76.3l-.74 1.53-1.15 2.39c.13.2.29.4.44.6.21.28.45.56.71.85.13.14.25.28.38.42l.51-1.26 1.82-4.52h-.2z" fill="#f06292"/><path d="M75.56 100.18H73.76c-.14.39-.23.82-.23 1.27 0 .07.02.13.02.2.04.85.33 1.65.86 2.46l1.15-2.39.74-1.53h-.74z" fill="#ff80ab"/><path d="M77.09 97.88c-.66 0-1.25.18-1.77.47a3.47 3.47 0 0 0-1.55 1.82h2.54l.76-1.58.33-.68c-.12 0-.21-.03-.31-.03z" fill="#f8bbd0"/><path d="M78.07 104.7h-1.62l-.51 1.26.07.07c.44.45.93.91 1.46 1.4l.46-1.4.14-.42.3-.92h-.3z" fill="#ff9800"/><path fill="#f06292" d="M80.22 100.43l-.08-.25h-.28l-.08.25-1.41 4.27H81.63z"/><path fill="#ff80ab" d="M79.78 100.18h-1.51l-1.82 4.52H78.37l1.41-4.27.08-.25z"/><path d="M82.07 106.03l-.14-.42-.3-.92H78.37l-.3.92-.14.42-.46 1.4c.2.18.39.36.6.55.33.3.67.6 1.02.91l.33.33.19.19.39.39.39-.39.19-.19.33-.33c.36-.32.69-.62 1.02-.91.21-.19.4-.37.6-.55l-.46-1.4z" fill="#ec407a"/><path d="M82.94 98.6l-.33-.68c-.23.02-.46.05-.68.12-.32.09-.62.22-.91.39l.07.18.64 1.58h1.97l-.76-1.59z" fill="#ff8a80"/><path d="M84.44 101.71l-.74-1.53h-1.97l1.82 4.52.51 1.26c.14-.14.26-.28.38-.42.26-.29.5-.57.71-.85.15-.2.31-.4.44-.6l-1.15-2.38z" fill="#f06292"/><path d="M86.24 100.18H83.7l.74 1.53 1.15 2.39c.52-.81.81-1.61.86-2.46 0-.07.02-.13.02-.2 0-.45-.08-.87-.23-1.26z" fill="#ff80ab"/><path d="M84.69 98.36c-.52-.29-1.12-.47-1.77-.47-.1 0-.2.03-.3.03l.33.68.76 1.58h2.54c-.3-.79-.85-1.42-1.56-1.82z" fill="#f8bbd0"/><path fill="#ff80ab" d="M81.73 100.18h-1.59l.08.25 1.41 4.27H83.55z"/><path fill="#c62828" d="M80.2 99.14v-.09z"/><path d="M83.55 104.7H81.63l.3.92.14.42.46 1.4c.53-.48 1.02-.95 1.46-1.4l.07-.07-.51-1.27z" fill="#ff9800"/><path d="M81.09 98.6l-.07-.18c-.1.06-.2.11-.29.18-.19.13-.37.29-.53.46v.09-.09c-.06.07-.14.12-.2.19-.06-.07-.13-.12-.2-.19-.24-.25-.52-.46-.82-.63l-.07.18-.64 1.58h3.46l-.64-1.59z" fill="#ff5722"/><linearGradient id="V" gradientUnits="userSpaceOnUse" x1="80" x2="80" y1="88.024" y2="98.095"><stop offset="0" stop-color="#f48fb1"/><stop offset="1" stop-color="#fce4ec"/></linearGradient><path d="M80 99.22c.84-3.75 2.58-6.21 3.94-7.65C82 89.15 80 88.12 80 88.12s-2 1.03-3.94 3.45c1.36 1.44 3.1 3.9 3.94 7.65z" fill="url(#V)"/></g><path d="M87.98 100.84c-.12-3.52-1.11-6.66-2.94-9.33-.22-.33-.45-.63-.68-.92-1.97-2.47-4.01-3.54-4.09-3.58l-.27-.14-.27.14c-.08.04-2.12 1.11-4.1 3.58-.23.29-.45.59-.68.92-1.83 2.67-2.82 5.81-2.94 9.33L72 115.9h16v-15.06h-.02zM80 88.19c.56.34 1.91 1.27 3.27 2.91-1.22 1.48-2.59 3.72-3.31 6.92-.71-3.16-2.06-5.39-3.28-6.87 1.37-1.66 2.75-2.61 3.32-2.96zM73.16 102l.01-.57c.02-3.52.95-6.64 2.75-9.26.04-.05.08-.1.11-.15 1.55 1.87 3.35 5.13 3.44 10.26l-.01 12.47h-6.29V102zm7.31 12.74v-12.83c.17-4.96 1.94-8.12 3.46-9.94.05.07.1.13.15.2 1.8 2.62 2.73 5.74 2.75 9.26l.01 13.32h-6.37z" fill="#fafafa"/></g><g><defs><path id="W" d="M111.41 102c-.03-4.26-1.34-7.38-2.85-9.58-.22-.32-.43-.61-.66-.89-1.92-2.4-3.91-3.43-3.91-3.43s-1.99 1.03-3.91 3.43c-.22.28-.44.57-.66.89-1.51 2.2-2.82 5.32-2.85 9.58h-.01v13.9h14.84l.01-13.9z"/></defs><clipPath id="X"><use xlink:href="#W" overflow="visible"/></clipPath><g clip-path="url(#X)"><path fill="#673ab7" d="M102.07 91.65v1.56l.84-1.56z"/><path d="M99.56 92.13c-.05.07-.11.14-.16.21-.64.93-1.23 2.03-1.72 3.31h1.88v-3.52z" fill="#4dd0e1"/><path d="M100.76 95.66l1.31-2.44v-1.57h-2.15c-.12.16-.24.32-.36.49v3.52h1.2z" fill="#26c6da"/><path fill="#4dd0e1" d="M100.88 109.22l-1.32 4.01h2.51v-4.01z"/><path d="M101.47 107.43l-.59 1.79h1.19v-1.24c-.21-.19-.4-.37-.6-.55z" fill="#a5d6a7"/><path d="M102.07 107.98v1.24h1.35l-.33-.33c-.36-.32-.69-.62-1.02-.91z" fill="#ffeb3b"/><path d="M99.31 98.36l1.45-2.7h-3.08c-.5 1.31-.88 2.81-1.05 4.52h1.13c.29-.79.84-1.42 1.55-1.82z" fill="#80deea"/><path d="M97.53 101.44c0-.45.09-.87.23-1.27h-1.13c-.06.59-.1 1.19-.1 1.82h-.01v1.56l1.03-1.92c-.01-.05-.02-.12-.02-.19z" fill="#3f51b5"/><path d="M99.56 105.55c-.26-.29-.5-.57-.71-.85-.15-.2-.31-.4-.44-.6l-.29.6-.64 1.34-.95 1.98v1.21h2.1l.93-2.31.35-.88.03-.07c-.14-.15-.26-.29-.38-.42z" fill="#64b5f6"/><path fill="#29b6f6" d="M99.56 113.23l-.91 2.77h3.42v-2.77z"/><path fill="#81d4fa" d="M96.52 109.22V114.42l.48-1.19 1.62-4.01z"/><path fill="#f44336" d="M103.97 89.65l-1.06 2h1.03z"/><path d="M102.91 91.65l-.84 1.57-1.31 2.44-1.45 2.7c.52-.29 1.12-.47 1.77-.47.1 0 .2.03.3.03l.68-1.42.4-.84 1.45-3.01.02-1h-1.02z" fill="#c5e1a5"/><path d="M97.55 101.64l-1.03 1.92v4.46l.95-1.98.64-1.34.29-.6c-.52-.81-.81-1.61-.85-2.46z" fill="#1e88e5"/><path fill="#fb8c00" d="M96.5 114.47l.02 1.53v-1.58z"/><path fill="#80deea" d="M99.56 113.23H97l-.48 1.19V116h2.13l.91-2.77z"/><linearGradient id="Y" gradientUnits="userSpaceOnUse" x1="97.002" x2="101.469" y1="109.596" y2="109.596"><stop offset="0" stop-color="#ffc107"/><stop offset="1" stop-color="#fff59d"/></linearGradient><path d="M100.01 106.03l-.07-.07-.03.07-.35.88-.93 2.31-1.63 4.01h2.55l1.32-4.01.59-1.79c-.52-.48-1.01-.95-1.45-1.4z" fill="url(#Y)"/><path fill="#673ab7" d="M105.93 91.65h-.84l.84 1.56zM103.87 95.56l.03.1h.2l.03-.1.01.1-.06-3.01-.08-.17-.08.17-.06 3.01z"/><path fill="#673ab7" d="M103.93 92.33l.01-.68-.02 1 .08-.17zM104.13 95.56l-.03.1h.04z"/><path d="M110.32 95.66a16.02 16.02 0 0 0-1.72-3.31c-.05-.08-.11-.14-.16-.21v3.52h1.88z" fill="#4dd0e1"/><path d="M105.93 93.21l1.31 2.44h1.2v-3.52c-.12-.17-.24-.33-.36-.49h-2.15v1.57z" fill="#26c6da"/><path fill="#2196f3" d="M104.1 95.66h-.2l.1.23zM104.15 96.26l-.01-.6.01.6zM104.15 96.26l-.01-.6h-.04l-.1.23zM103.8 99.05l.01-.31z"/><path fill="#4dd0e1" d="M105.93 109.22v4.01h2.51l-1.32-4.01z"/><path d="M105.93 107.98v1.24h1.19l-.59-1.79c-.2.18-.39.36-.6.55z" fill="#a5d6a7"/><g fill="#b39ddb"><path d="M102.07 89.37c-.62.53-1.31 1.21-2.01 2.08-.05.06-.09.13-.14.19H102.91l1.07-1.99.03-1.36-.02-.29s-.82.43-1.92 1.37z"/><path d="M107.94 91.45c-.69-.87-1.39-1.55-2.01-2.08C104.83 88.43 104 88 104 88v.29l.02 1.27v.09l1.07 1.99H108.08c-.05-.06-.09-.13-.14-.19z"/></g><path fill="#009688" d="M103.97 89.65l.01-.09.02.05.02-.05-.02-1.27-.03 1.36zM104.03 89.65l-.01-.09.01.09zM103.97 89.65l-.03 2z"/><path fill="#009688" d="M104.02 89.56l-.02.05.03.04z"/><path fill="#ffeb3b" d="M104.58 109.22l-.19.19-.39.39-.39-.39-.19-.19h-1.35v4.01H105.93v-4.01z"/><path fill="#80cbc4" d="M104.46 113.23h-2.39V116H105.93v-2.77z"/><path d="M104.91 108.89l-.33.33h1.35v-1.24c-.33.29-.66.59-1.02.91z" fill="#ffeb3b"/><path d="M107.24 95.66l1.45 2.7c.71.4 1.26 1.04 1.55 1.82h1.13c-.17-1.71-.55-3.21-1.05-4.52h-3.08z" fill="#80deea"/><path d="M110.53 106.03l-.64-1.34-.29-.6c-.13.2-.29.4-.44.6-.21.28-.45.56-.71.85-.13.14-.25.28-.38.42l.03.07.35.88.93 2.31h2.1v-1.21l-.95-1.98z" fill="#64b5f6"/><path d="M110.47 101.44c0 .07-.02.13-.02.2l1.03 1.92V102h-.01c0-.64-.04-1.24-.1-1.82h-1.13c.15.39.23.81.23 1.26z" fill="#3f51b5"/><path fill="#29b6f6" d="M105.93 113.23V116h3.42l-.91-2.77z"/><path fill="#81d4fa" d="M109.38 109.22l1.62 4.01.48 1.19V109.22z"/><path fill="#f44336" d="M104 92.48l.08.17-.02-1 .01.68z"/><path fill="#f44336" d="M104 92.48l.07-.15-.01-.68h-.12l-.01.68zM105.09 91.65l-1.06-2 .03 2zM103.98 89.56l-.01.09.03-.04zM104.06 91.65l-.03-2z"/><path fill="#f44336" d="M104.06 91.65l-.03-2-.03-.04-.03.04-.03 2z"/><path d="M107.24 95.66l-1.31-2.44-.84-1.57h-1.03l.02 1 1.45 3.01.4.84.68 1.42c.1-.01.2-.03.3-.03.66 0 1.25.18 1.77.47l-1.44-2.7z" fill="#c5e1a5"/><path d="M110.45 101.64c-.04.85-.33 1.65-.86 2.46l.29.6.64 1.34.95 1.98v-4.46l-1.02-1.92z" fill="#1e88e5"/><path fill="#fb8c00" d="M111.48 114.42V116l.02-1.53z"/><path fill="#80deea" d="M111 113.23h-2.56l.91 2.77h2.13v-1.58z"/><path fill="#ffea00" d="M103.81 98.6v.14-.14zM104.2 99.05l-.01-.45.01.45z"/><linearGradient id="Z" gradientUnits="userSpaceOnUse" x1="106.531" x2="110.998" y1="109.596" y2="109.596"><stop offset="0" stop-color="#ffc107"/><stop offset="1" stop-color="#fff59d"/></linearGradient><path d="M109.38 109.22l-.93-2.31-.35-.88-.03-.07-.07.07c-.44.45-.93.91-1.46 1.4l.59 1.79 1.32 4.01H111l-1.62-4.01z" fill="url(#Z)"/><path fill="#f44336" d="M103.86 95.66l-.01.6zM103.81 98.6l.04-2.34-.04 2.34zM103.87 95.56l-.01.1h.04z"/><path fill="#f44336" d="M104 95.89l-.1-.23h-.04l-.01.6zM104.19 98.6l-.04-2.34z"/><path d="M105.93 96.5l-.4-.84-1.45-3.01.06 3.01.01.6.04 2.34-.04-2.34-.15-.37-.15.36-.04 2.34.04-2.34.01-.6.06-3.01-1.45 3.01-.4.84-.68 1.42c.23.02.46.05.68.12.32.09.62.22.91.39.3.17.58.38.82.63l.01-.31-.01.31c.06.07.14.12.2.19.06-.07.13-.12.2-.19.16-.17.34-.32.53-.46.09-.06.19-.12.29-.18.29-.17.59-.3.91-.39.22-.06.45-.1.68-.12l-.68-1.4z" fill="#26c6da"/><path d="M102.07 98.03c-.22-.06-.45-.1-.68-.12l-.33.68-.76 1.58h1.97l.64-1.58.07-.18c-.29-.15-.59-.29-.91-.38z" fill="#ff8a80"/><path d="M102.07 100.18h-1.77l-.74 1.53-1.15 2.39c.13.2.29.4.44.6.21.28.45.56.71.85.13.14.25.28.38.42l.51-1.26 1.82-4.52h-.2z" fill="#f06292"/><path d="M99.56 100.18H97.76c-.14.39-.23.82-.23 1.27 0 .07.02.13.02.2.04.85.33 1.65.86 2.46l1.15-2.39.74-1.53h-.74z" fill="#ff80ab"/><path d="M101.09 97.88c-.66 0-1.25.18-1.77.47a3.47 3.47 0 0 0-1.55 1.82h2.54l.76-1.58.33-.68c-.12 0-.21-.03-.31-.03z" fill="#f8bbd0"/><path d="M102.07 104.7h-1.62l-.51 1.26.07.07c.44.45.93.91 1.46 1.4l.46-1.4.14-.42.3-.92h-.3z" fill="#ff9800"/><path fill="#f06292" d="M104.22 100.43l-.08-.25h-.28l-.08.25-1.41 4.27H105.63z"/><path fill="#ff80ab" d="M103.78 100.18h-1.51l-1.82 4.52H102.37l1.41-4.27.08-.25z"/><path d="M106.07 106.03l-.14-.42-.3-.92h-3.27l-.3.92-.14.42-.46 1.4c.2.18.39.36.6.55.33.3.67.6 1.02.91l.33.33.19.19.39.39.39-.39.19-.19.33-.33c.36-.32.69-.62 1.02-.91.21-.19.4-.37.6-.55l-.45-1.4z" fill="#ec407a"/><path d="M106.94 98.6l-.33-.68c-.23.02-.46.05-.68.12-.32.09-.62.22-.91.39l.07.18.64 1.58h1.97l-.76-1.59z" fill="#ff8a80"/><path d="M108.44 101.71l-.74-1.53h-1.97l1.82 4.52.51 1.26c.14-.14.26-.28.38-.42.26-.29.5-.57.71-.85.15-.2.31-.4.44-.6l-1.15-2.38z" fill="#f06292"/><path d="M110.24 100.18h-2.54l.74 1.53 1.15 2.39c.52-.81.81-1.61.86-2.46 0-.07.02-.13.02-.2 0-.45-.08-.87-.23-1.26z" fill="#ff80ab"/><path d="M108.69 98.36c-.52-.29-1.12-.47-1.77-.47-.1 0-.2.03-.3.03l.33.68.76 1.58h2.54c-.3-.79-.85-1.42-1.56-1.82z" fill="#f8bbd0"/><path fill="#ff80ab" d="M105.73 100.18h-1.59l.08.25 1.41 4.27H107.55z"/><path fill="#c62828" d="M104.2 99.14v-.09z"/><path d="M107.55 104.7H105.63l.3.92.14.42.46 1.4c.53-.48 1.02-.95 1.46-1.4l.07-.07-.51-1.27z" fill="#ff9800"/><path d="M105.09 98.6l-.07-.18c-.1.06-.2.11-.29.18-.19.13-.37.29-.53.46v.09-.09c-.06.07-.14.12-.2.19-.06-.07-.13-.12-.2-.19-.24-.25-.52-.46-.82-.63l-.07.18-.64 1.58h3.46l-.64-1.59z" fill="#ff5722"/><linearGradient id="aa" gradientUnits="userSpaceOnUse" x1="104" x2="104" y1="88.024" y2="98.095"><stop offset="0" stop-color="#f48fb1"/><stop offset="1" stop-color="#fce4ec"/></linearGradient><path d="M104 99.22c.84-3.75 2.58-6.21 3.94-7.65-1.94-2.42-3.94-3.45-3.94-3.45s-2 1.03-3.94 3.45c1.36 1.44 3.1 3.9 3.94 7.65z" fill="url(#aa)"/></g><path d="M111.98 100.84c-.12-3.52-1.11-6.66-2.94-9.33-.22-.33-.45-.63-.68-.92-1.97-2.47-4.01-3.54-4.09-3.58l-.27-.14-.27.14c-.08.04-2.12 1.11-4.1 3.58-.23.29-.45.59-.68.92-1.83 2.67-2.82 5.81-2.94 9.33L96 115.9h16v-15.06h-.02zM104 88.19c.56.34 1.91 1.27 3.27 2.91-1.22 1.48-2.59 3.72-3.31 6.92-.71-3.16-2.06-5.39-3.28-6.87 1.37-1.66 2.75-2.61 3.32-2.96zM97.16 102l.01-.57c.02-3.52.95-6.64 2.75-9.26.04-.05.08-.1.11-.15 1.55 1.87 3.35 5.13 3.44 10.26l-.01 12.47h-6.29V102zm7.31 12.74v-12.83c.17-4.96 1.94-8.12 3.46-9.94.05.07.1.13.15.2 1.8 2.62 2.73 5.74 2.75 9.26l.01 13.32h-6.37z" fill="#fafafa"/></g></g></svg>