<svg width="128" height="128" xmlns="http://www.w3.org/2000/svg"><symbol id="f" viewBox="-64.5 -64.5 129 129"><g fill="none" stroke="#4285f4" stroke-miterlimit="10"><path d="M-64-64H64V64H-64z"/><path d="M36.95 37.82C27.32 46.32 14.2 51 0 51c-14.27 0-27.39-4.62-36.96-13.01C-47.45 28.79-53 15.65-53 0c0-15.58 5.55-28.69 16.04-37.92C-27.36-46.35-14.24-51 0-51c14.17 0 27.29 4.71 36.95 13.25C47.45-28.45 53-15.4 53 0c0 15.47-5.55 28.55-16.05 37.82z"/><path d="M0 55c-29.59 0-57-19.01-57-55 0-35.8 27.41-55 57-55S57-35.31 57 0c0 35.51-27.41 55-57 55z"/><path d="M0-43c-12.29 0-23.54 3.94-31.68 11.09C-40.39-24.25-45-13.21-45 0c0 29.7 22.6 43 45 43 21.67 0 45-13.46 45-43S21.67-43 0-43zM-.01 51V-51M-16 48.95v-97.88M15.99 48.91v-97.84M53 .08H-53"/></g></symbol><linearGradient id="a" gradientTransform="rotate(180 -4976 -1563)" gradientUnits="userSpaceOnUse" x1="-10016" x2="-10016" y1="-3234.284" y2="-3146.298"><stop offset=".05" stop-color="#fee133"/><stop offset=".156" stop-color="#d5da5a"/><stop offset=".29" stop-color="#a8d285"/><stop offset=".426" stop-color="#82cca8"/><stop offset=".56" stop-color="#65c6c4"/><stop offset=".693" stop-color="#51c3d7"/><stop offset=".824" stop-color="#44c1e3"/><stop offset=".95" stop-color="#40c0e7"/></linearGradient><path d="M64 119.89c-15.48 0-29.81-5.12-40.36-14.43C12.1 95.28 6 80.94 6 64c0-16.86 6.1-31.17 17.64-41.39C34.22 13.26 48.55 8.11 64 8.11c27.94 0 58 17.49 58 55.89s-30.07 55.89-58 55.89z" fill="url(#a)"/><path d="M64 10.11c15.04 0 28.9 4.91 39.04 13.82C114.14 33.68 120 47.54 120 64c0 16.54-5.86 30.42-16.96 40.15C92.93 113.01 79.06 117.9 64 117.9c-14.99 0-28.86-4.95-39.03-13.93C13.87 94.17 8 80.35 8 64c0-16.27 5.87-30.07 16.97-39.89 10.2-9.03 24.07-14 39.03-14m0-4C32.85 6.11 4 26.83 4 64c0 37.37 28.85 57.89 60 57.89s60-20.01 60-57.89c0-37.68-28.85-57.89-60-57.89z" fill="#47a9b0"/><path d="M40.17 74.98c-2.4 0-4.77-.69-6.83-2-8.01-5.07-8.12-15.81-4.15-23.33 3.24-6.16 8.52-9.83 14.1-9.83 2.4 0 4.77.69 6.83 2 8.01 5.07 8.12 15.8 4.15 23.33-3.24 6.16-8.52 9.83-14.1 9.83z" fill="#fff"/><path d="M43.29 41.82c2.03 0 4 .57 5.76 1.69 5.64 3.57 8.02 12.04 3.45 20.71-3.14 5.97-7.86 8.77-12.33 8.77-2.03 0-4-.57-5.76-1.69-5.64-3.57-8.02-12.04-3.45-20.71 3.14-5.97 7.85-8.77 12.33-8.77m0-4c-6.34 0-12.28 4.08-15.87 10.9-5.16 9.79-3.07 20.94 4.85 25.96 2.38 1.51 5.12 2.31 7.9 2.31 6.34 0 12.28-4.08 15.87-10.9 5.16-9.79 3.07-20.94-4.85-25.96a14.78 14.78 0 0 0-7.9-2.31z" fill="#47a9b0"/><path d="M87.8 74.98c-5.59 0-10.86-3.68-14.1-9.83-3.97-7.53-3.86-18.27 4.15-23.33 2.06-1.31 4.43-2 6.83-2 5.59 0 10.86 3.68 14.1 9.83 3.97 7.53 3.86 18.26-4.15 23.33-2.06 1.31-4.42 2-6.83 2z" fill="#fff"/><path d="M84.68 41.82c4.48 0 9.19 2.8 12.33 8.77 4.57 8.67 2.19 17.14-3.45 20.71-1.76 1.11-3.73 1.69-5.76 1.69-4.48 0-9.19-2.8-12.33-8.77-4.57-8.67-2.19-17.14 3.45-20.71 1.76-1.12 3.73-1.69 5.76-1.69m0-4c-2.78 0-5.51.8-7.9 2.31-7.92 5.01-10.01 16.17-4.85 25.96 3.6 6.83 9.53 10.9 15.87 10.9 2.78 0 5.51-.8 7.9-2.31 7.92-5.01 10.01-16.17 4.85-25.96-3.59-6.82-9.53-10.9-15.87-10.9z" fill="#47a9b0"/><linearGradient id="b" gradientUnits="userSpaceOnUse" x1="102.811" x2="102.811" y1="82.523" y2="125.563"><stop offset=".151" stop-color="#fee133"/><stop offset=".297" stop-color="#fddc32"/><stop offset=".463" stop-color="#fcce2e"/><stop offset=".64" stop-color="#f9b828"/><stop offset=".764" stop-color="#f6a323"/></linearGradient><path d="M115.83 100.83c-6.33 8.67-10.15 6.67-10.45 13.86C105.17 120 104 126 104 126H82.5s-.49-7.32-.56-9.54c-.23-8.18.61-16.79 7.39-22.96 13-11.83 17.17-3.87 27.5-18.33 2.5-3.5 6.92-6.2 6.88 1.48-.03 6-.8 14.5-7.88 24.18z" fill="url(#b)" stroke="#47a9b0" stroke-width="4" stroke-miterlimit="10"/><linearGradient id="c" gradientTransform="matrix(-1 0 0 1 75.622 0)" gradientUnits="userSpaceOnUse" x1="50.811" x2="50.811" y1="82.523" y2="125.563"><stop offset=".151" stop-color="#fee133"/><stop offset=".297" stop-color="#fddc32"/><stop offset=".463" stop-color="#fcce2e"/><stop offset=".64" stop-color="#f9b828"/><stop offset=".764" stop-color="#f6a323"/></linearGradient><path d="M11.79 100.83c6.33 8.67 10.15 6.67 10.45 13.86.22 5.3 1.39 11.3 1.39 11.3h21.5s.49-7.32.56-9.54c.23-8.18-.61-16.79-7.39-22.96-13-11.83-17.17-3.87-27.5-18.33-2.5-3.5-6.92-6.2-6.88 1.48.02 6.01.79 14.51 7.87 24.19z" fill="url(#c)" stroke="#47a9b0" stroke-width="4" stroke-miterlimit="10"/><path d="M55.9 103.96c-2.4 0-8.67-8.45-5.83-20.29 2.1-8.79 8.06-11.8 13.86-11.8 5.81 0 11.64 3.3 14.14 12.63 2.49 9.29-3.71 19.45-6.11 19.45-.74 0-1.49-.24-2.22-.71-1.89-1.22-3.84-1.83-5.81-1.83-1.97 0-3.92.62-5.81 1.83-.73.49-1.47.72-2.22.72z" fill="#242424"/><g><path d="M51.1 23.55s-.01.28-.05.77c-.02.13-.01.24-.05.42-.03.18-.09.37-.14.58-.05.21-.11.43-.17.67-.07.22-.16.43-.24.66-.16.47-.39.95-.66 1.44-.26.5-.59.99-.95 1.49-.39.47-.77.99-1.24 1.42-.45.47-.96.87-1.47 1.29-.55.36-1.08.74-1.65 1.04-.55.33-1.16.55-1.72.79-.58.2-1.15.38-1.7.49-.55.12-1.08.2-1.57.23-.49.06-.94.05-1.34.02-.4-.01-.74-.05-1.03-.1-.57-.1-.88-.18-.88-.18-.95-.24-1.54-1.2-1.3-2.15.15-.62.62-1.09 1.19-1.27l.3-.09s.24-.07.64-.17c.2-.04.44-.12.71-.2.27-.07.57-.17.89-.29.32-.1.66-.26 1.02-.4.36-.13.71-.35 1.09-.52.37-.21.75-.41 1.12-.65.39-.21.73-.5 1.1-.75.35-.28.72-.53 1.03-.84.33-.29.64-.59.94-.88.26-.32.58-.6.81-.9.24-.3.48-.58.67-.86.21-.29.38-.52.51-.72.07-.1.14-.2.21-.29.07-.1.13-.24.19-.34.23-.43.38-.68.38-.68.52-.86 1.64-1.14 2.5-.62.56.33.88.96.86 1.59zM80.28 22.56s.15.24.38.68c.06.1.12.25.19.34.07.09.14.19.21.29.13.2.3.43.51.72.19.28.43.56.67.86.23.31.54.58.81.9.3.29.61.6.94.88.31.31.68.56 1.03.84.37.25.72.54 1.1.75.37.24.75.45 1.12.65.38.16.74.38 1.09.52.36.14.69.3 1.02.4.32.12.62.22.89.29.27.08.51.16.71.2.4.1.64.17.64.17l.29.09c.94.29 1.46 1.29 1.16 2.23a1.77 1.77 0 0 1-1.27 1.19s-.31.08-.88.18c-.28.06-.63.09-1.03.1-.4.03-.85.04-1.34-.02-.5-.02-1.02-.1-1.57-.23-.56-.1-1.12-.29-1.7-.49-.56-.24-1.17-.45-1.72-.79-.57-.3-1.11-.68-1.65-1.04-.5-.42-1.02-.82-1.47-1.29-.48-.43-.85-.95-1.24-1.42-.36-.5-.7-.99-.95-1.49-.27-.49-.5-.97-.66-1.44-.09-.23-.18-.44-.24-.66-.06-.23-.12-.46-.17-.67-.05-.21-.1-.4-.14-.58-.03-.17-.03-.29-.05-.42-.04-.49-.05-.77-.05-.77-.03-1.01.77-1.84 1.77-1.87.67 0 1.27.36 1.6.9z" fill="#6d4c41" stroke="#6d4c41" stroke-miterlimit="10" opacity=".5"/></g></svg>