<svg width="128" height="128" xmlns="http://www.w3.org/2000/svg" width="512px" height="512px"><path d="M4 20.8V107.2c1.85-1.12 3.66-2.06 5.43-2.85s3.52-1.45 5.24-1.98c1.72-.53 3.4-.95 5.06-1.26 1.66-.32 3.29-.54 4.89-.68 1.61-.14 3.19-.2 4.75-.2s3.1.06 4.62.18c1.52.11 3.02.28 4.5.48 1.48.21 2.95.45 4.4.73 1.45.28 2.89.58 4.32.91s2.85.68 4.25 1.05c1.41.37 2.81.76 4.21 1.15 1.4.4 2.79.81 4.17 1.22s2.77.83 4.16 1.25c1.38.42 2.77.84 4.16 1.25 1.39.41 2.78.82 4.17 1.22 1.4.4 2.8.78 4.21 1.15s2.83.72 4.25 1.05c1.43.33 2.87.64 4.32.91 1.45.28 2.92.52 4.4.73 1.48.21 2.98.37 4.5.48 1.52.11 3.06.18 4.62.18s3.14-.06 4.75-.2a47.91 47.91 0 0 0 9.95-1.94c1.72-.53 3.46-1.18 5.24-1.98 1.78-.8 3.59-1.74 5.43-2.85v-5.61-5.32-5.07-4.86-4.68-4.54-4.43-4.36V64v-4.33-4.36-4.43-4.54-4.68-4.86-5.07-5.32-5.61a49.167 49.167 0 0 1-5.43 2.85c-1.78.8-3.52 1.45-5.24 1.98-1.72.53-3.4.95-5.06 1.26s-3.29.54-4.89.68-3.19.2-4.75.2-3.1-.06-4.62-.18c-1.52-.11-3.02-.28-4.5-.48s-2.95-.45-4.4-.73c-1.45-.28-2.89-.58-4.32-.91a138.8 138.8 0 0 1-4.25-1.05c-1.41-.37-2.81-.76-4.21-1.15s-2.79-.81-4.17-1.22c-1.39-.41-2.77-.83-4.16-1.25-1.38-.42-2.77-.84-4.16-1.25s-2.78-.82-4.17-1.22c-1.4-.4-2.8-.78-4.21-1.15-1.41-.37-2.83-.72-4.25-1.05-1.43-.33-2.87-.64-4.32-.91-1.45-.28-2.92-.52-4.4-.73s-2.98-.37-4.5-.48a63.94 63.94 0 0 0-4.62-.18c-1.56 0-3.14.06-4.75.2a47.91 47.91 0 0 0-9.95 1.94c-1.72.53-3.46 1.18-5.24 1.98-1.77.79-3.58 1.73-5.43 2.85z" fill="#f2f2f2"/><linearGradient id="a" gradientUnits="userSpaceOnUse" x1="5.37" x2="122.37" y1="22.659" y2="105.159"><stop offset="0" stop-color="#fff" stop-opacity="0"/><stop offset=".165" stop-color="#c8c8c8" stop-opacity=".165"/><stop offset=".393" stop-color="#828282" stop-opacity=".393"/><stop offset=".6" stop-color="#4a4a4a" stop-opacity=".6"/><stop offset=".776" stop-color="#222" stop-opacity=".776"/><stop offset=".915" stop-color="#090909" stop-opacity=".915"/><stop offset="1"/></linearGradient><path d="M124 107.2a49.167 49.167 0 0 1-5.43 2.85c-1.78.8-3.52 1.45-5.24 1.98-1.72.53-3.4.95-5.06 1.26-1.66.32-3.29.54-4.89.68-1.61.14-3.19.2-4.75.2s-3.1-.06-4.62-.18c-1.52-.11-3.02-.28-4.5-.48-1.48-.21-2.95-.45-4.4-.73-1.45-.28-2.89-.58-4.32-.91-1.43-.33-2.85-.68-4.25-1.05s-2.81-.76-4.21-1.15c-1.4-.4-2.79-.81-4.17-1.22-1.39-.41-2.77-.83-4.16-1.25-1.38-.42-2.77-.84-4.16-1.25s-2.78-.82-4.17-1.22c-1.4-.4-2.8-.78-4.21-1.15-1.41-.37-2.83-.72-4.25-1.05s-2.87-.64-4.32-.91c-1.45-.28-2.92-.52-4.4-.73-1.48-.21-2.98-.37-4.5-.48a63.94 63.94 0 0 0-4.62-.18c-1.56 0-3.14.06-4.75.2a47.91 47.91 0 0 0-9.95 1.94c-1.72.53-3.46 1.18-5.24 1.98S5.85 106.08 4 107.2v-5.61-5.32-5.07-4.86-4.68-4.54-4.43-4.36V64v-4.33-4.36-4.43-4.54-4.68-4.86-5.07-5.32-5.61c1.85-1.12 3.66-2.06 5.43-2.85 1.78-.8 3.52-1.45 5.24-1.98 1.72-.53 3.4-.95 5.06-1.26 1.66-.32 3.29-.54 4.89-.68 1.61-.14 3.19-.2 4.75-.2s3.1.06 4.62.18c1.52.11 3.02.28 4.5.48s2.95.45 4.4.73c1.45.28 2.89.58 4.32.91 1.43.33 2.85.68 4.25 1.05 1.41.37 2.81.76 4.21 1.15 1.4.4 2.79.81 4.17 1.22s2.77.83 4.16 1.25c1.38.42 2.77.84 4.16 1.25 1.39.41 2.78.82 4.17 1.22s2.8.78 4.21 1.15c1.41.37 2.83.72 4.25 1.05 1.43.33 2.87.64 4.32.91 1.45.28 2.92.52 4.4.73 1.48.21 2.98.37 4.5.48 1.52.11 3.06.18 4.62.18s3.14-.06 4.75-.2 3.24-.36 4.89-.68 3.34-.73 5.06-1.26c1.72-.53 3.46-1.18 5.24-1.98 1.78-.8 3.59-1.74 5.43-2.85V107.2z" opacity=".3" fill="url(#a)"/><path d="M120 26.98v78.4c-1.87.91-3.69 1.66-5.49 2.27-1.79.61-3.55 1.09-5.27 1.45s-3.42.63-5.08.8-3.3.26-4.9.28-3.19-.03-4.75-.14c-1.56-.11-3.09-.27-4.61-.47-1.52-.2-3.01-.45-4.49-.72s-2.95-.59-4.4-.92c-1.45-.33-2.89-.69-4.32-1.06-1.43-.37-2.85-.77-4.26-1.17-1.41-.4-2.82-.81-4.22-1.23l-4.2-1.26c-1.4-.42-2.8-.85-4.2-1.26s-2.81-.83-4.22-1.23-2.83-.79-4.26-1.17c-1.43-.37-2.87-.73-4.32-1.06s-2.92-.64-4.4-.92c-1.48-.28-2.98-.52-4.49-.72-1.52-.2-3.05-.36-4.61-.47a57.3 57.3 0 0 0-4.75-.14c-1.61.02-3.24.1-4.9.28a47.248 47.248 0 0 0-10.35 2.25c-1.79.61-3.62 1.36-5.49 2.27v-5.7-5.38-5.11-4.88-4.69-4.56-4.46-4.42-4.42-4.46-4.56-4.69-4.88-5.11-5.38-5.7c1.87-.91 3.69-1.66 5.49-2.27s3.55-1.09 5.27-1.45c1.72-.37 3.42-.63 5.08-.8 1.66-.17 3.3-.26 4.9-.28 1.61-.02 3.19.03 4.75.14s3.09.27 4.61.47c1.52.2 3.01.45 4.49.72 1.48.28 2.95.59 4.4.92s2.89.69 4.32 1.06c1.43.37 2.85.77 4.26 1.17 1.41.4 2.82.81 4.22 1.23l4.2 1.26c1.4.42 2.8.85 4.2 1.26a292.76 292.76 0 0 0 8.48 2.4c1.43.37 2.87.73 4.32 1.06 1.45.33 2.92.64 4.4.92 1.48.28 2.98.52 4.49.72 1.52.2 3.05.36 4.61.47 1.56.11 3.14.16 4.75.14s3.24-.1 4.9-.28 3.35-.43 5.08-.8c1.72-.37 3.48-.84 5.27-1.45s3.62-1.36 5.49-2.27m4-6.18a49.167 49.167 0 0 1-5.43 2.85c-1.78.8-3.52 1.45-5.24 1.98-1.72.53-3.4.95-5.06 1.26s-3.29.54-4.89.68-3.19.2-4.75.2-3.1-.06-4.62-.18c-1.52-.11-3.02-.28-4.5-.48s-2.95-.45-4.4-.73c-1.45-.28-2.89-.58-4.32-.91a138.8 138.8 0 0 1-4.25-1.05c-1.41-.37-2.81-.76-4.21-1.15s-2.79-.81-4.17-1.22c-1.39-.41-2.77-.83-4.16-1.25-1.38-.42-2.77-.84-4.16-1.25s-2.78-.82-4.17-1.22c-1.4-.4-2.8-.78-4.21-1.15-1.41-.37-2.83-.72-4.25-1.05-1.43-.33-2.87-.64-4.32-.91-1.45-.28-2.92-.52-4.4-.73s-2.98-.37-4.5-.48a63.94 63.94 0 0 0-4.62-.18c-1.56 0-3.14.06-4.75.2a47.91 47.91 0 0 0-9.95 1.94c-1.72.53-3.46 1.18-5.24 1.98-1.77.79-3.58 1.73-5.43 2.85V107.2c1.85-1.12 3.66-2.06 5.43-2.85s3.52-1.45 5.24-1.98c1.72-.53 3.4-.95 5.06-1.26 1.66-.32 3.29-.54 4.89-.68 1.61-.14 3.19-.2 4.75-.2s3.1.06 4.62.18c1.52.11 3.02.28 4.5.48 1.48.21 2.95.45 4.4.73 1.45.28 2.89.58 4.32.91s2.85.68 4.25 1.05c1.41.37 2.81.76 4.21 1.15 1.4.4 2.79.81 4.17 1.22s2.77.83 4.16 1.25c1.38.42 2.77.84 4.16 1.25 1.39.41 2.78.82 4.17 1.22 1.4.4 2.8.78 4.21 1.15s2.83.72 4.25 1.05c1.43.33 2.87.64 4.32.91 1.45.28 2.92.52 4.4.73 1.48.21 2.98.37 4.5.48 1.52.11 3.06.18 4.62.18s3.14-.06 4.75-.2a47.91 47.91 0 0 0 9.95-1.94c1.72-.53 3.46-1.18 5.24-1.98 1.78-.8 3.59-1.74 5.43-2.85v-5.61-5.32-5.07-4.86-4.68-4.54-4.43-4.36V64v-4.33-4.36-4.43-4.54-4.68-4.86-5.07-5.32-5.61z" fill="#424242" opacity=".2"/><path d="M58.04 73.7c0-1.88.11-3.53.34-4.95.23-1.43.57-2.63 1.02-3.61.45-.98 1.1-1.89 1.93-2.73s1.86-1.62 3.07-2.33c1.21-.71 2.22-1.39 3.03-2.02.81-.64 1.41-1.23 1.81-1.79.8-1.12 1.2-2.43 1.2-3.93 0-1.51-.23-2.84-.7-3.98-.46-1.14-1.16-2.1-2.09-2.89s-2.09-1.38-3.48-1.8c-1.98-.6-3.57-.47-4.76.4-.6.43-1.05 1.03-1.36 1.78-.31.75-.48 1.66-.51 2.72-1.55-.45-2.85-.82-4.05-1.15s-2.33-.63-3.54-.93c-1.21-.31-2.5-.62-4.05-.96.02-1.7.21-3.24.59-4.62s.92-2.58 1.65-3.62c.73-1.04 1.64-1.9 2.72-2.59 1.08-.68 2.3-1.16 3.65-1.43s2.83-.32 4.44-.17c1.61.16 3.35.52 5.23 1.09 1.42.43 2.76.92 4.02 1.47s2.44 1.15 3.54 1.81c1.1.66 2.12 1.37 3.06 2.15.94.77 1.8 1.6 2.59 2.49A19.27 19.27 0 0 1 80 45.88c.7 1.33 1.22 2.74 1.57 4.24.35 1.5.52 3.08.52 4.75 0 1.14-.13 2.22-.38 3.24s-.64 1.98-1.14 2.87c-.51.89-1.21 1.79-2.1 2.69-.89.9-1.97 1.8-3.24 2.69-1.3.89-1.95 1.32-3.25 2.19-1.02.69-1.82 1.51-2.4 2.49-.58.97-.95 2.09-1.09 3.36-.06.96-.1 1.44-.16 2.4-1.37-.41-2.51-.75-3.58-1.08s-2.06-.62-3.12-.94c-1.08-.34-2.22-.68-3.59-1.08zm-1.17 11.96c0-1.79.61-3.09 1.83-3.89 1.22-.8 2.78-.91 4.68-.34.95.29 1.81.69 2.59 1.22s1.47 1.17 2.08 1.93c.61.76 1.07 1.56 1.37 2.38s.46 1.69.46 2.58c0 1.76-.6 3.04-1.79 3.83s-2.76.89-4.72.3c-.98-.3-1.86-.7-2.65-1.23a8.737 8.737 0 0 1-2.07-1.91c-.6-.75-1.04-1.53-1.34-2.34-.29-.8-.44-1.65-.44-2.53z" fill="#0071bc"/><linearGradient id="b" gradientUnits="userSpaceOnUse" x1="-153" x2="-85.917" y1="-607.791" y2="-607.791"><stop offset="0" stop-color="#fff" stop-opacity="0"/><stop offset=".287" stop-opacity=".287"/><stop offset=".525"/><stop offset=".753" stop-opacity=".249"/><stop offset="1" stop-color="#fff" stop-opacity="0"/></linearGradient><path opacity=".2" fill="url(#b)" d="M-153-651.76h67.08v87.93H-153z"/></svg>