<svg width="128" height="128" xmlns="http://www.w3.org/2000/svg" width="512px" height="512px"><radialGradient id="a" cx="46.333" cy="39.667" gradientUnits="userSpaceOnUse" r="77.333"><stop offset="0" stop-color="#ffdcb5"/><stop offset=".241" stop-color="#f3ca9c"/><stop offset=".602" stop-color="#e4b37d"/><stop offset=".803" stop-color="#deaa71"/><stop offset=".99" stop-color="#e0ab7b"/></radialGradient><path d="M107.3 66.42C105.68 44.51 90.87 6.59 63.21 6.59c-25.36 0-42.69 37.93-44.09 59.82-2.81 44 23.67 57.27 44.09 57.27 19.9.01 47.23-14.57 44.09-57.26z" fill="url(#a)"/><path d="M63.21 9.59c14.09 0 23.68 11.01 29.24 20.24 7.68 12.74 11.16 27.37 11.85 36.8 1.29 17.49-2.74 31.8-11.64 41.38-7.37 7.94-18.39 12.68-29.46 12.68-11.5 0-22.24-4.41-29.45-12.1-8.9-9.49-12.82-23.62-11.65-41.98.72-11.26 5.67-25.67 12.61-36.72 4.78-7.58 14.81-20.3 28.5-20.3m0-3c-25.36 0-42.69 37.93-44.09 59.82-2.81 44 23.67 57.27 44.09 57.27 19.9 0 47.23-14.57 44.09-57.27-1.62-21.9-16.43-59.82-44.09-59.82z" fill="#424242" opacity=".2"/></svg>