<svg viewBox="0 0 128 128" xmlns="http://www.w3.org/2000/svg"><linearGradient id="a" x1="63.992" x2="63.992" y1="19.717" y2="107.7" gradientUnits="userSpaceOnUse"><stop stop-color="#FEE133" offset=".5"/><stop stop-color="#FEDE32" offset=".612"/><stop stop-color="#FCD32F" offset=".708"/><stop stop-color="#FAC12B" offset=".797"/><stop stop-color="#F7A924" offset=".883"/><stop stop-color="#F6A323" offset=".9"/></linearGradient><path d="M63.99 119.89c-27.93 0-58-17.49-58-55.89s30.07-55.89 58-55.89c15.48 0 29.81 5.12 40.36 14.43 11.54 10.19 17.64 24.52 17.64 41.46 0 16.86-6.1 31.17-17.64 41.39-10.57 9.35-24.91 14.5-40.36 14.5z" fill="url(#a)"/><path d="M63.99 10.11c14.99 0 28.86 4.95 39.03 13.93 11.1 9.8 16.97 23.61 16.97 39.96 0 16.27-5.87 30.07-16.97 39.89-10.21 9.03-24.07 14-39.03 14-15.04 0-28.9-4.91-39.04-13.82C13.86 94.32 7.99 80.46 7.99 64c0-16.54 5.86-30.42 16.96-40.15 10.11-8.86 23.97-13.74 39.04-13.74m0-4c-31.15 0-60 20.01-60 57.89 0 37.68 28.85 57.89 60 57.89s60-20.73 60-57.89c0-37.37-28.85-57.89-60-57.89z" fill="#EB8F00"/><g fill="#EB8F00" stroke="#EB8F00" stroke-miterlimit="10"><path d="M85.85 32.94c-.04-.02-.09-.03-.13-.05-2.09-.68-1.74-3.88.69-3.6 1.89.25 3.8.8 5.64 1.66 5.05 2.33 8.82 6.54 10.58 11.1.85 2.29-2.19 3.42-3.33 1.54-2.97-4.74-7.74-8.68-13.45-10.65zM42.15 32.94c.04-.02.09-.03.13-.05 2.09-.68 1.74-3.88-.69-3.6-1.89.25-3.8.8-5.64 1.66-5.05 2.33-8.82 6.54-10.58 11.1-.85 2.29 2.19 3.42 3.33 1.54 2.97-4.74 7.74-8.68 13.45-10.65z"/></g><path d="M74.95 88.44c0 5.62-4.56 10.17-10.19 10.17s-10.19-4.55-10.19-10.17 4.56-14.17 10.19-14.17 10.19 8.55 10.19 14.17zM82.74 43.86c4.19 0 8 3.54 8 9.42s-3.81 9.42-8 9.42-8-3.54-8-9.42 3.81-9.42 8-9.42zM45.2 43.86c-4.19 0-8 3.54-8 9.42s3.81 9.42 8 9.42 8-3.54 8-9.42-3.81-9.42-8-9.42z" fill="#242424"/></svg>