<svg viewBox="0 0 128 128" xmlns="http://www.w3.org/2000/svg" xmlns:xlink="http://www.w3.org/1999/xlink" width="512px" height="512px"><defs><path id="a" d="M4 4h120v120H4z"/></defs><clipPath id="b"><use xlink:href="#a"/></clipPath><g clip-path="url(#b)" stroke="#ccc" stroke-linecap="round" stroke-linejoin="round" stroke-miterlimit="10"><radialGradient id="c" cx="72.615" cy="396.48" r="5.097" gradientTransform="matrix(.7239 -.5157 .5503 .7726 -152.02 -202.07)" gradientUnits="userSpaceOnUse"><stop stop-color="#C4C4C4" offset=".003"/><stop stop-color="#CBCBCB" offset=".269"/><stop stop-color="#DEDEDE" offset=".653"/><stop stop-color="#F5F5F5" offset="1"/></radialGradient><path d="M118.17 69.17l-2.68-7.32c-.38-.88.46-1.9 1.35-1.55.14.05.45.42.54.54l3.26 6.95c.24.5.08 1.1-.37 1.42l-.06.05c-.6.41-1.75.57-2.04-.09z" fill="url(#c)" stroke-width=".802"/><linearGradient id="d" x1="107.81" x2="120.64" y1="79.981" y2="59.932" gradientUnits="userSpaceOnUse"><stop stop-color="#D9D9D9" offset=".001"/><stop stop-color="#EDEDED" offset=".595"/><stop stop-color="#F5F5F5" offset="1"/></linearGradient><path d="M103.88 77.12s5.35-10.71 6.79-12.29c.7-.77 2.15-.15 2.33 1.17.24 1.68-2.25 6.33-2.25 6.33l3.69-1.65 4-4.44s-.13-7.75 1.69-7.75c1.25 0 1.31 1 1.44 2.25.09.94.24 7.78-.06 8.62s-9.5 10-9.5 10l-8.13-2.24z" fill="url(#d)" stroke-width=".874"/></g><g clip-path="url(#b)" stroke="#ccc" stroke-linecap="round" stroke-linejoin="round" stroke-miterlimit="10"><radialGradient id="e" cx="-962.9" cy="-294.69" r="5.097" gradientTransform="matrix(-.7239 -.5157 -.5503 .7726 -849.8 -202.07)" gradientUnits="userSpaceOnUse"><stop stop-color="#C4C4C4" offset=".003"/><stop stop-color="#CBCBCB" offset=".269"/><stop stop-color="#DEDEDE" offset=".653"/><stop stop-color="#F5F5F5" offset="1"/></radialGradient><path d="M10.01 69.17l2.68-7.32c.38-.88-.46-1.9-1.35-1.55-.14.05-.45.42-.54.54l-3.26 6.95c-.24.5-.08 1.1.37 1.42l.06.05c.6.41 1.75.57 2.04-.09z" fill="url(#e)" stroke-width=".802"/><linearGradient id="f" x1="-1022" x2="-1009.3" y1="79.697" y2="59.921" gradientTransform="matrix(-1 0 0 1 -1001.8 0)" gradientUnits="userSpaceOnUse"><stop stop-color="#D9D9D9" offset=".001"/><stop stop-color="#EDEDED" offset=".595"/><stop stop-color="#F5F5F5" offset="1"/></linearGradient><path d="M23.88 77s-4.92-10.58-6.36-12.17c-.7-.77-2.15-.15-2.33 1.17-.24 1.68 2.25 6.33 2.25 6.33l-3.69-1.65-4-4.44s.13-7.75-1.69-7.75c-1.25 0-1.31 1-1.44 2.25-.09.94-.24 7.78.06 8.62s8.95 9.75 8.95 9.75L23.88 77z" fill="url(#f)" stroke-width=".874"/></g><g clip-path="url(#b)"><circle cx="19.84" cy="44.12" r="7.5" fill="#ED412D"/><circle cx="17.59" cy="41.74" r="2.24" fill="#fff"/><path d="M19.84 37.64c3.57 0 6.48 2.91 6.48 6.48s-2.91 6.48-6.48 6.48-6.48-2.91-6.48-6.48 2.9-6.48 6.48-6.48m0-1.02c-4.14 0-7.5 3.36-7.5 7.5s3.36 7.5 7.5 7.5 7.5-3.36 7.5-7.5-3.36-7.5-7.5-7.5z" fill="#C92800"/></g><g clip-path="url(#b)"><circle cx="47.74" cy="11.75" r="7.5" fill="#2DA94F"/><circle cx="45.5" cy="9.38" r="2.24" fill="#fff"/><path d="M47.74 5.27c3.57 0 6.48 2.91 6.48 6.48s-2.91 6.48-6.48 6.48-6.48-2.91-6.48-6.48 2.91-6.48 6.48-6.48m0-1.02c-4.14 0-7.5 3.36-7.5 7.5s3.36 7.5 7.5 7.5 7.5-3.36 7.5-7.5-3.36-7.5-7.5-7.5z" fill="#258C41"/></g><g clip-path="url(#b)"><circle cx="94.26" cy="20.73" r="7.5" fill="#FDBD00"/><circle cx="92.02" cy="18.35" r="2.24" fill="#fff"/><path d="M94.26 14.51c3.51 0 6.36 2.85 6.36 6.36s-2.85 6.36-6.36 6.36c-3.5 0-6.36-2.85-6.36-6.36s2.85-6.36 6.36-6.36m0-1a7.36 7.36 0 1 0 0 14.72 7.36 7.36 0 0 0 7.36-7.36c-.01-4.06-3.3-7.36-7.36-7.36z" fill="#DEA600"/></g><g clip-path="url(#b)"><circle cx="110.92" cy="50.35" r="7.5" fill="#3E82F7"/><circle cx="108.71" cy="47.93" r="2.24" fill="#fff"/><path d="M110.92 43.86h.09c1.73.02 3.35.72 4.56 1.96s1.86 2.88 1.83 4.61c-.05 3.52-2.96 6.39-6.48 6.39h-.09c-3.57-.05-6.44-3-6.39-6.57.05-3.52 2.96-6.39 6.48-6.39m0-1.01c-4.09 0-7.44 3.29-7.5 7.39a7.504 7.504 0 0 0 7.39 7.61h.11c4.09 0 7.44-3.29 7.5-7.39a7.504 7.504 0 0 0-7.39-7.61h-.11z" fill="#356FD4"/></g><g clip-path="url(#b)"><linearGradient id="g" x1="38.874" x2="38.874" y1="66.5" y2="100.51" gradientUnits="userSpaceOnUse"><stop stop-color="#00BFA5" offset=".364"/><stop stop-color="#00B29A" offset=".812"/><stop stop-color="#00AB94" offset="1"/></linearGradient><path d="M59.67 73.83c-7.84 0-18.84 1.47-25.73 13.88l-9.79-11.96c-.19-.53-.76-.81-1.3-.64l-8.26 2.48c-.51.16-.82.68-.71 1.21 0 0 8.51 19.45 8.53 19.48 1.7 3.73 4.74 8.73 9.64 8.73 5.48 0 8.83-3.21 10.29-4.93v21.91h21.52V73.6c-4.19.08-2.43.23-4.19.23z" fill="url(#g)"/><linearGradient id="h" x1="88.881" x2="88.881" y1="66.5" y2="100.51" gradientUnits="userSpaceOnUse"><stop stop-color="#00BFA5" offset=".364"/><stop stop-color="#00B29A" offset=".812"/><stop stop-color="#00AB94" offset="1"/></linearGradient><path d="M63.88 73.6V124H85.4v-21.91c1.46 1.72 4.81 4.93 10.29 4.93 4.9 0 7.94-5.01 9.64-8.73.01-.03 8.53-19.48 8.53-19.48.11-.53-.2-1.05-.71-1.21l-8.26-2.48c-.53-.17-1.1.12-1.3.64L93.8 87.72c-6.89-12.4-17.88-13.88-25.73-13.88-1.74-.01.02-.16-4.19-.24z" fill="url(#h)"/><path d="M63.88 75.6c2.3.04 2.65.11 2.8.14.36.07.63.1 1.41.1 7.84 0 17.65 1.46 23.98 12.85.32.58.91.96 1.57 1.02.06.01.12.01.18.01.6 0 1.17-.27 1.55-.73l9.62-11.75 6.53 1.96c-1.84 4.2-7.93 18.12-7.99 18.26-2.29 5.02-4.92 7.56-7.83 7.56-4.28 0-7.13-2.3-8.76-4.23a2 2 0 0 0-1.53-.71c-.23 0-.46.04-.69.12-.79.29-1.31 1.04-1.31 1.88v19.91H44.35v-19.91c0-.84-.52-1.59-1.31-1.88-.23-.08-.46-.12-.69-.12a2 2 0 0 0-1.53.71c-1.64 1.93-4.48 4.23-8.76 4.23-2.9 0-5.54-2.54-7.81-7.54-.07-.16-6.17-14.09-8-18.29l6.53-1.97 9.62 11.75c.38.47.95.73 1.55.73.06 0 .12 0 .18-.01.66-.06 1.25-.44 1.57-1.02 6.33-11.39 16.14-12.85 23.98-12.85.78 0 1.05-.03 1.41-.1.14-.01.49-.08 2.79-.12m0-2c-4.21.08-2.45.24-4.21.24-7.84 0-18.84 1.47-25.73 13.88l-9.79-11.96c-.15-.42-.55-.69-.98-.69-.1 0-.21.02-.31.05L14.6 77.6c-.51.16-.82.68-.71 1.21 0 0 8.51 19.45 8.53 19.48 1.7 3.73 4.74 8.73 9.64 8.73 5.48 0 8.83-3.21 10.29-4.93V124H85.4v-21.91c1.46 1.72 4.81 4.93 10.29 4.93 4.9 0 7.94-5.01 9.65-8.73.01-.03 8.53-19.48 8.53-19.48.11-.53-.2-1.05-.71-1.21l-8.26-2.48c-.1-.03-.21-.05-.31-.05-.43 0-.83.27-.98.69l-9.79 11.96c-6.89-12.4-17.88-13.88-25.73-13.88-1.76-.01 0-.16-4.21-.24z" fill="#009984"/><path d="M63.36 79.91c-2.32 0-4.22-1.87-4.22-4.17v-5.2h9.38v5.2c0 2.3-1.89 4.17-4.22 4.17h-.94z" fill="#C48E6A"/><path d="M68.02 71.04v4.7c0 2.02-1.67 3.67-3.72 3.67h-.94c-2.05 0-3.72-1.65-3.72-3.67v-4.7h8.38m1-1H58.64v5.7c0 2.58 2.11 4.67 4.72 4.67h.94c2.6 0 4.72-2.09 4.72-4.67v-5.7z" fill="#B07853"/><path d="M48.22 59.93c-3.1 0-5.62-2.7-5.62-6.02s2.52-6.02 5.62-6.02h31.22c3.1 0 5.62 2.7 5.62 6.02s-2.52 6.02-5.62 6.02H48.22z" fill="#C48E6A"/><path d="M79.44 48.39c2.82 0 5.12 2.48 5.12 5.52s-2.3 5.52-5.12 5.52H48.22c-2.82 0-5.12-2.48-5.12-5.52s2.3-5.52 5.12-5.52h31.22m0-1H48.22c-3.37 0-6.12 2.93-6.12 6.52s2.75 6.52 6.12 6.52h31.22c3.37 0 6.12-2.93 6.12-6.52s-2.76-6.52-6.12-6.52z" fill="#B07853"/><linearGradient id="i" x1="63.831" x2="63.831" y1="72.685" y2="25.841" gradientUnits="userSpaceOnUse"><stop stop-color="#CCA47A" offset="0"/><stop stop-color="#D6B088" offset=".257"/><stop stop-color="#DEB892" offset=".589"/><stop stop-color="#E0BB95" offset="1"/></linearGradient><path d="M63.83 73.07c-12.81 0-18.65-11.53-18.65-22.24 0-12.23 7.13-25.43 18.65-25.43s18.65 13.2 18.65 25.43c0 10.72-5.84 22.24-18.65 22.24z" fill="url(#i)"/><path d="M63.83 25.91c4.58 0 9.14 2.49 12.51 6.84 3.63 4.69 5.64 11.11 5.64 18.09 0 6.8-1.96 12.46-5.68 16.39-3.26 3.45-7.69 5.35-12.47 5.35s-9.21-1.9-12.47-5.35c-3.71-3.93-5.68-9.59-5.68-16.39 0-6.98 2-13.4 5.64-18.09 3.37-4.35 7.93-6.84 12.51-6.84m0-1c-9.94 0-19.15 10.63-19.15 25.93 0 15.22 9.49 22.74 19.15 22.74s19.15-7.52 19.15-22.74c0-15.3-9.21-25.93-19.15-25.93z" fill="#BA8F63"/><path d="M50.12 47.56s.08-.11.22-.29c.04-.05.07-.09.12-.15.06-.06.13-.12.21-.19l.25-.22c.09-.07.18-.13.27-.2.1-.07.2-.14.3-.2.11-.06.23-.12.34-.18.12-.07.24-.12.38-.17.13-.05.27-.1.4-.15.28-.08.57-.17.88-.2.3-.06.62-.06.93-.08.31.02.63.02.93.08.31.04.6.13.88.2.14.05.27.1.4.15s.26.1.38.17c.12.06.23.12.34.18s.21.14.3.2c.09.07.19.13.27.2s.15.14.23.2c.07.06.14.12.19.18.06.06.1.12.15.17.18.21.26.33.26.33a.896.896 0 0 1-1.02 1.37l-.17-.06s-.11-.04-.28-.12c-.04-.02-.09-.04-.14-.06s-.11-.04-.17-.06c-.12-.05-.25-.1-.4-.14-.07-.02-.15-.05-.23-.07s-.16-.04-.25-.06c-.04-.01-.08-.02-.13-.04a.585.585 0 0 0-.13-.02c-.09-.01-.18-.04-.27-.06-.19-.02-.37-.06-.57-.07-.19-.03-.39-.02-.59-.03-.2.01-.4.01-.59.03-.2.01-.38.05-.57.07l-.27.06c-.04.01-.09.02-.13.02-.04.01-.08.02-.13.04l-.25.06c-.08.02-.15.05-.23.07-.07.02-.14.04-.21.07-.06.02-.11.04-.17.06-.05.02-.1.04-.15.05-.06.02-.12.06-.17.08-.2.1-.33.15-.33.15a.926.926 0 0 1-1.21-.5c-.09-.29-.04-.62.13-.87z" fill="#AB872F"/><ellipse cx="54.44" cy="52.18" rx="2.81" ry="2.92" fill="#5D4037"/><path d="M76.43 48.93s-.12-.05-.33-.15c-.05-.02-.11-.06-.17-.08-.05-.01-.1-.03-.15-.05s-.11-.04-.17-.06c-.07-.02-.14-.04-.21-.07-.07-.02-.15-.05-.23-.07s-.16-.04-.25-.06c-.04-.01-.08-.02-.13-.04a.585.585 0 0 0-.13-.02c-.09-.01-.18-.04-.27-.06-.19-.02-.37-.06-.57-.07-.19-.03-.39-.02-.59-.03-.2.01-.4.01-.59.03-.2.01-.38.05-.57.07l-.27.06c-.04.01-.09.02-.13.02-.04.01-.08.02-.13.04-.08.02-.16.04-.25.06-.08.02-.15.05-.23.07-.15.04-.28.09-.4.14-.06.02-.12.05-.17.06-.05.02-.1.04-.14.06-.17.08-.28.12-.28.12l-.16.06a.892.892 0 0 1-1.14-.55.91.91 0 0 1 .12-.82s.09-.12.26-.33c.04-.05.09-.11.15-.17s.12-.11.19-.18l.23-.2c.08-.07.18-.13.27-.2.1-.07.2-.14.3-.2.11-.06.23-.12.34-.18.12-.07.24-.12.38-.17.13-.05.27-.1.4-.15.28-.08.57-.17.88-.2.3-.06.62-.06.93-.08.31.02.63.02.93.08.31.04.6.13.88.2.14.05.27.1.4.15s.26.1.38.17c.12.06.23.12.34.18s.21.14.3.2c.1.07.19.13.27.2l.25.22c.08.07.15.13.21.19.05.06.09.1.12.15.14.18.22.29.22.29.29.42.18 1-.24 1.28-.25.18-.58.21-.85.09z" fill="#AB872F"/><ellipse cx="73.22" cy="52.18" rx="2.81" ry="2.92" fill="#5D4037"/><path d="M66.03 57.46c-.06-.02-.12-.04-.18-.05h-4.04c-.06.01-.12.02-.18.05-.37.15-.57.53-.39.93.17.4.98 1.54 2.6 1.54s2.43-1.13 2.6-1.54c.16-.4-.04-.78-.41-.93z" fill="#C48E6A"/><path d="M68.64 62.08c-1.82 1.08-7.78 1.08-9.6 0-1.04-.62-2.11.33-1.68 1.28.43.93 3.68 3.1 6.5 3.1 2.81 0 6.03-2.17 6.45-3.1.43-.95-.63-1.9-1.67-1.28z" fill="#795548"/><radialGradient id="j" cx="63.979" cy="21.026" r="27.903" gradientUnits="userSpaceOnUse"><stop stop-color="#BFA055" offset="0"/><stop stop-color="#AB872F" offset="1"/></radialGradient><path d="M63.84 20.89h-.02c-25.95.14-20.64 29.78-20.64 29.78s2.91 5.13 2.91 5.03c-.09-4.14 1.57-11.47 2.74-14.6a3.481 3.481 0 0 1 3.88-2.19c2.54.46 6.6 1.03 11.07 1.03h.1c4.47 0 8.52-.57 11.07-1.03 1.66-.3 3.29.62 3.88 2.19 1.17 3.12 2.83 10.45 2.74 14.6 0 .1 2.91-5.03 2.91-5.03s5.31-29.64-20.64-29.78z" fill="url(#j)"/><path d="M63.84 20.89h-.02c-25.95.14-20.64 29.78-20.64 29.78s2.86 5.03 2.91 5.03c-.02-.84.04-1.83.15-2.87-.07-.16-1.4-2.71-1.42-2.73-.14-.91-.53-3.99-.31-7.75.23-4.02 1.24-9.69 4.69-13.83 3.24-3.88 8.15-5.87 14.6-5.91h.02c6.46.03 11.38 2.02 14.62 5.91 6.17 7.4 4.67 19.61 4.38 21.58-.01.02-1.4 2.62-1.42 2.66.11 1.08.17 2.09.15 2.95.05 0 2.91-5.03 2.91-5.03s5.33-29.65-20.62-29.79z" fill="#8F7635"/><path d="M89.04 41.27c0 3.63-11.27 6.57-25.17 6.57S38.7 44.9 38.7 41.27c0-.14.04-2.2.04-2.2s11.78-4.37 25.13-4.37c13.26 0 25.18 4.19 25.18 4.19l-.01 2.38z" fill="#444"/><ellipse cx="63.88" cy="39.08" rx="25.17" ry="6.57" fill="#616161"/><radialGradient id="k" cx="64.128" cy="20.242" r="20.124" gradientUnits="userSpaceOnUse"><stop stop-color="#757575" offset=".132"/><stop stop-color="#686868" offset=".428"/><stop stop-color="#464646" offset=".975"/><stop stop-color="#444" offset="1"/></radialGradient><path d="M64.32 18.91s-.31-.01-.44-.01-.44.01-.44.01c-16.32.31-21.66 12.2-22.03 19.28 0 2.77 11.23 5.39 22.47 5.39 11.23 0 22.47-2.62 22.47-5.39-.37-7.08-5.71-18.98-22.03-19.28z" fill="url(#k)"/><path d="M65.28 77.64c1.17-.8 2.27-1.38 3.38-2.1.89-.57 2.41-1.63 3.83-1.09 1.2.46.78 2.1.78 4.26 0 2.53.43 4-.53 4.42-1.29.57-2.98-.44-4.39-1.05-.81-.35-3.1-1.4-3.49-2.01s-.37-2.03.42-2.43z" fill="#212121"/><ellipse transform="rotate(-11.678 68.33 78.02)" cx="68.34" cy="78.02" rx="2.96" ry=".32" fill="#616161"/><ellipse transform="rotate(-81.807 68.337 80.012)" cx="68.34" cy="80.01" rx=".33" ry="2.95" fill="#616161"/><path d="M62.47 77.64c-1.17-.8-2.27-1.38-3.38-2.1-.89-.57-2.41-1.63-3.83-1.09-1.2.46-.78 2.1-.78 4.26 0 2.53-.43 4 .53 4.42 1.29.57 2.98-.44 4.39-1.05.81-.35 3.1-1.4 3.49-2.01s.38-2.03-.42-2.43z" fill="#212121"/><ellipse transform="rotate(-78.323 59.42 78.023)" cx="59.42" cy="78.02" rx=".32" ry="2.96" fill="#616161"/><ellipse transform="rotate(-8.19 59.417 80)" cx="59.42" cy="80.01" rx="2.95" ry=".33" fill="#616161"/><path d="M66.45 79.18c0 1.46-1.15 2.31-2.57 2.31s-2.57-.84-2.57-2.31.64-2.65 2.57-2.65c1.85 0 2.57 1.18 2.57 2.65z" fill="#212121"/><path d="M52.99 118.43h-5.67V74.92l5.67-1.3zm27.44 0h-5.67V73.62l5.67 1.3z" fill="#444"/><path fill="#444" d="M42.35 110.39H85.4V128H42.35z"/><path d="M52 75v35c0 .55.45 1 1 1h22c.55 0 1-.45 1-1V74.91l3 .78V110c0 .55.45 1 1 1h4v16H43v-16h4c.55 0 1-.45 1-1V75.73l4-.8m23-1.31V110H53V73.62l-6 1.3V110h-5v18h43v-18h-5V74.92l-5-1.3z" fill="#2D3030"/></g><ellipse cx="64" cy="39.08" rx="25.17" ry="6.57" clip-path="url(#b)" fill="#616161"/><path d="M64.32 18.91s-.31-.01-.44-.01-.44.01-.44.01c-16.32.31-21.66 12.2-22.03 19.28 0 2.77 11.23 5.39 22.47 5.39 11.23 0 22.47-2.62 22.47-5.39-.37-7.08-5.71-18.98-22.03-19.28z" clip-path="url(#b)" fill="url(#k)"/><g clip-path="url(#b)"><path d="M64 19v1.9l.33.01c6.09.11 10.97 1.94 14.55 5.42 3.66 3.56 4.86 7.8 5.25 10.01.11.63.51 1.11 1.09 1.39 1.58.77 1.82 1.27 1.82 1.27s.01.12.01.15c0 .59-.01 1.8-.01 2.05-.5 1.33-8.04 4.62-23.17 4.62-15.12 0-22.66-3.27-23.17-4.6 0-.24.02-1.25.03-1.79 0-.13 0-.22-.03-.34.06-.12.41-.63 1.83-1.33.57-.28.98-.82 1.09-1.45.39-2.21 1.6-6.45 5.26-10.01 3.58-3.48 8.48-5.25 14.6-5.37 0 0 .23.04.4.04h.05l.07-2.02m-.1.05h-.06c-.14 0-.41-.04-.41-.04-14.72.28-20.5 9.96-21.77 17.05-1.89.92-2.96 1.96-2.96 3.08 0 .11.01.22.03.33-.01.59-.03 1.75-.03 1.86 0 3.63 11.27 6.57 25.17 6.57s25.17-2.94 25.17-6.57l.01-2.38s-.01 0-.03-.01c-.12-1.04-1.17-2.03-2.94-2.89-1.27-7.1-7.05-16.75-21.77-17.03.01-.01-.26.03-.41.03z" fill="#2D2F30"/></g></svg>