<svg width="128" height="128" xmlns="http://www.w3.org/2000/svg"><path d="M9.45 49.52c-.43-.87.33-1.86 1.29-1.66l38.75 7.87c2.16.44 4.69 1.12 3.95 4.89-.03.13-.07.26-.14.37l-8.67 15.46c-.03.06-.08.12-.12.18-5.02 6.27-8.78 2.83-12.02.1-3.33-2.81-6.68-5.46-9.72-8.59-3.02-3.11-5.8-6.47-8.29-10.01a86.625 86.625 0 0 1-3.43-5.28c-.26-.42-.93-1.97-1.6-3.33zM116.54 49.52c.43-.87-.33-1.86-1.29-1.66L76.5 55.73c-2.16.44-4.69 1.12-3.95 4.89.03.13.07.26.14.37l8.67 15.46c.03.06.08.12.12.18 5.02 6.27 8.78 2.83 12.02.1 3.33-2.81 6.68-5.46 9.72-8.59 3.02-3.11 5.8-6.47 8.29-10.01 1.21-1.72 2.35-3.48 3.43-5.28.26-.42.93-1.97 1.6-3.33z" fill="#fce000"/><path d="M49.85 106.29v8.1c-3.86-.37-5.06-.79-9.06-1.31-1.03-.13-1.4.76-1.34 1.26.04.31.25.59.57.73l4.79 1.36-6.64 2.97c-.72.46-.9 1.37-.39 2.02.4.53 1.14.75 1.82.55l6.98-2.18-1.74 3.09c-.35.63-.08 1.4.61 1.73.58.27 1.29.14 1.71-.31l7.19-7.69c.1-.12.16-.26.16-.42V107l-4.66-.71zM78.05 106.29v8.1c3.73-.37 4.89-.79 8.76-1.31.99-.13 1.35.76 1.29 1.26-.04.31-.24.59-.55.73l-4.63 1.36 6.42 2.97c.7.46.87 1.37.38 2.02-.39.53-1.11.75-1.76.55l-6.75-2.18 1.68 3.09c.34.63.08 1.4-.59 1.73-.56.27-1.24.14-1.65-.31l-6.95-7.69a.636.636 0 0 1-.15-.42V107l4.5-.71z" fill="#ff8f00" stroke="#db6f00" stroke-width="2" stroke-linecap="round" stroke-linejoin="round" stroke-miterlimit="10"/><linearGradient id="a" gradientUnits="userSpaceOnUse" x1="62.999" x2="62.999" y1="45.203" y2="108.213"><stop offset=".336" stop-color="#ffea00"/><stop offset=".533" stop-color="#fee209"/><stop offset=".849" stop-color="#fccc20"/><stop offset=".991" stop-color="#fbc02d"/></linearGradient><path d="M98.3 74.07c4.36 19.76-17.01 34.79-35.3 34.47-17.45-.31-39.7-15.1-35.3-34.47C30.95 59.75 47.09 44.4 63 44.62c16.36.23 31.9 14.07 35.3 29.45z" fill="url(#a)"/><linearGradient id="b" gradientUnits="userSpaceOnUse" x1="63" x2="63" y1="64.85" y2="6.261"><stop offset=".009" stop-color="#fbc02d"/><stop offset=".121" stop-color="#fdd219"/><stop offset=".251" stop-color="#fee00b"/><stop offset=".408" stop-color="#ffe803"/><stop offset=".664" stop-color="#ffea00"/></linearGradient><path d="M83.63 18.99c.88-.52 1.76-1.05 2.64-1.57.85-.5.63-1.79-.34-1.97-3.48-.64-8.06-1.05-10.79-1.3-.92-.08-1.3-1.21-.64-1.84l3.9-3.72c.74-.71.16-1.97-.87-1.85-4.81.6-9.54 1.86-13.98 3.7-1.01.42-1.92-.77-1.25-1.64l2.54-3.27c1.03-1.33.29-2.46-.7-2.22-2.11.52-5.45 1.72-10.03 4.49-10.45 6.32-19.59 20.36-19.59 32.3 0 15.42 12.75 25.93 28.48 25.93S91.48 55.52 91.48 40.1c0-7.56-3.06-14.41-8.04-19.43-.5-.49-.41-1.32.19-1.68z" fill="url(#b)"/><path d="M115.26 47.85l-27.52 5.59c2.38-3.79 3.74-8.3 3.74-13.33 0-7.56-3.06-14.41-8.04-19.43-.5-.5-.41-1.33.2-1.69.88-.52 1.76-1.05 2.64-1.57.85-.5.63-1.79-.34-1.97-3.48-.64-8.06-1.05-10.79-1.3-.92-.08-1.3-1.21-.64-1.84l3.9-3.72c.74-.71.16-1.97-.87-1.85-4.81.6-9.54 1.86-13.98 3.7-1.01.42-1.92-.77-1.25-1.64l2.54-3.27c1.03-1.33.29-2.46-.7-2.22-2.11.52-5.45 1.72-10.03 4.49-10.45 6.32-19.59 20.36-19.59 32.3 0 5.03 1.37 9.54 3.74 13.33l-27.53-5.59c-.95-.19-1.72.79-1.29 1.66.67 1.36 1.34 2.91 1.58 3.32a79.43 79.43 0 0 0 3.43 5.28c2.5 3.55 5.27 6.9 8.29 10.01 1.67 1.72 3.43 3.29 5.23 4.82-.1.38-.2.75-.29 1.12-4.4 19.37 17.85 34.16 35.3 34.47 18.3.32 39.66-14.71 35.3-34.47-.08-.38-.18-.75-.28-1.13 1.79-1.53 3.55-3.1 5.22-4.81 3.02-3.11 5.8-6.47 8.29-10.01 1.21-1.72 2.35-3.48 3.43-5.28.24-.4.91-1.96 1.58-3.32.45-.85-.32-1.84-1.27-1.65z" fill="none" stroke="#fcc13c" stroke-width="3" stroke-linecap="round" stroke-linejoin="round" stroke-miterlimit="10"/><path d="M57.48 45.22c-.56-.76-.23-1.67.66-2l9.72-.04c.89.33 1.22 1.41.66 2.17l-3.78 7.12a2.003 2.003 0 0 1-3.19.03l-4.07-7.28z" fill="#603813"/><linearGradient id="c" gradientUnits="userSpaceOnUse" x1="63.003" x2="63.003" y1="41.738" y2="48.455"><stop offset="0" stop-color="#f15a24"/><stop offset="1" stop-color="#ed1c24"/></linearGradient><path d="M57.48 45.33c-.56-.76-.23-1.85.66-2.17l1.35-.49c2.27-.83 4.76-.83 7.03 0l1.35.49c.89.33 1.22 1.41.66 2.17l-5.35 4.35-5.7-4.35z" fill="url(#c)"/><g><circle cx="50.27" cy="36.47" r="7" fill="#fff"/><ellipse cx="50.27" cy="36.47" rx="4.05" ry="4.05" transform="rotate(-12.17 50.283 36.473)"/><g><circle cx="75.73" cy="36.47" r="7" fill="#fff"/><ellipse cx="75.73" cy="36.47" rx="4.05" ry="4.05" transform="rotate(-12.17 75.743 36.472)"/></g></g></svg>