<svg width="128" height="128" xmlns="http://www.w3.org/2000/svg" width="512px" height="512px"><linearGradient id="a" gradientUnits="userSpaceOnUse" x1="64" x2="64" y1="3.262" y2="124.812"><stop offset="0" stop-color="#ff8a65"/><stop offset=".22" stop-color="#ff845d"/><stop offset=".554" stop-color="#ff7448"/><stop offset=".962" stop-color="#ff5a26"/><stop offset="1" stop-color="#ff5722"/></linearGradient><path d="M122.83 16.49L111.51 5.17a4.008 4.008 0 0 0-5.66 0l-40.2 40.44c-.78.78-2.05.78-2.83 0L22.14 5.17a4.008 4.008 0 0 0-5.66 0L5.17 16.49a4.008 4.008 0 0 0 0 5.66l40.69 40.44c.78.78.78 2.05 0 2.83L5.17 105.86a4.008 4.008 0 0 0 0 5.66l11.31 11.31a4.008 4.008 0 0 0 5.66 0l40.69-40.44c.78-.78 2.05-.78 2.83 0l40.2 40.44a4.008 4.008 0 0 0 5.66 0l11.31-11.31a4.008 4.008 0 0 0 0-5.66l-40.2-40.44c-.78-.78-.78-2.05 0-2.83l40.2-40.44a4.008 4.008 0 0 0 0-5.66z" fill="url(#a)"/><path d="M108.69 7c.15 0 .45.04.71.29l11.31 11.31a1.002 1.002 0 0 1-.01 1.42L80.51 60.46c-.94.94-1.46 2.2-1.46 3.54 0 1.34.52 2.59 1.46 3.53l40.21 40.45c.39.39.39 1.02 0 1.41l-11.31 11.31a1.002 1.002 0 0 1-1.41 0L67.78 80.26c-.94-.94-2.2-1.46-3.54-1.46-1.34 0-2.59.52-3.53 1.46l-40.69 40.45c-.25.25-.55.29-.71.29-.15 0-.45-.04-.71-.29L7.29 109.39c-.39-.39-.39-1.02-.01-1.41l40.69-40.45c.94-.94 1.46-2.2 1.46-3.54 0-1.34-.52-2.59-1.47-3.54L7.29 20.02c-.25-.25-.29-.55-.29-.71 0-.15.04-.45.29-.71L18.61 7.29c.25-.25.55-.29.7-.29.15 0 .45.04.71.3L60.7 47.74c.94.94 2.2 1.46 3.54 1.46 1.34 0 2.59-.52 3.54-1.47l40.19-40.44c.26-.25.56-.29.72-.29m0-3c-1.02 0-2.05.39-2.83 1.17l-40.2 40.44c-.39.39-.9.59-1.41.59-.51 0-1.02-.2-1.41-.59L22.14 5.17C21.36 4.39 20.34 4 19.31 4s-2.05.39-2.83 1.17L5.17 16.49a4.008 4.008 0 0 0 0 5.66l40.69 40.44c.78.78.78 2.05 0 2.83L5.17 105.86a4.008 4.008 0 0 0 0 5.66l11.31 11.31c.78.78 1.8 1.17 2.83 1.17s2.05-.39 2.83-1.17l40.69-40.44c.39-.39.9-.59 1.41-.59.51 0 1.02.2 1.41.59l40.2 40.44c.78.78 1.8 1.17 2.83 1.17s2.05-.39 2.83-1.17l11.31-11.31a4.008 4.008 0 0 0 0-5.66l-40.2-40.44c-.78-.78-.78-2.05 0-2.83l40.2-40.44a4.008 4.008 0 0 0 0-5.66L111.51 5.17c-.78-.78-1.8-1.17-2.82-1.17z" fill="#424242" opacity=".2"/></svg>