<svg width="128" height="128" xmlns="http://www.w3.org/2000/svg"><linearGradient id="a" gradientUnits="userSpaceOnUse" x1="64" x2="64" y1="41.629" y2="82.912"><stop offset=".001" stop-color="#616161"/><stop offset=".088" stop-color="#535353"/><stop offset=".27" stop-color="#3d3d3d"/><stop offset=".467" stop-color="#2d2d2d"/><stop offset=".692" stop-color="#242424"/><stop offset="1" stop-color="#212121"/></linearGradient><path d="M4 77.28V50.72c0-5.5 4.5-10 10-10h100c5.5 0 10 4.5 10 10v26.55c0 5.5-4.5 10-10 10H14c-5.5.01-10-4.49-10-9.99z" fill="url(#a)"/><radialGradient id="b" cx="55.783" cy="64.947" gradientTransform="rotate(90 64.167 68.151)" gradientUnits="userSpaceOnUse" r="13.562"><stop offset=".014" stop-color="#ffeb3b"/><stop offset=".626" stop-color="#fccd31"/><stop offset="1" stop-color="#fbc02d"/></radialGradient><circle cx="64.49" cy="63.81" r="13.56" fill="url(#b)"/><radialGradient id="c" cx="55.639" cy="101.448" gradientTransform="rotate(90 64.167 68.151)" gradientUnits="userSpaceOnUse" r="13.562"><stop offset=".005" stop-color="#81c784"/><stop offset=".201" stop-color="#72be76"/><stop offset=".719" stop-color="#50a854"/><stop offset="1" stop-color="#43a047"/></radialGradient><circle cx="27.55" cy="63.81" r="13.56" fill="url(#c)"/><path d="M114 43.95c3.74 0 6.78 3.04 6.78 6.78v26.55c0 3.74-3.04 6.78-6.78 6.78H14c-3.74 0-6.78-3.04-6.78-6.78V50.72c0-3.74 3.04-6.78 6.78-6.78h100m0-3.22H14c-5.5 0-10 4.5-10 10v26.55c0 5.5 4.5 10 10 10h100c5.5 0 10-4.5 10-10V50.72c0-5.5-4.5-10-10-10z" fill="#eee" opacity=".2"/><radialGradient id="d" cx="55.591" cy="27.34" gradientTransform="rotate(90 64.167 68.151)" gradientUnits="userSpaceOnUse" r="13.562"><stop offset="0" stop-color="#e57373"/><stop offset=".197" stop-color="#e56564"/><stop offset=".718" stop-color="#e54542"/><stop offset="1" stop-color="#e53935"/></radialGradient><circle cx="101.42" cy="63.81" r="13.56" fill="url(#d)"/></svg>