<svg width="128" height="128" xmlns="http://www.w3.org/2000/svg" width="512px" height="512px"><linearGradient id="a" gradientUnits="userSpaceOnUse" x1="5.516" x2="118.825" y1="5.28" y2="119.046"><stop offset="0" stop-color="#81d4fa"/><stop offset="1" stop-color="#0094d6"/></linearGradient><path d="M116 124H12c-4.42 0-8-3.58-8-8V12c0-4.42 3.58-8 8-8h104c4.42 0 8 3.58 8 8v104c0 4.42-3.58 8-8 8z" fill="url(#a)"/><path d="M116 7c2.76 0 5 2.24 5 5v104c0 2.76-2.24 5-5 5H12c-2.76 0-5-2.24-5-5V12c0-2.76 2.24-5 5-5h104m0-3H12c-4.42 0-8 3.58-8 8v104c0 4.42 3.58 8 8 8h104c4.42 0 8-3.58 8-8V12c0-4.42-3.58-8-8-8z" fill="#424242" opacity=".2"/><linearGradient id="b" gradientUnits="userSpaceOnUse" x1="21.247" x2="106.247" y1="20.744" y2="106.744"><stop offset="0" stop-color="#c2ecff"/><stop offset=".157" stop-color="#bdeafe"/><stop offset=".348" stop-color="#aee3fa"/><stop offset=".558" stop-color="#95d7f5"/><stop offset=".779" stop-color="#73c7ed"/><stop offset="1" stop-color="#49b3e3"/></linearGradient><path d="M101 109H27c-4.42 0-8-3.58-8-8V27c0-4.42 3.58-8 8-8h74c4.42 0 8 3.58 8 8v74c0 4.42-3.58 8-8 8z" fill="url(#b)"/><g opacity=".2"><path d="M78.15 26c1.14 0 2.06.92 2.06 2.06v44.8c0 1.14.92 2.06 2.06 2.06h5.34c1.14 0 2.06.92 2.06 2.06v6.07c0 1.14-.92 2.06-2.06 2.06h-5.34c-1.14 0-2.06.92-2.06 2.06v12.8c0 1.14-.92 2.06-2.06 2.06h-8.57c-1.14 0-2.06-.92-2.06-2.06v-12.8c0-1.14-.92-2.06-2.06-2.06H36.65c-1.1 0-2-.86-2.05-1.96l-.24-5.11c-.02-.42.09-.84.32-1.2L66.5 26.98a2.06 2.06 0 0 1 1.73-.95h9.92M51.36 74.91h14.11c1.14 0 2.06-.92 2.06-2.06V43.17l-.94 1.67-16.97 26.92c-.87 1.37.12 3.15 1.74 3.15M78.15 23h-9.92c-1.74 0-3.33.87-4.26 2.34L32.14 75.2c-.57.89-.84 1.91-.79 2.96l.24 5.11c.13 2.7 2.35 4.82 5.05 4.82h27.87v11.86c0 2.79 2.27 5.06 5.06 5.06h8.57c2.79 0 5.06-2.27 5.06-5.06V88.09h4.39c2.79 0 5.06-2.27 5.06-5.06v-6.07c0-2.79-2.27-5.06-5.06-5.06H83.2V28.06c0-2.79-2.27-5.06-5.05-5.06zM53.07 71.91l11.45-18.17v18.17H53.07z" fill="#424242"/></g><path d="M82.26 74.91h5.34c1.14 0 2.06.92 2.06 2.06v6.07c0 1.14-.92 2.06-2.06 2.06h-5.34c-1.14 0-2.06.92-2.06 2.06v12.8c0 1.14-.92 2.06-2.06 2.06h-8.57c-1.14 0-2.06-.92-2.06-2.06v-12.8c0-1.14-.92-2.06-2.06-2.06h-28.8c-1.1 0-2-.86-2.05-1.96l-.24-5.11c-.02-.42.09-.84.32-1.2L66.5 26.97a2.06 2.06 0 0 1 1.73-.95h9.92c1.14 0 2.06.92 2.06 2.06v44.8c-.01 1.11.91 2.03 2.05 2.03zm-30.9 0h14.11c1.14 0 2.06-.92 2.06-2.06V43.17l-.94 1.67-16.97 26.92c-.87 1.37.12 3.15 1.74 3.15z" fill="#fafafa"/></svg>