<svg width="128" height="128" xmlns="http://www.w3.org/2000/svg" xmlns:xlink="http://www.w3.org/1999/xlink"><path d="M22.13 38.83c-8.71 0-15.79-7.08-15.79-15.79S13.43 7.25 22.13 7.25s15.79 7.08 15.79 15.79-7.08 15.79-15.79 15.79z" fill="#404040"/><path d="M22.13 8.75c7.88 0 14.29 6.41 14.29 14.29s-6.41 14.29-14.29 14.29S7.84 30.92 7.84 23.04 14.26 8.75 22.13 8.75m0-3c-9.55 0-17.29 7.74-17.29 17.29 0 9.55 7.74 17.29 17.29 17.29 9.55 0 17.29-7.74 17.29-17.29 0-9.55-7.74-17.29-17.29-17.29z" fill="#383838"/><circle cx="22.13" cy="23.04" r="9.86" fill="#6e6e6e"/><path d="M105.87 38.83c-8.71 0-15.79-7.08-15.79-15.79s7.08-15.79 15.79-15.79 15.79 7.08 15.79 15.79-7.09 15.79-15.79 15.79z" fill="#404040"/><path d="M105.87 8.75c7.88 0 14.29 6.41 14.29 14.29s-6.41 14.29-14.29 14.29c-7.88 0-14.29-6.41-14.29-14.29s6.41-14.29 14.29-14.29m0-3c-9.55 0-17.29 7.74-17.29 17.29 0 9.55 7.74 17.29 17.29 17.29 9.55 0 17.29-7.74 17.29-17.29 0-9.55-7.75-17.29-17.29-17.29z" fill="#383838"/><circle cx="105.87" cy="23.04" r="9.86" fill="#6e6e6e"/><linearGradient id="a" gradientUnits="userSpaceOnUse" x1="64" x2="64" y1="120.75" y2="9.359"><stop offset=".001" stop-color="#d1d1d1"/><stop offset=".112" stop-color="#d4d4d4"/><stop offset=".206" stop-color="#dfdfdf"/><stop offset=".295" stop-color="#f1f1f1"/><stop offset=".348" stop-color="#fff"/></linearGradient><path d="M64 120.75c-36.94 0-58.13-17.41-58.13-47.76 0-15.89 5.53-31.73 15.18-43.46C28.62 20.33 42.21 9.36 64 9.36s35.38 10.97 42.95 20.17c9.65 11.73 15.18 27.57 15.18 43.46 0 30.35-21.19 47.76-58.13 47.76z" fill="url(#a)"/><path d="M64 10.86c21.2 0 34.43 10.67 41.79 19.63 9.43 11.47 14.84 26.96 14.84 42.51 0 14.7-4.94 26.19-14.67 34.15-9.68 7.92-24.19 12.11-41.95 12.11s-32.27-4.19-41.95-12.11C12.31 99.18 7.37 87.69 7.37 72.99c0-15.55 5.41-31.04 14.84-42.51C29.57 21.53 42.8 10.86 64 10.86m0-3C25.89 7.86 4.37 41.4 4.37 72.99S26.56 122.25 64 122.25s59.63-17.67 59.63-49.26S102.11 7.86 64 7.86z" fill="#b0b0b0"/><g><path d="M19.63 87.59c8.35 6.29 20.48 2.1 27.08-9.36s5.18-25.85-3.18-32.15-20.48-2.1-27.08 9.36-5.17 25.86 3.18 32.15z" fill="#404040"/><ellipse cx="36.88" cy="61.88" rx="7.43" ry="6.04" transform="rotate(-75.83 36.882 61.874)" fill="#fff"/></g><g><path d="M108.37 87.59c-8.35 6.29-20.48 2.1-27.08-9.36-6.6-11.46-5.18-25.85 3.18-32.15s20.48-2.1 27.08 9.36c6.59 11.47 5.17 25.86-3.18 32.15z" fill="#404040"/><ellipse cx="91.12" cy="61.88" rx="6.04" ry="7.43" transform="rotate(-14.17 91.107 61.87)" fill="#fff"/></g><g><defs><path id="c" d="M75.12 94.15l.01.69c.03 1.92-.42 3.73-1.25 5.32-.33.64-.72 1.24-1.17 1.79-.44.56-.94 1.07-1.48 1.53a11.12 11.12 0 0 1-7.03 2.66c-.34.01-.67 0-1-.03-.33-.02-.65-.06-.97-.11-.96-.16-1.88-.43-2.75-.82-.86-.39-1.67-.88-2.4-1.46-.56-.44-1.07-.94-1.53-1.48-.46-.54-.87-1.13-1.23-1.75-.88-1.56-1.4-3.36-1.43-5.28l-.01-.69c4.94-.08 11.08-2.81 10.99-8.37.08 5.56 6.3 8.09 11.25 8z"/></defs><defs><path id="b" d="M75.12 94.15l.01.69c.03 1.92-.42 3.73-1.25 5.32-.33.64-.72 1.24-1.17 1.79-.44.56-.94 1.07-1.48 1.53a11.12 11.12 0 0 1-7.03 2.66c-.34.01-.67 0-1-.03-.33-.02-.65-.06-.97-.11-.96-.16-1.88-.43-2.75-.82-.86-.39-1.67-.88-2.4-1.46-.56-.44-1.07-.94-1.53-1.48-.46-.54-.87-1.13-1.23-1.75-.88-1.56-1.4-3.36-1.43-5.28l-.01-.69c4.94-.08 11.08-2.81 10.99-8.37.08 5.56 6.3 8.09 11.25 8z"/></defs><use xlink:href="#b" overflow="visible" fill="#424242"/><clipPath id="d"><use xlink:href="#c" overflow="visible"/></clipPath><clipPath id="e" clip-path="url(#d)"><use xlink:href="#b" overflow="visible"/></clipPath><path d="M54.96 107.91a9.222 9.222 0 0 1 9.06-9.37 9.222 9.222 0 0 1 9.37 9.06" clip-path="url(#e)" fill="#ed7770"/><path d="M63.9 84.29c.09 5.31-4.15 9.69-9.46 9.78-2.43.04-4.66-.82-6.38-2.28" fill="none" stroke="#404040" stroke-width="2.313" stroke-linecap="round" stroke-linejoin="round" stroke-miterlimit="10"/><path d="M63.86 84.29c.09 5.31 4.47 9.55 9.78 9.46 2.43-.04 4.63-.98 6.3-2.49" fill="none" stroke="#404040" stroke-width="2.313" stroke-linecap="round" stroke-linejoin="round" stroke-miterlimit="10"/></g><linearGradient id="f" gradientUnits="userSpaceOnUse" x1="64" x2="64" y1="77.389" y2="87.591"><stop offset=".163" stop-color="#4d4d4d"/><stop offset=".367" stop-color="#373737"/><stop offset=".784" stop-color="#0f0f0f"/><stop offset="1"/></linearGradient><path d="M64 86.83c4.68 0 7.43-2.02 9.02-4.45 1.59-2.43-.2-5.38-3.11-5.38H58.09c-2.9 0-4.7 2.95-3.11 5.38 1.59 2.43 4.34 4.45 9.02 4.45z" fill="url(#f)"/></svg>