<svg viewBox="0 0 128 128" xmlns="http://www.w3.org/2000/svg" xmlns:xlink="http://www.w3.org/1999/xlink" width="512px" height="512px"><defs><path id="a" d="M4 4h120v120H4z"/></defs><clipPath id="b"><use xlink:href="#a"/></clipPath><g clip-path="url(#b)"><linearGradient id="c" x1="95.25" x2="95.25" y1="69.445" y2="127.71" gradientUnits="userSpaceOnUse"><stop stop-color="#FF8530" offset="0"/><stop stop-color="#FD7D2A" offset=".248"/><stop stop-color="#F86918" offset=".622"/><stop stop-color="#F24D00" offset="1"/></linearGradient><path d="M64.75 128.03V89.4c0-9.31 7.37-16.61 19.71-19.54 4.28-1.02 8.35-1.51 12.42-1.51 2.85 0 5.74.25 8.61.75 9.79 1.69 20.25 7.91 20.25 20.31v38.64l-60.99-.02z" fill="url(#c)"/><path d="M96.88 69.85c2.76 0 5.57.24 8.36.72 5.59.96 10.31 3.14 13.66 6.28 3.55 3.33 5.35 7.55 5.35 12.54v37.14l-58-.01V89.4c0-12.69 14.2-17.05 18.56-18.08 4.16-.99 8.11-1.47 12.07-1.47m0-3c-4.4 0-8.62.57-12.77 1.55-11.23 2.67-20.86 9.63-20.86 21v40.12l64 .02V89.4c0-12.28-9.62-19.73-21.5-21.78-3.05-.52-5.99-.77-8.87-.77z" fill="#DB5200"/><path d="M95.25 74.12c-3.31 0-6-2.69-6-6V62.7h12v5.42c0 3.31-2.69 6-6 6z" fill="#E59600"/><path d="M100.25 63.7v4.42c0 2.76-2.24 5-5 5s-5-2.24-5-5V63.7h10m2-2h-14v6.42c0 3.87 3.13 7 7 7s7-3.13 7-7V61.7z" fill="#D18100"/><linearGradient id="d" x1="121.25" x2="121.25" y1="98.824" y2="128.82" gradientUnits="userSpaceOnUse"><stop stop-color="#FFB300" offset="0"/><stop stop-color="#FFCA28" offset=".401"/></linearGradient><path fill="url(#d)" d="M116.25 98.82h10v30h-10z"/><path d="M125.25 99.82v28h-8v-28h8m2-2h-12v32h12v-32z" fill="#EDA600"/><defs><path id="e" d="M65 5.18h60.5v60.5H65z"/></defs><clipPath id="f"><use xlink:href="#e"/></clipPath><path d="M74.66 20.8c-3.83.89-6.52 2.65-6.62 6.58-.18 6.9.27 19.33 4.38 27.38 5.15 10.1 22.5-.5 22.5-.5l-5-37-15.26 3.54zm41.04 0c3.83.89 6.06 3.67 6.46 7.58.88 8.5-.12 18.33-4.22 26.38-5.15 10.1-22.5-.5-22.5-.5l5-37 15.26 3.54z" clip-path="url(#f)" fill="#543930"/><path d="M122.32 30.13c-.01-.41-.01-.82-.03-1.25-.3-5.04-5-23.71-26.78-23.71h-.13c-12.01.04-13.33 5.69-13.66 5.69h-.01c-.37-.08-.77-.11-1.17-.11-3.32 0-7.38 2.59-9.72 6.74-1.7 3.02-2.45 5.88-2.62 8.49-.09.43-.15.9-.16 1.4-.18 6.9.27 19.33 4.38 27.38 1.66 3.26 4.59 4.36 7.8 4.36-.66-.5-1.2-1.16-1.68-1.95-2.1-.36-3.59-1.41-4.52-3.23-4.18-8.19-4.31-21.27-4.18-26.51.01-.37.05-.73.12-1.06l.03-.13.01-.15c.17-2.6.97-5.2 2.39-7.72 2.15-3.82 5.73-5.82 8.15-5.82.28 0 .55.03.8.08l.19.04h.18c1.08 0 1.57-.84 1.78-1.2C85.23 8.51 89.22 7 95.38 6.98h.13c8.72 0 15.44 3.11 20 9.24 3.62 4.87 4.84 10.33 4.99 12.78.02.33.02.65.03.96v.3c.62 8.76-.86 17.17-4.18 23.68-.76 1.49-2.68 2.46-4.22 2.96-.11.16-1.47 1.95-1.59 2.17 3.5 0 6-1.55 7.41-4.31 3.82-7.51 4.94-16.56 4.37-24.63z" clip-path="url(#f)" fill="#3F2720"/><g clip-path="url(#f)"><path d="M77.29 49.97c-3.47 0-6.29-3.03-6.29-6.76s2.82-6.76 6.29-6.76h35.99c3.47 0 6.29 3.03 6.29 6.76s-2.82 6.76-6.29 6.76H77.29z" fill="#E59600"/><path d="M113.28 37.22c3.05 0 5.54 2.69 5.54 6s-2.48 6-5.54 6H77.29c-3.05 0-5.54-2.69-5.54-6s2.48-6 5.54-6h35.99m0-1.52H77.29c-3.88 0-7.05 3.38-7.05 7.51s3.17 7.51 7.05 7.51h35.98c3.88 0 7.05-3.38 7.05-7.51.01-4.12-3.16-7.51-7.04-7.51z" fill="#D18100"/></g><g clip-path="url(#f)"><linearGradient id="g" x1="95.286" x2="95.286" y1="64.684" y2="11.04" gradientUnits="userSpaceOnUse"><stop stop-color="#FFB300" offset="0"/><stop stop-color="#FFB809" offset=".102"/><stop stop-color="#FFC21A" offset=".371"/><stop stop-color="#FFC825" offset=".659"/><stop stop-color="#FFCA28" offset="1"/></linearGradient><path d="M95.29 65.13c-5.62 0-10.82-2.23-14.66-6.29-4.35-4.6-6.65-11.23-6.65-19.16 0-8.13 2.34-15.62 6.58-21.09 3.96-5.11 9.33-8.04 14.73-8.04s10.77 2.93 14.73 8.04c4.24 5.47 6.58 12.96 6.58 21.09 0 7.94-2.3 14.56-6.65 19.16-3.84 4.06-9.05 6.29-14.66 6.29z" fill="url(#g)"/><path d="M95.29 11.3c5.17 0 10.32 2.82 14.13 7.74 4.14 5.34 6.42 12.67 6.42 20.63 0 7.74-2.23 14.19-6.44 18.64-3.69 3.9-8.7 6.05-14.11 6.05s-10.42-2.15-14.11-6.05c-4.22-4.46-6.44-10.9-6.44-18.64 0-7.96 2.28-15.29 6.42-20.63 3.81-4.92 8.96-7.74 14.13-7.74m0-1.52c-11.46 0-22.07 12.26-22.07 29.89 0 17.54 10.93 26.21 22.07 26.21s22.07-8.67 22.07-26.21c0-17.63-10.61-29.89-22.07-29.89z" fill="#ED9E00"/></g><path d="M98.29 47.35c-.08-.03-.17-.05-.25-.06h-5.51c-.08.01-.17.03-.25.06-.5.2-.77.72-.54 1.27.24.55 1.33 2.1 3.54 2.1s3.31-1.55 3.54-2.1c.25-.55-.03-1.07-.53-1.27z" clip-path="url(#f)" fill="#E59600"/><g clip-path="url(#f)"><path d="M101.02 53.2c-1.97 1.42-9.47 1.42-11.44 0-1.13-.82-2.58-.21-2.27.82.31 1.02 4.21 3.98 8.01 3.98s7.64-2.96 7.95-3.98c.31-1.03-1.12-1.64-2.25-.82z" fill="#795548"/></g><path d="M79.56 36.84s.09-.13.25-.33c.04-.05.08-.11.14-.17.07-.07.15-.14.24-.22l.28-.25c.1-.08.2-.15.31-.23s.23-.16.35-.23c.13-.07.26-.14.4-.21.14-.08.28-.14.43-.2s.31-.12.47-.17c.32-.09.66-.19 1.01-.24.35-.07.71-.07 1.07-.09.36.02.72.02 1.07.09.35.04.69.14 1.01.24.16.05.32.11.47.17s.3.12.43.2c.14.07.27.14.4.21.12.07.24.16.35.23.11.08.22.15.31.23l.26.23c.08.07.16.14.22.21s.12.14.17.19c.2.24.31.38.31.38.33.46.23 1.11-.24 1.44-.28.2-.63.24-.94.14l-.19-.07s-.13-.04-.32-.13c-.05-.02-.1-.05-.16-.07s-.13-.05-.2-.07c-.14-.06-.29-.11-.46-.16-.09-.03-.17-.06-.26-.09-.09-.02-.19-.05-.28-.07-.05-.01-.1-.03-.14-.04l-.15-.03c-.1-.02-.2-.05-.31-.06-.22-.02-.43-.07-.66-.08-.22-.03-.45-.02-.68-.03-.23.01-.46.01-.68.04-.23.01-.44.06-.66.08-.11.02-.21.05-.31.06l-.15.03c-.05.01-.1.03-.14.04-.1.02-.19.05-.28.07s-.17.06-.26.09c-.08.03-.17.05-.24.08-.07.02-.13.05-.19.07l-.18.06c-.06.03-.13.07-.19.09-.24.12-.38.18-.38.18-.54.23-1.17-.03-1.39-.58-.15-.36-.1-.74.09-1.03z" clip-path="url(#f)" fill="#6D4C41"/><ellipse cx="84.55" cy="42.16" rx="3.24" ry="3.36" clip-path="url(#f)" fill="#404040"/><path d="M109.89 38.42s-.14-.06-.38-.18c-.06-.03-.13-.07-.19-.09-.06-.01-.12-.04-.18-.06s-.12-.04-.19-.07c-.08-.02-.16-.05-.24-.08-.09-.03-.17-.06-.26-.09-.09-.02-.19-.05-.28-.07-.05-.01-.1-.03-.14-.04l-.15-.03c-.1-.02-.2-.05-.31-.06-.22-.02-.43-.07-.66-.08-.22-.03-.45-.02-.68-.04-.23.01-.46.01-.68.03-.23.01-.44.06-.66.08-.11.02-.21.05-.31.06l-.15.03c-.05.01-.1.03-.14.04-.1.03-.19.05-.28.07s-.17.06-.26.09c-.17.05-.33.11-.46.16-.07.03-.13.05-.2.07-.06.02-.11.05-.16.07-.2.09-.32.13-.32.13l-.19.06c-.54.19-1.13-.1-1.32-.64-.11-.33-.05-.68.14-.95 0 0 .1-.14.31-.38.05-.06.11-.13.17-.19.07-.07.14-.13.22-.21l.26-.23c.09-.08.2-.15.31-.23s.23-.16.35-.23c.13-.07.26-.14.4-.21.14-.08.28-.14.43-.2s.31-.12.47-.17c.32-.09.66-.19 1.01-.24.35-.07.71-.07 1.07-.09.36.02.72.02 1.07.09.35.04.69.15 1.01.24.16.05.32.11.47.17s.3.12.43.2c.14.07.27.14.4.21.12.07.24.16.35.23.11.08.21.15.31.23l.28.25c.09.08.17.15.24.22.06.07.1.12.14.17l.25.33c.33.49.21 1.15-.28 1.48a.99.99 0 0 1-1.02.15z" clip-path="url(#f)" fill="#6D4C41"/><ellipse cx="106.19" cy="42.16" rx="3.24" ry="3.36" clip-path="url(#f)" fill="#404040"/><radialGradient id="h" cx="94.898" cy="15.961" r="24.37" gradientUnits="userSpaceOnUse"><stop stop-color="#6D4C41" offset="0"/><stop stop-color="#543930" offset="1"/></radialGradient><path d="M95.37 5.18c-12.08.04-13.34 5.76-13.67 5.69-3.48-.72-8.26 1.97-10.88 6.62-6.77 12.02 1.51 21.51 1.69 22.57.91 5.46 1.35 6.41 1.35 6.41s.27-7.51 4.37-12.4c2.62-3.12 5.12-10 5.12-10s7.35 2.69 12.95 5.99c4.72 2.78 7.68 6.41 7.68 6.41s.89-2.78.19-5.69c-1.49-6.25-7.36-9.07-7.36-9.07s2.93.84 6.92 4.45c8.79 7.97 11.14 22.46 11.14 22.46 3.02-2.81 8.04-9.62 7.42-19.74-.31-5.05-5.03-23.78-26.92-23.7z" clip-path="url(#f)" fill="url(#h)"/><path d="M115.5 16.21c3.62 4.87 4.84 10.33 4.99 12.78.02.33.02.65.03.96v.3c.26 3.67.13 7.28-.33 10.71.85-1.33 1.52-2.61 2.2-4.22.11-2.24.08-4.47-.07-6.62-.01-.41-.01-.82-.03-1.25-.3-5.04-5-23.71-26.78-23.71h-.13c-12.01.04-13.33 5.69-13.66 5.69h-.01c-.37-.08-.77-.11-1.17-.11-3.32 0-7.38 2.59-9.72 6.74-1.7 3.02-2.45 5.88-2.62 8.49-.09.43-.15.9-.16 1.4-.06 2.17-.05 4.88.11 7.82.16.1.32.21.47.34.53.4 1.01.85 1.45 1.35-.29-3.88-.29-7.33-.23-9.47.01-.37.05-.73.12-1.06l.03-.13.01-.13c.17-2.6.97-5.2 2.39-7.72 2.15-3.82 5.73-5.82 8.15-5.82.28 0 .55.03.8.08l.19.04h.18c1.08 0 1.57-.84 1.78-1.2C85.23 8.51 89.22 7 95.38 6.98h.13c8.71 0 15.44 3.1 19.99 9.23z" clip-path="url(#f)" fill="#3F2720"/></g><g clip-path="url(#b)"><defs><path id="i" d="M0 0h128v128H0z"/></defs><clipPath id="j"><use xlink:href="#i"/></clipPath><g clip-path="url(#j)"><linearGradient id="k" x1="32" x2="32" y1="68.762" y2="130.14" gradientUnits="userSpaceOnUse"><stop stop-color="#67B730" offset="0"/><stop stop-color="#64AF2E" offset=".242"/><stop stop-color="#5A9B2A" offset=".607"/><stop stop-color="#4D7D23" offset="1"/></linearGradient><path d="M1.5 127.03V88.4c0-9.31 7.37-16.61 19.71-19.54 4.28-1.02 8.35-1.51 12.42-1.51 2.85 0 5.74.25 8.61.75 9.79 1.69 20.25 7.91 20.25 20.31v38.64l-60.99-.02z" fill="url(#k)"/><path d="M33.63 68.85c2.76 0 5.57.24 8.36.72 5.59.96 10.31 3.14 13.66 6.28C59.2 79.2 61 83.42 61 88.4v37.14l-58-.01V88.4c0-12.69 14.2-17.05 18.56-18.08 4.16-.99 8.11-1.47 12.07-1.47m0-3c-4.4 0-8.62.57-12.77 1.55C9.63 70.07 0 77.04 0 88.4v40.12l64 .02V88.4c0-12.28-9.62-19.73-21.5-21.78-3.05-.52-5.99-.77-8.87-.77z" fill="#518626"/><path d="M32 73.12c-3.31 0-6-2.69-6-6V61.7h12v5.42c0 3.31-2.69 6-6 6z" fill="#E59600"/><path d="M37 62.7v4.42c0 2.76-2.24 5-5 5s-5-2.24-5-5V62.7h10m2-2H25v6.42c0 3.87 3.13 7 7 7s7-3.13 7-7V60.7z" fill="#D18100"/><defs><path id="l" d="M1.58 5.18h60.5v60.5H1.58z"/></defs><clipPath id="m"><use xlink:href="#l"/></clipPath><radialGradient id="n" cx="18.047" cy="38.181" r="17.594" gradientUnits="userSpaceOnUse"><stop stop-color="#6D4C41" offset="0"/><stop stop-color="#543930" offset="1"/></radialGradient><path d="M11.24 20.8c-3.83.89-6.52 2.65-6.62 6.58C4.45 34.27 4.9 46.7 9 54.75c5.15 10.1 22.5-.5 22.5-.5l-5-37-15.26 3.55z" clip-path="url(#m)" fill="url(#n)"/><radialGradient id="o" cx="32.992" cy="38.181" r="17.615" gradientTransform="matrix(-1 0 0 1 78.527 0)" gradientUnits="userSpaceOnUse"><stop stop-color="#6D4C41" offset="0"/><stop stop-color="#543930" offset="1"/></radialGradient><path d="M52.29 20.8c3.83.89 6.06 3.67 6.46 7.58.88 8.5-.12 18.33-4.22 26.38-5.15 10.1-22.5-.5-22.5-.5l5-37 15.26 3.54z" clip-path="url(#m)" fill="url(#o)"/><path d="M58.75 28.38c-.01-.13-.04-.24-.06-.36C57.92 21.95 52.61 5.23 32 5.23h-.13c-12.01.04-13.33 5.69-13.66 5.69h-.01c-.37-.08-.77-.11-1.17-.11-3.32 0-7.38 2.59-9.72 6.74-1.83 3.26-2.56 6.32-2.64 9.09-.03.24-.05.48-.05.73-.17 6.9.28 19.33 4.38 27.38 1.55 3.04 4.45 4.19 7.41 4.33a19.69 19.69 0 0 1-1.62-1.99c-1.76-.45-3.35-1.54-4.18-3.16-4.18-8.19-4.31-21.27-4.18-26.51 0-.19.02-.38.04-.57l.01-.08v-.08c.09-2.79.9-5.57 2.41-8.26 2.15-3.82 5.73-5.82 8.15-5.82.28 0 .55.03.8.08l.19.04h.18c1.08 0 1.57-.84 1.78-1.2 1.73-2.96 5.73-4.47 11.88-4.49H32c21.6 0 24.63 19.03 24.9 21.22.01.09.03.17.04.26l.01.05c.95 9.23-.52 18.48-4.04 25.37-.86 1.69-2.21 2.74-4.09 3.16-.5.72-1.01 1.38-1.6 2 3-.12 5.71-1.26 7.28-4.34 4.13-8.06 5.12-17.88 4.25-26.38z" clip-path="url(#m)" fill="#3F2720"/><g clip-path="url(#m)"><path d="M13.88 49.97c-3.47 0-6.29-3.03-6.29-6.76s2.82-6.76 6.29-6.76h35.99c3.47 0 6.29 3.03 6.29 6.76s-2.82 6.76-6.29 6.76H13.88z" fill="#E59600"/><path d="M49.86 37.22c3.05 0 5.54 2.69 5.54 6s-2.48 6-5.54 6H13.88c-3.05 0-5.54-2.69-5.54-6s2.48-6 5.54-6h35.98m0-1.52H13.88c-3.88 0-7.05 3.38-7.05 7.51s3.17 7.51 7.05 7.51h35.98c3.88 0 7.05-3.38 7.05-7.51.01-4.12-3.17-7.51-7.05-7.51z" fill="#D18100"/></g><g clip-path="url(#m)"><linearGradient id="p" x1="31.869" x2="31.869" y1="64.684" y2="11.04" gradientUnits="userSpaceOnUse"><stop stop-color="#FFB300" offset="0"/><stop stop-color="#FFB809" offset=".102"/><stop stop-color="#FFC21A" offset=".371"/><stop stop-color="#FFC825" offset=".659"/><stop stop-color="#FFCA28" offset="1"/></linearGradient><path d="M31.87 65.13c-5.62 0-10.82-2.23-14.66-6.29-4.35-4.6-6.65-11.23-6.65-19.16 0-8.13 2.34-15.62 6.58-21.09 3.96-5.11 9.33-8.04 14.73-8.04s10.77 2.93 14.73 8.04c4.24 5.47 6.58 12.96 6.58 21.09 0 7.94-2.3 14.56-6.65 19.16-3.84 4.06-9.04 6.29-14.66 6.29z" fill="url(#p)"/><path d="M31.87 11.3c5.17 0 10.32 2.82 14.13 7.74 4.14 5.34 6.42 12.67 6.42 20.63 0 7.74-2.23 14.19-6.44 18.64-3.69 3.9-8.7 6.05-14.11 6.05s-10.42-2.15-14.11-6.05c-4.22-4.46-6.44-10.9-6.44-18.64 0-7.96 2.28-15.29 6.42-20.63 3.81-4.92 8.96-7.74 14.13-7.74m0-1.52C20.41 9.78 9.8 22.04 9.8 39.68c0 17.54 10.93 26.21 22.07 26.21s22.07-8.67 22.07-26.21c0-17.64-10.61-29.9-22.07-29.9z" fill="#ED9E00"/></g><radialGradient id="q" cx="31.395" cy="16.036" r="24.394" gradientUnits="userSpaceOnUse"><stop stop-color="#6D4C41" offset="0"/><stop stop-color="#543930" offset="1"/></radialGradient><path d="M31.87 5.23c-12.08.04-13.34 5.76-13.67 5.69-3.48-.72-8.26 1.97-10.88 6.62C.55 29.57 8.83 39.06 9.01 40.12c.9 5.46 1.99 8.63 1.99 8.63s1.62-7.38 3.12-12.75 3.25-9.12 3.25-9.12 5.37.61 10.62 2.88 12.47 6.78 12.47 6.78.89-2.78.19-5.69C39.17 24.59 38.12 25 38.12 25s-.73-.86 3.25 2.75c8.79 7.97 9.98 20.93 9.98 20.93 3.02-2.81 8.04-9.62 7.42-19.74-.29-5.05-5.01-23.78-26.9-23.71z" clip-path="url(#m)" fill="url(#q)"/><ellipse cx="21.78" cy="42.04" rx="2.81" ry="3.21" clip-path="url(#m)" fill="#404040"/><ellipse cx="41.53" cy="42.04" rx="2.81" ry="3.21" clip-path="url(#m)" fill="#404040"/><path d="M34.88 47.35c-.08-.03-.17-.05-.25-.06h-5.51c-.08.01-.17.03-.25.06-.5.2-.77.72-.54 1.27.24.55 1.33 2.1 3.54 2.1s3.31-1.55 3.54-2.1c.24-.55-.03-1.07-.53-1.27z" clip-path="url(#m)" fill="#E59600"/><path d="M16.28 38.34c-.21.1-.42-.16-.31-.38 1.02-2.09 3.54-3.5 5.72-3.26 2.31.26 3.76 1.31 4.6 2.32.41.5-.06 1.28-.64 1.08-1.07-.37-2.55-.79-4-.87-2.34-.11-3.61.31-5.37 1.11zm30.08 0c.21.1.42-.16.31-.38-1.02-2.09-3.54-3.5-5.72-3.26-2.31.26-3.76 1.31-4.6 2.32-.41.5.06 1.28.64 1.08 1.07-.37 2.55-.79 4-.87 2.34-.11 3.61.31 5.37 1.11z" clip-path="url(#m)" fill="#6D4C41"/><g clip-path="url(#m)"><path d="M37.6 53.2c-1.97 1.42-9.47 1.42-11.44 0-1.13-.82-2.58-.21-2.27.82C24.2 55.04 28.1 58 31.9 58s7.64-2.96 7.95-3.98c.31-1.03-1.12-1.64-2.25-.82z" fill="#795548"/></g><path d="M56.91 28.25c.01.09.03.17.04.26l.01.05c.43 4.15.34 8.3-.18 12.24.06-.13.12-.25.19-.37.48-.85 1.14-1.32 1.86-1.52.32-3.59.27-7.17-.08-10.53-.01-.13-.04-.24-.06-.36C57.92 21.95 52.61 5.23 32 5.23h-.13c-12.01.04-13.33 5.69-13.66 5.69h-.01c-.37-.08-.77-.11-1.17-.11-3.32 0-7.38 2.59-9.72 6.74-1.83 3.26-2.56 6.32-2.64 9.09-.03.24-.05.48-.05.73-.05 1.92-.05 4.29.07 6.86.72.86 1.37 1.75 1.97 2.68a95.86 95.86 0 0 1-.23-9.49c0-.19.02-.38.04-.57l.01-.08v-.08c.09-2.79.9-5.57 2.41-8.26 2.15-3.82 5.73-5.82 8.15-5.82.28 0 .55.03.8.08l.19.04h.18c1.08 0 1.57-.84 1.78-1.2 1.73-2.96 5.73-4.47 11.88-4.49H32c21.6-.01 24.63 19.03 24.91 21.21z" clip-path="url(#m)" fill="#3F2720"/><linearGradient id="r" x1="6" x2="6" y1="97.824" y2="127.82" gradientUnits="userSpaceOnUse"><stop stop-color="#FFB300" offset="0"/><stop stop-color="#FFCA28" offset=".401"/></linearGradient><path fill="url(#r)" d="M1 97.82h10v30H1z"/><path d="M10 98.82v28H2v-28h8m2-2H0v32h12v-32z" fill="#EDA600"/></g><radialGradient id="s" cx="64" cy="97.246" r="29.228" gradientTransform="matrix(1 0 0 1.4568 0 -44.424)" gradientUnits="userSpaceOnUse"><stop stop-color="#212121" offset=".422"/><stop stop-color="#616161" stop-opacity=".05" offset="1"/></radialGradient><path d="M85.1 66.62c-11.88 2.05-21.08 9.5-21.08 21.78 0-12.28-9.67-19.73-21.55-21.78-1.84-.32-3.47-.52-5.47-.64v62.56l27 .01 27-.01V65.95c-2 .11-3.93.33-5.9.67z" clip-path="url(#j)" fill="url(#s)" opacity=".4"/><g clip-path="url(#j)"><path d="M43.18 138.12c-.09-2.59.01-10.85.1-16.12 0-9.25 12.38-12.16 15.88-12.16h9.38c3.5 0 15.87 2.91 15.87 12.14 0 0 0 .6.01 1.06.16 9.99.14 13.71.09 15.08H43.18z" fill="#9B40D0"/><path d="M68.54 110.84c3.28 0 14.87 2.67 14.87 11.14v.28c0 .04 0 .33.01.8.13 8.28.14 12.2.11 14.06H44.16c-.04-3.16.03-10.11.12-15.14 0-8.47 11.6-11.14 14.88-11.14h9.38m0-2h-9.37c-4.35 0-16.88 3.3-16.88 13.14 0 0-.31 17.14 0 17.14h43.12c.31 0 0-16.51 0-16.86v-.28c0-9.84-12.52-13.14-16.87-13.14z" fill="#8838B5"/><path d="M63.84 115.8c-2.31 0-4.19-1.88-4.19-4.19v-3.1h8.39v3.1a4.21 4.21 0 0 1-4.2 4.19z" fill="#E59600"/><path d="M67.53 109.01v2.6c0 2.04-1.66 3.69-3.69 3.69-2.04 0-3.69-1.66-3.69-3.69v-2.6h7.38m1-1h-9.39v3.6a4.69 4.69 0 0 0 9.38 0v-3.6h.01z" fill="#D18100"/><defs><path id="t" d="M40.55 64.24h46.9v46.9h-46.9z"/></defs><clipPath id="u"><use xlink:href="#t"/></clipPath><g clip-path="url(#u)"><path d="M49.35 99.84c-2.91 0-5.28-2.27-5.28-5.06s2.37-5.06 5.28-5.06h29.48c2.91 0 5.28 2.27 5.28 5.06s-2.37 5.06-5.28 5.06H49.35z" fill="#E59600"/><path d="M78.83 90.21c2.64 0 4.78 2.05 4.78 4.56 0 2.52-2.14 4.56-4.78 4.56H49.35c-2.64 0-4.78-2.05-4.78-4.56 0-2.52 2.14-4.56 4.78-4.56h29.48m0-1H49.35c-3.18 0-5.78 2.5-5.78 5.56s2.6 5.56 5.78 5.56h29.49c3.18 0 5.78-2.5 5.78-5.56-.01-3.06-2.61-5.56-5.79-5.56z" fill="#CC8600"/><linearGradient id="v" x1="63.981" x2="63.981" y1="110.62" y2="66.445" gradientUnits="userSpaceOnUse"><stop stop-color="#FFB300" offset="0"/><stop stop-color="#FFB809" offset=".102"/><stop stop-color="#FFC21A" offset=".371"/><stop stop-color="#FFC825" offset=".659"/><stop stop-color="#FFCA28" offset="1"/></linearGradient><path d="M63.98 110.62c-8.41 0-17.46-6.4-17.46-20.45 0-11.25 6.68-23.4 17.46-23.4 10.79 0 17.46 12.14 17.46 23.4 0 14.05-9.05 20.45-17.46 20.45z" fill="url(#v)"/><path d="M63.98 67.27c4.28 0 8.54 2.29 11.69 6.28 3.4 4.3 5.27 10.2 5.27 16.61 0 6.24-1.83 11.44-5.3 15.04-3.05 3.17-7.19 4.91-11.66 4.91s-8.61-1.74-11.66-4.91c-3.47-3.6-5.3-8.8-5.3-15.04 0-6.41 1.87-12.31 5.27-16.61 3.15-3.99 7.41-6.28 11.69-6.28m0-1c-9.33 0-17.96 9.8-17.96 23.9 0 14.02 8.9 20.95 17.96 20.95s17.96-6.93 17.96-20.95c0-14.11-8.63-23.9-17.96-23.9z" fill="#EDA600"/><path d="M65.98 96.72a.471.471 0 0 0-.17-.04h-3.63c-.06.01-.11.02-.17.04-.33.13-.51.47-.35.84.16.36.88 1.38 2.34 1.38s2.18-1.02 2.34-1.38c.15-.37-.03-.71-.36-.84z" fill="#E59600"/><path d="M51.77 89.41s.07-.1.2-.26c.03-.04.06-.08.11-.13.06-.06.12-.11.19-.17s.14-.13.22-.19.16-.12.25-.18l.27-.18c.1-.05.2-.11.31-.17s.22-.11.34-.15c.12-.05.24-.09.36-.14.25-.07.52-.15.79-.18.27-.05.55-.06.84-.07.28.01.56.02.84.07.27.03.54.11.79.18.12.04.25.09.36.14.12.05.23.09.34.15s.21.11.31.17.19.12.27.18c.09.06.17.11.24.18.07.06.14.12.2.18s.12.11.17.16.09.11.13.15c.16.18.24.3.24.3.26.36.18.87-.18 1.13a.8.8 0 0 1-.73.11l-.15-.05s-.1-.03-.25-.1c-.04-.02-.08-.04-.13-.06l-.15-.06c-.11-.04-.23-.09-.36-.13-.07-.02-.13-.05-.2-.07l-.22-.06-.11-.03c-.04-.01-.08-.01-.12-.02-.08-.01-.16-.04-.24-.05-.17-.02-.34-.05-.51-.06-.17-.02-.35-.02-.53-.03-.18.01-.36 0-.53.03-.18.01-.35.04-.51.06-.08.01-.16.04-.24.05-.04.01-.08.01-.12.02s-.08.02-.11.03c-.08.02-.15.04-.22.06s-.14.05-.2.07c-.07.02-.13.04-.19.06-.05.02-.1.04-.15.05-.05.02-.09.03-.14.04-.05.02-.1.05-.15.07-.18.09-.29.14-.29.14a.83.83 0 0 1-1.09-.45c-.15-.27-.1-.57.05-.79zm23.46 1.23s-.11-.05-.29-.14c-.04-.02-.1-.05-.15-.07-.05-.01-.09-.03-.14-.04-.05-.02-.1-.03-.15-.05-.06-.02-.12-.04-.19-.06s-.13-.05-.2-.07l-.22-.06-.11-.03c-.04-.01-.08-.01-.12-.02-.08-.01-.16-.04-.24-.05-.17-.02-.34-.05-.51-.06-.17-.02-.35-.02-.53-.03-.18.01-.36 0-.53.03-.18.01-.35.04-.51.06-.08.01-.16.04-.24.05-.04.01-.08.01-.12.02s-.08.02-.11.03c-.08.02-.15.04-.22.06s-.14.05-.2.07c-.13.04-.25.08-.36.13l-.15.06c-.05.02-.09.04-.13.06-.15.07-.25.1-.25.1l-.14.05a.811.811 0 0 1-.92-1.24s.08-.11.24-.3c.04-.05.08-.1.13-.15s.11-.1.17-.16.13-.12.2-.18.16-.11.24-.18l.27-.18c.1-.05.2-.11.31-.17s.22-.11.34-.15c.12-.05.24-.09.36-.14.25-.07.52-.15.79-.18.27-.05.55-.06.84-.07.28.01.56.02.83.07.27.03.54.11.79.18.12.04.25.09.36.14.12.05.23.09.34.15s.21.11.31.17.19.12.27.18c.09.06.17.11.25.18l.22.19c.07.06.13.12.19.17.05.05.08.09.11.13.13.16.2.26.2.26.26.38.16.9-.22 1.15-.26.17-.56.19-.81.09z" fill="#6D4C41"/><g fill="#404040"><ellipse cx="55.46" cy="94.07" rx="2.53" ry="2.62"/><ellipse cx="72.54" cy="94.07" rx="2.53" ry="2.62"/></g><radialGradient id="w" cx="72.542" cy="66.239" r="24.009" gradientTransform="translate(-11.966 -2.86) scale(1.0432)" gradientUnits="userSpaceOnUse"><stop stop-color="#6D4C41" offset="0"/><stop stop-color="#543930" offset=".901"/></radialGradient><path d="M79.63 69.83c-2.33-2.43-4.54-3.46-4.76-3.49-2.71-1.24-6.2-2.18-10.72-2.18-19.87 0-21.25 16.27-20.45 23.4.7 6.29 3.98 7.84 3.98 7.84s-.64-5.49.4-9.47c.83-3.16 2.8-5.5 2.8-5.5s3.58 3.12 10.27 5.15c3.22.98 7.35.49 7.35.49l-2.32-4.1s3.78 2.79 6.14 3.32c3.02.68 5.24.39 5.24.39l-1.11-4.33s1.92 1.26 3.36 4.71.55 9.34.55 9.34 3.46-1.54 4.01-7.84c.69-7.89-.26-12.62-4.74-17.73z" fill="url(#w)"/><defs><path id="x" d="M79.63 69.83c-2.19-2.49-4.54-3.46-4.76-3.49-2.71-1.24-6.2-2.18-10.72-2.18-19.87 0-21.25 16.27-20.45 23.4.7 6.29 3.98 7.86 3.98 7.86v-1.54l-1.35-3.65c-.84-2.29-1.11-4.75-.78-7.16L46 79.8l18.03-11.59L81.95 79.8l.47 3.19c.38 2.57.08 5.19-.88 7.61l-1.01 2.57-.17 2.26s3.46-1.55 4.01-7.85c.69-7.91-.26-12.64-4.74-17.75z"/></defs><clipPath id="y"><use xlink:href="#x"/></clipPath><g clip-path="url(#y)"><path d="M64.15 66.16c3.67 0 6.99.67 9.88 2l.28.13.06.01c.56.27 2.34 1.27 3.75 2.85 3.9 4.45 4.94 8.4 4.25 16.24l-.03.34c-.15-.85-.37-1.68-.69-2.43-1.63-3.9-3.86-5.45-4.1-5.61l-4.32-2.85 1.29 5.02.47 1.84c-.64-.06-1.4-.16-2.22-.35-1.41-.32-4.06-2-5.4-2.98l-7.51-5.53 4.59 8.12.69 1.22c-1.31-.05-2.48-.23-3.4-.51-6.14-1.86-9.51-4.72-9.53-4.74l-1.53-1.34-1.31 1.56c-.09.11-2.27 2.73-3.2 6.28-.19.71-.32 1.46-.42 2.21-.01-.1-.02-.2-.04-.3-.26-2.35-.74-10.43 4.15-15.9 3.11-3.5 7.92-5.28 14.29-5.28m0-2c-19.87 0-21.25 16.27-20.45 23.4.7 6.29 3.98 7.84 3.98 7.84s-.64-5.49.4-9.47c.83-3.16 2.8-5.5 2.8-5.5s3.58 3.12 10.27 5.15c1.61.49 3.44.61 4.87.61 1.44 0 2.48-.12 2.48-.12l-2.32-4.1s3.78 2.79 6.14 3.32c1.63.37 3.02.45 3.96.45.81 0 1.28-.06 1.28-.06l-1.11-4.33s1.92 1.26 3.36 4.71.55 9.34.55 9.34 3.46-1.54 4.01-7.84c.69-7.89-.25-12.62-4.74-17.74-1.98-2.21-4.54-3.46-4.76-3.49-2.71-1.23-6.2-2.17-10.72-2.17z" fill="#402720"/></g><path d="M68.3 100.89c-1.64.97-7 .97-8.64 0-.94-.56-1.9.3-1.51 1.15.38.84 3.31 2.79 5.84 2.79s5.42-1.95 5.8-2.79c.4-.86-.55-1.71-1.49-1.15z" fill="#795548"/></g></g></g></svg>