<svg width="128" height="128" xmlns="http://www.w3.org/2000/svg" width="512px" height="512px"><linearGradient id="a" gradientUnits="userSpaceOnUse" x1="64" x2="64" y1="-4.388" y2="133.035"><stop offset="0" stop-color="#616161"/><stop offset=".352" stop-color="#4e4e4e"/><stop offset="1" stop-color="#212121"/></linearGradient><path d="M116 124H12c-4.42 0-8-3.58-8-8V12c0-4.42 3.58-8 8-8h104c4.42 0 8 3.58 8 8v104c0 4.42-3.58 8-8 8z" fill="url(#a)"/><path d="M116 7c2.76 0 5 2.24 5 5v104c0 2.76-2.24 5-5 5H12c-2.76 0-5-2.24-5-5V12c0-2.76 2.24-5 5-5h104m0-3H12c-4.42 0-8 3.58-8 8v104c0 4.42 3.58 8 8 8h104c4.42 0 8-3.58 8-8V12c0-4.42-3.58-8-8-8z" fill="#eee" opacity=".2"/></svg>