<svg width="128" height="128" xmlns="http://www.w3.org/2000/svg" width="512px" height="512px"><linearGradient id="a" gradientUnits="userSpaceOnUse" x1="-109.494" x2="-109.494" y1="91.562" y2="120.999"><stop offset=".163" stop-color="#f2e5dc"/><stop offset=".461" stop-color="#ede0d8"/><stop offset=".805" stop-color="#dfd3cb"/><stop offset="1" stop-color="#d4c8c0"/></linearGradient><path d="M-111 119.33c-.74-3.99-3.84-20.8-4.85-28.66 1.91 1.66 4.93 3.74 8.12 3.74.69 0 1.37-.1 2.01-.29 0 0 .07-.02.23-.02.88 0 2.07.49 2.34.81-.83 6.62-2.06 20.53-2.37 24.13l-5.48.29z" fill="url(#a)"/><path d="M-114.52 92.98c1.89 1.3 4.27 2.43 6.8 2.43.79 0 1.56-.11 2.3-.34l-.06.02c.38 0 .91.15 1.28.31-.77 6.38-1.83 18.24-2.22 22.68l-3.75.2c-.86-4.61-3.21-17.43-4.35-25.3m-2.62-4.99c.42 6.37 5.31 32.38 5.31 32.38l7.24-.39s1.5-17.47 2.46-25.08c.12-.98-2.07-1.81-3.35-1.81-.2 0-.38.02-.52.06-.57.17-1.15.25-1.72.25-4.81.01-9.42-5.41-9.42-5.41z" fill="#ada39d"/><path d="M-102.34 123.79c0-3.35-2.66-6.06-5.95-6.06-3.28 0-5.95 2.71-5.95 6.06 0 .07.01.14.01.21h5.09c.52-.8.51-1.66.79-2.43 0 .59.45 1.63 1.01 2.43h4.98c.01-.07.02-.14.02-.21z" fill="#4d4d4d" stroke="#333" stroke-width="2" stroke-linejoin="round" stroke-miterlimit="10"/><linearGradient id="b" gradientUnits="userSpaceOnUse" x1="-99.078" x2="-99.078" y1="91.562" y2="120.999"><stop offset=".163" stop-color="#f2e5dc"/><stop offset=".461" stop-color="#ede0d8"/><stop offset=".805" stop-color="#dfd3cb"/><stop offset="1" stop-color="#d4c8c0"/></linearGradient><path d="M-100.59 119.33c-.74-3.99-3.84-20.79-4.85-28.66 1.91 1.66 4.93 3.74 8.12 3.74.69 0 1.37-.1 2.01-.29 0 0 .07-.02.23-.02.88 0 2.07.49 2.34.81-.83 6.62-2.06 20.53-2.37 24.13l-5.48.29z" fill="url(#b)"/><path d="M-104.11 92.98c1.89 1.3 4.27 2.43 6.8 2.43.79 0 1.56-.11 2.3-.34l-.06.02c.38 0 .91.15 1.28.31-.77 6.38-1.83 18.24-2.22 22.68l-3.75.2c-.86-4.61-3.2-17.43-4.35-25.3m-2.61-4.99c.42 6.37 5.31 32.38 5.31 32.38l7.24-.39s1.5-17.47 2.46-25.08c.12-.98-2.07-1.81-3.35-1.81-.2 0-.38.02-.52.06-.57.17-1.15.25-1.72.25-4.81.01-9.42-5.41-9.42-5.41z" fill="#ada39d"/><path d="M-91.92 123.79c0-3.35-2.66-6.06-5.95-6.06-3.28 0-5.95 2.71-5.95 6.06 0 .07.01.14.01.21h5.09c.52-.8.51-1.66.79-2.43 0 .59.45 1.63 1.01 2.43h4.98c.01-.07.02-.14.02-.21z" fill="#4d4d4d" stroke="#333" stroke-width="2" stroke-linejoin="round" stroke-miterlimit="10"/><linearGradient id="c" gradientUnits="userSpaceOnUse" x1="-139.244" x2="-139.244" y1="91.562" y2="120.999"><stop offset=".163" stop-color="#f2e5dc"/><stop offset=".461" stop-color="#ede0d8"/><stop offset=".805" stop-color="#dfd3cb"/><stop offset="1" stop-color="#d4c8c0"/></linearGradient><path d="M-140.75 119.33c-.74-3.99-3.84-20.79-4.85-28.66 1.91 1.66 4.93 3.74 8.12 3.74.69 0 1.37-.1 2.01-.29 0 0 .07-.02.23-.02.88 0 2.07.49 2.34.81-.83 6.62-2.06 20.53-2.37 24.13l-5.48.29z" fill="url(#c)"/><path d="M-144.27 92.98c1.89 1.3 4.27 2.43 6.8 2.43.79 0 1.56-.11 2.3-.34l-.06.02c.38 0 .91.15 1.28.31-.77 6.38-1.83 18.24-2.22 22.68l-3.75.2c-.86-4.61-3.21-17.43-4.35-25.3m-2.62-4.99c.42 6.37 5.31 32.38 5.31 32.38l7.24-.39s1.5-17.47 2.46-25.08c.12-.98-2.07-1.81-3.35-1.81-.2 0-.38.02-.52.06-.57.17-1.15.25-1.72.25-4.81.01-9.42-5.41-9.42-5.41z" fill="#ada39d"/><path d="M-132.09 123.79c0-3.35-2.66-6.06-5.95-6.06-3.28 0-5.95 2.71-5.95 6.06 0 .07.01.14.01.21h5.09c.52-.8.51-1.66.79-2.43 0 .59.45 1.63 1.01 2.43h4.98c.01-.07.02-.14.02-.21z" fill="#4d4d4d" stroke="#333" stroke-width="2" stroke-linejoin="round" stroke-miterlimit="10"/><g><linearGradient id="d" gradientUnits="userSpaceOnUse" x1="-149.007" x2="-149.007" y1="91.562" y2="120.999"><stop offset=".163" stop-color="#f2e5dc"/><stop offset=".461" stop-color="#ede0d8"/><stop offset=".805" stop-color="#dfd3cb"/><stop offset="1" stop-color="#d4c8c0"/></linearGradient><path d="M-150.52 119.33c-.74-3.99-3.84-20.79-4.85-28.66 1.91 1.66 4.93 3.74 8.12 3.74.69 0 1.37-.1 2.01-.29 0 0 .07-.02.23-.02.88 0 2.07.49 2.34.81-.83 6.62-2.06 20.53-2.37 24.13l-5.48.29z" fill="url(#d)"/><path d="M-154.04 92.98c1.89 1.3 4.27 2.43 6.8 2.43.79 0 1.56-.11 2.3-.34l-.06.02c.38 0 .91.15 1.28.31-.77 6.38-1.83 18.24-2.22 22.68l-3.75.2c-.86-4.61-3.2-17.43-4.35-25.3m-2.61-4.99c.42 6.37 5.31 32.38 5.31 32.38l7.24-.39s1.5-17.47 2.46-25.08c.12-.98-2.07-1.81-3.35-1.81-.2 0-.38.02-.52.06-.57.17-1.15.25-1.72.25-4.81.01-9.42-5.41-9.42-5.41z" fill="#ada39d"/><path d="M-141.85 123.79c0-3.35-2.66-6.06-5.95-6.06-3.28 0-5.95 2.71-5.95 6.06 0 .07.01.14.01.21h5.09c.52-.8.51-1.66.79-2.43 0 .59.45 1.63 1.01 2.43h4.98c.01-.07.02-.14.02-.21z" fill="#4d4d4d" stroke="#333" stroke-width="2" stroke-linejoin="round" stroke-miterlimit="10"/></g><linearGradient id="e" gradientUnits="userSpaceOnUse" x1="-126.882" x2="-126.882" y1="33.667" y2="105.793"><stop offset=".165" stop-color="#fff"/><stop offset=".575" stop-color="#fdfdfd"/><stop offset=".748" stop-color="#f6f6f6"/><stop offset=".876" stop-color="#e9e9e9"/><stop offset=".981" stop-color="#d8d8d8"/><stop offset="1" stop-color="#d4d4d4"/></linearGradient><path d="M-69.97 81.41c0-2.48-.61-4.82-1.66-6.88.86-2 1.34-4.2 1.34-6.51 0-4.28-1.64-8.17-4.32-11.1.16-.87 1.6-17.26-14.93-17.86-1.29-.05-2.53.18-3.72.48-2.77-3.67-7.16-6.06-12.11-6.06-2.63 0-5.11.67-7.26 1.85a15.12 15.12 0 0 0-8.73-2.78c-5.55 0-10.39 2.99-13.04 7.44-2.4-1.23-5.11-1.93-7.99-1.93-6.07 0-11.42 3.07-14.59 7.74a15.873 15.873 0 0 0-8.85-2.68c-8.8 0-15.94 7.14-15.94 15.94 0 2.07.41 4.05 1.13 5.87A17.64 17.64 0 0 0-183.79 75c0 7.97 6.55 12.95 13.8 15.17-.67 8.33 7.51 15.9 16.07 15.9 4.44 0 8.48-1.64 11.59-4.34.6.05 6.16-.26 8.16-.89 3.79 3.73 8.99 6.04 14.73 6.04 5.3 0 9.83-2.88 13.96-7.5 2.11 2.26 4.62 5.25 10 5.88 7.7.9 9.93-3.92 12.44-8.82 7.38-1.03 13.07-7.35 13.07-15.03z" fill="url(#e)" stroke="#b0b0b0" stroke-width="2" stroke-linejoin="round" stroke-miterlimit="10"/><path d="M-129.54 33.68s2.32-8.52 13.17-4.65c4.76 1.7-6.78 10.85-9.88 10.46s-4.65-1.93-3.29-5.81zM-172.86 35.58s-2.47-9.04-13.97-4.93c-5.05 1.8 7.19 11.51 10.48 11.1 3.29-.42 4.93-2.06 3.49-6.17z" fill="#b07f45" stroke="#bda486" stroke-width="2" stroke-miterlimit="10"/><g><path d="M-151.23 76.03c-13.32 0-24.74-18.94-24.74-34.44 0-13.73 10.17-23.32 24.74-23.32s24.74 9.59 24.74 23.32c0 6.78-2.72 15.49-6.93 22.21-2.88 4.57-9 12.23-17.81 12.23z" fill="#e0c3a0"/><path d="M-151.23 19.27c6.61 0 12.6 2.11 16.86 5.93 4.5 4.03 6.87 9.7 6.87 16.39 0 13.15-10.19 33.44-23.74 33.44-3.43 0-10.14-1.44-16.58-11.05-4.41-6.59-7.15-15.17-7.15-22.39 0-6.69 2.38-12.36 6.87-16.39 4.27-3.82 10.26-5.93 16.87-5.93m0-2c-14.21 0-25.74 9.07-25.74 24.32 0 15.42 11.4 35.44 25.74 35.44 15.42 0 25.74-22.05 25.74-35.44-.01-15.25-11.53-24.32-25.74-24.32z" fill="#bda486"/><path d="M-140.49 54.72c-1.74-2.1-3.94-3.93-5.82-5.8l-4.75-4.75c-2.98 2.98-5.97 5.95-8.94 8.96-2.65 2.69-4.74 5.54-4.74 9.49 0 6.8 6.12 12.31 13.68 12.31s13.68-5.51 13.68-12.31c0-2-.55-3.97-1.55-5.7-.45-.77-.98-1.5-1.56-2.2z" fill="#fff"/><g fill="#404040"><ellipse cx="-165.79" cy="44.32" rx="4.84" ry="5.47"/><ellipse cx="-136.58" cy="44.32" rx="4.84" ry="5.47"/></g><g fill="none" stroke="#595959" stroke-width="1.4" stroke-linecap="round" stroke-linejoin="round" stroke-miterlimit="10"><path d="M-151.35 61.86c0 4.51-1.55 6.12-3.45 6.12s-3.45-1.57-3.45-3.51M-144.22 64.47c0 1.94-1.55 3.51-3.45 3.51s-3.41-2.06-3.41-6.17"/></g><ellipse cx="-151.27" cy="58.26" rx="5.93" ry="3.18" fill="#eec7b3"/></g><linearGradient id="f" gradientUnits="userSpaceOnUse" x1="-151.492" x2="-151.492" y1="5" y2="27.823"><stop offset="0" stop-color="#fff"/><stop offset=".333" stop-color="#f5f5f5"/><stop offset=".903" stop-color="#d9d9d9"/><stop offset="1" stop-color="#d4d4d4"/></linearGradient><path d="M-126.18 22.38c.36-.81.57-1.71.57-2.65 0-3.61-2.92-6.53-6.53-6.53-.08 0-.15.01-.23.01a6.526 6.526 0 0 0-6.25-4.63c-1.39 0-2.67.44-3.73 1.17a7.15 7.15 0 0 0-6.09-3.41c-1.83 0-3.5.69-4.77 1.83a7.555 7.555 0 0 0-11 2.7c-.96-.56-2.08-.89-3.27-.89-3.59 0-6.51 2.91-6.53 6.5a6.532 6.532 0 0 0-4.31 6.14c0 .72.12 1.42.34 2.07a5.403 5.403 0 0 0 3.83 9.21c2.98 0 5.4-2.42 5.4-5.4 0-.03-.01-.06-.01-.09.69-.36 1.31-.85 1.83-1.42a7.044 7.044 0 0 0 6.71 4.89c3.31 0 6.07-2.28 6.83-5.35a6.51 6.51 0 0 0 5.05 2.39c1.77 0 3.37-.7 4.54-1.85a6.522 6.522 0 0 0 6.34 4.99c1.65 0 3.15-.61 4.29-1.62 1 1.28 2.55 2.1 4.29 2.1a5.44 5.44 0 0 0 5.44-5.44c0-2.02-1.11-3.78-2.74-4.72z" fill="url(#f)" stroke="#b0b0b0" stroke-width="2" stroke-linejoin="round" stroke-miterlimit="10"/><g><linearGradient id="g" gradientUnits="userSpaceOnUse" x1="83.506" x2="83.506" y1="91.562" y2="120.999"><stop offset=".163" stop-color="#f2e5dc"/><stop offset=".461" stop-color="#ede0d8"/><stop offset=".805" stop-color="#dfd3cb"/><stop offset="1" stop-color="#d4c8c0"/></linearGradient><path d="M82 119.33c-.74-3.99-3.84-20.8-4.85-28.66 1.91 1.66 4.93 3.74 8.12 3.74.69 0 1.37-.1 2.01-.29 0 0 .07-.02.23-.02.88 0 2.07.49 2.34.81-.83 6.62-2.06 20.53-2.37 24.13l-5.48.29z" fill="url(#g)"/><path d="M78.48 92.98c1.89 1.3 4.27 2.43 6.8 2.43.79 0 1.56-.11 2.3-.34l-.06.02c.38 0 .91.15 1.28.31-.77 6.38-1.83 18.24-2.22 22.68l-3.75.2c-.86-4.61-3.21-17.43-4.35-25.3m-2.62-4.99c.42 6.37 5.31 32.38 5.31 32.38l7.24-.39s1.5-17.47 2.46-25.08c.12-.98-2.07-1.81-3.35-1.81-.2 0-.38.02-.52.06-.57.17-1.15.25-1.72.25-4.81.01-9.42-5.41-9.42-5.41z" fill="#ada39d"/><path d="M90.66 123.79c0-3.35-2.66-6.06-5.95-6.06-3.28 0-5.95 2.71-5.95 6.06 0 .07.01.14.01.21h5.09c.52-.8.51-1.66.79-2.43 0 .59.45 1.63 1.01 2.43h4.98c.01-.07.02-.14.02-.21z" fill="#4d4d4d" stroke="#333" stroke-width="2" stroke-linejoin="round" stroke-miterlimit="10"/><linearGradient id="h" gradientUnits="userSpaceOnUse" x1="93.922" x2="93.922" y1="91.562" y2="120.999"><stop offset=".163" stop-color="#f2e5dc"/><stop offset=".461" stop-color="#ede0d8"/><stop offset=".805" stop-color="#dfd3cb"/><stop offset="1" stop-color="#d4c8c0"/></linearGradient><path d="M92.41 119.33c-.74-3.99-3.84-20.79-4.85-28.66 1.91 1.66 4.93 3.74 8.12 3.74.69 0 1.37-.1 2.01-.29 0 0 .07-.02.23-.02.88 0 2.07.49 2.34.81-.83 6.62-2.06 20.53-2.37 24.13l-5.48.29z" fill="url(#h)"/><path d="M88.89 92.98c1.89 1.3 4.27 2.43 6.8 2.43.79 0 1.56-.11 2.3-.34l-.06.02c.38 0 .91.15 1.28.31-.77 6.38-1.83 18.24-2.22 22.68l-3.75.2c-.86-4.61-3.2-17.43-4.35-25.3m-2.61-4.99c.42 6.37 5.31 32.38 5.31 32.38l7.24-.39s1.5-17.47 2.46-25.08c.12-.98-2.07-1.81-3.35-1.81-.2 0-.38.02-.52.06-.57.17-1.15.25-1.72.25-4.81.01-9.42-5.41-9.42-5.41z" fill="#ada39d"/><path d="M101.08 123.79c0-3.35-2.66-6.06-5.95-6.06-3.28 0-5.95 2.71-5.95 6.06 0 .07.01.14.01.21h5.09c.52-.8.51-1.66.79-2.43 0 .59.45 1.63 1.01 2.43h4.98c.01-.07.02-.14.02-.21z" fill="#4d4d4d" stroke="#333" stroke-width="2" stroke-linejoin="round" stroke-miterlimit="10"/><linearGradient id="i" gradientUnits="userSpaceOnUse" x1="53.756" x2="53.756" y1="91.562" y2="120.999"><stop offset=".163" stop-color="#f2e5dc"/><stop offset=".461" stop-color="#ede0d8"/><stop offset=".805" stop-color="#dfd3cb"/><stop offset="1" stop-color="#d4c8c0"/></linearGradient><path d="M52.25 119.33c-.74-3.99-3.84-20.8-4.85-28.66 1.91 1.66 4.93 3.74 8.12 3.74.69 0 1.37-.1 2.01-.29 0 0 .07-.02.23-.02.88 0 2.07.49 2.34.81-.83 6.62-2.06 20.53-2.37 24.13l-5.48.29z" fill="url(#i)"/><path d="M48.73 92.98c1.89 1.3 4.27 2.43 6.8 2.43.79 0 1.56-.11 2.3-.34l-.06.02c.38 0 .91.15 1.28.31-.77 6.38-1.83 18.24-2.22 22.68l-3.75.2c-.86-4.61-3.21-17.43-4.35-25.3m-2.62-4.99c.42 6.37 5.31 32.38 5.31 32.38l7.24-.39s1.5-17.47 2.46-25.08c.12-.98-2.07-1.81-3.35-1.81-.2 0-.38.02-.52.06-.57.17-1.15.25-1.72.25-4.81.01-9.42-5.41-9.42-5.41z" fill="#ada39d"/><path d="M60.91 123.79c0-3.35-2.66-6.06-5.95-6.06-3.28 0-5.95 2.71-5.95 6.06 0 .07.01.14.01.21h5.09c.52-.8.51-1.66.79-2.43 0 .59.45 1.63 1.01 2.43h4.98c.01-.07.02-.14.02-.21z" fill="#4d4d4d" stroke="#333" stroke-width="2" stroke-linejoin="round" stroke-miterlimit="10"/><g><linearGradient id="j" gradientUnits="userSpaceOnUse" x1="43.994" x2="43.994" y1="91.562" y2="120.999"><stop offset=".163" stop-color="#f2e5dc"/><stop offset=".461" stop-color="#ede0d8"/><stop offset=".805" stop-color="#dfd3cb"/><stop offset="1" stop-color="#d4c8c0"/></linearGradient><path d="M42.48 119.33c-.74-3.99-3.84-20.79-4.85-28.66 1.91 1.66 4.93 3.74 8.12 3.74.69 0 1.37-.1 2.01-.29 0 0 .07-.02.23-.02.88 0 2.07.49 2.34.81-.83 6.62-2.06 20.53-2.37 24.13l-5.48.29z" fill="url(#j)"/><path d="M38.96 92.98c1.89 1.3 4.27 2.43 6.8 2.43.79 0 1.56-.11 2.3-.34-.03.01-.06.02-.06.03.38 0 .91.15 1.28.31-.77 6.38-1.83 18.24-2.22 22.68l-3.75.2c-.86-4.62-3.2-17.44-4.35-25.31m-2.61-4.99c.42 6.37 5.31 32.38 5.31 32.38l7.24-.39s1.5-17.47 2.46-25.08c.12-.98-2.07-1.81-3.35-1.81-.2 0-.38.02-.52.06-.57.17-1.15.25-1.72.25-4.81.01-9.42-5.41-9.42-5.41z" fill="#ada39d"/><path d="M51.15 123.79c0-3.35-2.66-6.06-5.95-6.06-3.28 0-5.95 2.71-5.95 6.06 0 .07.01.14.01.21h5.09c.52-.8.51-1.66.79-2.43 0 .59.45 1.63 1.01 2.43h4.98c.01-.07.02-.14.02-.21z" fill="#4d4d4d" stroke="#333" stroke-width="2" stroke-linejoin="round" stroke-miterlimit="10"/></g><linearGradient id="k" gradientUnits="userSpaceOnUse" x1="66.118" x2="66.118" y1="33.667" y2="105.793"><stop offset=".165" stop-color="#fff"/><stop offset=".575" stop-color="#fdfdfd"/><stop offset=".748" stop-color="#f6f6f6"/><stop offset=".876" stop-color="#e9e9e9"/><stop offset=".981" stop-color="#d8d8d8"/><stop offset="1" stop-color="#d4d4d4"/></linearGradient><path d="M123.03 81.41c0-2.48-.61-4.82-1.66-6.88.86-2 1.34-4.2 1.34-6.51 0-4.28-1.64-8.17-4.32-11.1.16-.87 1.6-17.26-14.93-17.86-1.29-.05-2.53.18-3.72.48-2.77-3.67-7.16-6.06-12.11-6.06-2.63 0-5.11.67-7.26 1.85a15.12 15.12 0 0 0-8.73-2.78c-5.55 0-10.39 2.99-13.04 7.44-2.4-1.23-5.11-1.93-7.99-1.93-6.07 0-11.42 3.07-14.59 7.74a15.873 15.873 0 0 0-8.85-2.68c-8.8 0-15.94 7.14-15.94 15.94 0 2.07.41 4.05 1.13 5.87A17.573 17.573 0 0 0 9.2 75c0 7.97 6.55 12.95 13.8 15.17-.67 8.33 7.51 15.9 16.07 15.9 4.44 0 8.48-1.64 11.59-4.34.6.05 6.16-.26 8.16-.89 3.79 3.73 8.99 6.04 14.73 6.04 5.3 0 9.83-2.88 13.96-7.5 2.11 2.26 4.62 5.25 10 5.88 7.7.9 9.93-3.92 12.44-8.82 7.39-1.03 13.08-7.35 13.08-15.03z" fill="url(#k)" stroke="#b0b0b0" stroke-width="2" stroke-linejoin="round" stroke-miterlimit="10"/><path d="M63.46 33.68s2.32-8.52 13.17-4.65c4.76 1.7-6.78 10.85-9.88 10.46-3.1-.38-4.65-1.93-3.29-5.81zM20.14 35.58s-2.47-9.04-13.97-4.93c-5.05 1.8 7.19 11.51 10.48 11.1s4.93-2.06 3.49-6.17z" fill="#b07f45" stroke="#bda486" stroke-width="2" stroke-miterlimit="10"/><g><path d="M41.77 76.03c-13.32 0-24.74-18.94-24.74-34.44 0-13.73 10.17-23.32 24.74-23.32 14.56 0 24.74 9.59 24.74 23.32 0 6.78-2.72 15.49-6.93 22.21-2.88 4.57-9 12.23-17.81 12.23z" fill="#e0c3a0"/><path d="M41.77 19.27c6.61 0 12.6 2.11 16.86 5.93 4.5 4.03 6.87 9.7 6.87 16.39 0 13.15-10.19 33.44-23.74 33.44-3.43 0-10.14-1.44-16.58-11.05-4.41-6.59-7.15-15.17-7.15-22.39 0-6.69 2.38-12.36 6.87-16.39 4.27-3.82 10.26-5.93 16.87-5.93m0-2c-14.21 0-25.74 9.07-25.74 24.32 0 15.42 11.4 35.44 25.74 35.44 15.42 0 25.74-22.05 25.74-35.44-.01-15.25-11.53-24.32-25.74-24.32z" fill="#bda486"/><path d="M52.51 54.72c-1.74-2.1-3.94-3.93-5.82-5.8l-4.75-4.75c-2.98 2.98-5.97 5.95-8.94 8.96-2.65 2.69-4.74 5.54-4.74 9.49 0 6.8 6.12 12.31 13.68 12.31s13.68-5.51 13.68-12.31c0-2-.55-3.97-1.55-5.7-.45-.77-.98-1.5-1.56-2.2z" fill="#fff"/><g fill="none" stroke="#595959" stroke-width="1.4" stroke-linecap="round" stroke-linejoin="round" stroke-miterlimit="10"><path d="M41.65 61.86c0 4.51-1.55 6.12-3.45 6.12s-3.45-1.57-3.45-3.51M48.78 64.47c0 1.94-1.55 3.51-3.45 3.51s-3.41-2.06-3.41-6.17"/></g><ellipse cx="41.73" cy="58.26" rx="5.93" ry="3.18" fill="#eec7b3"/><circle cx="27.54" cy="44.21" r="5.96" fill="#fff"/><circle cx="27.58" cy="42.46" r="3.96" fill="#595959"/><circle cx="54.96" cy="44.21" r="5.96" fill="#fff"/><circle cx="55.04" cy="42.46" r="3.96" fill="#595959"/></g><linearGradient id="l" gradientUnits="userSpaceOnUse" x1="41.508" x2="41.508" y1="5" y2="27.823"><stop offset="0" stop-color="#fff"/><stop offset=".333" stop-color="#f5f5f5"/><stop offset=".903" stop-color="#d9d9d9"/><stop offset="1" stop-color="#d4d4d4"/></linearGradient><path d="M66.82 22.38c.36-.81.57-1.71.57-2.65 0-3.61-2.92-6.53-6.53-6.53-.08 0-.15.01-.23.01a6.526 6.526 0 0 0-6.25-4.63c-1.39 0-2.67.44-3.73 1.17a7.15 7.15 0 0 0-6.09-3.41c-1.83 0-3.5.69-4.77 1.83a7.555 7.555 0 0 0-11 2.7c-.96-.56-2.08-.89-3.27-.89-3.59 0-6.51 2.91-6.53 6.5a6.532 6.532 0 0 0-4.31 6.14c0 .72.12 1.42.34 2.07a5.403 5.403 0 0 0 3.83 9.21c2.98 0 5.4-2.42 5.4-5.4 0-.03-.01-.06-.01-.09.69-.36 1.31-.85 1.83-1.42a7.044 7.044 0 0 0 6.71 4.89c3.31 0 6.07-2.28 6.83-5.35a6.51 6.51 0 0 0 5.05 2.39c1.77 0 3.37-.7 4.54-1.85a6.522 6.522 0 0 0 6.34 4.99c1.65 0 3.15-.61 4.29-1.62 1 1.28 2.55 2.1 4.29 2.1a5.44 5.44 0 0 0 5.44-5.44c0-2.02-1.11-3.78-2.74-4.72z" fill="url(#l)" stroke="#b0b0b0" stroke-width="2" stroke-linejoin="round" stroke-miterlimit="10"/></g></svg>