<svg width="128" height="128" xmlns="http://www.w3.org/2000/svg" width="512px" height="512px"><linearGradient id="a" gradientUnits="userSpaceOnUse" x1="64" x2="64" y1="14.706" y2="111.233"><stop offset=".138" stop-color="#dee1e3"/><stop offset=".707" stop-color="#8c9194"/><stop offset=".971" stop-color="#fff"/></linearGradient><path d="M65.19 5.37c-46.94 0-52.04 9.19-53.1 11.08l2.31 86.61c0 9.38 13.78 21.16 49.63 21.16s49.27-13.15 49.58-21.16c0-.12 2.32-86.61 2.32-86.61S112.12 5.37 65.19 5.37z" fill="url(#a)"/><path d="M65.19 8.68c36.98 0 45.77 6.96 47.39 8.72-.44 16.34-2.24 83.68-2.29 85.54-.11 2.59-2.73 6.96-9.74 10.78-6.01 3.27-17.23 7.17-36.53 7.17-33.98 0-46.31-10.67-46.31-17.84v-.09l-2.28-85.54c2.23-2.69 11.53-8.74 49.76-8.74m0-3.31c-46.94 0-52.04 9.19-53.1 11.08l2.31 86.61c0 9.38 13.78 21.16 49.63 21.16s49.27-13.15 49.58-21.16c0-.12 2.32-86.61 2.32-86.61S112.12 5.37 65.19 5.37z" fill="#424242" opacity=".2"/><linearGradient id="b" gradientUnits="userSpaceOnUse" x1="64" x2="64" y1="70.593" y2="108.877"><stop offset="0" stop-color="#54130e"/><stop offset=".413" stop-color="#bd5106"/><stop offset=".467" stop-color="#c55b05"/><stop offset=".704" stop-color="#e48602"/><stop offset=".89" stop-color="#f8a001"/><stop offset="1" stop-color="#fa0"/></linearGradient><path d="M63.69 71.58c-25.93 0-46.95-4.38-46.95-8.7l1.15 27.99c0 7.06 13.5 15.8 46.13 15.8s45.8-9.78 46.08-15.8c0-.05 1.16-10.75 1.16-27.95-.07 4.32-21.69 8.66-47.57 8.66z" fill="url(#b)"/><path d="M111.26 62.88v.02c.01-.01 0-.01 0-.02z" fill="#fff0ca"/><g><linearGradient id="c" gradientUnits="userSpaceOnUse" x1="64.046" x2="64.046" y1="47.135" y2="74.327"><stop offset="0" stop-color="#54130e"/><stop offset=".189" stop-color="#bd5106"/><stop offset=".262" stop-color="#c55b05"/><stop offset=".591" stop-color="#e48602"/><stop offset=".848" stop-color="#f8a001"/><stop offset="1" stop-color="#fa0"/></linearGradient><path d="M63.73 54.78c-25.95 0-46.99 3.59-46.99 8.01s21.04 8.91 46.99 8.91c25.91 0 47.55-4.45 47.62-8.87v-.04c-.07-4.41-21.71-8.01-47.62-8.01z" fill="url(#c)"/></g><g><linearGradient id="d" gradientUnits="userSpaceOnUse" x1="64" x2="64" y1="5.218" y2="30.645"><stop offset="0" stop-color="#dee1e3"/><stop offset=".854" stop-color="#fff"/></linearGradient><path d="M115.92 14.78c0 5.88-23.24 10.05-51.92 10.05s-51.92-4.16-51.92-10.05S35.33 4.13 64 4.13s51.92 4.77 51.92 10.65z" fill="url(#d)"/><path d="M64 7.44c12.59 0 24.66.94 33.99 2.65 9.22 1.69 13.1 3.66 14.3 4.66-1.01.8-4.34 2.71-14.35 4.39-9.16 1.53-21.21 2.38-33.94 2.38-12.73 0-24.79-.84-33.94-2.38-10.01-1.67-13.34-3.58-14.35-4.39 1.2-1 5.08-2.97 14.3-4.66C39.34 8.38 51.41 7.44 64 7.44m0-3.31c-28.67 0-51.92 4.77-51.92 10.65S35.33 24.83 64 24.83s51.92-4.16 51.92-10.05S92.67 4.13 64 4.13z" fill="#424242" opacity=".2"/></g><path opacity=".73" fill="#cfd6d5" d="M58.35 65.07l.31.74 10.02 24.35 26.96-1.97 8.64-17.27-8.47-22.45-24.05.35z"/><g opacity=".62"><path fill="#cfd6d5" d="M29.62 56.49l-.11.8-3.45 26.1 24.36 11.73 16.1-10.66 3.85-23.68-21.03-11.69z"/></g></svg>