<svg viewBox="0 0 128 128" xmlns="http://www.w3.org/2000/svg" xmlns:xlink="http://www.w3.org/1999/xlink"><defs><path id="a" d="M4 4h120v120H4z"/></defs><clipPath id="b"><use xlink:href="#a"/></clipPath><g clip-path="url(#b)"><linearGradient id="c" x1="120" x2="120" y1="96.18" y2="129.4" gradientUnits="userSpaceOnUse"><stop stop-color="#FF8530" offset="0"/><stop stop-color="#FD7D2A" offset=".248"/><stop stop-color="#F86918" offset=".622"/><stop stop-color="#F24D00" offset="1"/></linearGradient><path d="M70.37 129.4v-9.44c0-7.61 5.08-13.64 15.1-17.92 8.83-3.77 21.09-5.85 34.54-5.86h.13c24.6 0 49.5 8.17 49.5 23.78v9.44H70.37z" fill="url(#c)"/><path d="M120.13 97.68c12.78 0 25.13 2.22 33.89 6.1 6.44 2.85 14.12 7.97 14.12 16.18v7.94H71.87v-7.94c0-15.35 24.18-22.25 48.14-22.28h.12m0-3H120c-25.49.03-51.13 7.5-51.13 25.28v10.94h102.27v-10.94c-.01-16.76-25.41-25.28-51.01-25.28z" fill="#DB5200"/><path d="M119.17 107.23c-4 0-7.26-3.22-7.26-7.17v-8.98h16.16v8.98c0 3.96-3.26 7.17-7.26 7.17h-1.64z" fill="#E49800"/><path d="M127.08 92.08v7.98c0 3.4-2.81 6.17-6.26 6.17h-1.65c-3.45 0-6.26-2.77-6.26-6.17v-7.98h14.17m2-2h-18.16v9.98c0 4.51 3.7 8.17 8.26 8.17h1.65c4.56 0 8.26-3.66 8.26-8.17v-9.98h-.01z" fill="#C78500"/><defs><path id="d" d="M74.35 4h91.3v91.3h-91.3z"/></defs><clipPath id="e"><use xlink:href="#d"/></clipPath><g clip-path="url(#e)"><path d="M92.9 71.6c-5.24 0-9.5-4.57-9.5-10.19s4.26-10.19 9.5-10.19h54.31c5.24 0 9.5 4.57 9.5 10.19s-4.26 10.19-9.5 10.19H92.9z" fill="#E59600"/><path d="M147.21 52.36c4.61 0 8.35 4.06 8.35 9.05s-3.75 9.05-8.35 9.05H92.9c-4.61 0-8.35-4.06-8.35-9.05s3.75-9.05 8.35-9.05h54.31m0-2.29H92.9c-5.85 0-10.65 5.1-10.65 11.34s4.79 11.34 10.65 11.34h54.3c5.86 0 10.65-5.1 10.65-11.34s-4.79-11.34-10.64-11.34z" fill="#D18100"/><linearGradient id="f" x1="120.05" x2="120.05" y1="93.799" y2="12.85" gradientUnits="userSpaceOnUse"><stop stop-color="#FFB300" offset="0"/><stop stop-color="#FFB809" offset=".102"/><stop stop-color="#FFC21A" offset=".371"/><stop stop-color="#FFC825" offset=".659"/><stop stop-color="#FFCA28" offset="1"/></linearGradient><path d="M120.05 94.47c-8.47 0-16.33-3.37-22.12-9.49-6.57-6.94-10.04-16.94-10.04-28.92 0-12.27 3.53-23.58 9.93-31.83 5.98-7.71 14.08-12.13 22.23-12.13s16.25 4.42 22.23 12.13c6.4 8.26 9.93 19.56 9.93 31.83 0 11.98-3.47 21.98-10.04 28.92-5.78 6.12-13.64 9.49-22.12 9.49z" fill="url(#f)"/><path d="M120.05 13.24c7.79 0 15.57 4.26 21.33 11.69 6.25 8.06 9.69 19.11 9.69 31.13 0 11.68-3.36 21.41-9.72 28.13-5.57 5.89-13.14 9.14-21.29 9.14-8.16 0-15.72-3.24-21.29-9.14-6.36-6.72-9.72-16.45-9.72-28.13 0-12.02 3.44-23.07 9.69-31.13 5.75-7.43 13.52-11.69 21.31-11.69m0-2.29c-17.29 0-33.31 18.49-33.31 45.11 0 26.47 16.5 39.56 33.31 39.56s33.31-13.09 33.31-39.56c0-26.61-16.01-45.11-33.31-45.11z" fill="#ED9E00"/><path d="M96.2 50.36s.13-.19.38-.5c.07-.08.12-.16.21-.26.11-.11.23-.21.36-.33s.28-.24.43-.37.31-.22.47-.34c.17-.11.34-.24.53-.35.19-.1.39-.21.6-.32.21-.12.43-.21.65-.3.23-.09.46-.18.7-.26.49-.14 1-.29 1.53-.35.53-.1 1.07-.11 1.62-.14.54.03 1.09.03 1.62.14.53.06 1.04.22 1.53.35.24.08.48.17.7.26.23.09.45.18.65.3.21.11.41.22.6.32.19.11.36.24.53.35.16.12.33.22.47.34s.27.24.39.35.24.21.34.31.18.2.26.29c.31.36.46.57.46.57.5.7.35 1.68-.35 2.18-.43.31-.96.37-1.42.21l-.29-.1s-.19-.07-.49-.2c-.07-.03-.15-.07-.24-.11-.1-.03-.19-.07-.3-.11-.21-.08-.44-.17-.7-.24-.13-.04-.25-.09-.39-.13-.14-.03-.28-.07-.43-.11-.07-.02-.14-.04-.22-.06-.08-.01-.15-.03-.23-.04-.16-.03-.31-.07-.47-.1-.33-.04-.65-.11-.99-.12-.34-.04-.68-.03-1.03-.05-.34.02-.69.01-1.03.05-.34.02-.67.09-.99.12-.16.03-.31.07-.47.1-.08.01-.15.03-.23.04l-.22.06c-.15.04-.29.07-.43.11s-.26.09-.39.13-.25.08-.36.11c-.1.04-.2.07-.29.1l-.27.09c-.1.04-.2.1-.29.14-.36.18-.57.27-.57.27-.82.34-1.76-.05-2.1-.87-.21-.52-.13-1.1.16-1.53z" fill="#6D4C41"/><ellipse cx="103.72" cy="58.39" rx="4.9" ry="5.07" fill="#404040"/><path d="M141.97 52.75s-.21-.09-.57-.27c-.09-.04-.19-.1-.29-.14-.09-.02-.18-.05-.27-.09-.09-.03-.19-.07-.29-.1-.12-.04-.24-.07-.36-.11-.13-.04-.25-.09-.39-.13s-.28-.07-.43-.11c-.07-.02-.14-.04-.22-.06-.08-.01-.15-.03-.23-.04-.16-.03-.31-.07-.47-.1-.33-.04-.65-.1-.99-.12-.34-.04-.68-.03-1.03-.05-.34.02-.69.01-1.03.05-.34.02-.67.09-.99.12-.16.03-.31.07-.47.1-.08.01-.16.03-.23.04l-.22.06c-.15.04-.29.08-.43.11-.14.04-.26.09-.39.13-.26.07-.49.16-.7.24-.1.04-.2.08-.3.11-.09.04-.17.08-.24.11-.3.13-.49.2-.49.2l-.28.1c-.81.28-1.7-.15-1.99-.96-.17-.5-.08-1.03.21-1.43 0 0 .15-.21.46-.57.08-.09.16-.19.26-.29s.22-.2.34-.31.25-.23.39-.35.3-.22.47-.34c.17-.11.34-.24.53-.35.19-.1.39-.21.6-.32.21-.12.43-.21.65-.3.23-.09.46-.18.7-.26.49-.14 1-.29 1.53-.35.53-.1 1.07-.11 1.62-.14.54.03 1.09.03 1.62.14.53.06 1.04.22 1.53.35.24.08.48.17.7.26.23.09.45.18.65.3.21.11.41.22.6.32.19.11.36.24.53.35.17.12.32.22.47.34.15.13.29.26.43.37.13.12.26.23.36.33.09.1.15.18.21.26.25.31.38.5.38.5.5.73.31 1.73-.42 2.23-.47.33-1.04.37-1.52.17z" fill="#6D4C41"/><ellipse cx="136.39" cy="58.39" rx="4.9" ry="5.07" fill="#404040"/><path d="M123.89 67.58c-.11-.04-.21-.07-.32-.08h-7.03c-.11.01-.21.04-.32.08-.64.26-.99.92-.69 1.62s1.7 2.68 4.52 2.68 4.22-1.97 4.52-2.68c.31-.7-.04-1.36-.68-1.62z" fill="#E59600"/><path d="M128.42 75.54c-3.17 1.88-13.54 1.88-16.71 0-1.82-1.08-3.68.57-2.92 2.23.74 1.62 6.4 5.39 11.3 5.39 4.89 0 10.48-3.77 11.22-5.39.76-1.66-1.07-3.31-2.89-2.23z" fill="#795548"/><radialGradient id="g" cx="119.34" cy="20.363" r="36.775" gradientUnits="userSpaceOnUse"><stop stop-color="#6D4C41" offset="0"/><stop stop-color="#543930" offset="1"/></radialGradient><path d="M120.05 4.09c-18.24.06-20.14 8.69-20.62 8.59-5.25-1.08-12.47 2.97-16.42 9.99-10.22 18.14 2.28 32.46 2.55 34.05 1.37 8.24 2.04 9.67 2.04 9.67s.4-11.33 6.58-18.7c3.95-4.71 7.73-15.09 7.73-15.09s11.1 4.06 19.54 9.04c7.13 4.2 11.58 9.67 11.58 9.67s1.34-4.2.29-8.59c-2.26-9.43-11.11-13.68-11.11-13.68s4.43 1.26 10.44 6.72c13.27 12.03 16.8 33.89 16.8 33.89 4.55-4.23 12.13-14.51 11.2-29.79-.45-7.63-7.56-35.89-40.6-35.77z" fill="url(#g)"/><path d="M101.76 13.34c2.69-4.6 8.85-7.05 18.3-7.05h.19c13.29 0 23.56 4.81 30.51 14.17 5.52 7.43 7.39 16.17 7.67 19.91.86 11.7-5.16 21.67-9.6 26.45.16.91.57 2.31.62 2.91 5.12-4.39 12.06-15.67 11.2-29.9C160.2 32.23 153.12 4 120.26 4h-.2c-18.13 0-20.11 8.66-20.61 8.66l-.01.03c-.64-.13-1.34-.18-2.08-.18-5.27 0-10.11 3.34-13.84 9.34-11.08 17.82 1.77 33.32 2.04 34.92 1.37 8.24 2.04 9.68 2.04 9.68s.09-2.57.86-6.06c-.29-1.72-.55-3.13-.91-5.04-.21-.37-11.73-16.44-2.24-31.9 3.26-5.31 7.56-8.62 12.06-8.62.58 0 1.13.05 1.61.15.15.03.32.05.47.05 1.38-.02 2.01-1.17 2.31-1.69z" fill="#3F2720"/></g></g><g clip-path="url(#b)"><linearGradient id="h" x1="9" x2="9" y1="96.18" y2="129.4" gradientUnits="userSpaceOnUse"><stop stop-color="#67B730" offset="0"/><stop stop-color="#64AF2E" offset=".242"/><stop stop-color="#5A9B2A" offset=".607"/><stop stop-color="#4D7D23" offset="1"/></linearGradient><path d="M-40.63 129.4v-9.44c0-7.61 5.08-13.64 15.1-17.92 8.83-3.77 21.09-5.85 34.54-5.86h.13c24.6 0 49.5 8.17 49.5 23.78v9.44h-99.27z" fill="url(#h)"/><path d="M9.13 97.68c12.78 0 25.13 2.22 33.89 6.1 6.44 2.85 14.12 7.97 14.12 16.18v7.94h-96.27v-7.94c0-15.35 24.18-22.25 48.14-22.28h.12m0-3H9c-25.49.03-51.13 7.5-51.13 25.28v10.94H60.13v-10.94c0-16.76-25.4-25.28-51-25.28z" fill="#518626"/><path d="M8.17 107.23c-4 0-7.26-3.22-7.26-7.17v-8.98h16.16v8.98c0 3.96-3.26 7.17-7.26 7.17H8.17z" fill="#E49800"/><path d="M16.08 92.08v7.98c0 3.4-2.81 6.17-6.26 6.17H8.17c-3.45 0-6.26-2.77-6.26-6.17v-7.98h14.17m2-2H-.08v9.98c0 4.51 3.7 8.17 8.26 8.17h1.65c4.56 0 8.26-3.66 8.26-8.17v-9.98h-.01z" fill="#C78500"/><defs><path id="i" d="M-36.81 4.78h91.29v91.29h-91.29z"/></defs><clipPath id="j"><use xlink:href="#i"/></clipPath><g clip-path="url(#j)"><path d="M-18.27 72.38c-5.24 0-9.5-4.57-9.5-10.19S-23.51 52-18.27 52h54.31c5.24 0 9.5 4.57 9.5 10.19s-4.26 10.19-9.5 10.19h-54.31z" fill="#E59600"/><path d="M36.04 53.14c4.61 0 8.35 4.06 8.35 9.05s-3.75 9.05-8.35 9.05h-54.3c-4.61 0-8.35-4.06-8.35-9.05s3.75-9.05 8.35-9.05h54.3m0-2.29h-54.3c-5.85 0-10.65 5.1-10.65 11.34s4.79 11.34 10.65 11.34h54.3c5.86 0 10.65-5.1 10.65-11.34S41.9 50.85 36.04 50.85z" fill="#D18100"/><linearGradient id="k" x1="8.888" x2="8.888" y1="94.578" y2="13.627" gradientUnits="userSpaceOnUse"><stop stop-color="#FFB300" offset="0"/><stop stop-color="#FFB809" offset=".102"/><stop stop-color="#FFC21A" offset=".371"/><stop stop-color="#FFC825" offset=".659"/><stop stop-color="#FFCA28" offset="1"/></linearGradient><path d="M8.89 95.25c-8.47 0-16.33-3.37-22.12-9.49-6.57-6.94-10.04-16.94-10.04-28.92 0-12.27 3.53-23.58 9.93-31.83C-7.37 17.3.74 12.88 8.89 12.88s16.25 4.42 22.23 12.13c6.4 8.26 9.93 19.56 9.93 31.83 0 11.98-3.47 21.98-10.04 28.92-5.79 6.12-13.65 9.49-22.12 9.49z" fill="url(#k)"/><path d="M8.89 14.02c7.79 0 15.57 4.26 21.33 11.69 6.25 8.06 9.69 19.11 9.69 31.13 0 11.68-3.36 21.41-9.72 28.13-5.57 5.89-13.14 9.14-21.29 9.14-8.16 0-15.72-3.24-21.29-9.14-6.36-6.72-9.72-16.45-9.72-28.13 0-12.02 3.44-23.07 9.69-31.13 5.74-7.43 13.51-11.69 21.31-11.69m0-2.29c-17.29 0-33.31 18.49-33.31 45.11 0 26.47 16.5 39.56 33.31 39.56S42.2 83.31 42.2 56.84c0-26.62-16.02-45.11-33.31-45.11z" fill="#ED9E00"/><path d="M-13.94 49.46s.12-.16.36-.41c.06-.06.12-.13.2-.21.1-.09.21-.17.33-.26s.25-.19.39-.29.28-.17.43-.27c.15-.09.31-.18.48-.27.17-.08.35-.16.53-.24.18-.09.38-.15.58-.21s.41-.13.62-.18c.43-.09.88-.19 1.34-.21.46-.05.93-.03 1.4-.01.46.06.93.1 1.38.22.45.09.88.25 1.29.4.2.09.4.18.59.27s.37.18.54.3c.17.11.33.21.49.31.15.11.3.23.43.33.13.11.27.21.38.32l.32.32c.1.1.19.2.27.29s.14.19.2.27c.24.33.36.52.36.52.39.63.19 1.46-.44 1.85-.39.24-.84.26-1.23.09l-.24-.11s-.16-.07-.41-.2c-.06-.03-.13-.07-.2-.11-.08-.03-.16-.07-.25-.11-.17-.08-.36-.17-.58-.25-.11-.04-.21-.09-.33-.14l-.36-.12c-.06-.02-.12-.04-.18-.07-.06-.02-.13-.03-.2-.05-.13-.03-.26-.08-.4-.11-.28-.05-.55-.13-.85-.17-.29-.06-.59-.07-.88-.11-.3-.01-.59-.04-.89-.02-.29-.01-.58.03-.86.04-.14.01-.27.04-.41.05-.07.01-.13.01-.2.02-.06.01-.13.03-.19.04-.13.02-.25.05-.37.07s-.23.06-.35.09c-.11.03-.22.05-.32.07-.09.02-.18.05-.26.07l-.24.06c-.09.03-.18.07-.26.1-.32.13-.51.19-.51.19a1.38 1.38 0 0 1-1.75-.88c-.13-.44-.03-.93.25-1.28zM31.5 49.46s-.12-.16-.36-.41c-.06-.06-.12-.13-.2-.21-.1-.09-.21-.17-.33-.26s-.25-.19-.39-.29-.28-.17-.43-.27c-.15-.09-.31-.18-.48-.27-.17-.08-.35-.16-.53-.24-.18-.09-.38-.15-.58-.21s-.41-.13-.62-.18c-.43-.09-.88-.19-1.34-.21-.46-.05-.93-.03-1.4-.01-.46.06-.93.1-1.38.22-.45.09-.88.25-1.29.4-.2.09-.4.18-.59.27s-.37.18-.54.3c-.17.11-.33.21-.49.31-.15.11-.3.23-.43.33-.13.11-.27.21-.38.32l-.32.32c-.1.1-.19.2-.27.29s-.14.19-.2.27c-.24.33-.36.52-.36.52-.39.63-.19 1.46.44 1.85.39.24.84.26 1.23.09l.24-.11s.16-.07.41-.2c.06-.03.13-.07.2-.11.08-.03.16-.07.25-.11.17-.08.36-.17.58-.25.11-.04.21-.09.33-.14l.36-.12c.06-.02.12-.04.18-.07.06-.02.13-.03.2-.05.13-.03.26-.08.4-.11.28-.05.55-.13.85-.17.29-.06.59-.07.88-.11.3-.01.59-.04.89-.02.29-.01.58.03.86.04.14.01.27.04.41.05.07.01.13.01.2.02.06.01.13.03.19.04.13.02.25.05.37.07s.23.06.35.09c.11.03.22.05.32.07.09.02.18.05.26.07l.24.06c.09.03.18.07.26.1.32.13.51.19.51.19.73.24 1.51-.15 1.75-.88.13-.44.03-.93-.25-1.28z" fill="#6D4C41"/><ellipse cx="-7.44" cy="59.17" rx="4.9" ry="5.07" fill="#404040"/><ellipse cx="25.22" cy="59.17" rx="4.9" ry="5.07" fill="#404040"/><path d="M12.72 68.36c-.11-.04-.21-.07-.32-.08H5.37c-.11.01-.21.04-.32.08-.64.26-.99.92-.69 1.62s1.7 2.68 4.52 2.68 4.22-1.97 4.52-2.68c.31-.7-.04-1.36-.68-1.62z" fill="#E59600"/><path d="M15.72 77.91c-2.35 1.7-11.29 1.7-13.64 0-1.35-.97-3.07-.26-2.7.98.37 1.21 5.02 4.74 9.55 4.74s9.11-3.53 9.48-4.74c.36-1.23-1.34-1.95-2.69-.98z" fill="#795548"/><radialGradient id="l" cx="8.172" cy="21.167" r="36.81" gradientUnits="userSpaceOnUse"><stop stop-color="#6D4C41" offset="0"/><stop stop-color="#543930" offset="1"/></radialGradient><path d="M8.89 4.87c-18.24.06-20.14 8.69-20.62 8.59-5.25-1.08-12.47 2.97-16.42 9.99-10.22 18.14 2.28 32.46 2.55 34.05 1.37 8.24 3.01 13.03 3.01 13.03l10.56-34.71s8.13 2.95 16.98 7.17c7.92 3.77 16.94 9.1 16.94 9.1s1.34-4.2.29-8.59c-2.26-9.43-3.83-8.81-3.83-8.81s-1.11-1.3 4.9 4.15C36.5 50.87 38.29 70.43 38.29 70.43c4.55-4.23 12.13-14.51 11.2-29.79-.45-7.63-7.57-35.89-40.6-35.77z" fill="url(#l)"/><path d="M-9.4 14.12c2.69-4.6 8.85-7.05 18.3-7.05h.19c13.29 0 23.56 4.81 30.51 14.17 5.52 7.43 7.39 16.17 7.67 19.91.86 11.7-5.16 21.67-9.6 26.45.16.91.57 2.31.62 2.91 5.12-4.39 12.06-15.67 11.2-29.9C49.04 33 41.95 4.78 9.09 4.78h-.2c-18.13 0-20.11 8.66-20.61 8.66l-.01.03c-.64-.13-1.34-.18-2.08-.18-5.27 0-10.11 3.34-13.84 9.34-11.08 17.82 1.77 33.32 2.04 34.92 1.37 8.24 3.13 12.99 3.13 12.99s.37-.66 1.13-4.15c-.29-1.72-1.92-8.35-2.27-10.26-.21-.37-11.73-16.44-2.24-31.9 3.26-5.31 7.56-8.62 12.06-8.62.58 0 1.13.05 1.61.15.15.03.32.05.47.05 1.38-.02 2.01-1.17 2.32-1.69z" fill="#3F2720"/></g></g><linearGradient id="m" x1="64.22" x2="64.22" y1="-4.38" y2="54.603" gradientUnits="userSpaceOnUse"><stop stop-color="#F48FB1" offset="0"/><stop stop-color="#EC407A" offset="1"/></linearGradient><path d="M64.22 70.89c-.66 0-1.28-.26-1.75-.73-1.16-1.17-2.64-2.66-4.33-4.36-8.42-8.45-22.51-22.58-26.83-29-2.03-3.03-3.26-5.96-3.76-8.95-.55-3.29-.52-7.96.77-10.97C31.37 9.75 37.53 5.5 44.79 5.5l.94.02c2.79.05 5.6.65 8.37 1.81 1.88.79 3.4 1.87 5 3.01.81.58 1.66 1.18 2.57 1.76.74.47 1.62.72 2.55.72s1.8-.25 2.54-.72c.91-.58 1.74-1.17 2.55-1.75 1.61-1.15 3.14-2.24 5.03-3.03 2.76-1.15 5.57-1.76 8.35-1.8l.96-.02c7.26 0 13.42 4.25 16.47 11.38 1.29 3.01 1.32 7.68.77 10.97-.51 3.02-1.75 5.95-3.76 8.94-4.31 6.43-18.43 20.58-26.86 29.03-1.68 1.69-3.15 3.16-4.3 4.33-.47.48-1.09.74-1.75.74z" fill="url(#m)"/><path d="M44.79 7h.06c.15 0 .3.01.45.01.13 0 .26 0 .42.01 2.58.04 5.21.61 7.79 1.69 1.73.73 3.11 1.71 4.71 2.85.83.59 1.69 1.2 2.64 1.81.98.62 2.14.95 3.35.95s2.37-.33 3.35-.95c.94-.6 1.79-1.2 2.61-1.79 1.61-1.15 3-2.14 4.73-2.87 2.59-1.08 5.21-1.65 7.83-1.69.13 0 .26-.01.39-.01.15 0 .3 0 .45-.01h.06c6.74 0 12.24 3.82 15.09 10.47 1.16 2.72 1.16 7.16.67 10.12-.48 2.81-1.63 5.55-3.53 8.37-4.23 6.3-18.27 20.38-26.67 28.8-1.69 1.69-3.16 3.17-4.31 4.34a.941.941 0 0 1-1.36 0c-1.16-1.17-2.64-2.66-4.33-4.36-8.39-8.41-22.42-22.48-26.65-28.78-1.91-2.86-3.06-5.59-3.53-8.36-.5-2.98-.5-7.42.67-10.14C32.55 10.82 38.05 7 44.79 7m38.86-3h-.11c-.3.01-.58.01-.88.02-3.08.05-6.07.74-8.9 1.92-3.03 1.27-5.11 3.18-7.8 4.89-.51.32-1.12.48-1.74.48s-1.24-.16-1.74-.48c-2.7-1.71-4.77-3.62-7.8-4.89-2.83-1.18-5.82-1.87-8.9-1.92-.29-.01-.59-.01-.88-.02h-.11c-7.83 0-14.51 4.48-17.85 12.29-1.42 3.32-1.45 8.32-.87 11.81.58 3.47 2.04 6.61 3.99 9.54 5.26 7.82 24.32 26.44 31.33 33.57.77.79 1.79 1.18 2.81 1.18s2.04-.39 2.81-1.18c7.01-7.13 26.08-25.75 31.33-33.57 1.97-2.92 3.41-6.06 4-9.54.58-3.49.56-8.49-.87-11.81C98.15 8.48 91.47 4 83.65 4z" fill="#D92E67"/></svg>