<svg width="128" height="128" xmlns="http://www.w3.org/2000/svg"><radialGradient id="a" cx="55.053" cy="38.386" gradientUnits="userSpaceOnUse" r="62.739"><stop offset=".362" stop-color="#fff59d"/><stop offset=".449" stop-color="#fff38a"/><stop offset=".603" stop-color="#fff06f"/><stop offset=".739" stop-color="#ffef5e"/><stop offset=".841" stop-color="#ffee58"/></radialGradient><circle cx="64" cy="64" r="60" fill="url(#a)"/><circle cx="64" cy="64" r="60" fill="none"/><circle cx="64" cy="64" r="60" fill="none"/><radialGradient id="b" cx="25.86" cy="86.509" gradientUnits="userSpaceOnUse" r="14.105"><stop offset=".007" stop-color="#fdd835"/><stop offset=".273" stop-color="#fdda38"/><stop offset=".471" stop-color="#fee041"/><stop offset=".646" stop-color="#ffea52"/><stop offset=".699" stop-color="#ffee58"/></radialGradient><path d="M38.05 88.35c.91 6-3.56 11.66-9.97 12.62-6.41.97-12.34-3.12-13.24-9.12s3.56-11.66 9.97-12.62c6.41-.97 12.34 3.11 13.24 9.12z" fill="url(#b)"/><radialGradient id="c" cx="38" cy="98.421" gradientUnits="userSpaceOnUse" r="13.252"><stop offset=".008" stop-color="#fdd835"/><stop offset=".389" stop-color="#fdda38"/><stop offset=".672" stop-color="#fee041"/><stop offset=".924" stop-color="#ffea52"/><stop offset="1" stop-color="#ffee58"/></radialGradient><path d="M46.26 108.08c-.77 4.08-4.68 6.76-8.74 6s-6.73-4.69-5.96-8.76c.77-4.08 4.68-6.76 8.74-6s6.72 4.69 5.96 8.76z" fill="url(#c)"/><path d="M64 8c30.88 0 56 25.12 56 56s-25.12 56-56 56S8 94.88 8 64 33.12 8 64 8m0-4C30.86 4 4 30.86 4 64s26.86 60 60 60 60-26.86 60-60S97.14 4 64 4z" fill="#424242" opacity=".2"/><radialGradient id="d" cx="58.432" cy="96.26" gradientUnits="userSpaceOnUse" r="15.023"><stop offset=".004" stop-color="#fdd835"/><stop offset=".271" stop-color="#fdda38"/><stop offset=".47" stop-color="#fee041"/><stop offset=".646" stop-color="#ffea52"/><stop offset=".699" stop-color="#ffee58"/></radialGradient><circle cx="59.07" cy="99.68" r="8.84" opacity=".6" fill="url(#d)"/><radialGradient id="e" cx="110.658" cy="53.396" gradientTransform="matrix(.0682 .9977 -1.0103 .069 153.096 -65.368)" gradientUnits="userSpaceOnUse" r="11.739"><stop offset=".154" stop-color="#fdd835"/><stop offset=".426" stop-color="#fdda38"/><stop offset=".638" stop-color="#fee042"/><stop offset=".829" stop-color="#ffea52"/><stop offset=".878" stop-color="#ffee58"/></radialGradient><path d="M117.19 50.87c-.12 5.46-4.74 9.78-10.32 9.66-5.58-.12-10.01-4.64-9.89-10.1s4.74-9.78 10.32-9.66c5.58.13 10.01 4.65 9.89 10.1z" fill="url(#e)"/><radialGradient id="f" cx="97.883" cy="100.899" fx="97.493" fy="100.452" gradientTransform="matrix(.9964 .0852 -.0775 .9066 21.559 -34.146)" gradientUnits="userSpaceOnUse" r="7.47"><stop offset=".005" stop-color="#fdd835"/><stop offset=".387" stop-color="#fdda38"/><stop offset=".671" stop-color="#fee041"/><stop offset=".924" stop-color="#ffea52"/><stop offset="1" stop-color="#ffee58"/></radialGradient><path d="M118.88 69c-.25 2.97-2.85 5.17-5.8 4.91-2.95-.25-5.14-2.86-4.89-5.83s2.85-5.17 5.8-4.91c2.95.25 5.14 2.86 4.89 5.83z" fill="url(#f)"/><radialGradient id="g" cx="82.069" cy="64.219" fx="81.679" fy="63.772" gradientTransform="matrix(.9964 .0852 -.0775 .9066 21.84 -37.439)" gradientUnits="userSpaceOnUse" r="7.47"><stop offset=".004" stop-color="#fdd835"/><stop offset=".386" stop-color="#fdda38"/><stop offset=".671" stop-color="#fee041"/><stop offset=".924" stop-color="#ffea52"/><stop offset="1" stop-color="#ffee58"/></radialGradient><path d="M106.24 31.11c-.25 2.97-2.85 5.17-5.8 4.91s-5.14-2.86-4.89-5.83 2.85-5.17 5.8-4.91 5.15 2.86 4.89 5.83z" opacity=".4" fill="url(#g)"/><radialGradient id="h" cx="91.197" cy="121.544" fx="90.806" fy="121.097" gradientTransform="matrix(.9964 .0852 -.0775 .9066 21.4 -32.293)" gradientUnits="userSpaceOnUse" r="7.47"><stop offset=".004" stop-color="#f2d249"/><stop offset=".421" stop-color="#f3d54b"/><stop offset=".731" stop-color="#f8de50"/><stop offset="1" stop-color="#ffee58"/></radialGradient><path d="M110.45 89c-.25 2.97-2.85 5.17-5.8 4.91-2.95-.25-5.14-2.86-4.89-5.83s2.85-5.17 5.8-4.91c2.96.25 5.15 2.86 4.89 5.83z" opacity=".5" fill="url(#h)"/><path d="M54.97 71.05c4.82 6.11 14.07 5.44 18.48-.69 1.47-2.04-1.91-3.98-3.36-1.97-2.93 4.06-9.16 3.96-12.36-.1-1.56-1.96-4.3.81-2.76 2.76zM83.74 36.27c3.36 0 6.42 3.29 6.42 8.74s-3.06 8.74-6.42 8.74-6.42-3.29-6.42-8.74 3.06-8.74 6.42-8.74zM44.2 36.27c-3.36 0-6.42 3.29-6.42 8.74s3.06 8.74 6.42 8.74 6.42-3.29 6.42-8.74-3.06-8.74-6.42-8.74z" fill="#4e342e"/><path d="M63.98 83.85c-11.63 0-22.18-3.99-29.92-10.47-1.65-1.38-3.99.5-2.98 2.4 6.23 11.81 18.63 19.86 32.91 19.86s26.68-8.05 32.91-19.86c1-1.9-1.34-3.78-2.98-2.4-7.76 6.48-18.31 10.47-29.94 10.47z" fill="#4e342e"/></svg>