<svg width="128" height="128" xmlns="http://www.w3.org/2000/svg" width="512px" height="512px"><radialGradient id="a" cx="55.053" cy="38.386" gradientUnits="userSpaceOnUse" r="62.739"><stop offset=".364" stop-color="#757575"/><stop offset=".581" stop-color="#5c5c5c"/><stop offset=".836" stop-color="#424242"/></radialGradient><circle cx="64" cy="64" r="60" fill="url(#a)"/><circle cx="64" cy="64" r="60" fill="none"/><circle cx="64" cy="64" r="60" fill="none"/><radialGradient id="b" cx="24.86" cy="84.509" gradientUnits="userSpaceOnUse" r="14.105"><stop offset="0" stop-color="#212121"/><stop offset=".281" stop-color="#242424"/><stop offset=".49" stop-color="#2d2d2d"/><stop offset=".676" stop-color="#3e3e3e"/><stop offset=".848" stop-color="#545454"/><stop offset=".926" stop-color="#616161"/></radialGradient><path d="M37.05 86.35c.91 6-3.56 11.66-9.97 12.62-6.41.97-12.34-3.12-13.24-9.12s3.56-11.66 9.97-12.62c6.41-.97 12.34 3.11 13.24 9.12z" opacity=".3" fill="url(#b)"/><radialGradient id="c" cx="38" cy="98.421" gradientUnits="userSpaceOnUse" r="13.252"><stop offset="0" stop-color="#212121"/><stop offset=".281" stop-color="#242424"/><stop offset=".49" stop-color="#2d2d2d"/><stop offset=".676" stop-color="#3e3e3e"/><stop offset=".848" stop-color="#545454"/><stop offset=".926" stop-color="#616161"/></radialGradient><path d="M46.26 108.08c-.77 4.08-4.68 6.76-8.74 6s-6.73-4.69-5.96-8.76c.77-4.08 4.68-6.76 8.74-6s6.72 4.69 5.96 8.76z" opacity=".3" fill="url(#c)"/><path d="M64 8c30.88 0 56 25.12 56 56s-25.12 56-56 56S8 94.88 8 64 33.12 8 64 8m0-4C30.86 4 4 30.86 4 64s26.86 60 60 60 60-26.86 60-60S97.14 4 64 4z" fill="#424242" opacity=".2"/><radialGradient id="d" cx="58.432" cy="96.26" gradientUnits="userSpaceOnUse" r="15.023"><stop offset="0" stop-color="#212121"/><stop offset=".281" stop-color="#242424"/><stop offset=".49" stop-color="#2d2d2d"/><stop offset=".676" stop-color="#3e3e3e"/><stop offset=".848" stop-color="#545454"/><stop offset=".926" stop-color="#616161"/></radialGradient><circle cx="59.07" cy="99.68" r="8.84" opacity=".3" fill="url(#d)"/><radialGradient id="e" cx="110.658" cy="53.396" gradientTransform="matrix(.0682 .9977 -1.0103 .069 153.096 -65.368)" gradientUnits="userSpaceOnUse" r="11.739"><stop offset="0" stop-color="#212121"/><stop offset=".281" stop-color="#242424"/><stop offset=".49" stop-color="#2d2d2d"/><stop offset=".676" stop-color="#3e3e3e"/><stop offset=".848" stop-color="#545454"/><stop offset=".926" stop-color="#616161"/></radialGradient><path d="M117.19 50.87c-.12 5.46-4.74 9.78-10.32 9.66-5.58-.12-10.01-4.64-9.89-10.1s4.74-9.78 10.32-9.66c5.58.13 10.01 4.65 9.89 10.1z" opacity=".3" fill="url(#e)"/><radialGradient id="f" cx="100.523" cy="102.43" fx="100.133" fy="101.983" gradientTransform="matrix(.9964 .0852 -.0775 .9066 21.547 -34.009)" gradientUnits="userSpaceOnUse" r="7.47"><stop offset="0" stop-color="#212121"/><stop offset=".281" stop-color="#242424"/><stop offset=".49" stop-color="#2d2d2d"/><stop offset=".676" stop-color="#3e3e3e"/><stop offset=".848" stop-color="#545454"/><stop offset=".926" stop-color="#616161"/></radialGradient><path d="M118.88 69c-.25 2.97-2.85 5.17-5.8 4.91-2.95-.25-5.14-2.86-4.89-5.83s2.85-5.17 5.8-4.91c2.95.25 5.14 2.86 4.89 5.83z" opacity=".3" fill="url(#f)"/><radialGradient id="g" cx="82.944" cy="65.649" fx="82.554" fy="65.202" gradientTransform="matrix(.9964 .0852 -.0775 .9066 21.83 -37.31)" gradientUnits="userSpaceOnUse" r="7.47"><stop offset="0" stop-color="#212121"/><stop offset=".281" stop-color="#242424"/><stop offset=".49" stop-color="#2d2d2d"/><stop offset=".676" stop-color="#3e3e3e"/><stop offset=".848" stop-color="#545454"/><stop offset=".926" stop-color="#616161"/></radialGradient><path d="M106.24 31.11c-.25 2.97-2.85 5.17-5.8 4.91s-5.14-2.86-4.89-5.83 2.85-5.17 5.8-4.91 5.15 2.86 4.89 5.83z" opacity=".3" fill="url(#g)"/><radialGradient id="h" cx="93.089" cy="123.139" fx="92.699" fy="122.692" gradientTransform="matrix(.9964 .0852 -.0775 .9066 21.388 -32.15)" gradientUnits="userSpaceOnUse" r="7.47"><stop offset="0" stop-color="#212121"/><stop offset=".281" stop-color="#242424"/><stop offset=".49" stop-color="#2d2d2d"/><stop offset=".676" stop-color="#3e3e3e"/><stop offset=".848" stop-color="#545454"/><stop offset=".926" stop-color="#616161"/></radialGradient><path d="M110.45 89c-.25 2.97-2.85 5.17-5.8 4.91-2.95-.25-5.14-2.86-4.89-5.83s2.85-5.17 5.8-4.91c2.96.25 5.15 2.86 4.89 5.83z" opacity=".3" fill="url(#h)"/><path d="M54.97 71.05c4.82 6.11 14.07 5.44 18.48-.69 1.47-2.04-1.91-3.98-3.36-1.97-2.93 4.06-9.16 3.96-12.36-.1-1.56-1.96-4.3.81-2.76 2.76zM83.74 36.27c3.36 0 6.42 3.29 6.42 8.74s-3.06 8.74-6.42 8.74-6.42-3.29-6.42-8.74 3.06-8.74 6.42-8.74zM44.2 36.27c-3.36 0-6.42 3.29-6.42 8.74s3.06 8.74 6.42 8.74 6.42-3.29 6.42-8.74-3.06-8.74-6.42-8.74z" fill="#212121"/><path d="M63.98 83.85c-11.63 0-22.18-3.99-29.92-10.47-1.65-1.38-3.99.5-2.98 2.4 6.23 11.81 18.63 19.86 32.91 19.86s26.68-8.05 32.91-19.86c1-1.9-1.34-3.78-2.98-2.4-7.76 6.48-18.31 10.47-29.94 10.47z" fill="#212121"/></svg>