<svg width="128" height="128" xmlns="http://www.w3.org/2000/svg"><linearGradient id="a" gradientUnits="userSpaceOnUse" x1="83.201" x2="46.534" y1="111.649" y2="20.316"><stop offset=".002" stop-color="#bbdefb"/><stop offset="1" stop-color="#e3f2fd"/></linearGradient><path d="M56.31 59.58c1.57.67 1.61 3.21.05 3.93-5.14 2.39-30.07 12.39-30.07 48.79l-.16 6.72 75.75.13-.05-6.78c0-37.1-25.08-46.31-30.25-48.72-1.55-.72-1.52-3.26.05-3.93 5.13-2.2 29.63-12.65 29.63-45.39l.63-5.7-75.76-.12.66 5.97c0 31.72 24.37 42.89 29.52 45.1z" fill="url(#a)"/><linearGradient id="b" gradientUnits="userSpaceOnUse" x1="64.395" x2="64.395" y1="38.333" y2="114.212"><stop offset="0" stop-color="#ffca7b"/><stop offset=".254" stop-color="#ffa726"/><stop offset=".469" stop-color="#ffcc80"/><stop offset=".659" stop-color="#ffc875"/><stop offset=".867" stop-color="#ffa726"/></linearGradient><path d="M95.85 109.3C94 100.63 90.93 95 83.04 95H66.79l-.01-34.35c0-8.93 22.91-11.52 22.91-24.07l-50.95.03c0 12.1 22.75 15.28 22.75 24.13L61.52 95H45.64c-7.95 0-11.05 5.72-12.84 14.48l-2.19 10.46 67.56.18-2.32-10.82z" fill="url(#b)"/><path d="M29.48 11.52l69.05.11-.27 2.37c-.01.11-.02.22-.02.33 0 20.07-9.6 34.81-27.81 42.63-1.8.77-2.98 2.6-3.01 4.66-.03 2.06 1.1 3.93 2.88 4.75.27.13.59.27.96.43 6.82 3.03 27.56 12.26 27.56 45.59l.03 3.75-69.65-.12.09-3.65v-.07c0-14.14 3.9-25.69 11.61-34.33 6.15-6.92 13.1-10.09 16.07-11.44l.66-.3c1.78-.83 2.91-2.69 2.88-4.75-.03-2.06-1.21-3.88-3.01-4.66-8.33-3.58-27.71-14.87-27.71-42.34 0-.11-.01-.22-.02-.33l-.29-2.63m-3.35-3.01l.66 5.97c0 31.72 24.37 42.89 29.52 45.1 1.57.67 1.61 3.21.05 3.93-5.14 2.39-30.07 12.39-30.07 48.79l-.16 6.72 75.74.13-.05-6.78c0-37.1-25.08-46.31-30.25-48.72-1.55-.72-1.52-3.26.05-3.93 5.13-2.2 29.63-12.65 29.63-45.39l.63-5.7-75.75-.12z" fill="#424242" opacity=".2"/><path d="M25.02 4h77.96a6.02 6.02 0 1 1 0 12.04H25.02A6.02 6.02 0 0 1 19 10.02C19 6.7 21.7 4 25.02 4z" fill="#795548"/><path d="M102.98 7c1.67 0 3.02 1.36 3.02 3.02 0 1.67-1.36 3.02-3.02 3.02H25.02c-1.67 0-3.02-1.36-3.02-3.02S23.36 7 25.02 7h77.96m0-3H25.02a6.02 6.02 0 1 0 0 12.04h77.96c3.33 0 6.02-2.7 6.02-6.02C109 6.7 106.3 4 102.98 4zM87.43 38.61c-1.23 4.51-6.51 7.56-11.65 10.51-5.66 3.26-11 6.34-11 11.58l.01 34.35c0 1.1.9 1.95 2 1.95h16.25c5.94 0 8.88 3.48 10.85 12.73l1.81 8.39-62.62-.16 1.69-8.08C36.65 100.64 39.7 97 45.64 97h15.88c.53 0 1.04-.16 1.41-.54.38-.38.59-.86.59-1.39l-.03-34.29c0-5.21-5.35-8.4-11.02-11.78-5.02-3-10.19-6.08-11.44-10.38l46.4-.01m2.26-2.01l-50.95.02c0 12.1 22.75 15.28 22.75 24.12L61.52 95H45.64c-7.95 0-11.05 5.72-12.84 14.48l-2.19 10.46 67.56.2-2.33-10.84C94 100.63 90.93 95 83.04 95H66.79l-.01-34.35c0-8.93 22.91-11.49 22.91-24.05z" fill="#424242" opacity=".2"/><path d="M24.86 112.31h78.28a5.851 5.851 0 0 1 0 11.7H24.86c-3.23 0-5.85-2.62-5.85-5.85 0-3.24 2.62-5.85 5.85-5.85z" fill="#795548"/><path d="M103.14 115.31c1.57 0 2.85 1.28 2.85 2.85s-1.28 2.85-2.85 2.85H24.86c-1.57 0-2.85-1.28-2.85-2.85s1.28-2.85 2.85-2.85h78.28m0-3H24.86a5.851 5.851 0 0 0 0 11.7h78.28a5.851 5.851 0 0 0 0-11.7z" fill="#424242" opacity=".2"/></svg>