<svg width="128" height="128" xmlns="http://www.w3.org/2000/svg"><linearGradient id="a" gradientUnits="userSpaceOnUse" x1="65.332" x2="65.332" y1="10.969" y2="124.381"><stop offset="0" stop-color="#fff"/><stop offset=".386" stop-color="#fdfdfd"/><stop offset=".588" stop-color="#f5f5f5"/><stop offset=".747" stop-color="#e7e7e7"/><stop offset=".882" stop-color="#d5d5d5"/><stop offset="1" stop-color="#bdbdbd"/></linearGradient><path d="M102.24 123.88H28.42c-2.21 0-4-1.79-4-4V14.79c0-2.21 1.79-4 4-4h73.82c2.21 0 4 1.79 4 4v105.09c0 2.21-1.79 4-4 4z" fill="url(#a)"/><path d="M102.24 13.64c.64 0 1.15.52 1.15 1.15v105.09c0 .64-.52 1.15-1.15 1.15H28.42c-.64 0-1.15-.52-1.15-1.15V14.79c0-.64.52-1.15 1.15-1.15h73.82m0-2.85H28.42c-2.21 0-4 1.79-4 4v105.09c0 2.21 1.79 4 4 4h73.82c2.21 0 4-1.79 4-4V14.79c0-2.2-1.79-4-4-4z" fill="#424242" opacity=".2"/><linearGradient id="b" gradientUnits="userSpaceOnUse" x1="84.916" x2="119.973" y1="99.397" y2="99.397"><stop offset=".013" stop-color="#e0e0e0"/><stop offset=".094" stop-color="#eaeaea"/><stop offset=".249" stop-color="#f6f6f6"/><stop offset=".463" stop-color="#fdfdfd"/><stop offset="1" stop-color="#fff"/></linearGradient><path fill="url(#b)" d="M84.92 93.26h35.06v12.27H84.92z"/><path fill="#4480f7" d="M103.51 93.26h16.47v12.27h-16.47z"/><path d="M117.78 95.45v7.89H87.11v-7.89h30.67m2.19-2.19H84.92v12.27h35.06V93.26h-.01z" fill="#757575" opacity=".2"/><linearGradient id="c" gradientUnits="userSpaceOnUse" x1="84.916" x2="119.973" y1="41.803" y2="41.803"><stop offset=".013" stop-color="#e0e0e0"/><stop offset=".094" stop-color="#eaeaea"/><stop offset=".249" stop-color="#f6f6f6"/><stop offset=".463" stop-color="#fdfdfd"/><stop offset="1" stop-color="#fff"/></linearGradient><path fill="url(#c)" d="M84.92 35.67h35.06v12.27H84.92z"/><path fill="#fbbe00" d="M103.51 35.67h16.47v12.27h-16.47z"/><path d="M117.78 37.86v7.89H87.11v-7.89h30.67m2.19-2.19H84.92v12.27h35.06V35.67h-.01z" fill="#757575" opacity=".2"/><linearGradient id="d" gradientUnits="userSpaceOnUse" x1="52.444" x2="52.444" y1="4.17" y2="114.615"><stop offset="0" stop-color="#fff"/><stop offset=".386" stop-color="#fdfdfd"/><stop offset=".588" stop-color="#f5f5f5"/><stop offset=".747" stop-color="#e7e7e7"/><stop offset=".882" stop-color="#d5d5d5"/><stop offset="1" stop-color="#bdbdbd"/></linearGradient><path d="M91.35 114.13H13.54c-2.21 0-4-1.79-4-4V8c0-2.21 1.79-4 4-4h77.81c2.21 0 4 1.79 4 4v102.13c0 2.21-1.79 4-4 4z" fill="url(#d)"/><path d="M91.35 6.88c.62 0 1.12.5 1.12 1.12v102.13c0 .62-.5 1.12-1.12 1.12H13.54c-.62 0-1.12-.5-1.12-1.12V8c0-.62.5-1.12 1.12-1.12h77.81m0-2.88H13.54c-2.21 0-4 1.79-4 4v102.13c0 2.21 1.79 4 4 4h77.81c2.21 0 4-1.79 4-4V8c0-2.21-1.79-4-4-4z" fill="#424242" opacity=".2"/><g fill="none" stroke="#757575" stroke-width="3.797" stroke-linecap="round" stroke-linejoin="round" stroke-miterlimit="10"><path d="M21.6 30.48h61.69M21.6 44.25h61.69M21.6 58.03h61.69M21.6 71.81h61.69M21.6 85.58h26.38"/></g><g><linearGradient id="e" gradientUnits="userSpaceOnUse" x1="78.71" x2="113.766" y1="19.988" y2="19.988"><stop offset=".013" stop-color="#e0e0e0"/><stop offset=".094" stop-color="#eaeaea"/><stop offset=".249" stop-color="#f6f6f6"/><stop offset=".463" stop-color="#fdfdfd"/><stop offset="1" stop-color="#fff"/></linearGradient><path fill="url(#e)" d="M78.71 13.85h35.06v12.27H78.71z"/></g><path fill="#ec4431" d="M97.3 13.85h16.47v12.27H97.3z"/><g opacity=".2"><path d="M111.58 16.04v7.89H80.9v-7.89h30.68m2.19-2.19H78.71v12.27h35.06V13.85z" fill="#757575"/></g><g><linearGradient id="f" gradientUnits="userSpaceOnUse" x1="78.71" x2="113.766" y1="72.882" y2="72.882"><stop offset=".013" stop-color="#e0e0e0"/><stop offset=".094" stop-color="#eaeaea"/><stop offset=".249" stop-color="#f6f6f6"/><stop offset=".463" stop-color="#fdfdfd"/><stop offset="1" stop-color="#fff"/></linearGradient><path fill="url(#f)" d="M78.71 66.75h35.06v12.27H78.71z"/></g><path fill="#2ca94f" d="M97.3 66.75h16.47v12.27H97.3z"/><g opacity=".2"><path d="M111.58 68.94v7.89H80.9v-7.89h30.68m2.19-2.19H78.71v12.27h35.06V66.75z" fill="#757575"/></g></svg>