<svg width="128" height="128" xmlns="http://www.w3.org/2000/svg"><path fill="#bd461c" d="M74.47 100.28v13.7h3.48V98.16z"/><path d="M58.76 113.62c9.49-1.22 20.82-.72 30.16 1.34M57.67 117.15c9.07-2.42 17.99-3.38 27.37-2.94" fill="none" stroke="#c74b1e" stroke-width="1.993" stroke-linecap="round" stroke-linejoin="round" stroke-miterlimit="10"/><path fill="#f15a24" d="M61.63 105.58v13.7h3.49v-15.82z"/><path d="M45.76 117.64c9.49-1.22 20.65.02 30 2.08" fill="none" stroke="#f15a24" stroke-width="2.883" stroke-linecap="round" stroke-linejoin="round" stroke-miterlimit="10"/><path fill="#f15a24" d="M61.63 105.58v13.7h3.49v-15.82z"/><path d="M44.83 122.46c9.07-2.42 20.88-3.29 30.26-2.85" fill="none" stroke="#f15a24" stroke-width="2.883" stroke-linecap="round" stroke-linejoin="round" stroke-miterlimit="10"/><ellipse cx="63.33" cy="104.96" rx="6.5" ry="5.76" fill="#e8a91c"/><ellipse cx="76.21" cy="103.46" rx="6.5" ry="5.76" fill="#e8a91c"/><path d="M17.27 26.29l-.44 8.04c-.06 1.12-1.34 1.72-2.24 1.06l-7.14-5.27c-.9-.67-.7-2.07.35-2.45l7.58-2.77c.95-.35 1.95.38 1.89 1.39z" fill="#f15a24"/><path d="M16.07 31.39l1.82 5.48c.25.76-.44 1.5-1.22 1.29l-6.15-1.63a1.01 1.01 0 0 1-.41-1.73l4.32-3.84c.55-.49 1.41-.26 1.64.43z" fill="#f15a24"/><linearGradient id="a" gradientUnits="userSpaceOnUse" x1="66.585" x2="66.585" y1="10.408" y2="102.799"><stop offset="0" stop-color="#fff176"/><stop offset=".218" stop-color="#feea6c"/><stop offset=".585" stop-color="#fdd952"/><stop offset="1" stop-color="#fbc02d"/></linearGradient><path d="M40.86 8.45c9.67-.04 20 .79 28.96 22.2.74 1.76 13.65-2.8 29.29 11.93 15 14.13 17.21 27.39 18.32 26.94-2 .81-4.01 1.62-6.01 2.44l4.95 3.62c-2.97.02-5.57 2.08-7.3 4.47-2.18 3-3.64 6.49-5.88 9.5-5.73 7.7-13.02 11.39-22.41 13.92-9.33 2.51-19.37 1.79-28.37-1.6-.77-.29-1.54-.6-2.29-.93-18.1-7.86-25.99-22.48-24.35-39.09.37-3.7-.12-5.82-2.41-8.76-19-24.45 1.61-44.57 17.5-44.64z" fill="url(#a)" stroke="#fcc13c" stroke-width="3" stroke-linecap="round" stroke-linejoin="round" stroke-miterlimit="10"/><linearGradient id="b" gradientUnits="userSpaceOnUse" x1="57.555" x2="93.555" y1="52.853" y2="88.353"><stop offset="0" stop-color="#fff9c8"/><stop offset=".017" stop-color="#fff8c4"/><stop offset=".285" stop-color="#ffe17f"/><stop offset=".527" stop-color="#ffcf48"/><stop offset=".734" stop-color="#ffc221"/><stop offset=".899" stop-color="#ffba09"/><stop offset="1" stop-color="#ffb700"/></linearGradient><path d="M56.39 52.53c16.7-14.47 48.5 16.14 45.33 21.54-1.4 2.39-9.86-.04-11.36-.62 3.69 2 8.85 8.46 7.15 14.04-4.1 3.34-13.59-3.63-15.72-5.24 1.42 1.02 5.9 8.33 2.5 10.87-2.43 1.81-11.02-1.74-15.46-4.12-8.49-4.57-28.16-22.85-12.44-36.47z" fill="url(#b)"/><g><ellipse cx="32.13" cy="29.65" rx="7.66" ry="7.66" transform="rotate(-70.822 32.13 29.655)" fill="#fff"/><ellipse cx="29.95" cy="29.72" rx="4.43" ry="4.43" transform="rotate(-82.992 29.947 29.722)"/></g></svg>