<svg xmlns="http://www.w3.org/2000/svg" viewBox="0 0 128 128" width="512px" height="512px"><linearGradient id="a" gradientUnits="userSpaceOnUse" x1="41.441" y1="113.507" x2="39.066" y2="116.674"><stop offset=".083"/><stop offset="1" stop-opacity="0"/></linearGradient><path opacity=".6" fill="url(#a)" d="M35.54 113.91l7.22 5.45v-6l-6.59-.43z"/><linearGradient id="b" gradientUnits="userSpaceOnUse" x1="41.441" y1="83.465" x2="39.066" y2="86.632"><stop offset=".083"/><stop offset="1" stop-opacity="0"/></linearGradient><path opacity=".6" fill="url(#b)" d="M35.54 83.87l7.22 5.45v-6l-6.59-.44z"/><linearGradient id="c" gradientUnits="userSpaceOnUse" x1="41.441" y1="53.423" x2="39.066" y2="56.59"><stop offset=".083"/><stop offset="1" stop-opacity="0"/></linearGradient><path opacity=".6" fill="url(#c)" d="M35.54 53.83l7.22 5.45v-6l-6.59-.44z"/><linearGradient id="d" gradientUnits="userSpaceOnUse" x1="41.441" y1="23.382" x2="39.066" y2="26.549"><stop offset=".083"/><stop offset="1" stop-opacity="0"/></linearGradient><path opacity=".6" fill="url(#d)" d="M35.54 23.79l7.22 5.45v-6l-6.59-.44z"/><g><linearGradient id="e" gradientUnits="userSpaceOnUse" x1="38.04" y1="64.001" x2="47.871" y2="64.001" gradientTransform="matrix(-1 0 0 1 133.2 0)"><stop offset="0" stop-color="#a1714e"/><stop offset="1" stop-color="#805944"/></linearGradient><path fill="url(#e)" d="M85.24 124.01h9.97V3.99h-9.97z"/><path fill="#d19966" d="M100.756 3.991v120h-6.61v-120z"/></g><g><linearGradient id="f" gradientUnits="userSpaceOnUse" x1="57.739" y1="113.507" x2="55.364" y2="116.674" gradientTransform="matrix(-1 0 0 1 144.3 0)"><stop offset=".083"/><stop offset="1" stop-opacity="0"/></linearGradient><path opacity=".6" fill="url(#f)" d="M92.46 113.91l-7.22 5.45v-6l6.6-.43z"/><linearGradient id="g" gradientUnits="userSpaceOnUse" x1="57.739" y1="83.465" x2="55.364" y2="86.632" gradientTransform="matrix(-1 0 0 1 144.3 0)"><stop offset=".083"/><stop offset="1" stop-opacity="0"/></linearGradient><path opacity=".6" fill="url(#g)" d="M92.46 83.87l-7.22 5.45v-6l6.6-.44z"/><linearGradient id="h" gradientUnits="userSpaceOnUse" x1="57.739" y1="53.423" x2="55.364" y2="56.59" gradientTransform="matrix(-1 0 0 1 144.3 0)"><stop offset=".083"/><stop offset="1" stop-opacity="0"/></linearGradient><path opacity=".6" fill="url(#h)" d="M92.46 53.83l-7.22 5.45v-6l6.6-.44z"/><linearGradient id="i" gradientUnits="userSpaceOnUse" x1="57.739" y1="23.382" x2="55.364" y2="26.549" gradientTransform="matrix(-1 0 0 1 144.3 0)"><stop offset=".083"/><stop offset="1" stop-opacity="0"/></linearGradient><path opacity=".6" fill="url(#i)" d="M92.46 23.79l-7.22 5.45v-6l6.6-.44z"/></g><g><linearGradient id="j" gradientUnits="userSpaceOnUse" x1="63.876" y1="13.422" x2="63.876" y2="22.377"><stop offset="0" stop-color="#936747"/><stop offset=".709" stop-color="#d19966"/></linearGradient><path d="M92.63 19.25l-57.51.21.62-1.54 4.99-3.67c.21-.16.47-.25.73-.25l43.39.38c.28 0 .56.1.78.28l6.52 3.3.48 1.29z" fill="url(#j)"/><linearGradient id="k" gradientUnits="userSpaceOnUse" x1="63.885" y1="22.402" x2="63.885" y2="24.027"><stop offset=".211" stop-color="#ffca7d"/><stop offset=".36" stop-color="#f1bb76"/><stop offset=".669" stop-color="#daa26a"/><stop offset=".856" stop-color="#d19966"/></linearGradient><path d="M91.61 24.03H36.17c-.58 0-1.04-.47-1.04-1.04v-4.13c0-.58.47-1.04 1.04-1.04h55.44c.58 0 1.04.47 1.04 1.04v4.13c0 .58-.47 1.04-1.04 1.04z" fill="url(#k)"/><g><linearGradient id="l" gradientUnits="userSpaceOnUse" x1="63.876" y1="103.36" x2="63.876" y2="112.315"><stop offset="0" stop-color="#936747"/><stop offset=".709" stop-color="#d19966"/></linearGradient><path d="M92.63 109.18l-57.51.21.62-1.54 4.99-3.67c.22-.16.47-.24.73-.24l43.39.38c.28 0 .56.1.78.28l6.52 3.3.48 1.28z" fill="url(#l)"/><linearGradient id="m" gradientUnits="userSpaceOnUse" x1="63.885" y1="112.34" x2="63.885" y2="113.965"><stop offset=".211" stop-color="#ffca7d"/><stop offset=".36" stop-color="#f1bb76"/><stop offset=".669" stop-color="#daa26a"/><stop offset=".856" stop-color="#d19966"/></linearGradient><path d="M91.61 113.97H36.17c-.58 0-1.04-.47-1.04-1.04v-4.13c0-.58.47-1.04 1.04-1.04h55.44c.58 0 1.04.47 1.04 1.04v4.13c0 .58-.47 1.04-1.04 1.04z" fill="url(#m)"/></g><g><linearGradient id="n" gradientUnits="userSpaceOnUse" x1="63.876" y1="73.38" x2="63.876" y2="82.336"><stop offset="0" stop-color="#936747"/><stop offset=".709" stop-color="#d19966"/></linearGradient><path d="M92.63 79.21l-57.51.21.62-1.54 4.99-3.67c.22-.16.47-.24.73-.24l43.39.38c.28 0 .56.1.78.28l6.52 3.3.48 1.28z" fill="url(#n)"/><linearGradient id="o" gradientUnits="userSpaceOnUse" x1="63.885" y1="82.36" x2="63.885" y2="83.986"><stop offset=".211" stop-color="#ffca7d"/><stop offset=".36" stop-color="#f1bb76"/><stop offset=".669" stop-color="#daa26a"/><stop offset=".856" stop-color="#d19966"/></linearGradient><path d="M91.61 83.99H36.17c-.58 0-1.04-.47-1.04-1.04v-4.13c0-.58.47-1.04 1.04-1.04h55.44c.58 0 1.04.47 1.04 1.04v4.13c0 .58-.47 1.04-1.04 1.04z" fill="url(#o)"/></g><g><linearGradient id="p" gradientUnits="userSpaceOnUse" x1="63.876" y1="43.401" x2="63.876" y2="52.356"><stop offset="0" stop-color="#936747"/><stop offset=".709" stop-color="#d19966"/></linearGradient><path d="M92.63 49.23l-57.51.21.62-1.54 4.99-3.67c.22-.16.47-.24.73-.24l43.39.38c.28 0 .56.1.78.28l6.52 3.3.48 1.28z" fill="url(#p)"/><linearGradient id="q" gradientUnits="userSpaceOnUse" x1="63.885" y1="52.381" x2="63.885" y2="54.006"><stop offset=".211" stop-color="#ffca7d"/><stop offset=".36" stop-color="#f1bb76"/><stop offset=".669" stop-color="#daa26a"/><stop offset=".856" stop-color="#d19966"/></linearGradient><path d="M91.61 54.01H36.17c-.58 0-1.04-.47-1.04-1.04v-4.13c0-.58.47-1.04 1.04-1.04h55.44c.58 0 1.04.47 1.04 1.04v4.13c0 .58-.47 1.04-1.04 1.04z" fill="url(#q)"/></g></g><g><linearGradient id="r" gradientUnits="userSpaceOnUse" x1="32.793" y1="64.001" x2="42.76" y2="64.001" gradientTransform="matrix(-1 0 0 1 70 0)"><stop offset="0" stop-color="#a1714e"/><stop offset="1" stop-color="#805944"/></linearGradient><path fill="url(#r)" d="M27.24 124.01h9.97V3.99h-9.97z"/><path fill="#d19966" d="M42.756 3.991v120h-6.61v-120z"/></g></svg>