<svg width="128" height="128" xmlns="http://www.w3.org/2000/svg" xmlns:xlink="http://www.w3.org/1999/xlink" width="512px" height="512px"><radialGradient id="a" cx="64.083" cy="22" gradientTransform="matrix(0 1.0276 -.5662 0 76.557 -43.795)" gradientUnits="userSpaceOnUse" r="98.902"><stop offset="0" stop-color="#fafafa"/><stop offset=".413" stop-color="#eee"/><stop offset=".995" stop-color="#e0e0e0"/></radialGradient><path fill="url(#a)" d="M40 20h48v102.76H40z"/><linearGradient id="b" gradientUnits="userSpaceOnUse" x1="44" x2="84" y1="70" y2="70"><stop offset="0" stop-color="#fff"/><stop offset=".22" stop-color="#fafafa"/><stop offset=".496" stop-color="#eaeaea"/><stop offset=".797" stop-color="#d1d1d1"/><stop offset=".874" stop-color="#d4d4d4"/><stop offset=".941" stop-color="#dfdfdf"/><stop offset=".995" stop-color="#eee"/></linearGradient><path fill="url(#b)" d="M44 20h40v100H44z"/><defs><path id="c" d="M44 20h40v100H44z"/></defs><clipPath id="d"><use xlink:href="#c" overflow="visible"/></clipPath><path clip-path="url(#d)" fill="#08128a" d="M94.83 18.42L26.17 58.06V43.57L94.83 3.93z"/><path clip-path="url(#d)" fill="#d40004" d="M94.83 47.67L26.17 87.31V72.82l68.66-39.64z"/><path clip-path="url(#d)" fill="#08128a" d="M94.83 77.19l-68.66 39.64v-14.49L94.83 62.7z"/><path clip-path="url(#d)" fill="#d40004" d="M94.83 106.7l-68.66 39.65v-14.49l68.66-39.65z"/><radialGradient id="e" cx="60.75" cy="12" gradientUnits="userSpaceOnUse" r="23.034"><stop offset="0" stop-color="#f5f5f5"/><stop offset=".995" stop-color="#bdbdbd"/></radialGradient><path d="M42 22.67C42 12.36 51.85 4 64 4s22 8.36 22 18.67H42z" fill="url(#e)"/><linearGradient id="f" gradientUnits="userSpaceOnUse" x1="64" x2="64" y1="117.176" y2="123.962"><stop offset=".005" stop-color="#bdbdbd"/><stop offset="1" stop-color="#fafafa"/></linearGradient><path d="M88 124H40c-1.66 0-3-1.34-3-3s1.34-3 3-3h48c1.66 0 3 1.34 3 3s-1.34 3-3 3z" fill="url(#f)"/><linearGradient id="g" gradientUnits="userSpaceOnUse" x1="64" x2="64" y1="20.047" y2="25.908"><stop offset="0" stop-color="#fafafa"/><stop offset=".995" stop-color="#bdbdbd"/></linearGradient><path d="M88 26H40c-1.66 0-3-1.34-3-3s1.34-3 3-3h48c1.66 0 3 1.34 3 3s-1.34 3-3 3z" fill="url(#g)"/><g opacity=".2"><path d="M64 7c9.43 0 17.52 5.8 18.81 13.5.24 1.44 1.49 2.5 2.96 2.5H88c-1.66 0-3 1.34-3 3v92c0 1.66 1.34 3 3 3H40c1.66 0 3-1.34 3-3V26c0-1.66-1.34-3-3-3h2.23c1.46 0 2.71-1.06 2.96-2.5C46.48 12.8 54.57 7 64 7m0-3c-11.08 0-20.25 6.95-21.77 16H40c-1.66 0-3 1.34-3 3s1.34 3 3 3v92c-1.66 0-3 1.34-3 3s1.34 3 3 3h48c1.66 0 3-1.34 3-3s-1.34-3-3-3V26c1.66 0 3-1.34 3-3s-1.34-3-3-3h-2.23C84.25 10.95 75.08 4 64 4z" fill="#424242"/></g></svg>