<svg width="128" height="128" xmlns="http://www.w3.org/2000/svg" width="512px" height="512px"><path d="M30.23 30.11a4.273 4.273 0 0 1-6.03 0L5.98 11.89a4.273 4.273 0 0 1 0-6.03 4.273 4.273 0 0 1 6.03 0l18.22 18.22c1.65 1.66 1.65 4.38 0 6.03z" fill="#ffe0b2"/><path d="M8.99 6.62c.61 0 1.18.23 1.6.66L28.81 25.5c.88.88.88 2.32 0 3.2-.42.42-.99.66-1.6.66s-1.18-.23-1.6-.66L7.39 10.48c-.42-.42-.66-.99-.66-1.6s.23-1.18.66-1.6c.42-.43.99-.66 1.6-.66m0-2c-1.09 0-2.19.41-3.01 1.24a4.273 4.273 0 0 0 0 6.03L24.2 30.11c.83.83 1.92 1.24 3.01 1.24s2.19-.41 3.01-1.24a4.273 4.273 0 0 0 0-6.03L12 5.86a4.221 4.221 0 0 0-3.01-1.24z" fill="#434343" opacity=".2"/><radialGradient id="a" cx="266.593" cy="345.985" gradientTransform="scale(.9989) rotate(-45 -241.713 477.105)" gradientUnits="userSpaceOnUse" r="25.152"><stop offset=".004" stop-color="#f8bbcf"/><stop offset=".163" stop-color="#f7b6cb"/><stop offset=".369" stop-color="#f6aac2"/><stop offset=".601" stop-color="#f495b2"/><stop offset=".851" stop-color="#f2799f"/><stop offset="1" stop-color="#f06392"/></radialGradient><path d="M49.54 12.79c9.44 9.44 8.85 25.33-1.32 35.5s-26.07 10.76-35.5 1.32-8.85-25.33 1.32-35.5 26.06-10.76 35.5-1.32z" fill="url(#a)"/><path d="M33 6.11v2.6c5.64 0 10.86 2.11 14.7 5.95 4.05 4.05 6.16 9.57 5.93 15.54-.23 6.05-2.8 11.83-7.26 16.29-4.62 4.62-10.86 7.27-17.13 7.27-5.64 0-10.87-2.11-14.7-5.95-4.05-4.05-6.16-9.57-5.93-15.54.23-6.05 2.8-11.83 7.26-16.29C20.49 11.36 26.73 8.71 33 8.71v-2.6m0 0c-6.72 0-13.63 2.7-18.97 8.03C3.86 24.31 3.27 40.21 12.71 49.65c4.49 4.49 10.44 6.71 16.54 6.71 6.72 0 13.63-2.7 18.97-8.03 10.17-10.17 10.76-26.07 1.32-35.5C45.05 8.33 39.1 6.11 33 6.11z" fill="#434343" opacity=".2"/><radialGradient id="b" cx="265.081" cy="389.669" gradientTransform="scale(.9989) rotate(-45 -241.713 477.105)" gradientUnits="userSpaceOnUse" r="25.152"><stop offset=".074" stop-color="#ffecb2"/><stop offset=".219" stop-color="#ffeaae"/><stop offset=".406" stop-color="#ffe7a1"/><stop offset=".617" stop-color="#ffe28b"/><stop offset=".844" stop-color="#ffdb6d"/><stop offset="1" stop-color="#ffd54e"/></radialGradient><path d="M78.89 42.15c9.44 9.44 8.85 25.33-1.32 35.5s-26.07 10.76-35.5 1.32-8.85-25.33 1.32-35.5 26.06-10.76 35.5-1.32z" fill="url(#b)"/><path d="M62.36 35.47v2.6c5.64 0 10.86 2.11 14.7 5.95 8.41 8.41 7.82 22.69-1.32 31.83-4.62 4.62-10.86 7.27-17.13 7.27-5.64 0-10.87-2.11-14.7-5.95-8.41-8.41-7.82-22.69 1.32-31.83 4.62-4.62 10.86-7.27 17.13-7.27v-2.6m-.01 0c-6.72 0-13.63 2.7-18.97 8.03C33.21 53.67 32.62 69.57 42.06 79c4.49 4.49 10.44 6.71 16.54 6.71 6.72 0 13.63-2.7 18.97-8.03 10.17-10.17 10.76-26.07 1.32-35.5-4.49-4.49-10.44-6.71-16.54-6.71z" fill="#434343" opacity=".2"/><radialGradient id="c" cx="266.287" cy="427.639" gradientTransform="scale(.9989) rotate(-45 -241.713 477.105)" gradientUnits="userSpaceOnUse" r="25.152"><stop offset="0" stop-color="#dcecc8"/><stop offset=".172" stop-color="#d9eac4"/><stop offset=".395" stop-color="#d2e6b7"/><stop offset=".646" stop-color="#c5e0a3"/><stop offset=".915" stop-color="#b4d88a"/><stop offset="1" stop-color="#aed580"/></radialGradient><path d="M106.42 69.67c9.44 9.44 8.85 25.33-1.32 35.5s-26.07 10.76-35.5 1.32-8.85-25.33 1.32-35.5 26.06-10.76 35.5-1.32z" fill="url(#c)"/><path d="M89.88 62.99v2.6c5.64 0 10.86 2.11 14.7 5.95 4.05 4.05 6.16 9.57 5.93 15.54-.23 6.05-2.8 11.83-7.26 16.29-4.62 4.62-10.86 7.27-17.13 7.27-5.64 0-10.87-2.11-14.7-5.95-4.05-4.05-6.16-9.57-5.93-15.54.23-6.05 2.8-11.83 7.26-16.29 4.62-4.62 10.86-7.27 17.13-7.27v-2.6m0 0c-6.72 0-13.63 2.7-18.97 8.03-10.17 10.17-10.76 26.07-1.32 35.5 4.49 4.49 10.44 6.71 16.54 6.71 6.72 0 13.63-2.7 18.97-8.03 10.17-10.17 10.76-26.07 1.32-35.5-4.49-4.49-10.44-6.71-16.54-6.71z" fill="#434343" opacity=".2"/><path d="M122.76 122.64a4.273 4.273 0 0 1-6.03 0l-18.22-18.22a4.273 4.273 0 0 1 0-6.03 4.273 4.273 0 0 1 6.03 0l18.22 18.22c1.65 1.66 1.65 4.38 0 6.03z" fill="#fecc81"/><path d="M101.52 99.15c.61 0 1.18.23 1.6.66l18.22 18.22c.88.88.88 2.32 0 3.2-.42.42-.99.66-1.6.66s-1.18-.23-1.6-.66l-18.22-18.22c-.42-.42-.66-.99-.66-1.6s.23-1.18.66-1.6.99-.66 1.6-.66m0-2c-1.09 0-2.19.41-3.01 1.24a4.273 4.273 0 0 0 0 6.03l18.22 18.22c.83.83 1.92 1.24 3.01 1.24s2.19-.41 3.01-1.24a4.273 4.273 0 0 0 0-6.03l-18.22-18.22a4.263 4.263 0 0 0-3.01-1.24z" fill="#434343" opacity=".2"/></svg>