<svg width="128" height="128" xmlns="http://www.w3.org/2000/svg" width="512px" height="512px"><linearGradient id="a" gradientUnits="userSpaceOnUse" x1="56.126" x2="56.126" y1="35.067" y2="123.133"><stop offset=".005" stop-color="#eee"/><stop offset=".282" stop-color="#eaeaea"/><stop offset=".577" stop-color="#ddd"/><stop offset=".879" stop-color="#c8c8c8"/><stop offset="1" stop-color="#bdbdbd"/></linearGradient><path d="M86.43 35H25.72l-4.93-.26 1.2 72.43c0 12.19 21.45 16.68 34.51 16.68s34.08-4.7 34.08-16.89l.88-72.2-5.03.24z" fill="url(#a)"/><path d="M23.83 37.74l1.89.26h60.72l2-.25-.85 69.3c0 5.13-5.57 8.32-10.24 10.15-6.89 2.69-15.29 3.62-20.85 3.62-5.62 0-14.11-.96-21.09-3.62-4.76-1.81-10.42-4.92-10.42-10.07l-1.16-69.39m-3.05-3l1.2 72.43c0 12.19 21.45 16.68 34.51 16.68 13.06 0 34.08-4.7 34.08-16.89l.88-72.2-5.02.24H25.72l-4.94-.26zM91.47 34z" fill="#424242" opacity=".2"/><linearGradient id="b" gradientUnits="userSpaceOnUse" x1="56.08" x2="56.08" y1="61.75" y2="116.005"><stop offset="0" stop-color="#ffb300"/><stop offset="1" stop-color="#ffea00"/></linearGradient><path d="M84.3 61.8l-.33 40.43c-.27 2.27-2.13 4.46-4.67 5.62-4.55 2.09-13.44 4.14-23.28 4.14-9.4 0-17.4-1.87-22.04-3.84-2.94-1.24-5.31-3.74-5.67-5.89l-.45-40.46H84.3z" fill="url(#b)"/><ellipse cx="56.07" cy="61.8" rx="28.23" ry="6.97" fill="#e4a324"/><g fill="#e4a324"><circle cx="43.22" cy="104.92" r="1.35"/><circle cx="40.23" cy="101.21" r=".93"/><circle cx="46.2" cy="99.48" r="1.63"/><circle cx="40.53" cy="97.8" r="1.68"/><circle cx="45.91" cy="90.61" r="1.35"/><circle cx="42.36" cy="91.26" r="1.2"/><circle cx="37.27" cy="83.53" r="1.2"/><circle cx="48.78" cy="76.4" r="1.52"/><circle cx="41.16" cy="87.41" r="1.86"/><circle cx="46.01" cy="81.71" r="1.82"/><circle cx="39.81" cy="79.49" r="1.35"/></g><g><linearGradient id="c" gradientUnits="userSpaceOnUse" x1="103.921" x2="103.921" y1="41.895" y2="103.193"><stop offset=".005" stop-color="#eee"/><stop offset=".282" stop-color="#eaeaea"/><stop offset=".577" stop-color="#ddd"/><stop offset=".879" stop-color="#c8c8c8"/><stop offset="1" stop-color="#bdbdbd"/></linearGradient><path d="M87.91 75.83l-.24 26.34 2.92 3.33s2.94-2.44 13.67-4.98c12.33-2.92 15.21-7.76 15.86-29.04.75-24.4-5.77-26.7-13.12-27.98-8.58-1.49-12.45-6.23-12.45-6.23l-6.36 4.35-.28 34.21zm8.59-4.85c0-8.13 0-14.72 6.23-14.72s6.23 6.59 6.23 14.72 0 14.72-6.23 14.72c-5.85-.01-6.23-6.6-6.23-14.72z" fill="url(#c)"/><path d="M94.26 41.11c2.2 1.78 6.21 4.3 12.23 5.35 3.74.65 5.93 1.44 7.59 3.99 2.37 3.65 3.36 10.5 3.04 20.94-.64 20.9-3.31 23.79-13.55 26.22-6.34 1.5-10.16 2.99-12.35 4.06l-.54-.61.23-25.2.27-32.64 3.08-2.11m8.47 47.58c2.94 0 6.77-1.12 8.33-6.47.9-3.08.9-7.05.9-11.25s0-8.17-.9-11.25c-1.56-5.35-5.39-6.47-8.33-6.47-2.94 0-6.77 1.12-8.33 6.47-.9 3.08-.9 7.05-.9 11.25 0 7.06 0 17.72 9.23 17.72m-8.18-51.42l-6.36 4.35-.28 34.21-.24 26.34 2.92 3.33s2.94-2.44 13.67-4.98c12.33-2.92 15.21-7.76 15.86-29.04.75-24.4-5.77-26.7-13.12-27.98-8.58-1.49-12.45-6.23-12.45-6.23zm8.18 48.42c-5.85 0-6.23-6.59-6.23-14.72s0-14.72 6.23-14.72 6.23 6.59 6.23 14.72 0 14.72-6.23 14.72z" fill="#424242" opacity=".2"/></g><path d="M74.85 104.91a3.995 3.995 0 0 1-4.51-3.96v-36.1a3.996 3.996 0 0 1 7.99 0v36.1c0 2.01-1.49 3.7-3.48 3.96z" opacity=".51" fill="#fff" fill-opacity=".72"/><g><linearGradient id="d" gradientUnits="userSpaceOnUse" x1="11.996" x2="97.547" y1="34.625" y2="34.625"><stop offset=".005" stop-color="#eee"/><stop offset=".282" stop-color="#eaeaea"/><stop offset=".577" stop-color="#ddd"/><stop offset=".879" stop-color="#c8c8c8"/><stop offset="1" stop-color="#bdbdbd"/></linearGradient><path d="M80.01 8.66c1.05.78 2.03 1.7 3.28 2.08 2.11.64 4.36-.23 6.56.65 6.21 2.48 9.12 7.6 6.8 13.82-.78 2.08.03 3.08.58 5.12 1.49 5.63-2.44 12.72-8.65 13.4-3.71.4-7.29-1.35-10.91-.96-3.05.33-4.63 3.16-7.33 4.21-2.55 1-5.41 1.25-8.13 1.17-3.65-.11-8.43-2.95-11.78-.32-5.17 4.06-1.8 12.45-7.99 16.13-2.53 1.51-5.99 1.15-8.39-.37-4.62-2.91-3.51-8.93-4.84-13.41-.35-1.19-.83-2.28-1.89-3.01s-2.24-.54-3.4-.99c-1.57-.61-3.05-1.45-4.24-2.64-1.39-1.4-.39-4.01-2.71-4.46-.71-.14-1.65-.54-2.2-.96-3.01-2.27-3.67-6.84-1.49-9.91.8-1.13 1.41-1.44 1.58-2.83.16-1.26-.12-2.36.36-3.65 1.18-3.18 4.07-5.18 7.31-6.05.6-.16 1.24-.3 1.86-.41 1.04-.19 1.9-.23 2.71-1 .41-.39.73-.96 1.02-1.44.82-1.3 1.92-2.34 3.13-3.27 3.6-2.78 8.39-3.42 12.84-2.8 1.21.16 2.27.57 3.42.99 2.87 1.04 3.99-.85 6.29-2.06 2.86-1.51 6.29-1.55 9.42-1.09 1.84.27 3.2 1.36 4.86 2.05 1.92.81 3 .22 4.91.09 1.71-.12 3.53.31 5.14.86.67.22 1.29.62 1.88 1.06z" fill="url(#d)"/><path d="M59.9 7.33c.89 0 1.85.08 2.87.22.71.1 1.4.47 2.28.94.55.29 1.17.62 1.85.91 1.04.44 2.07.66 3.13.66.74 0 1.4-.1 1.98-.19.4-.06.78-.12 1.17-.15.12-.01.25-.01.38-.01.98 0 2.19.24 3.59.72.34.12.75.4 1.06.64.19.14.37.29.56.43.94.74 2.11 1.65 3.65 2.11 1.13.34 2.19.39 2.98.39.32 0 .65-.01.97-.02.27-.01.55-.02.82-.02.73 0 1.17.06 1.54.21 2.87 1.15 7.35 3.97 5.11 9.99-.96 2.58-.35 4.37.14 5.81.13.38.25.74.36 1.13.55 2.07.04 4.59-1.34 6.59-.7 1.03-2.26 2.79-4.74 3.06-.26.03-.55.04-.84.04-1.19 0-2.47-.24-3.82-.49-1.54-.29-3.13-.59-4.84-.59-.48 0-.95.02-1.41.07-2.65.28-4.45 1.74-5.89 2.91-.81.65-1.51 1.22-2.21 1.49-1.67.65-3.72.98-6.09.98-.29 0-.57 0-.85-.01-.86-.03-1.99-.31-3.19-.6-1.58-.39-3.37-.84-5.18-.84-2.07 0-3.87.59-5.36 1.75-3.33 2.62-4.04 6.44-4.62 9.51-.61 3.29-1.06 5.21-3.06 6.4-.6.36-1.35.54-2.18.54a5.95 5.95 0 0 1-3.07-.87c-1.92-1.21-2.28-3.4-2.7-6.88-.19-1.6-.39-3.25-.86-4.82-.43-1.47-1.16-3.33-3.07-4.65-1.19-.82-2.36-1.01-3.21-1.14-.34-.05-.63-.1-.81-.17-1.32-.51-2.34-1.13-3.12-1.88-.05-.15-.12-.48-.17-.7-.26-1.2-.86-4.03-4.16-4.67-.33-.06-.83-.3-.98-.41-1.69-1.27-2.09-4.03-.86-5.77.17-.23.32-.42.46-.59.6-.73 1.42-1.73 1.66-3.61.08-.66.08-1.22.08-1.73 0-.62 0-.96.11-1.26 1.03-2.78 4.03-3.86 5.28-4.19.46-.12.99-.24 1.61-.35.13-.02.26-.04.38-.06 1.06-.18 2.5-.42 3.84-1.69.66-.62 1.1-1.35 1.42-1.88l.09-.15c.53-.84 1.3-1.63 2.43-2.49 2.57-1.98 5.74-2.39 7.95-2.39.86 0 1.75.06 2.66.19.79.11 1.6.4 2.53.74l.26.09c.89.33 1.74.48 2.58.48 2.16 0 3.64-1.04 4.82-1.87.45-.31.87-.61 1.31-.84 1.26-.68 2.85-1.02 4.72-1.02m0-3c-2.12 0-4.24.36-6.12 1.34-1.83.97-2.91 2.37-4.73 2.37-.46 0-.97-.09-1.56-.3-1.14-.42-2.21-.83-3.42-.99-1.01-.14-2.03-.21-3.05-.21-3.5 0-7 .87-9.78 3.02-1.22.93-2.31 1.97-3.13 3.27-.29.48-.61 1.05-1.02 1.44-.8.77-1.66.81-2.71 1-.62.11-1.26.25-1.86.41-3.23.87-6.13 2.87-7.31 6.05-.48 1.29-.2 2.38-.36 3.65-.17 1.39-.78 1.71-1.58 2.83-2.17 3.07-1.51 7.64 1.49 9.91.56.42 1.49.82 2.2.96 2.32.45 1.32 3.06 2.71 4.46 1.19 1.2 2.67 2.04 4.24 2.64 1.16.45 2.34.25 3.4.99 1.06.73 1.54 1.82 1.89 3.01 1.34 4.47.23 10.49 4.84 13.41 1.34.85 3.01 1.34 4.67 1.34 1.3 0 2.6-.3 3.72-.97 6.19-3.68 2.82-12.07 7.99-16.13 1.05-.83 2.25-1.11 3.5-1.11 2.74 0 5.77 1.36 8.28 1.44.31.01.63.01.94.01 2.43 0 4.92-.3 7.18-1.19 2.7-1.05 4.28-3.89 7.33-4.21.36-.04.72-.06 1.09-.06 2.87 0 5.73 1.08 8.67 1.08.39 0 .77-.02 1.16-.06 6.21-.68 10.14-7.77 8.65-13.4-.55-2.05-1.36-3.04-.58-5.12 2.31-6.22-.6-11.34-6.8-13.82-.88-.35-1.77-.42-2.66-.42-.6 0-1.2.03-1.79.03-.71 0-1.42-.05-2.11-.26-1.25-.38-2.23-1.29-3.28-2.08-.59-.44-1.2-.84-1.89-1.08-1.42-.48-3.01-.88-4.55-.88-.19 0-.39.01-.58.02-1.17.08-2.02.33-2.95.33-.59 0-1.21-.1-1.96-.42-1.66-.69-3.02-1.78-4.86-2.05-1.08-.15-2.2-.25-3.31-.25z" fill="#424242" opacity=".2"/></g></svg>