<svg width="128" height="128" xmlns="http://www.w3.org/2000/svg"><linearGradient id="a" gradientUnits="userSpaceOnUse" x1="63.934" x2="63.934" y1="58.395" y2="123.981"><stop offset="0" stop-color="#757575"/><stop offset=".213" stop-color="#9e9e9e"/><stop offset=".447" stop-color="#c3c3c3"/><stop offset=".663" stop-color="#dfdfdf"/><stop offset=".855" stop-color="#efefef"/><stop offset="1" stop-color="#f5f5f5"/></linearGradient><path d="M67.23 111.29l-3.29 12.46-3.29-12.46V58.58c.83 0 2.6.14 3.29.14.83 0 2.6 0 3.29-.14v52.71z" fill="url(#a)"/><radialGradient id="b" cx="54.101" cy="20.788" gradientUnits="userSpaceOnUse" r="38.832"><stop offset=".096" stop-color="#f44336"/><stop offset=".234" stop-color="#ec3e32"/><stop offset=".454" stop-color="#d42f29"/><stop offset=".673" stop-color="#b71c1c"/><stop offset=".967" stop-color="#c62828"/></radialGradient><path d="M91.77 32.09v1.39c-.83 13.78-11.69 25.05-25.47 26.31-.83.14-1.53.14-2.37.14-.83 0-1.53 0-2.23-.14-13.78-1.25-24.64-12.25-25.47-26.31v-1.39c-.14-15.31 12.39-27.84 27.7-27.84s27.84 12.39 27.84 27.84z" fill="url(#b)"/><path d="M63.86 7.25c13.7 0 24.84 11.14 24.84 24.84v1.3c-.77 12.01-9.97 21.8-21.92 23.29-1.5.19-2.63 1.46-2.63 2.98v51.24l-.29 1.11-.29-1.11V59.64c0-1.51-1.12-2.78-2.62-2.98-11.89-1.53-21.04-11.32-21.79-23.28v-1.33c-.05-6.55 2.48-12.75 7.14-17.45 4.69-4.74 10.93-7.35 17.56-7.35m0-3c-15.31 0-27.84 12.53-27.7 27.84v1.39c.81 13.69 11.14 24.45 24.41 26.16v51.65l3.29 12.46 3.29-12.46V59.66c13.33-1.67 23.73-12.71 24.54-26.18v-1.39C91.7 16.64 79.17 4.25 63.86 4.25z" fill="#424242" opacity=".2"/></svg>