<svg width="128" height="128" xmlns="http://www.w3.org/2000/svg" width="512px" height="512px"><radialGradient id="a" cx="68" cy="64.667" gradientTransform="matrix(.6516 .7586 -.5017 .4309 56.134 -14.783)" gradientUnits="userSpaceOnUse" r="68.55"><stop offset="0" stop-color="#ef5350"/><stop offset=".626" stop-color="#d83534"/><stop offset=".736" stop-color="#d32f2f"/><stop offset="1" stop-color="#d32f2f"/></radialGradient><path d="M74.06 115.46c11.38 11.38 30.01 11.38 41.4 0 11.38-11.38 11.38-30.01 0-41.4L84.7 43.3 43.3 84.7l30.76 30.76z" fill="url(#a)"/><radialGradient id="b" cx="16.667" cy="15.667" gradientTransform="rotate(45.001 12.638 13.998) scale(1 .787)" gradientUnits="userSpaceOnUse" r="66.946"><stop offset="0" stop-color="#ffeb3b"/><stop offset=".349" stop-color="#fee439"/><stop offset=".67" stop-color="#fdd835"/><stop offset=".995" stop-color="#fbc02d"/></radialGradient><path d="M84.7 43.3L53.94 12.54c-11.38-11.38-30.01-11.38-41.4 0-11.38 11.38-11.38 30.01 0 41.4L43.3 84.7l41.4-41.4z" fill="url(#b)"/><g opacity=".2"><path d="M33.24 7c7.04 0 13.64 2.72 18.58 7.66l30.76 30.76 30.76 30.76c4.94 4.94 7.66 11.54 7.66 18.58 0 7.04-2.72 13.64-7.66 18.58-4.94 4.94-11.54 7.66-18.58 7.66s-13.64-2.72-18.58-7.66L45.42 82.58 14.66 51.82C9.72 46.88 7 40.28 7 33.24s2.72-13.64 7.66-18.58C19.6 9.72 26.2 7 33.24 7m0-3c-7.5 0-15.01 2.85-20.7 8.54-11.38 11.38-11.38 30.01 0 41.4L43.3 84.7l30.76 30.76c5.69 5.69 13.2 8.54 20.7 8.54s15.01-2.85 20.7-8.54c11.38-11.38 11.38-30.01 0-41.4L84.7 43.3 53.94 12.54C48.25 6.85 40.74 4 33.24 4z" fill="#424242"/></g><path opacity=".2" fill="#424242" d="M86.82 45.425l-41.4 41.4-2.122-2.121 41.4-41.4z"/></svg>