<svg width="128" height="128" xmlns="http://www.w3.org/2000/svg"><path fill="#424242" d="M26.33 16.42h74.57v12.31H26.33z"/><path fill="#424242" d="M20.09 50.7l7.95-25.18v-9.1h-6.8L5.47 50.7zM122.46 50.7l-15.78-34.28h-6.79v9.1l7.95 25.18z"/><path d="M92.59 61.09H35.48c-2.21 0-4-1.79-4-4V11.17c0-2.21 1.79-4 4-4h57.11c2.21 0 4 1.79 4 4v45.92c0 2.21-1.79 4-4 4z" fill="#f9a825"/><path d="M99.37 70.55H28.3c-2.21 0-4-1.79-4-4v-44.6c0-2.21 1.79-4 4-4h71.07c2.21 0 4 1.79 4 4v44.6c0 2.21-1.8 4-4 4z" fill="#fdd835"/><linearGradient id="a" gradientUnits="userSpaceOnUse" x1="63.831" x2="63.831" y1="28.499" y2="86.604"><stop offset=".008" stop-color="#fff59d"/><stop offset=".165" stop-color="#fff297"/><stop offset=".371" stop-color="#feeb87"/><stop offset=".603" stop-color="#fdde6c"/><stop offset=".853" stop-color="#fccc47"/><stop offset="1" stop-color="#fbc02d"/></linearGradient><path d="M106.55 86.71H21.11c-2.21 0-4-1.79-4-4V32.73c0-2.21 1.79-4 4-4h85.45c2.21 0 4 1.79 4 4V82.7a4.016 4.016 0 0 1-4.01 4.01z" fill="url(#a)"/><path d="M75.99 14.81H58.71c-1.66 0-3-1.34-3-3V7.45c0-1.66 1.34-3 3-3h17.27c1.66 0 3 1.34 3 3v4.36c.01 1.65-1.34 3-2.99 3z" fill="#4480f7"/><path d="M43.47 26.59c-2.48 0-4.5-2.02-4.5-4.5v-4.36c0-2.48 2.02-4.5 4.5-4.5h17.36c2.48 0 4.5 2.02 4.5 4.5v4.36c0 2.48-2.02 4.5-4.5 4.5H43.47z" fill="#2ca94f"/><path d="M60.83 14.73c1.66 0 3 1.34 3 3v4.36c0 1.66-1.34 3-3 3H43.47c-1.66 0-3-1.34-3-3v-4.36c0-1.66 1.34-3 3-3h17.36m0-3H43.47c-3.31 0-6 2.69-6 6v4.36c0 3.31 2.69 6 6 6h17.36c3.31 0 6-2.69 6-6v-4.36c0-3.31-2.69-6-6-6z" fill="#fdd835"/><g><path d="M29.33 36.95c-2.21 0-4-1.79-4-4v-4.36c0-2.21 1.79-4 4-4h18.18c2.21 0 4 1.79 4 4v4.36c0 2.21-1.79 4-4 4H29.33z" fill="#ec4431"/><path d="M47.5 25.59c1.66 0 3 1.34 3 3v4.36c0 1.66-1.34 3-3 3H29.33c-1.66 0-3-1.34-3-3v-4.36c0-1.66 1.34-3 3-3H47.5m0-2H29.33c-2.76 0-5 2.24-5 5v4.36c0 2.76 2.24 5 5 5H47.5c2.76 0 5-2.24 5-5v-4.36c0-2.76-2.24-5-5-5z" fill="#fff59d"/></g><path d="M108.86 50.59H19.07"/><linearGradient id="b" gradientUnits="userSpaceOnUse" x1="63.963" x2="63.963" y1="51.59" y2="122.947"><stop offset=".008" stop-color="#757575"/><stop offset="1" stop-color="#424242"/></linearGradient><path fill="url(#b)" d="M5.47 50.7l6.8 73.27h103.39l6.8-73.27"/><g opacity=".2"><path d="M75.88 7.73c.11 0 .16.09.17.16a3.002 3.002 0 0 0 2.97 2.56h13.4c.69 0 1.25.56 1.25 1.25v5.01c0 1.66 1.34 3 3 3h8.17l14.64 31.8-6.48 69.75H15.07L8.6 51.5l14.64-31.8h8.32c1.66 0 3-1.34 3-3v-5c0-.69.56-1.25 1.25-1.25h20.03c1.49 0 2.75-1.09 2.97-2.56.01-.06.06-.16.17-.16h16.9m0-3h-16.9c-1.6 0-2.91 1.18-3.14 2.72H35.81c-2.35 0-4.25 1.9-4.25 4.25v5.01H21.31L5.54 50.98l6.8 73.28h103.39l6.8-73.28-15.77-34.28H96.67v-5c0-2.35-1.9-4.25-4.25-4.25h-13.4a3.178 3.178 0 0 0-3.14-2.72z" fill="#eee"/></g><linearGradient id="c" gradientUnits="userSpaceOnUse" x1="63.831" x2="63.831" y1="69.465" y2="90.043"><stop offset="0" stop-color="#fafafa"/><stop offset=".263" stop-color="#efefef"/><stop offset=".726" stop-color="#d2d2d2"/><stop offset="1" stop-color="#bdbdbd"/></linearGradient><path fill="url(#c)" stroke="#bdbdbd" stroke-width="3" stroke-miterlimit="10" d="M87.18 90.9h-46.7l-1.06-21.75h48.82z"/></svg>