<svg width="128" height="128" xmlns="http://www.w3.org/2000/svg"><linearGradient id="a" gradientUnits="userSpaceOnUse" x1="64" x2="64" y1="4.25" y2="124.409"><stop offset="0" stop-color="#40c4ff"/><stop offset=".352" stop-color="#2db5f9"/><stop offset="1" stop-color="#0091ea"/></linearGradient><path d="M116 124H12c-4.42 0-8-3.58-8-8V12c0-4.42 3.58-8 8-8h104c4.42 0 8 3.58 8 8v104c0 4.42-3.58 8-8 8z" fill="url(#a)"/><path d="M116 7c2.76 0 5 2.24 5 5v104c0 2.76-2.24 5-5 5H12c-2.76 0-5-2.24-5-5V12c0-2.76 2.24-5 5-5h104m0-3H12c-4.42 0-8 3.58-8 8v104c0 4.42 3.58 8 8 8h104c4.42 0 8-3.58 8-8V12c0-4.42-3.58-8-8-8z" fill="#424242" opacity=".2"/><g opacity=".2" fill="#424242"><path d="M43.98 12c2.06 0 4.02 1.62 4.02 4.01V30c0 1.1.9 2 2 2h34c15.46 0 28 14.33 28 32 0 3.23-.42 6.35-1.2 9.29 0 .01-.02.02-.02.03L96 60c-.45-10.49-7.18-12-12-12H50c-1.1 0-2 .9-2 2v13.99c0 2.39-1.96 4.01-4.02 4.01-.9 0-1.82-.31-2.61-1l-24-23.99a4.001 4.001 0 0 1 0-6.02l24-23.99c.78-.69 1.7-1 2.61-1m0-3c-1.68 0-3.3.62-4.59 1.74l-.07.07-.07.07-23.94 23.93A6.978 6.978 0 0 0 13 40c0 1.98.84 3.87 2.31 5.19l23.94 23.93.07.07.08.07A6.933 6.933 0 0 0 43.98 71c3.87 0 7.02-3.14 7.02-7.01V51h33c6.04 0 8.73 2.73 9 9.13l.05 1.26.93.84 14.78 13.32 2.87 2.59 1.56-2.97.27-.25.24-.86c.86-3.25 1.3-6.64 1.3-10.06 0-19.3-13.91-35-31-35H51V16.01C51 12.14 47.85 9 43.98 9z"/><path d="M17.22 54.68L32 68c.45 10.49 7.18 12 12 12h34c1.1 0 2-.9 2-2V64.01c0-2.39 1.96-4.01 4.02-4.01.9 0 1.82.31 2.61 1l24 23.99a4.001 4.001 0 0 1 0 6.02l-24 23.99c-.79.69-1.71 1-2.61 1-2.06 0-4.02-1.62-4.02-4.01V98c0-1.1-.9-2-2-2H44c-15.46 0-28-14.33-28-32 0-3.23.42-6.35 1.2-9.29 0-.02.02-.02.02-.03m-.86-4.82l-1.56 2.97-.27.25-.24.86C13.44 57.19 13 60.58 13 64c0 19.3 13.91 35 31 35h33v12.99c0 3.86 3.15 7.01 7.02 7.01 1.68 0 3.3-.62 4.59-1.74l.07-.07.07-.07 23.94-23.93A6.994 6.994 0 0 0 115 88c0-1.98-.84-3.87-2.31-5.19L88.76 58.88l-.07-.07-.08-.07A6.978 6.978 0 0 0 84.02 57C80.15 57 77 60.14 77 64.01V77H44c-6.04 0-8.73-2.73-9-9.13l-.05-1.26-.93-.84-14.79-13.32-2.87-2.59z"/></g><g fill="#fafafa"><path d="M41.37 67c2.59 2.26 6.63.43 6.63-3.01V50c0-1.1.9-2 2-2h34c4.82 0 11.55 1.51 12 12l14.78 13.32c.01-.01.02-.02.02-.03.78-2.94 1.2-6.06 1.2-9.29 0-17.67-12.54-32-28-32H50c-1.1 0-2-.9-2-2V16.01c0-3.44-4.05-5.27-6.63-3.01l-24 23.99a4.001 4.001 0 0 0 0 6.02l24 23.99z"/><path d="M86.63 61c-2.58-2.27-6.63-.43-6.63 3.01V78c0 1.1-.9 2-2 2H44c-4.82 0-11.55-1.51-12-12L17.22 54.68c-.01.01-.02.02-.02.03A36.22 36.22 0 0 0 16 64c0 17.67 12.54 32 28 32h34c1.1 0 2 .9 2 2v13.99c0 3.44 4.05 5.27 6.63 3.01l24-23.99a4.001 4.001 0 0 0 0-6.02L86.63 61z"/></g></svg>