<svg viewBox="0 0 128 128" xmlns="http://www.w3.org/2000/svg" xmlns:xlink="http://www.w3.org/1999/xlink" width="512px" height="512px"><path d="M76.14 38.52l-4.21-.2s-1.72-.17-2.53-1.42c-2.19-3.38-2.29-11.67-1.98-18.03.04-.92.62-8.89 9.38-8.89.24 0 .49.01.74.02 3 .15 5.32 1.11 6.89 2.86 2.44 2.72 2.29 6.51 2.27 6.93-.31 6.37-1.2 14.61-3.71 17.76-.92 1.15-2.59 1.16-2.66 1.16l-4.19-.19z" fill="#312D2D"/><path d="M76.81 10.29c.23 0 .48.01.72.02 2.92.14 5.17 1.07 6.69 2.76 2.36 2.63 2.21 6.3 2.18 6.73-.43 8.93-1.73 15.17-3.65 17.58-.83 1.04-2.41 1.05-2.4 1.05l-4.21-.21-4.18-.2c-.02 0-1.59-.17-2.31-1.28-1.68-2.58-2.36-8.92-1.93-17.86.05-.88.6-8.59 9.09-8.59m0-.6c-9.42 0-9.68 9.03-9.68 9.18-.3 6.08-.25 14.7 2.02 18.2.9 1.39 2.76 1.55 2.76 1.55l4.2.2 4.2.21c.09 0 1.89-.02 2.9-1.28 2.6-3.26 3.48-11.84 3.78-17.92.01-.15.72-9.63-9.44-10.12-.24-.01-.49-.02-.74-.02z"/><linearGradient id="a" x1="76.232" x2="52.051" y1="38.936" y2="98.149" gradientTransform="rotate(4.48 77.107 63.852)" gradientUnits="userSpaceOnUse"><stop stop-color="#BD161D" offset=".003"/><stop stop-color="#D21920" offset=".19"/><stop stop-color="#E11B22" offset=".399"/><stop stop-color="#EA1C24" offset=".643"/><stop stop-color="#ED1C24" offset="1"/></linearGradient><path d="M52.11 97.99c-4.08 0-6.03-2.23-6.83-3.56-1.19-1.99-1.35-4.41-.4-6.18 1.35-2.53 1.66-4.59.94-6.31-.75-1.79-2.57-3.1-5.58-4-1.71-.51-2.84-1.27-3.26-2.2-.28-.62-.19-1.18-.11-1.45l18.96-14.07 21.21-19 12.01-1.34c1.5 13.77-5.32 37.54-10.49 44.5-4.14 5.56-6.42 11.04-7.23 13.16-1.09-.49-2.36-.74-3.79-.74-2.38 0-4.57.71-5.36.99l-4.55-1.57-.32.19c-.57.33-1.11.68-1.63 1.07-1.25.33-2.45.51-3.57.51z" fill="url(#a)"/><path d="M88.32 40.77c1.24 14.42-5.91 37.06-10.41 43.11-3.76 5.06-6.02 10.05-7.03 12.59-1-.33-2.11-.5-3.33-.5-2.27 0-4.34.59-5.36.94l-3.92-1.35-.71-.24-.65.38c-.55.32-1.07.66-1.58 1.03-1.14.3-2.22.45-3.23.45-3.68 0-5.42-1.98-6.13-3.17-1.03-1.72-1.18-3.88-.38-5.38 1.47-2.76 1.79-5.05.97-7-.85-2.03-2.84-3.49-6.1-4.47-1.43-.43-2.4-1.04-2.73-1.71-.13-.26-.14-.51-.13-.69l18.71-13.88.06-.04.06-.05 20.97-18.8 10.92-1.22m1.45-1.8L76.7 40.42 55.35 59.55 36.18 73.78s-1.54 3.33 3.82 4.94c5.37 1.61 6.62 4.5 4.15 9.14-2.13 3.99.59 10.94 7.95 10.94 1.2 0 2.51-.18 3.95-.59.51-.38 1.06-.75 1.67-1.11l4.47 1.54c.17-.07 2.63-1.04 5.35-1.04 1.44 0 2.95.27 4.24 1.1 0 0 2.28-6.9 7.43-13.84 5.17-6.94 12.5-31.73 10.56-45.89z" fill="#A8141A"/><path d="M91.01 15.08s2.74 1.39 2.77 2.87l2.31 11.16-7.7 15-.03-.07c-.47 3.01-1.27 7.23-2.57 12.18-1.35 5.12-3.05 8.08-3.05 8.08l-15.78-4.65-.89-7.67c-.63.64-1.48 1.02-2.36 1.02-.28 0-.55-.04-.83-.11l-.53-.34c-1.76-.49-3.33-2.25-2.82-4.11l4.58-12.54a3.518 3.518 0 0 1 2.49-2.49c1.94-.99 4.82-1.4 7.62-1.4.75 0 1.49.03 2.21.09 2.93.23 6.59 1.47 9.2 2.98l3.4-6.79c.24-.42-.58-10.46-.58-10.46a2.634 2.634 0 0 1 2.56-2.75m0-.99h-.02c-2.01.04-3.6 1.73-3.56 3.75v.06c.35 4.32.67 9.15.62 10.06l-2.87 5.74c-2.71-1.4-6.02-2.4-8.69-2.61-.76-.06-1.53-.09-2.29-.09-1.88 0-5.4.19-7.97 1.47-1.48.42-2.65 1.61-3.08 3.12l-4.57 12.5c-.01.03-.02.05-.02.08-.67 2.44 1.2 4.61 3.36 5.29l.42.27c.08.05.17.09.26.12.36.1.73.15 1.1.15.53 0 1.06-.11 1.56-.31l.71 6.08c.05.4.32.73.71.84l15.78 4.65c.09.03.19.04.28.04.35 0 .68-.18.86-.5.07-.13 1.78-3.14 3.15-8.32 1.06-4.02 1.91-8.04 2.54-11.93l7.69-14.98c.1-.2.14-.43.09-.65l-2.29-11.09c-.13-1.92-2.77-3.35-3.31-3.63-.15-.07-.31-.11-.46-.11z" fill="#1278C9"/><linearGradient id="b" x1="64.958" x2="60.616" y1="41.402" y2="50.954" gradientTransform="rotate(4.48 77.107 63.852)" gradientUnits="userSpaceOnUse"><stop stop-color="#2A82FF" offset="0"/><stop stop-color="#1599FF" offset=".357"/><stop stop-color="#05A9FF" offset=".719"/><stop stop-color="#00AFFF" offset=".997"/></linearGradient><path d="M59.16 48.5l4.63-12.54c.52-1.87 2.4-2.99 4.17-2.5 1.78.49 2.81 2.42 2.29 4.29l-3.53 12.71c-.52 1.87-2.4 2.99-4.17 2.5l-.54-.34c-1.77-.5-3.36-2.26-2.85-4.12z" fill="url(#b)"/><linearGradient id="c" x1="43.815" x2="62.871" y1="45.723" y2="45.723" gradientTransform="matrix(.9897 .0591 -.0616 1.0326 4.937 -5.986)" gradientUnits="userSpaceOnUse"><stop stop-color="#ED1C24" offset="0"/><stop stop-color="#EA1C24" offset=".357"/><stop stop-color="#E11B22" offset=".601"/><stop stop-color="#D21920" offset=".81"/><stop stop-color="#BD161D" offset=".997"/></linearGradient><path d="M63.8 54.06c-2.16-.35-4.61-1.37-7.14-2.97-4.3-2.71-8.46-6.9-9.88-9.97-.98-2.12-1.18-3.8-.57-4.86.56-.96 1.68-1.24 2.52-1.31.27-.02.51-.03.74-.03.92 0 1.53.18 1.85.55.62.72.38 2.36.07 4.43-.08.54-.16 1.11-.24 1.71-.04.35.1.72.42 1.1.83 1 3.05 2.24 4.66 2.34 1.94.12 3.32.5 4.36 1.22l.06.05c1.68 1.21 2.56 3.34 3.15 7.74z" fill="url(#c)"/><path d="M49.47 35.47c.51 0 1.17.06 1.43.36.46.53.21 2.21-.05 3.99-.08.54-.17 1.12-.24 1.72-.06.5.12 1.02.54 1.52.92 1.11 3.28 2.43 5.05 2.54 1.8.11 3.09.46 4.03 1.09l.01.01.1.07c1.43 1.02 2.25 2.92 2.81 6.59-1.9-.43-4.01-1.37-6.2-2.75-4.78-3.01-8.49-7.17-9.67-9.73-.89-1.92-1.1-3.47-.59-4.35.44-.75 1.38-.98 2.09-1.04.24-.01.47-.02.69-.02m0-1.11c-.24 0-.5.01-.79.04-2.74.23-4.61 2.21-2.41 6.95 1.4 3.01 5.47 7.3 10.09 10.2 2.66 1.68 5.48 2.89 8.08 3.14-.55-4.55-1.39-7.33-3.46-8.82l-.01-.01c-1.14-.82-2.66-1.24-4.7-1.36-1.78-.11-4.68-1.9-4.56-2.82.55-4.4 1.58-7.32-2.24-7.32z" fill="#A8141A"/><linearGradient id="d" x1="72.204" x2="97.78" y1="67.781" y2="67.781" gradientTransform="rotate(-3.714 445.519 324.514)" gradientUnits="userSpaceOnUse"><stop stop-color="#00AFFF" offset=".003"/><stop stop-color="#0CA2FF" offset=".368"/><stop stop-color="#2A82FF" offset="1"/></linearGradient><path d="M67.54 80.88c-.85 4.7-7.2 19.31-7.2 19.31l4.84 2.5 10.13-19.57c0 .01-4.69-1.16-7.77-2.24z" fill="url(#d)"/><path d="M72.4 60.38c-.04-.03-.09-.06-.14-.09-.28-.18-.55-.38-.82-.59-.54-.41-1.07-.82-1.59-1.25-.5-.45-1.02-.88-1.49-1.37l.03-.04c1.05.83 2.15 1.6 3.26 2.34.44.3.89.58 1.35.85l-.6.15z" fill="#D91A3D"/><linearGradient id="e" x1="74.436" x2="74.436" y1="32.3" y2="63.94" gradientTransform="rotate(4.48 77.107 63.852)" gradientUnits="userSpaceOnUse"><stop stop-color="#00AFFF" offset=".003"/><stop stop-color="#04A8FC" offset=".239"/><stop stop-color="#1095F3" offset=".579"/><stop stop-color="#2476E4" offset=".982"/><stop stop-color="#2574E3" offset="1"/></linearGradient><path d="M63.95 36.4l2.75 23.32 15.97 4.65s1.72-2.96 3.08-8.09c2.66-10 3.24-17.06 3.24-17.06.27-3.47-7.38-6.68-12.73-7.09-5.31-.4-12.02.59-12.31 4.27z" fill="url(#e)"/><linearGradient id="f" x1="73.765" x2="73.765" y1="32.645" y2="37.155" gradientTransform="matrix(.9003 .0705 -.0915 1.1676 12.711 -11.551)" gradientUnits="userSpaceOnUse"><stop stop-color="#BD161D" offset=".003"/><stop stop-color="#D21920" offset=".19"/><stop stop-color="#E11B22" offset=".399"/><stop stop-color="#EA1C24" offset=".643"/><stop stop-color="#ED1C24" offset="1"/></linearGradient><path d="M77.93 37.27c-.31 0-.63-.01-.97-.04-8.2-.61-9.22-4.16-9.34-5.28 1.66-.56 2.83-.93 5.05-.93 1.13 0 2.53.1 4.25.31 4.5.54 6.82 1.97 7.56 2.52-.43.91-2.03 3.42-6.55 3.42z" fill="url(#f)"/><path d="M72.67 31.54c1.11 0 2.48.1 4.19.3 3.77.45 5.97 1.56 6.94 2.17-.61.98-2.2 2.73-5.87 2.73-.3 0-.62-.01-.93-.04-6.96-.52-8.46-3.17-8.79-4.41 1.4-.45 2.52-.75 4.46-.75m0-1.04c-2.47 0-3.72.45-5.58 1.08 0 0-.43 5.41 9.83 6.17.35.03.69.04 1.01.04 5.89 0 7.18-4.1 7.18-4.1s-2.3-2.18-8.12-2.87c-1.82-.22-3.2-.32-4.32-.32z" fill="#A8141A"/><path d="M62.43 83.34l-3.44 5.01c-1.05 1.53-5.06 5.07-6.85 4.28s.26-6.57 1.3-8.09l3.44-5.01c1.05-1.53 3.15-1.92 4.68-.87s1.92 3.16.87 4.68z" fill="#91001F" stroke="#590B0D" stroke-miterlimit="10" stroke-width="1.089"/><path d="M76.54 35.55l-.49-.03c-.58-.04-1.11-.29-1.5-.7-.38-.41-.57-.94-.53-1.48l.17-2.56 4.83.32-.17 2.56c-.07 1.07-1.01 1.9-2.15 1.9 0 0-.1 0-.16-.01z" fill="#EDC391"/><path d="M74.47 31.1l4.22.28-.15 2.26c-.06.91-.87 1.62-1.85 1.62h-.14l-.49-.03c-1.03-.07-1.82-.9-1.75-1.86l.16-2.27m-.56-.64l-.19 2.86c-.09 1.29.95 2.41 2.31 2.5l.49.03c.06 0 .12.01.17.01 1.29 0 2.36-.95 2.45-2.18l.19-2.86-5.42-.36z" fill="#D9AC77"/><defs><path id="g" d="M76.62 30.64l-2.71-.18-.19 2.86c-.09 1.29.95 2.41 2.31 2.5l.49.03c1.36.09 2.54-.88 2.62-2.18l.19-2.86-2.71-.17z"/></defs><clipPath id="h"><use xlink:href="#g"/></clipPath><g clip-path="url(#h)"><path d="M76.45 33.24c-1.99-.13-2.68-.73-2.68-.73l-.19 2.86c-.09 1.29.95 2.41 2.31 2.5l.49.03c1.36.09 2.54-.88 2.62-2.18l.19-2.86c.01.01-.75.51-2.74.38z"/></g><linearGradient id="i" x1="210.8" x2="236.53" y1="-3.864" y2="-3.864" gradientTransform="matrix(.5008 -.7888 .8442 .536 -44.176 250.66)" gradientUnits="userSpaceOnUse"><stop stop-color="#2A82FF" offset="0"/><stop stop-color="#0CA2FF" offset=".632"/><stop stop-color="#00AFFF" offset=".997"/></linearGradient><path d="M75.41 64.8l-10.9 15.84c-1.71 2.37-4.84 2.41-6.38 1.66-1.53-.75-2.67-3.92-1.4-5.91 3.72-5.83 9.88-17.17 9.88-17.17l8.8 5.58z" fill="url(#i)"/><linearGradient id="j" x1="266.9" x2="292.66" y1="6.832" y2="6.832" gradientTransform="matrix(.272 -.8939 .9567 .2911 -9.253 324.67)" gradientUnits="userSpaceOnUse"><stop stop-color="#2A82FF" offset="0"/><stop stop-color="#0CA2FF" offset=".632"/><stop stop-color="#00AFFF" offset=".997"/></linearGradient><path d="M81.86 66.57l-6.82 18.61c-.68 2.25-3.21 3.45-5.34 2.85s-3.68-2.66-2.99-4.92c2.03-6.61 5.18-19.57 5.18-19.57l9.97 3.03z" fill="url(#j)"/><path d="M66.62 59.22l8.19 5.2 7.05 2.14-6.82 18.61c-.33 1.1-1.11 1.94-2.06 2.45l-7.8 15.07-4.84-2.5s4.21-9.69 6.23-15.82c-.02-.41.01-.83.14-1.26.79-2.58 1.75-6.12 2.63-9.48l-4.83 7.02c-1.1 1.53-2.8 2.09-4.28 2.09-.81 0-1.55-.17-2.09-.43-1.53-.75-2.67-3.92-1.4-5.91 3.71-5.84 9.88-17.18 9.88-17.18m0-.99a.987.987 0 0 0-.87.52c-.06.11-6.19 11.38-9.85 17.11-.73 1.14-.9 2.69-.47 4.23.41 1.45 1.26 2.62 2.27 3.11.7.34 1.6.53 2.53.53 2.09 0 3.94-.91 5.09-2.5l1.57-2.28c-.42 1.5-.79 2.8-1.12 3.86-.14.44-.2.9-.19 1.41-2.01 6.03-6.1 15.48-6.15 15.57a.99.99 0 0 0 .46 1.28l4.84 2.5a.986.986 0 0 0 1.33-.43l7.67-14.81c1.09-.67 1.89-1.67 2.25-2.85l6.81-18.58c.09-.26.08-.54-.04-.79-.12-.24-.34-.43-.6-.51l-6.92-2.11-8.08-5.13a1.22 1.22 0 0 0-.53-.13z" fill="#1278C9"/><path d="M93.83 18c-.03-1.48-2.8-2.87-2.8-2.87a2.678 2.678 0 0 0-2.62 2.73s.83 10.04.58 10.47l-3.89 7.45 3.27 8.39 7.79-15.01L93.83 18z" fill="#04AAFF"/><linearGradient id="k" x1="74.42" x2="88.979" y1=".319" y2="21.999" gradientTransform="matrix(.9233 .0745 -.069 .9075 11.838 -2.702)" gradientUnits="userSpaceOnUse"><stop stop-color="#ED1C24" offset="0"/><stop stop-color="#EA1C24" offset=".357"/><stop stop-color="#E11B22" offset=".601"/><stop stop-color="#D21920" offset=".81"/><stop stop-color="#BD161D" offset=".997"/></linearGradient><path d="M96.79 25.23c-.22 0-.46 0-.73-.01-1.84-.05-5.85-.39-7.74-1.02-.11-.9-.53-3.86-1.75-10.49-.79-4.29-2.09-6.05-4.46-6.05-.42 0-.85.05-1.26.1s-.79.09-1.17.09c-.29 0-.55-.03-.78-.09-1.36-.35-2.17-.8-2.41-1.33-.3-.66.19-1.65.76-2.8l.08-.17c.47-.96 1.01-1.38 1.79-1.38 1.52 0 4.06 1.61 7.53 4.77 6.68 6.09 9.1 12.41 10.63 18.37-.13.01-.3.01-.49.01z" fill="url(#k)"/><path d="M79.13 2.59c.96 0 2.99.81 7.2 4.64 6.35 5.79 8.8 11.8 10.32 17.5-.17 0-.36 0-.56-.01-1.72-.04-5.37-.35-7.29-.9-.16-1.2-.61-4.21-1.71-10.2-.84-4.52-2.32-6.46-4.95-6.46-.45 0-.9.05-1.32.1-.39.05-.76.09-1.11.09-.25 0-.47-.02-.66-.07-1.58-.41-1.98-.84-2.08-1.06-.2-.44.28-1.42.75-2.37l.08-.17c.43-.9.85-1.09 1.33-1.09m0-1c-1.11 0-1.76.68-2.24 1.65-1.14 2.31-2.08 3.98 1.89 5.01.3.08.6.11.91.11.81 0 1.64-.2 2.43-.2 1.61 0 3.08.8 3.97 5.64 1.5 8.13 1.78 10.77 1.78 10.77 1.93.77 6.52 1.11 8.18 1.16.27.01.52.01.74.01.69 0 1.13-.03 1.13-.03-1.58-6.4-4.1-12.99-10.92-19.21-3.96-3.62-6.34-4.91-7.87-4.91z" fill="#A8141A"/><linearGradient id="l" x1="54.385" x2="68.29" y1="125.79" y2="97.751" gradientTransform="rotate(4.48 77.107 63.852)" gradientUnits="userSpaceOnUse"><stop stop-color="#B00026" offset=".003"/><stop stop-color="#BA0526" offset=".26"/><stop stop-color="#D61225" offset=".701"/><stop stop-color="#ED1C24" offset="1"/></linearGradient><path d="M48.94 125.84c-.73 0-1.43-.4-2.15-1.21-1.91-2.17 1.72-6.58 5.22-10.85 2.6-3.16 5.28-6.43 5.99-9.12.01-.06 1.1-4.5 2.27-6.77 1.26-1.09 4.01-3.43 5.55-3.43.33 0 .56.11.74.34.6.75 1 3.02-.46 9.51-2.33 2.19-5.53 5.82-7.71 9.63l-.91 1.6c-2.72 4.83-5.82 10.3-8.54 10.3z" fill="url(#l)"/><path d="M65.83 95.06c.17 0 .21.04.27.11.26.33.99 1.94-.54 8.82-2.35 2.23-5.52 5.85-7.68 9.65-.3.53-.61 1.06-.91 1.6-2.52 4.45-5.66 9.99-8.03 9.99-.54 0-1.09-.33-1.69-1-1.57-1.78 2.05-6.18 5.24-10.06 2.76-3.36 5.37-6.53 6.12-9.38.01-.04 1.05-4.28 2.17-6.52 1.09-.95 3.77-3.21 5.05-3.21m0-1.22c-1.59 0-3.92 1.83-6.04 3.66-1.24 2.33-2.38 7-2.38 7-1.65 6.28-14.89 16.21-11.08 20.53.87.99 1.74 1.41 2.6 1.41 3.39 0 6.77-6.57 10-12.2 2.24-3.92 5.57-7.61 7.73-9.62 1.88-8.2 1.05-10.78-.83-10.78z" fill="#A8141A"/><linearGradient id="m" x1="72.309" x2="83.399" y1="34.334" y2="34.334" gradientTransform="rotate(1.335 -341.979 -30.204)" gradientUnits="userSpaceOnUse"><stop stop-color="#BD161D" offset=".003"/><stop stop-color="#D21920" offset=".19"/><stop stop-color="#E11B22" offset=".399"/><stop stop-color="#EA1C24" offset=".643"/><stop stop-color="#ED1C24" offset="1"/></linearGradient><path fill="url(#m)" d="M70.77 40.61l11.07.82-6 6.02z"/><path d="M71.57 41.06l9.41.69-5.11 5.12-4.3-5.81m-1.6-.89l5.83 7.87 6.91-6.93-12.74-.94z" fill="#FFC003"/><path d="M65.79 32.21c1.88-1 1.71-.67 1.71-.67l1.96 4.08s-1.67-1-2.75-2.62c-.64-.95-2.21.42-2.21.42s.41-.74 1.29-1.21z" fill="#A8141A"/><path fill="#C62828" stroke="#A8141A" stroke-miterlimit="10" stroke-width="1.022" d="M82.28 67.85l-17.36-6.93 1.16-3.17 17.44 6.83z"/><path d="M76.68 61.46c.19.32.25.72.11 1.1l-.65 1.84c-.08.23-.22.42-.39.56h-.01c-.33.27-.79.37-1.23.22l-2.75-.97c-.41-.14-.69-.46-.8-.84a1.3 1.3 0 0 1 .02-.78l.65-1.84c.12-.33.36-.58.65-.72.3-.14.64-.17.97-.05l2.75.97c.31.09.53.28.68.51z" fill="#FFC003" stroke="#F7931E" stroke-miterlimit="10"/><linearGradient id="n" x1="77.056" x2="77.056" y1="34.629" y2="15.528" gradientTransform="rotate(3.308 119.623 23.605)" gradientUnits="userSpaceOnUse"><stop stop-color="#FFD29C" offset="0"/><stop stop-color="#FFD39E" offset=".024"/><stop stop-color="#FCD8AF" offset=".316"/><stop stop-color="#FADCBA" offset=".629"/><stop stop-color="#F9DDBD" offset="1"/></linearGradient><path d="M76.48 32.3c-.57-.03-1.21-.19-1.85-.46-2.75-1.16-5.86-4.41-5.55-9.76.39-6.8 4.58-9.21 8.05-9.21.16 0 .32 0 .48.01 2.15.12 4.07 1.07 5.39 2.67 1.5 1.81 2.2 4.39 2.02 7.45-.31 5.36-3.78 8.23-6.65 9.06-.58.17-1.12.25-1.63.25-.01 0-.18-.01-.26-.01z" fill="url(#n)"/><path d="M77.13 13.16c.15 0 .31 0 .46.01 3.54.2 7.53 2.89 7.13 9.8-.3 5.2-3.65 7.98-6.44 8.79-.55.16-1.07.24-1.55.24-.08 0-.15 0-.23-.01-.53-.03-1.14-.18-1.75-.44-2.66-1.12-5.67-4.27-5.37-9.46.24-4.12 2.41-8.93 7.75-8.93m0-.6c-4.11 0-7.97 2.99-8.35 9.5-.31 5.44 2.87 8.85 5.74 10.05.68.29 1.35.45 1.95.49.09 0 .17.01.26.01.53 0 1.11-.09 1.72-.26 2.99-.86 6.55-3.88 6.87-9.33.39-6.77-3.4-10.19-7.69-10.44-.17-.01-.34-.02-.5-.02z" fill="#EDBD82"/><path d="M77.82 25.61c-.03-.01-.05-.02-.08-.02l-1.74-.1c-.03 0-.05.01-.08.02-.16.05-.26.21-.19.39.06.18.38.69 1.08.73s1.07-.43 1.16-.6c.08-.18.01-.34-.15-.42z" fill="#DBA689"/><ellipse transform="rotate(-86.692 72.95 23.033)" cx="72.95" cy="23.03" rx="1.26" ry="1.22" fill="#312D2D"/><ellipse transform="rotate(-86.692 81.06 23.504)" cx="81.06" cy="23.5" rx="1.26" ry="1.22" fill="#312D2D"/><radialGradient id="o" cx="73.069" cy="20.692" r="1.409" gradientUnits="userSpaceOnUse"><stop stop-color="#454140" offset=".09"/><stop stop-color="#454140" offset="1"/></radialGradient><path d="M74.88 20.88c-.21-.32-.72-.8-1.76-.86s-1.6.35-1.85.65c-.11.13-.09.29-.03.39.06.09.25.18.47.12s.65-.25 1.35-.22c.7.05 1.11.29 1.32.37.21.09.41.02.48-.07.08-.09.12-.24.02-.38z" fill="url(#o)"/><radialGradient id="p" cx="81.177" cy="21.161" r="1.409" gradientUnits="userSpaceOnUse"><stop stop-color="#454140" offset=".09"/><stop stop-color="#454140" offset="1"/></radialGradient><path d="M82.99 21.34c-.21-.32-.72-.8-1.76-.86s-1.6.35-1.85.65c-.11.13-.09.29-.03.39.06.09.25.18.47.12s.65-.25 1.35-.22c.7.05 1.11.29 1.32.37.21.09.41.02.48-.07.08-.08.12-.23.02-.38z" fill="url(#p)"/><path d="M78.83 27.69c-.81.42-3.39.27-4.15-.24-.44-.29-.92.09-.76.51.16.41 1.51 1.43 2.73 1.5 1.21.07 2.65-.78 2.86-1.18.22-.39-.21-.83-.68-.59z" fill="#424242"/><defs><path id="q" d="M68.19 30.24l.37-12.86c.24-4.23 4.37-7.22 8.6-6.98l1.23.07c4.23.24 7.93 3.69 7.69 7.92l-1.11 12.75-16.78-.9z"/></defs><clipPath id="r"><use xlink:href="#q"/></clipPath><g clip-path="url(#r)"><radialGradient id="s" cx="243.84" cy="-10.826" r="12.049" gradientTransform="matrix(.7947 .046 -.046 .7947 -116.42 5.843)" gradientUnits="userSpaceOnUse"><stop stop-color="#454140" offset="0"/><stop stop-color="#312D2D" offset="1"/></radialGradient><path d="M86.69 19.74s.77-8.86-8.92-9.42-9.99 8.33-9.99 8.33-.57 11.35.06 12.87 1.71 1.53 1.71 1.53-.12-6.65 0-9.77c.03-.73-.04-3.44 1.5-3.69 5.65-.93 8.98-3.71 8.98-3.71.72 1.84 3.18 3.74 4.07 4.46.73.59.49 2.83.42 3.79l-1.32 9.7s1.16.16 1.99-1.3c.83-1.47 1.5-12.79 1.5-12.79z" fill="url(#s)"/></g></svg>